<svg xmlns="http://www.w3.org/2000/svg" xmlns:xlink="http://www.w3.org/1999/xlink" viewBox="0 0 34 34"><defs><style>.cls-1{fill:url(#linear-gradient);}.cls-2{fill:url(#linear-gradient-2);}</style><linearGradient id="linear-gradient" x1="1.73" y1="4.77" x2="32.27" y2="4.77" gradientUnits="userSpaceOnUse"><stop offset="0" stop-color="#f9e1a2"/><stop offset="1" stop-color="#b4882d"/></linearGradient><linearGradient id="linear-gradient-2" x1="0" y1="22.27" x2="34" y2="22.27" xlink:href="#linear-gradient"/></defs><title>Asset 9 1</title><g id="Layer_2" data-name="Layer 2"><g id="Layer_1-2" data-name="Layer 1"><path class="cls-1" d="M32.27,9.53H1.73a17,17,0,0,1,30.54,0Z"/><path class="cls-2" d="M32.72,10.53H28.2c0,3.87-2.41,5.38-5.38,5.38s-5.39-1.51-5.39-5.38H16c0,3.87-2.41,5.38-5.39,5.38S5.25,14.4,5.25,10.53h-4A16.82,16.82,0,0,0,0,17a17,17,0,0,0,34,0A16.82,16.82,0,0,0,32.72,10.53Zm-13.25,14a10.27,10.27,0,0,1-3.71.68A12.09,12.09,0,0,1,10.62,24l.44-.9a10.45,10.45,0,0,0,8.06.47,9.93,9.93,0,0,0,4.29-3.22l.79.61A10.79,10.79,0,0,1,19.47,24.54Z"/></g></g></svg>