<svg xmlns="http://www.w3.org/2000/svg" xmlns:xlink="http://www.w3.org/1999/xlink" viewBox="0 0 37.57 37.57"><defs><style>.cls-1{fill:url(#linear-gradient);}</style><linearGradient id="linear-gradient" x1="-358.82" y1="-64.74" x2="175" y2="53.89" gradientUnits="userSpaceOnUse"><stop offset="0" stop-color="#f9e1a2"/><stop offset="1" stop-color="#b4882d"/></linearGradient></defs><title>Asset 4</title><g id="Layer_2" data-name="Layer 2"><g id="Layer_1-2" data-name="Layer 1"><path class="cls-1" d="M25.22,37.36a3.38,3.38,0,0,1-.56.18.92.92,0,0,1-1.19-1c0-1.4,0-2.81,0-4.21,0-1.61,0-3.21-1.21-4.54.71-.13,1.35-.22,2-.37,4.11-1,6.24-3.62,6.51-8a8.28,8.28,0,0,0-1.71-6.07.75.75,0,0,1-.06-.59,7.58,7.58,0,0,0-.18-4.32A.54.54,0,0,0,28.18,8a6.44,6.44,0,0,0-3.29,1.17A3.36,3.36,0,0,1,22,9.66a16,16,0,0,0-7.38.18,1.32,1.32,0,0,1-.91-.18A11.6,11.6,0,0,0,10,8c-1-.21-1.12-.15-1.39.86a7.29,7.29,0,0,0,0,3.86.8.8,0,0,1-.12.63c-2.72,3.11-1.73,9,.1,11.24A8.73,8.73,0,0,0,14,27.57l1.1.19c-.31.84-.6,1.63-.92,2.41a.78.78,0,0,1-.42.34,3.79,3.79,0,0,1-5-1.7,3.92,3.92,0,0,0-2.65-2,.36.36,0,0,0-.11,0L5,27c.18.26.31.61.55.76a5.53,5.53,0,0,1,2.13,2.72,4.1,4.1,0,0,0,3.77,2.68c.85.07,1.71,0,2.64,0,0,1.09,0,2.33,0,3.56,0,.67-.68.93-1.46.66A16.87,16.87,0,0,1,7,34.22c-6-5.29-8.3-12-6.31-19.8S7.85,1.83,15.58.33c10.7-2.07,20.83,5.91,21.89,17A19.25,19.25,0,0,1,25.22,37.36ZM15.14,27.72l0,0h.06S15.2,27.8,15.14,27.72ZM10.3,31.19a2.39,2.39,0,0,0,.51.3c.07,0,.19-.13.4-.3a3.6,3.6,0,0,0-.66-.25C10.47,30.94,10.38,31.1,10.3,31.19Zm1.52.27a.47.47,0,0,0,.38.26c.13,0,.25-.17.38-.27L12,30.9C11.91,31.13,11.79,31.31,11.82,31.46ZM13.69,31a1.49,1.49,0,0,0-.43.29l.3.38.44-.41C13.89,31.16,13.77,31,13.69,31Zm-4.64-.65a4.3,4.3,0,0,0,.41.55c.12-.21.26-.36.23-.39a2.07,2.07,0,0,0-.43-.4S9,30.31,9.05,30.35Z"/></g></g></svg>