<svg xmlns="http://www.w3.org/2000/svg" xmlns:xlink="http://www.w3.org/1999/xlink" viewBox="0 0 34 34"><defs><style>.cls-1{fill:url(#linear-gradient);}</style><linearGradient id="linear-gradient" x1="-16.19" y1="-15.81" x2="43.09" y2="43.47" gradientUnits="userSpaceOnUse"><stop offset="0" stop-color="#f9e1a2"/><stop offset="1" stop-color="#b4882d"/></linearGradient></defs><title>gitHub</title><g id="Layer_2" data-name="Layer 2"><g id="Layer_1-2" data-name="Layer 1"><path class="cls-1" d="M22.83,33.81a3.06,3.06,0,0,1-.5.17.83.83,0,0,1-1.07-.91c0-1.27,0-2.54,0-3.81a5.52,5.52,0,0,0-1.1-4.11c.64-.12,1.22-.2,1.78-.33,3.72-.88,5.65-3.28,5.9-7.27A7.49,7.49,0,0,0,26.29,12a.68.68,0,0,1-.05-.53,6.86,6.86,0,0,0-.16-3.91.49.49,0,0,0-.58-.4,5.83,5.83,0,0,0-3,1.06,3,3,0,0,1-2.65.48,14.49,14.49,0,0,0-6.68.16,1.2,1.2,0,0,1-.82-.16A10.5,10.5,0,0,0,9.09,7.27c-.93-.19-1-.14-1.26.78a6.6,6.6,0,0,0,0,3.49.72.72,0,0,1-.11.57c-2.46,2.82-1.57,8.14.09,10.18A7.91,7.91,0,0,0,12.69,25l1,.17c-.28.76-.54,1.48-.83,2.18a.7.7,0,0,1-.38.31,3.43,3.43,0,0,1-4.54-1.54,3.54,3.54,0,0,0-2.4-1.82.33.33,0,0,0-.1,0l-.88.24c.16.23.28.55.5.69A5,5,0,0,1,7,27.64a3.71,3.71,0,0,0,3.41,2.43c.77.06,1.55,0,2.39,0,0,1,0,2.11,0,3.22,0,.6-.62.84-1.32.6A15.27,15.27,0,0,1,6.34,31C.92,26.18-1.17,20.13.63,13S7.11,1.66,14.1.3C23.79-1.58,33,5.65,33.92,15.73A17.42,17.42,0,0,1,22.83,33.81ZM13.7,25.09l0,0h.05S13.76,25.16,13.7,25.09ZM9.32,28.23a2.17,2.17,0,0,0,.46.27c.06,0,.17-.12.37-.27a3.26,3.26,0,0,0-.6-.22C9.48,28,9.39,28.15,9.32,28.23Zm1.38.24a.43.43,0,0,0,.34.23c.11,0,.23-.16.34-.25L10.85,28C10.78,28.17,10.67,28.34,10.7,28.47Zm1.69-.42a1.35,1.35,0,0,0-.39.26l.27.35.4-.37C12.57,28.2,12.46,28,12.39,28.05Zm-4.2-.59a3.89,3.89,0,0,0,.37.5c.11-.19.23-.33.21-.36a1.88,1.88,0,0,0-.39-.36S8.18,27.43,8.19,27.47Z"/></g></g></svg>