<svg xmlns="http://www.w3.org/2000/svg" xmlns:xlink="http://www.w3.org/1999/xlink" viewBox="0 0 39.14 39.14"><defs><style>.cls-1,.cls-2,.cls-3,.cls-4{fill-rule:evenodd;}.cls-1{fill:url(#linear-gradient);}.cls-2{fill:url(#linear-gradient-2);}.cls-3{fill:url(#linear-gradient-3);}.cls-4{fill:url(#linear-gradient-4);}</style><linearGradient id="linear-gradient" x1="-287.6" y1="-48.69" x2="246.22" y2="69.94" gradientUnits="userSpaceOnUse"><stop offset="0" stop-color="#f9e1a2"/><stop offset="1" stop-color="#b4882d"/></linearGradient><linearGradient id="linear-gradient-2" x1="-285.87" y1="-56.46" x2="247.95" y2="62.17" xlink:href="#linear-gradient"/><linearGradient id="linear-gradient-3" x1="-287.6" y1="-48.69" x2="246.22" y2="69.94" xlink:href="#linear-gradient"/><linearGradient id="linear-gradient-4" x1="-288.26" y1="-45.71" x2="245.56" y2="72.92" xlink:href="#linear-gradient"/></defs><title>Asset 5</title><g id="Layer_2" data-name="Layer 2"><g id="Layer_1-2" data-name="Layer 1"><path class="cls-1" d="M19.57,23.49a3.91,3.91,0,1,0-3.92-3.92A3.92,3.92,0,0,0,19.57,23.49Z"/><polygon class="cls-2" points="28.13 14.78 28.13 11.49 28.13 11.01 27.64 11.01 24.35 11.02 24.37 14.79 28.13 14.78"/><path class="cls-3" d="M30.7,17.29V26.4a4.31,4.31,0,0,1-4.3,4.3H12.74a4.31,4.31,0,0,1-4.3-4.3V12.74a4.31,4.31,0,0,1,4.3-4.3H26.4a4.31,4.31,0,0,1,4.3,4.3ZM19.57,0A19.57,19.57,0,1,0,39.14,19.57,19.59,19.59,0,0,0,19.57,0Z"/><path class="cls-4" d="M25.66,19.57a6.09,6.09,0,1,1-11.73-2.28H10.61V26.4a2.13,2.13,0,0,0,2.13,2.13H26.4a2.13,2.13,0,0,0,2.13-2.13V17.29H25.21A6,6,0,0,1,25.66,19.57Z"/></g></g></svg>