<svg xmlns="http://www.w3.org/2000/svg" xmlns:xlink="http://www.w3.org/1999/xlink" viewBox="0 0 34 34"><defs><style>.cls-1{fill:url(#linear-gradient);}</style><linearGradient id="linear-gradient" x1="-3.18" y1="-0.63" x2="42.27" y2="39.07" gradientUnits="userSpaceOnUse"><stop offset="0" stop-color="#f9e1a2"/><stop offset="1" stop-color="#b4882d"/></linearGradient></defs><title>linkedIn</title><g id="Layer_2" data-name="Layer 2"><g id="Layer_1-2" data-name="Layer 1"><path class="cls-1" d="M17,0A17,17,0,1,0,34,17,17,17,0,0,0,17,0ZM12.84,24.62h-4v-12h4Zm-2.36-14h0c-1.36,0-2.25-.5-2.25-1.68S9.11,7,10.5,7s2.24.6,2.27,1.8S11.89,10.62,10.48,10.62Zm17.36,14h-4V18.84a2.47,2.47,0,0,0-2.44-2.76c-1.12,0-1.44.75-1.74,1.48-.11.26.17.62.17,1v6.07H14.75s.05-11,0-12h5.08v2.27c0-.83,1.34-2,3.49-2,2.67,0,4.51,1.75,4.51,5.5Z"/></g></g></svg>