<svg xmlns="http://www.w3.org/2000/svg" xmlns:xlink="http://www.w3.org/1999/xlink" viewBox="0 0 34 34"><defs><style>.cls-1{fill:url(#linear-gradient);}.cls-2{fill:none;stroke:#fff;stroke-miterlimit:10;stroke-width:0.5px;}</style><linearGradient id="linear-gradient" y1="17" x2="34" y2="17" gradientUnits="userSpaceOnUse"><stop offset="0" stop-color="#f9e1a2"/><stop offset="1" stop-color="#b4882d"/></linearGradient></defs><title>portfolio</title><g id="Layer_2" data-name="Layer 2"><g id="Layer_1-2" data-name="Layer 1"><circle class="cls-1" cx="17" cy="17" r="17"/><circle class="cls-2" cx="17" cy="17.06" r="10.79"/><path class="cls-2" d="M11,8a14.61,14.61,0,0,1,2.41,3.88,15.88,15.88,0,0,1,.92,2.93,16.86,16.86,0,0,1,.36,3.46,16.44,16.44,0,0,1-.93,5.49,17.57,17.57,0,0,1-1.54,3"/><path class="cls-2" d="M7,13.14"/><path class="cls-2" d="M23.05,8.2a13.82,13.82,0,0,0-3.91.62h0a14.9,14.9,0,0,0-5.67,3,13.27,13.27,0,0,0-2.29,2.53,12.1,12.1,0,0,0-2,4.92A11.81,11.81,0,0,0,9,21.25a14.07,14.07,0,0,0,.38,3.44"/><path class="cls-2" d="M23.85,25.35a16.73,16.73,0,0,1-3.11.29,13.79,13.79,0,0,1-3.61-.48,13.63,13.63,0,0,1-3.34-1.41A14.13,14.13,0,0,1,6.93,13.35h0"/><path class="cls-2" d="M23.35,8.2"/><path class="cls-2" d="M20.14,6.61"/><path class="cls-2" d="M17,6.15"/><path class="cls-2" d="M15.41,6.27h0"/><path class="cls-2" d="M26.59,12a16.19,16.19,0,0,1-3.72,1.74,21.79,21.79,0,0,1-4.31.94,24.58,24.58,0,0,1-2.84.16c-.46,0-.91,0-1.36,0a22.83,22.83,0,0,1-3.21-.4A19.46,19.46,0,0,1,7,13.14"/><path class="cls-2" d="M17.13,27.73A12.63,12.63,0,0,1,17,26.47a9.32,9.32,0,0,1,.09-1.3,9.57,9.57,0,0,1,3-5.68h0a10.4,10.4,0,0,1,4.14-2.37,10.72,10.72,0,0,1,3.09-.45h.4c0,.06,0,.13,0,.19"/><path class="cls-2" d="M15.73,6.38a16.2,16.2,0,0,1,3.7,2.56l0,0a18,18,0,0,1,3.74,4.9,19.05,19.05,0,0,1,1.39,3.36,20.41,20.41,0,0,1,.9,6"/><path class="cls-2" d="M25.48,23.46l-.32-.05a7.64,7.64,0,0,1-5-3.92h0a12.37,12.37,0,0,1-1.55-4.79,14.26,14.26,0,0,1-.09-1.62,13.43,13.43,0,0,1,.66-4.21.07.07,0,0,1,0,0,11.31,11.31,0,0,1,1-2.21"/></g></g></svg>