<svg xmlns="http://www.w3.org/2000/svg" xmlns:xlink="http://www.w3.org/1999/xlink" viewBox="0 0 34 34"><defs><style>.cls-1{fill:url(#linear-gradient);}.cls-2{fill:url(#linear-gradient-2);}.cls-3{fill:url(#linear-gradient-3);}.cls-4{fill:url(#linear-gradient-4);}.cls-5{fill:url(#linear-gradient-5);}.cls-6{fill:url(#linear-gradient-6);}.cls-7{fill:url(#linear-gradient-7);}.cls-8{fill:url(#linear-gradient-8);}.cls-9{fill:url(#linear-gradient-9);}.cls-10{fill:url(#linear-gradient-10);}.cls-11{fill:url(#linear-gradient-11);}.cls-12{fill:url(#linear-gradient-12);}.cls-13{fill:url(#linear-gradient-13);}.cls-14{fill:url(#linear-gradient-14);}.cls-15{fill:url(#linear-gradient-15);}.cls-16{fill:url(#linear-gradient-16);}.cls-17{fill:url(#linear-gradient-17);}.cls-18{fill:url(#linear-gradient-18);}.cls-19{fill:url(#linear-gradient-19);}.cls-20{fill:url(#linear-gradient-20);}.cls-21{fill:url(#linear-gradient-21);}.cls-22{fill:url(#linear-gradient-22);}</style><linearGradient id="linear-gradient" x1="-10.76" y1="8.37" x2="44.3" y2="9.87" gradientUnits="userSpaceOnUse"><stop offset="0" stop-color="#f9e1a2"/><stop offset="1" stop-color="#b4882d"/></linearGradient><linearGradient id="linear-gradient-2" x1="-10.71" y1="6.63" x2="44.35" y2="8.13" xlink:href="#linear-gradient"/><linearGradient id="linear-gradient-3" x1="-10.96" y1="15.55" x2="44.11" y2="17.05" xlink:href="#linear-gradient"/><linearGradient id="linear-gradient-4" x1="-10.88" y1="12.76" x2="44.18" y2="14.26" xlink:href="#linear-gradient"/><linearGradient id="linear-gradient-5" x1="-11.04" y1="18.54" x2="44.02" y2="20.04" xlink:href="#linear-gradient"/><linearGradient id="linear-gradient-6" x1="-11.15" y1="22.61" x2="43.91" y2="24.11" xlink:href="#linear-gradient"/><linearGradient id="linear-gradient-7" x1="-10.72" y1="6.91" x2="44.34" y2="8.41" xlink:href="#linear-gradient"/><linearGradient id="linear-gradient-8" x1="-10.83" y1="10.97" x2="44.23" y2="12.47" xlink:href="#linear-gradient"/><linearGradient id="linear-gradient-9" x1="-10.84" y1="11.14" x2="44.23" y2="12.64" xlink:href="#linear-gradient"/><linearGradient id="linear-gradient-10" x1="-11.03" y1="18.39" x2="44.03" y2="19.89" xlink:href="#linear-gradient"/><linearGradient id="linear-gradient-11" x1="-10.96" y1="15.65" x2="44.1" y2="17.15" xlink:href="#linear-gradient"/><linearGradient id="linear-gradient-12" x1="-10.82" y1="10.67" x2="44.24" y2="12.17" xlink:href="#linear-gradient"/><linearGradient id="linear-gradient-13" x1="-10.9" y1="13.58" x2="44.16" y2="15.08" xlink:href="#linear-gradient"/><linearGradient id="linear-gradient-14" x1="-11.05" y1="18.93" x2="44.01" y2="20.43" xlink:href="#linear-gradient"/><linearGradient id="linear-gradient-15" x1="-10.8" y1="9.98" x2="44.26" y2="11.48" xlink:href="#linear-gradient"/><linearGradient id="linear-gradient-16" x1="-11.14" y1="22.26" x2="39.62" y2="23.64" xlink:href="#linear-gradient"/><linearGradient id="linear-gradient-17" x1="-10.97" y1="16.24" x2="44.09" y2="17.74" xlink:href="#linear-gradient"/><linearGradient id="linear-gradient-18" x1="-11.06" y1="19.28" x2="44" y2="20.78" xlink:href="#linear-gradient"/><linearGradient id="linear-gradient-19" x1="-11.22" y1="25.13" x2="43.85" y2="26.63" xlink:href="#linear-gradient"/><linearGradient id="linear-gradient-20" x1="-11.05" y1="19.12" x2="44.01" y2="20.62" xlink:href="#linear-gradient"/><linearGradient id="linear-gradient-21" x1="-11.23" y1="25.75" x2="43.83" y2="27.25" xlink:href="#linear-gradient"/><linearGradient id="linear-gradient-22" x1="-11.13" y1="21.78" x2="43.94" y2="23.28" xlink:href="#linear-gradient"/></defs><title>Asset 6 1</title><g id="Layer_2" data-name="Layer 2"><g id="Layer_1-2" data-name="Layer 1"><path class="cls-1" d="M18.76,8.69a15.84,15.84,0,0,0-3.1-2.07,10.45,10.45,0,0,0-4.2,1.5,14.81,14.81,0,0,1,2.09,3.37A15.21,15.21,0,0,1,18.76,8.69Z"/><path class="cls-2" d="M19.72,6.89A10.49,10.49,0,0,0,17,6.52l-.44,0a16.44,16.44,0,0,1,2.52,1.76A11.44,11.44,0,0,1,19.72,6.89Z"/><path class="cls-3" d="M7.21,13.48A14,14,0,0,0,9,18.66a12.27,12.27,0,0,1,1.73-4.08A19.68,19.68,0,0,1,7.21,13.48Z"/><path class="cls-4" d="M11.62,14.23a22.81,22.81,0,0,0,2.42.3,15.61,15.61,0,0,0-.69-2.21A13,13,0,0,0,11.62,14.23Z"/><path class="cls-5" d="M8.88,19.39a14.49,14.49,0,0,1-2-5.11,10.43,10.43,0,0,0,2.09,9.56,16.41,16.41,0,0,1-.2-2.59A12.06,12.06,0,0,1,8.88,19.39Z"/><path class="cls-6" d="M9.31,20a11.67,11.67,0,0,0-.08,1.26,13.81,13.81,0,0,0,.36,3.3,10.59,10.59,0,0,0,2.58,1.87,16.81,16.81,0,0,0,1.32-2.57A14.38,14.38,0,0,1,9.31,20Z"/><path class="cls-7" d="M22.33,8a10.47,10.47,0,0,0-2.12-1,11,11,0,0,0-.65,1.43A13.86,13.86,0,0,1,22.33,8Z"/><path class="cls-8" d="M18.72,13.07c0,.44,0,.88.08,1.33a21.51,21.51,0,0,0,3.92-.86,17.67,17.67,0,0,0-3.41-4.37A13.24,13.24,0,0,0,18.72,13.07Z"/><path class="cls-9" d="M13.74,12a16.16,16.16,0,0,1,.82,2.6,25.24,25.24,0,0,0,3.74-.11c0-.46-.08-.93-.08-1.39a13.7,13.7,0,0,1,.55-3.86A14.81,14.81,0,0,0,13.74,12Z"/><path class="cls-10" d="M9.41,19.28a13.89,13.89,0,0,0,4.24,4.09,16.17,16.17,0,0,0,.82-5.1A16.65,16.65,0,0,0,14.15,15a23.24,23.24,0,0,1-2.87-.36A11.78,11.78,0,0,0,9.41,19.28Z"/><path class="cls-11" d="M24.19,16.88A18.82,18.82,0,0,0,23,14h0a22,22,0,0,1-4.1.9,12.2,12.2,0,0,0,1.35,4.2A10.68,10.68,0,0,1,24.19,16.88Z"/><path class="cls-12" d="M13.14,11.83A14.32,14.32,0,0,0,11,8.39,10.6,10.6,0,0,0,7.28,13a19.26,19.26,0,0,0,3.78,1.15A13.46,13.46,0,0,1,13.14,11.83Z"/><path class="cls-13" d="M24.67,16.75a11,11,0,0,1,2.68-.34h.16a10.45,10.45,0,0,0-1.07-4,16.33,16.33,0,0,1-3,1.42A19.29,19.29,0,0,1,24.67,16.75Z"/><path class="cls-14" d="M25.71,23a10.48,10.48,0,0,0,1.82-5.92s0-.09,0-.14a10.69,10.69,0,0,0-2.7.3A20.62,20.62,0,0,1,25.71,23Z"/><path class="cls-15" d="M23.05,8.45a13.13,13.13,0,0,0-3.29.47,18.28,18.28,0,0,1,3.44,4.45,15.86,15.86,0,0,0,3-1.42A10.61,10.61,0,0,0,23.05,8.45Z"/><polygon class="cls-16" points="25.5 23.26 25.51 23.25 25.51 23.25 25.5 23.26"/><path class="cls-17" d="M17,0A17,17,0,1,0,34,17,17,17,0,0,0,17,0ZM15.41,6.14A8.71,8.71,0,0,1,17.15,6a11,11,0,0,1,11,11A11.08,11.08,0,1,1,15.41,6.14"/><path class="cls-18" d="M24.34,17.35a10.2,10.2,0,0,0-3.89,2.18,7.28,7.28,0,0,0,4.76,3.63h0a20.14,20.14,0,0,0-.87-5.81Z"/><path class="cls-19" d="M13.92,24.11a17.61,17.61,0,0,1-1.3,2.53,10.46,10.46,0,0,0,4.24,1c0-.34-.07-.79-.07-1.13a9.63,9.63,0,0,1,.08-1.12A13.83,13.83,0,0,1,13.92,24.11Z"/><path class="cls-20" d="M18.36,15a24.76,24.76,0,0,1-2.63.14l-1.07,0a17.16,17.16,0,0,1,.31,3.2,16.66,16.66,0,0,1-.88,5.37,13.35,13.35,0,0,0,2.85,1.21,9.86,9.86,0,0,1,2.87-5.41A12.68,12.68,0,0,1,18.36,15Z"/><path class="cls-21" d="M17.37,25.48a9,9,0,0,0-.07,1c0,.33,0,.78.07,1.11A10.47,10.47,0,0,0,23,25.75a18.18,18.18,0,0,1-2.22.15A14.1,14.1,0,0,1,17.37,25.48Z"/><path class="cls-22" d="M20.08,19.88A9.35,9.35,0,0,0,17.43,25a13.6,13.6,0,0,0,3.32.42,16.45,16.45,0,0,0,3.05-.29,10.63,10.63,0,0,0,1.41-1.44h-.09A7.74,7.74,0,0,1,20.08,19.88Z"/></g></g></svg>