<svg xmlns="http://www.w3.org/2000/svg" xmlns:xlink="http://www.w3.org/1999/xlink" viewBox="0 0 39.14 39.14"><defs><style>.cls-1{fill-rule:evenodd;fill:url(#linear-gradient);}</style><linearGradient id="linear-gradient" x1="-217.35" y1="-33.08" x2="316.48" y2="85.55" gradientUnits="userSpaceOnUse"><stop offset="0" stop-color="#f9e1a2"/><stop offset="1" stop-color="#b4882d"/></linearGradient></defs><title>Asset 7</title><g id="Layer_2" data-name="Layer 2"><g id="Layer_1-2" data-name="Layer 1"><path class="cls-1" d="M28.3,15.09c0,.19,0,.39,0,.58A12.81,12.81,0,0,1,8.59,26.47a9.1,9.1,0,0,0,6.67-1.87,4.51,4.51,0,0,1-4.21-3.13,4.52,4.52,0,0,0,2-.08A4.51,4.51,0,0,1,9.48,17s0,0,0-.06a4.49,4.49,0,0,0,2,.56,4.51,4.51,0,0,1-1.39-6,12.79,12.79,0,0,0,9.28,4.71,4.51,4.51,0,0,1,7.68-4.11A9,9,0,0,0,29.94,11a4.52,4.52,0,0,1-2,2.49,9,9,0,0,0,2.59-.71A9.06,9.06,0,0,1,28.3,15.09ZM19.57,0A19.57,19.57,0,1,0,39.14,19.57,19.59,19.59,0,0,0,19.57,0Z"/></g></g></svg>