<?xml version="1.0" standalone="no"?>
<!DOCTYPE svg PUBLIC "-//W3C//DTD SVG 20010904//EN"
 "http://www.w3.org/TR/2001/REC-SVG-20010904/DTD/svg10.dtd">
<svg version="1.0" xmlns="http://www.w3.org/2000/svg"
 width="976.000000pt" height="976.000000pt" viewBox="0 0 976.000000 976.000000"
 preserveAspectRatio="xMidYMid meet">
<metadata>
Created by potrace 1.11, written by Peter Selinger 2001-2013
</metadata>
<g transform="translate(0.000000,976.000000) scale(0.100000,-0.100000)"
fill="#000000" stroke="none">
<path d="M4570 9244 c-19 -2 -91 -9 -160 -15 -526 -45 -1170 -245 -1651 -514
-1106 -619 -1882 -1642 -2169 -2860 -80 -337 -129 -856 -113 -1177 l6 -126 66
-28 c36 -15 69 -30 73 -33 3 -3 -18 -40 -48 -81 -30 -41 -54 -77 -54 -80 0 -4
70 -40 155 -81 l155 -74 -116 -95 c-64 -52 -122 -100 -129 -106 -14 -10 9
-118 75 -359 89 -322 267 -729 452 -1030 102 -167 133 -215 138 -215 3 0 399
394 880 875 l875 875 -33 32 -32 33 -839 -839 -839 -839 -34 54 c-98 153 -221
383 -294 547 l-27 64 846 846 c465 466 1358 1361 1984 1990 l1138 1143 649
-653 c357 -359 1249 -1254 1983 -1988 l1334 -1336 -44 -99 c-66 -150 -244
-477 -298 -545 l-19 -25 -834 840 -834 840 -34 -33 -33 -32 875 -875 c481
-481 878 -874 882 -873 4 2 33 44 64 93 266 421 448 843 569 1321 106 417 152
893 126 1299 -20 320 -56 557 -128 840 -178 707 -501 1312 -1000 1877 -101
114 -343 350 -387 377 -21 12 -32 11 -100 -14 -42 -15 -79 -26 -81 -23 -3 3
-12 47 -21 98 -8 51 -17 96 -19 100 -3 4 -76 -20 -162 -55 -87 -34 -159 -61
-160 -60 -2 1 4 66 12 146 21 210 24 193 -42 236 -32 20 -112 67 -178 104
-535 296 -1171 485 -1777 528 -133 10 -561 13 -648 5z m685 -99 c531 -45 1066
-199 1550 -445 150 -76 310 -165 333 -185 1 -1 -7 -98 -19 -214 -11 -117 -19
-215 -16 -217 2 -2 81 25 176 61 95 36 176 63 181 60 4 -2 13 -47 20 -100 7
-52 15 -95 19 -95 3 0 49 16 101 35 52 19 102 35 111 35 19 0 262 -239 388
-383 259 -294 453 -581 625 -924 236 -471 372 -947 438 -1533 16 -147 16 -639
0 -785 -52 -457 -126 -774 -274 -1164 -9 -24 -23 -11 -287 253 l-279 279 29
106 c84 310 121 595 120 941 0 338 -27 557 -107 873 -132 524 -381 1017 -725
1432 -115 139 -352 372 -494 486 -560 448 -1167 701 -1905 791 -134 17 -612
16 -740 0 -396 -51 -722 -137 -1050 -277 -1009 -429 -1770 -1309 -2056 -2375
-89 -331 -118 -560 -119 -925 0 -352 25 -565 102 -874 l45 -183 -273 -274
c-151 -151 -276 -274 -279 -274 -15 0 -137 379 -193 601 l-14 55 158 130 c87
71 158 132 159 136 0 5 -74 45 -165 90 l-164 83 54 72 c30 40 55 77 55 82 0 5
-43 30 -95 55 l-95 45 0 215 c0 702 149 1332 463 1961 508 1019 1411 1794
2507 2153 186 61 195 63 387 107 243 55 444 84 668 98 148 9 511 5 660 -8z
m-116 -781 l64 -6 -59 -59 -59 -59 325 -325 c256 -256 322 -327 312 -337 -22
-22 -15 -92 12 -121 52 -56 132 -42 162 30 32 74 -19 137 -106 131 l-48 -3
-273 275 c-150 151 -288 292 -307 313 l-35 38 57 58 57 58 117 -18 c130 -20
289 -51 402 -80 l75 -19 138 -138 138 -138 -17 -33 c-14 -28 -14 -37 -2 -69 8
-22 27 -44 47 -55 28 -17 38 -18 71 -8 73 22 95 108 41 162 -29 29 -41 33 -91
30 -19 -1 -50 23 -135 109 -60 60 -107 110 -104 110 10 0 205 -68 271 -95 51
-20 72 -35 87 -60 11 -19 31 -41 46 -51 22 -14 32 -15 65 -5 33 10 43 9 69 -7
l30 -18 -20 -30 c-11 -16 -18 -42 -17 -60 2 -22 -6 -41 -25 -63 -20 -24 -27
-43 -27 -74 0 -40 6 -48 141 -189 l141 -148 67 0 c54 0 71 4 85 19 16 18 19
18 45 3 24 -14 35 -14 70 -4 60 19 90 88 60 143 -8 16 -7 25 7 40 16 18 18 18
63 -19 26 -20 72 -58 101 -84 l55 -48 -22 -22 c-19 -19 -26 -20 -48 -10 -14 7
-37 12 -50 12 -37 0 -85 -48 -92 -92 -5 -33 -2 -41 30 -73 47 -47 95 -49 139
-5 25 26 29 36 27 75 -2 36 2 50 19 67 l22 23 101 -100 c174 -172 345 -385
473 -590 64 -102 66 -107 55 -139 -7 -18 -9 -45 -5 -60 9 -37 53 -76 86 -76
24 0 31 -9 73 -102 36 -78 47 -115 47 -151 0 -41 5 -53 32 -80 21 -21 43 -63
65 -122 18 -49 33 -94 33 -100 0 -5 -96 -105 -212 -222 l-213 -213 -48 0 c-40
0 -54 -5 -78 -29 -79 -79 12 -205 113 -157 56 27 72 80 42 138 l-16 31 208
208 c115 115 212 209 215 209 3 0 11 -24 18 -52 6 -29 14 -62 17 -74 4 -16 -1
-24 -26 -34 -43 -18 -62 -50 -59 -100 3 -40 1 -43 -129 -173 -125 -125 -132
-134 -132 -172 0 -39 -7 -47 -253 -293 l-252 -252 -45 45 -44 45 22 23 c16 17
22 36 22 71 0 39 6 55 30 83 17 18 30 45 30 59 0 87 -102 137 -163 80 -63 -58
-38 -156 43 -173 27 -5 30 -9 30 -46 0 -24 -7 -48 -17 -59 -16 -18 -21 -15
-115 79 -96 95 -98 99 -98 144 l0 46 275 268 275 267 0 402 0 401 -224 224
c-191 191 -224 229 -224 253 1 41 -20 75 -59 94 -49 23 -101 3 -126 -48 -21
-43 -15 -77 20 -113 32 -31 89 -34 125 -6 l24 20 212 -212 212 -212 0 -397 0
-397 -270 -267 c-253 -250 -270 -270 -270 -303 l0 -36 -85 85 -85 85 0 55 0
55 260 260 260 260 0 213 0 213 -209 212 c-196 199 -208 214 -204 243 3 18 0
35 -6 38 -7 5 -11 -2 -11 -19 0 -14 -7 -28 -15 -31 -8 -4 -15 -12 -15 -20 0
-8 -4 -14 -10 -14 -5 0 -10 -5 -10 -11 0 -6 7 -8 17 -5 13 5 69 -45 225 -201
l208 -208 0 -200 0 -200 -260 -260 -260 -260 0 -45 0 -45 -51 52 c-50 50 -51
51 -35 74 9 13 16 39 16 59 0 33 16 51 210 245 l210 210 0 94 0 94 -205 206
-205 207 10 33 c17 60 -31 131 -88 131 -31 0 -79 -26 -92 -49 -20 -39 -12 -91
21 -123 28 -29 34 -30 82 -24 l52 6 198 -198 197 -197 0 -87 0 -86 -215 -209
c-213 -206 -215 -208 -215 -250 0 -23 -5 -45 -11 -49 -6 -4 -40 22 -77 60
l-67 66 103 103 c56 56 102 107 102 113 0 6 -45 53 -100 104 -99 90 -100 93
-85 116 41 64 -5 154 -80 154 -47 0 -71 -14 -91 -52 -35 -68 12 -141 90 -141
43 0 48 -4 138 -94 l93 -93 -95 -95 c-87 -87 -95 -93 -111 -79 -14 12 -16 26
-12 67 5 47 3 55 -23 81 -26 25 -34 28 -81 24 l-52 -5 -127 128 -128 128 74
68 73 68 53 -3 c46 -3 57 0 78 21 33 33 41 70 26 108 -16 38 -49 60 -90 61
-67 2 -108 -49 -96 -120 5 -37 3 -41 -67 -110 l-72 -72 -80 80 -80 80 65 65
c61 61 67 64 95 56 78 -22 150 49 125 124 -6 19 -21 42 -33 50 -26 18 -96 19
-118 2 -35 -27 -51 -93 -29 -127 7 -12 -6 -31 -58 -83 l-66 -67 -73 72 c-40
40 -73 77 -73 82 0 6 28 39 62 73 59 59 65 63 108 63 58 0 99 37 107 97 10 74
-63 127 -134 98 -55 -23 -78 -92 -48 -149 8 -15 15 -30 15 -31 0 -2 -32 -31
-71 -66 l-70 -62 -74 73 -74 73 72 79 c56 61 78 78 99 78 16 0 41 12 60 29 27
24 33 36 33 71 0 72 -76 121 -138 89 -58 -30 -75 -103 -36 -153 l22 -28 -64
-64 c-35 -35 -67 -64 -71 -64 -4 0 -60 53 -125 118 l-117 117 44 3 c37 3 52
10 88 45 37 36 45 40 62 29 63 -39 150 11 150 86 0 69 -57 109 -127 90 -42
-11 -66 -47 -65 -101 1 -35 -5 -48 -36 -79 -33 -35 -40 -38 -93 -38 l-56 0
-156 158 -156 157 149 3 c124 2 150 5 150 17 0 13 -27 15 -167 15 l-167 0 -53
52 -53 52 -53 -52 -53 -53 -295 296 c-163 162 -300 295 -306 295 -5 0 -37 -27
-71 -60 l-61 -59 -36 15 c-30 12 -40 12 -69 0 -68 -28 -87 -100 -41 -154 32
-38 65 -46 109 -28 48 20 70 57 63 105 -4 36 -1 42 49 92 l54 54 290 -290 290
-290 -67 -67 c-37 -38 -72 -68 -78 -68 -6 0 -66 56 -135 125 -104 104 -124
130 -122 151 6 41 -17 81 -55 99 -32 16 -38 16 -78 1 -77 -30 -88 -114 -21
-168 27 -22 85 -23 115 -2 23 16 25 15 150 -110 l126 -126 -190 -190 c-104
-104 -194 -190 -200 -190 -6 0 -40 29 -75 65 l-65 65 37 37 36 36 64 -56 c35
-31 65 -57 68 -57 3 1 34 28 70 60 l65 59 -118 119 c-113 113 -117 119 -108
146 20 52 -35 126 -94 126 -55 0 -112 -72 -99 -125 14 -57 94 -92 146 -64 18
10 30 2 100 -67 44 -44 89 -92 100 -107 l21 -29 -44 -44 -43 -44 -63 62 -63
63 -57 -58 -58 -57 80 -80 79 -80 -54 -55 c-30 -30 -59 -55 -64 -55 -6 0 -46
35 -89 78 l-79 77 -54 -60 -55 -60 83 -78 83 -77 -53 -52 -52 -53 -73 73 c-40
39 -77 72 -83 72 -5 0 -41 -32 -79 -70 l-69 -70 77 -78 77 -78 -53 -52 c-29
-29 -57 -52 -62 -52 -5 0 -18 9 -30 20 l-21 20 -73 -74 c-71 -72 -74 -73 -115
-69 -37 5 -46 1 -74 -27 -43 -42 -43 -86 -2 -133 l29 -34 -36 -34 c-24 -23
-37 -30 -40 -21 -8 21 -46 52 -70 58 -75 19 -142 -58 -115 -130 12 -30 10 -32
-80 -123 l-92 -92 -43 6 c-52 7 -88 -9 -109 -49 -22 -42 -17 -74 18 -113 l31
-37 -221 -221 -222 -222 0 47 c0 47 1 48 125 176 l125 129 0 229 0 229 -385
385 -385 385 0 100 c0 63 -4 105 -12 113 -8 8 2 35 43 108 30 54 59 99 65 101
5 2 164 -152 353 -342 l344 -345 51 0 51 0 172 172 173 173 0 212 0 212 -85
77 c-47 43 -85 83 -85 89 0 5 155 165 345 355 l345 345 -60 53 c-33 29 -60 59
-60 66 0 6 18 30 40 51 l40 39 73 -72 c40 -40 77 -72 82 -72 5 0 35 26 67 57
l58 57 -80 81 -80 80 118 117 c112 112 120 117 187 137 190 55 601 121 753
121 l62 0 0 -52 c0 -52 1 -54 78 -138 79 -84 79 -84 74 -132 -4 -42 -1 -50 26
-78 39 -39 88 -41 130 -5 38 32 46 65 28 110 -20 48 -72 71 -123 54 l-35 -11
-74 73 c-73 73 -74 74 -74 125 0 32 5 54 13 58 13 6 241 -1 346 -10z m-1449
-266 l-105 -101 84 -79 84 -79 -38 -39 c-22 -22 -44 -40 -50 -40 -6 0 -42 32
-80 70 -38 39 -72 70 -76 70 -4 0 -33 -30 -64 -66 l-58 -65 58 -59 58 -59
-341 -348 -342 -348 90 -90 90 -90 0 -195 0 -195 -167 -167 c-153 -153 -171
-168 -203 -168 -33 0 -58 23 -377 342 -189 189 -343 347 -343 352 0 5 19 38
42 73 l41 64 281 -278 281 -278 0 -46 c0 -56 21 -84 75 -100 49 -15 89 4 113
53 33 67 -10 138 -83 138 -23 0 -50 -5 -61 -11 -17 -9 -53 22 -299 263 -154
150 -280 278 -280 284 0 12 128 184 137 184 3 0 41 -36 84 -80 71 -72 83 -80
117 -80 36 0 48 -10 223 -186 l186 -186 -19 -36 c-22 -44 -23 -64 -3 -102 20
-38 72 -56 120 -40 102 34 76 190 -32 190 -36 0 -48 9 -228 190 -184 184 -191
190 -230 190 -37 0 -47 6 -123 83 l-82 82 108 117 c59 64 112 117 117 117 6 1
59 -48 119 -108 l108 -108 -12 -40 c-31 -103 86 -178 161 -104 75 76 -3 200
-102 162 -24 -9 -33 -2 -137 102 -62 62 -112 115 -112 119 0 8 116 120 137
132 12 6 43 -19 129 -105 109 -108 113 -115 112 -154 -1 -51 17 -80 59 -100
28 -14 37 -14 65 -2 37 16 63 42 72 74 11 34 -20 89 -59 107 -42 20 -43 20
-86 -3 l-36 -19 -114 114 c-113 114 -114 115 -93 132 12 9 61 48 109 86 l87
69 106 -106 c84 -84 104 -109 94 -119 -7 -7 -12 -29 -12 -51 0 -75 90 -125
146 -82 18 14 16 15 -23 9 -36 -5 -45 -3 -67 19 -51 51 -25 127 43 127 49 0
83 -34 84 -85 1 -32 2 -34 10 -17 30 67 -66 158 -131 123 -18 -10 -31 0 -114
90 -51 55 -94 103 -95 107 -6 20 239 174 442 277 232 119 233 118 48 -67 -90
-90 -163 -168 -163 -174 0 -6 11 -21 25 -34 14 -13 22 -26 17 -29 -20 -14 -42
-58 -42 -84 0 -34 57 -97 88 -97 97 0 148 105 83 171 -19 19 -40 29 -58 29
-19 0 -38 10 -53 25 l-24 26 184 184 184 184 95 35 c53 19 103 35 111 35 8 0
-32 -45 -90 -101z m1363 -15 c38 -35 6 -123 -44 -123 -23 0 -61 18 -71 34 -30
44 20 124 70 111 15 -4 35 -14 45 -22z m1302 -39 c20 -8 35 -17 32 -20 -8 -8
-55 7 -68 22 -15 18 -10 18 36 -2z m-117 -104 c26 -24 28 -50 7 -89 -33 -65
-128 -36 -128 39 0 63 74 93 121 50z m387 -40 c11 -18 -16 -71 -42 -81 -29
-11 -66 3 -87 33 -21 30 -20 50 5 82 l20 26 49 -25 c27 -14 52 -29 55 -35z
m94 -52 l56 -33 -38 -6 c-50 -8 -77 -36 -84 -86 -4 -32 -1 -44 22 -71 23 -27
33 -32 71 -32 34 0 51 6 69 24 30 31 41 70 26 102 -6 13 -8 24 -5 24 3 0 44
-27 91 -61 79 -57 83 -62 68 -79 -12 -13 -26 -16 -59 -13 -24 3 -53 0 -64 -6
-32 -17 -55 -68 -48 -104 9 -46 -15 -67 -78 -67 l-51 0 -132 132 c-126 126
-133 135 -133 172 0 27 7 47 21 62 l21 22 34 -20 c43 -25 84 -17 119 24 14 16
25 34 25 39 0 14 9 11 69 -23z m81 -78 c37 -37 22 -98 -29 -119 -24 -10 -34
-10 -59 3 -47 24 -53 53 -22 104 16 26 26 32 55 32 22 0 43 -8 55 -20z m-3484
-103 c53 -46 24 -127 -44 -127 -63 0 -87 89 -36 129 34 27 47 26 80 -2z m690
-35 c36 -24 44 -92 14 -122 -42 -42 -120 -7 -120 54 0 48 69 93 106 68z m1856
-59 c24 -22 23 -78 -2 -103 -43 -43 -130 -8 -130 51 0 45 42 83 83 75 17 -3
39 -14 49 -23z m1108 7 c22 -22 26 -69 10 -100 -14 -27 -65 -35 -95 -16 -31
20 -40 51 -25 86 20 48 76 64 110 30z m190 -175 c32 -17 45 -44 34 -77 -26
-86 -134 -72 -134 17 0 37 28 75 55 75 9 0 29 -7 45 -15z m-2860 -55 c24 -24
26 -77 3 -102 -24 -27 -87 -24 -107 4 -36 51 -5 118 54 118 17 0 39 -9 50 -20z
m-1350 -60 c43 -43 6 -130 -55 -130 -30 0 -75 40 -75 67 0 10 9 33 20 51 16
26 26 32 55 32 22 0 43 -8 55 -20z m1161 -121 c49 -26 43 -107 -10 -129 -73
-30 -134 59 -79 117 23 25 57 29 89 12z m-1367 -50 c14 -11 26 -31 26 -43 0
-34 -37 -76 -66 -76 -58 0 -89 91 -42 124 30 21 50 20 82 -5z m2917 -118 c49
-40 18 -131 -46 -131 -38 0 -75 37 -75 75 0 65 70 97 121 56z m1490 8 c49 -26
42 -107 -12 -130 -26 -10 -34 -9 -57 8 -72 54 -10 165 69 122z m-1298 -187
c22 -19 22 -79 0 -104 -20 -22 -85 -24 -107 -3 -23 24 -29 54 -16 85 20 48 81
59 123 22z m184 -187 c65 -46 10 -154 -66 -130 -34 10 -51 34 -51 71 0 62 65
95 117 59z m753 -17 c43 -47 11 -118 -52 -118 -41 0 -54 8 -67 43 -28 74 65
133 119 75z m1163 -73 c22 -45 23 -53 9 -48 -34 12 -52 36 -52 70 0 18 4 33 8
33 4 0 20 -25 35 -55z m-3988 -45 l70 -70 -38 -37 -37 -38 -72 72 -72 73 34
35 c19 19 37 35 40 35 3 0 37 -32 75 -70z m-1110 40 c34 -13 50 -55 34 -92
-22 -53 -75 -63 -114 -23 -34 33 -33 77 1 104 30 24 42 25 79 11z m-1085 -173
l0 -102 385 -385 385 -385 0 -210 0 -210 -130 -130 -130 -130 0 -70 0 -70
-133 -133 -132 -132 -55 0 -55 0 -172 -172 -173 -172 27 -28 27 -28 -54 -55
c-30 -30 -57 -55 -61 -55 -8 0 -39 114 -70 254 l-21 98 176 177 176 176 0 75
0 75 -188 188 c-103 103 -191 185 -195 181 -4 -4 -7 3 -7 15 0 33 21 213 26
230 3 10 92 -72 257 -237 l252 -252 95 0 95 0 87 87 c83 83 88 86 106 70 12
-11 35 -17 64 -17 39 0 50 5 72 31 55 65 13 160 -72 163 -56 1 -91 -33 -99
-95 -5 -39 -15 -54 -91 -131 l-87 -88 -75 0 -75 0 -262 262 c-247 246 -261
263 -257 292 8 46 35 178 41 200 4 15 14 10 62 -38 31 -31 61 -56 66 -56 5 0
54 44 107 97 l98 97 45 -44 45 -44 -87 -88 -88 -88 144 -144 c142 -142 143
-144 127 -167 -9 -13 -16 -43 -16 -67 0 -60 33 -92 93 -92 52 0 84 21 95 65
19 66 -22 124 -89 130 -25 2 -57 29 -170 141 l-139 139 81 81 c93 93 92 88 10
168 l-50 49 -106 -98 -106 -98 -55 54 -54 54 36 130 c19 71 37 131 40 134 2 2
15 -2 29 -9 15 -8 40 -11 68 -7 36 5 48 3 62 -13 24 -27 36 -25 70 10 16 17
33 30 38 30 12 0 277 -264 277 -276 0 -5 -42 -50 -92 -101 l-93 -93 48 -47 47
-48 53 53 53 52 47 -48 c45 -46 47 -49 36 -80 -16 -47 -4 -97 30 -122 58 -41
142 -14 156 50 17 78 -33 136 -110 126 -38 -5 -43 -2 -102 57 l-63 61 -53 -52
-53 -52 -24 25 -24 26 97 97 97 97 -158 158 c-86 86 -162 157 -168 157 -5 0
-25 -16 -44 -35 -31 -32 -35 -34 -52 -19 -13 12 -15 21 -8 35 32 58 -20 149
-85 149 -10 0 -7 17 14 68 61 145 121 263 131 257 6 -3 10 -51 10 -108z m4444
72 c33 -26 36 -79 6 -109 -30 -30 -83 -27 -109 6 -28 35 -26 69 4 99 30 30 64
32 99 4z m-3506 -125 c12 -14 22 -34 22 -45 0 -28 -44 -69 -75 -69 -31 0 -75
41 -75 70 0 48 42 84 85 73 11 -2 30 -16 43 -29z m1052 -38 l62 -59 -56 -56
-56 -56 -68 68 -67 68 55 50 c30 27 57 48 61 47 4 -2 35 -30 69 -62z m2657 -8
c52 -49 8 -137 -62 -124 -61 12 -83 71 -44 120 26 33 73 35 106 4z m-4772
-154 c8 -4 22 -19 30 -35 18 -35 7 -71 -30 -95 -21 -14 -30 -14 -55 -4 -17 7
-33 16 -35 21 -3 4 4 33 16 63 21 56 34 65 74 50z m4956 -43 c34 -35 36 -59 8
-95 -26 -33 -79 -36 -109 -6 -27 27 -27 83 2 110 30 28 65 25 99 -9z m-3053
-104 c9 -10 -4 -29 -57 -81 -60 -60 -69 -65 -81 -51 -12 14 -5 24 51 81 35 35
66 64 70 64 4 0 11 -6 17 -13z m-174 -128 c14 -11 26 -26 26 -33 0 -6 -20 -31
-44 -55 -44 -43 -45 -44 -70 -28 -32 21 -41 51 -26 87 20 49 72 62 114 29z
m3144 -136 c20 -17 26 -36 23 -78 -1 -16 -10 -10 -51 30 -27 27 -50 53 -50 57
0 15 58 8 78 -9z m1786 -105 c7 -38 7 -38 -26 -38 -39 0 -51 7 -67 38 -19 37
-4 81 32 97 32 14 32 13 43 -23 6 -20 14 -54 18 -74z m-5129 39 c22 -31 19
-47 -17 -84 -37 -39 -53 -41 -85 -11 -29 27 -30 69 0 95 40 37 76 37 102 0z
m5059 -92 c20 -9 47 -13 60 -9 23 5 24 2 36 -65 6 -39 10 -75 8 -80 -1 -5 -45
-55 -95 -110 -88 -94 -93 -102 -93 -143 l0 -43 -275 -275 -275 -275 -82 83
-83 84 258 251 257 252 0 43 c0 42 5 48 122 173 67 71 123 129 124 129 1 0 18
-7 38 -15z m-5154 -45 c12 -8 -5 -29 -88 -112 -81 -81 -104 -100 -112 -88 -7
11 14 38 83 111 51 53 94 97 97 98 3 0 12 -4 20 -9z m4689 -51 c46 -16 59 -82
24 -121 -35 -40 -116 -15 -124 37 -6 38 10 73 38 83 16 6 28 11 29 11 1 1 15
-4 33 -10z m-5471 -35 c50 -35 48 -95 -4 -114 -32 -13 -58 -6 -84 23 -27 28
-25 43 9 78 33 33 47 35 79 13z m6068 -234 c6 -104 6 -105 -20 -129 -22 -21
-26 -33 -26 -83 0 -53 -3 -61 -32 -87 -30 -26 -38 -29 -85 -24 -48 5 -54 3
-82 -25 -66 -65 -22 -167 70 -164 67 2 116 72 90 129 -11 24 -9 29 24 62 32
33 35 42 35 92 0 43 5 60 20 74 20 18 20 17 20 -127 0 -80 -3 -193 -6 -251
l-7 -106 -188 -193 -188 -193 -185 185 -186 185 280 280 280 280 0 50 c0 49 1
51 83 133 l82 82 7 -32 c4 -18 10 -80 14 -138z m-5532 129 c36 -28 33 -48 -14
-94 -44 -43 -61 -42 -89 7 -24 42 14 104 65 107 6 1 23 -8 38 -20z m-743 -138
c16 -13 23 -29 23 -55 0 -43 -10 -55 -55 -62 -71 -12 -115 62 -67 113 26 28
67 30 99 4z m301 2 c22 -20 23 -70 1 -95 -19 -21 -71 -24 -96 -5 -9 6 -19 24
-22 39 -14 56 72 102 117 61z m4990 -60 c25 -23 24 -84 -2 -108 -39 -35 -101
-19 -121 32 -9 25 4 72 24 85 21 14 80 8 99 -9z m-5816 -200 l174 -168 0 -60
0 -60 -168 -168 -169 -168 -11 95 c-19 152 -21 146 39 146 40 0 54 5 68 22 15
18 27 21 73 19 51 -2 58 1 82 29 60 72 13 166 -82 163 -68 -2 -114 -84 -81
-144 17 -33 -14 -59 -71 -59 l-47 0 -8 91 -7 92 81 81 81 81 -76 77 c-44 43
-74 80 -70 87 4 6 10 11 12 11 3 0 84 -75 180 -167z m-149 -62 l-57 -60 0 117
0 117 57 -57 57 -57 -57 -60z m6806 -22 c30 -16 37 -28 37 -66 0 -88 -118
-101 -144 -17 -19 61 49 113 107 83z m-6595 -105 c26 -18 31 -84 7 -108 -39
-39 -106 -25 -124 25 -25 73 52 129 117 83z m6722 -330 l-10 -79 -127 -127
-127 -128 -38 37 -38 37 172 173 c95 95 173 171 175 169 2 -1 -2 -38 -7 -82z
m-6540 -189 c-162 -163 -175 -173 -192 -158 -16 14 -8 25 135 174 146 153 154
159 192 159 l40 0 -175 -175z m6494 -64 c-25 -112 -30 -124 -56 -137 -15 -8
-28 -18 -28 -22 0 -4 -5 -14 -10 -22 -8 -12 -18 -6 -60 35 l-50 49 112 113
c62 62 113 111 115 109 2 -2 -9 -58 -23 -125z m-47 -196 c-8 -35 -13 -42 -23
-34 -18 15 7 75 32 79 1 0 -3 -20 -9 -45z"/>
<path d="M4423 8312 c-28 -4 -69 -46 -77 -77 -10 -39 18 -92 58 -112 33 -15
38 -15 78 0 l42 17 104 -102 c82 -82 101 -107 96 -123 -20 -64 -17 -84 19
-120 36 -36 76 -45 107 -25 11 7 7 10 -17 10 -46 0 -86 38 -85 80 2 68 77 97
127 50 29 -27 32 -65 9 -98 -8 -12 -11 -22 -5 -22 16 0 31 35 31 74 0 67 -81
118 -139 87 -14 -8 -37 10 -126 99 -108 108 -109 110 -106 153 4 71 -48 119
-116 109z m79 -39 c43 -38 9 -123 -50 -123 -44 0 -66 22 -66 65 0 63 71 99
116 58z"/>
<path d="M5366 8295 c-42 -22 -55 -44 -56 -91 0 -31 6 -46 28 -66 36 -34 56
-39 92 -27 26 10 34 8 61 -15 25 -21 41 -26 88 -26 53 0 60 -3 94 -38 37 -38
37 -39 22 -68 -18 -35 -19 -58 -4 -87 27 -53 87 -71 144 -45 23 10 29 9 57
-20 32 -31 32 -31 13 -52 -28 -31 -26 -92 4 -124 62 -66 171 -25 171 64 0 58
-47 100 -111 100 -23 0 -43 9 -65 31 -27 27 -32 37 -27 65 12 73 -48 132 -119
119 -29 -5 -38 -1 -78 39 -41 43 -48 46 -95 46 -41 0 -56 5 -73 23 -19 20 -21
28 -11 54 15 44 -8 95 -54 116 -43 21 -45 21 -81 2z m94 -42 c26 -33 21 -79
-11 -105 -28 -24 -58 -23 -86 4 -31 29 -30 72 2 103 32 33 68 32 95 -2z m359
-278 c46 -23 54 -66 20 -109 -50 -63 -150 -1 -119 75 10 23 40 46 63 48 4 1
21 -6 36 -14z m224 -238 c37 -48 2 -107 -63 -107 -44 0 -70 26 -70 70 0 76 87
100 133 37z"/>
<path d="M4025 8237 c-17 -14 -28 -36 -32 -62 -4 -35 -1 -45 25 -73 25 -26 38
-32 72 -32 56 0 100 42 100 95 0 81 -103 126 -165 72z m117 -14 c23 -20 24
-80 1 -105 -35 -38 -123 -8 -123 43 0 23 18 61 34 71 20 13 69 8 88 -9z"/>
<path d="M3872 8095 c-44 -19 -67 -73 -52 -120 23 -69 101 -88 158 -40 26 22
39 25 105 25 66 0 76 -3 82 -19 10 -31 53 -53 94 -49 30 4 43 -1 77 -29 23
-18 52 -33 65 -33 15 0 43 -20 80 -56 52 -52 56 -58 46 -83 -29 -77 61 -160
132 -122 14 8 39 -12 142 -115 l124 -124 292 0 291 0 12 -36 c12 -37 59 -74
93 -74 55 0 111 68 100 122 -6 31 -50 75 -78 78 -45 5 -65 -2 -92 -30 l-28
-30 -286 0 -287 0 -121 116 c-89 86 -120 121 -115 133 24 57 11 107 -35 134
-34 20 -82 22 -99 5 -10 -10 -26 1 -75 49 -47 47 -70 62 -96 65 -23 2 -41 12
-54 30 -17 23 -18 31 -8 56 7 17 11 41 9 54 -4 21 -5 20 -20 -14 -21 -47 -57
-71 -93 -62 -49 12 -65 61 -40 127 13 33 -21 8 -38 -29 l-17 -35 -62 3 c-60 3
-62 4 -70 34 -16 63 -78 95 -136 69z m105 -41 c21 -21 24 -32 20 -61 -7 -41
-31 -62 -71 -63 -69 0 -103 87 -50 129 36 28 70 26 101 -5z m700 -336 c15 -12
34 -75 27 -92 -6 -15 -57 -46 -77 -46 -29 0 -77 50 -77 79 0 27 29 63 60 74
17 6 50 -1 67 -15z m971 -324 c25 -7 52 -51 52 -84 0 -32 -35 -60 -75 -60 -72
0 -104 86 -49 129 29 23 36 24 72 15z"/>
<path d="M4220 8090 c-17 -11 -17 -11 33 -14 23 -2 47 -12 62 -26 20 -19 25
-20 25 -7 0 39 -82 71 -120 47z"/>
<path d="M5129 7921 c-74 -75 6 -200 102 -161 98 41 72 190 -34 190 -29 0 -45
-7 -68 -29z m134 -22 c22 -27 22 -77 0 -101 -23 -25 -81 -24 -110 4 -31 29
-30 72 3 105 20 20 31 24 57 19 18 -3 40 -16 50 -27z"/>
<path d="M4942 7735 c-35 -30 -45 -69 -27 -111 29 -70 106 -86 156 -33 86 92
-33 225 -129 144z m128 -33 c28 -35 26 -76 -6 -101 -30 -24 -55 -26 -87 -10
-30 16 -37 28 -37 69 0 42 8 56 39 68 35 13 69 3 91 -26z"/>
<path d="M5327 7736 c-48 -45 -48 -106 1 -151 72 -67 191 20 153 113 -25 60
-108 81 -154 38z m126 -28 c10 -12 17 -36 17 -59 0 -33 -5 -41 -30 -54 -40
-21 -54 -19 -89 11 -38 31 -41 71 -8 101 41 38 78 38 110 1z"/>
<path d="M3390 7315 l-285 -285 217 -217 218 -218 127 127 128 127 25 -19 c33
-26 90 -26 124 1 14 11 26 27 26 36 0 11 -7 7 -21 -11 -41 -52 -129 -20 -129
48 0 32 40 76 69 76 36 0 53 -13 72 -54 17 -37 19 -38 19 -14 0 35 -43 85 -80
93 -54 12 -120 -45 -120 -104 0 -13 -47 -69 -122 -146 l-123 -125 -197 203
-197 204 270 263 271 263 121 -121 122 -122 -185 -185 c-102 -102 -190 -185
-195 -185 -6 0 -33 22 -60 50 l-49 50 89 84 c71 66 94 82 107 75 59 -31 138
18 138 86 0 47 -14 71 -52 91 -79 41 -170 -38 -138 -121 11 -28 8 -32 -82
-122 l-93 -93 70 -70 70 -69 208 202 c114 111 208 207 207 212 0 13 -262 275
-275 275 -6 0 -138 -128 -295 -285z m337 29 c20 -20 24 -31 19 -57 -7 -35 -38
-67 -66 -67 -23 0 -67 35 -75 60 -7 21 17 75 37 83 30 12 61 5 85 -19z"/>
<path d="M5927 7400 c-31 -25 -44 -81 -28 -117 10 -22 9 -29 -9 -48 -20 -21
-24 -22 -48 -9 -34 18 -56 18 -91 0 -69 -36 -66 -138 6 -175 78 -40 164 35
135 118 -9 25 -7 32 11 49 20 18 27 19 64 9 52 -13 83 0 108 48 37 68 -8 145
-85 145 -22 0 -48 -8 -63 -20z m115 -30 c24 -25 29 -36 24 -58 -22 -89 -146
-78 -146 13 0 73 68 98 122 45z m-194 -176 c28 -19 31 -83 5 -106 -43 -37
-101 -28 -122 19 -32 71 52 133 117 87z"/>
<path d="M6299 7391 c-65 -65 -13 -171 83 -171 29 0 74 44 83 83 23 93 -97
157 -166 88z m115 -12 c33 -26 36 -79 6 -109 -30 -30 -83 -27 -109 6 -28 35
-26 69 4 99 30 30 64 32 99 4z"/>
<path d="M5394 7246 c-69 -30 -85 -106 -35 -157 22 -21 39 -29 66 -29 41 0 95
32 95 57 0 11 -6 7 -21 -11 -16 -20 -29 -26 -59 -26 -72 0 -104 77 -54 127 20
20 31 24 56 19 39 -8 56 -22 73 -60 9 -21 14 -25 14 -13 2 33 -30 78 -64 93
-40 16 -32 16 -71 0z"/>
<path d="M7273 7253 c-12 -2 -34 -18 -48 -34 -34 -41 -33 -88 2 -129 26 -31
29 -32 84 -27 l56 5 212 -212 211 -211 0 -155 0 -154 47 -48 c45 -46 46 -47
30 -72 -28 -42 -22 -93 14 -127 37 -34 71 -37 117 -9 86 53 47 180 -57 180
-31 0 -44 8 -84 48 l-47 48 0 153 0 153 -214 219 c-210 215 -214 220 -203 248
25 66 -45 138 -120 124z m85 -51 c22 -28 15 -78 -14 -101 -35 -27 -59 -26 -89
4 -25 24 -33 68 -17 91 24 35 94 39 120 6z m634 -989 c24 -22 24 -77 -2 -103
-27 -27 -75 -26 -94 2 -48 68 36 156 96 101z"/>
<path d="M6125 7228 c-62 -34 -74 -110 -26 -159 68 -68 182 -2 164 94 -11 57
-87 93 -138 65z m102 -40 c30 -28 31 -80 1 -108 -30 -27 -73 -26 -103 5 -70
69 30 170 102 103z"/>
<path d="M6492 7224 c-33 -23 -54 -70 -47 -106 10 -46 -23 -76 -82 -75 -40 0
-50 -4 -75 -32 -38 -43 -38 -88 1 -130 24 -25 37 -31 71 -31 77 0 127 87 85
146 -13 19 -12 23 9 43 20 19 28 21 44 12 26 -14 68 -14 94 0 16 9 24 7 40 -8
17 -18 18 -21 3 -49 -19 -37 -19 -57 0 -94 19 -36 43 -50 90 -50 35 0 85 35
85 59 0 6 -11 -1 -25 -14 -50 -51 -129 -20 -129 50 0 58 52 90 109 68 10 -3
26 -24 36 -47 17 -38 19 -39 19 -14 0 16 -12 41 -28 59 -22 24 -36 31 -67 31
-52 1 -98 40 -86 72 29 78 -78 158 -147 110z m98 -24 c43 -23 30 -114 -19
-127 -53 -14 -91 12 -91 64 0 58 57 91 110 63z m-173 -202 c32 -36 35 -77 7
-105 -46 -46 -134 -12 -134 52 0 35 42 75 78 75 17 0 37 -9 49 -22z"/>
<path d="M6868 6864 c-36 -19 -62 -68 -53 -103 9 -38 54 -81 84 -80 24 0 25 1
7 12 -66 40 -83 90 -46 127 25 25 86 27 118 4 13 -9 25 -14 27 -13 6 6 -18 34
-45 52 -30 21 -56 21 -92 1z"/>
<path d="M6133 6859 c-69 -20 -86 -104 -32 -158 41 -42 89 -42 130 -2 40 40
41 96 2 133 -35 32 -59 39 -100 27z m91 -31 c32 -45 8 -114 -39 -119 -57 -5
-85 15 -85 60 0 69 88 111 124 59z"/>
<path d="M3249 6695 c-22 -23 -29 -25 -53 -15 -58 22 -126 -28 -126 -92 0 -54
44 -102 93 -101 73 2 123 71 96 134 -10 26 -10 33 4 46 14 15 22 10 86 -48
l69 -64 -56 -57 -56 -58 32 -33 32 -33 -33 -32 -33 -32 -39 40 c-21 22 -44 40
-50 40 -6 0 -33 -23 -60 -51 l-50 -51 47 -42 c34 -32 44 -46 36 -54 -9 -9 -25
2 -64 38 -29 28 -57 50 -61 50 -5 0 -26 -18 -48 -40 l-39 -40 102 -103 c56
-57 102 -108 102 -113 0 -5 -84 -94 -188 -197 -182 -181 -188 -187 -228 -187
-48 0 -84 31 -84 74 0 17 -11 39 -29 57 -68 68 -184 9 -167 -86 14 -74 114
-109 169 -57 21 20 25 21 37 7 8 -10 31 -15 70 -15 l58 0 207 202 206 201
-108 109 -108 108 22 22 22 22 59 -52 59 -51 29 30 28 29 -44 45 -44 45 34 35
34 35 41 -40 c22 -22 45 -40 51 -40 5 0 32 23 59 50 l49 50 -32 32 -32 32 52
53 52 53 -84 85 c-47 47 -87 85 -90 85 -3 0 -17 -11 -31 -25z m-34 -60 c29
-28 31 -51 9 -83 -24 -34 -48 -43 -83 -31 -53 19 -66 67 -30 113 27 34 71 35
104 1z m-597 -915 c34 -21 40 -46 21 -83 -25 -46 -76 -51 -108 -10 -25 31 -20
58 15 91 30 27 31 27 72 2z"/>
<path d="M6514 6489 c-27 -13 -54 -60 -54 -92 0 -34 44 -84 80 -92 19 -4 41
-1 61 9 40 20 53 12 33 -20 -25 -37 -22 -100 6 -129 33 -35 73 -41 121 -16 33
17 41 19 45 7 3 -8 1 -23 -5 -35 -28 -51 -1 -123 53 -141 48 -16 100 7 122 53
21 43 13 80 -24 114 -23 21 -34 24 -74 21 -57 -6 -68 3 -68 58 0 64 -32 97
-101 104 l-54 5 3 39 c8 92 -67 152 -144 115z m101 -39 c43 -47 10 -120 -53
-120 -20 0 -44 7 -54 17 -23 20 -24 80 -1 105 23 25 84 24 108 -2z m123 -146
c12 -4 30 -20 38 -36 27 -51 -6 -108 -63 -108 -70 0 -101 86 -47 129 29 23 36
24 72 15z m200 -174 c42 -39 22 -113 -33 -121 -78 -12 -119 64 -67 124 21 23
73 22 100 -3z"/>
<path d="M1901 6394 c-27 -22 -31 -32 -31 -74 0 -42 4 -52 31 -74 36 -30 78
-34 120 -9 27 16 29 16 49 -2 17 -15 19 -26 15 -64 -7 -58 9 -91 58 -114 31
-16 43 -17 69 -8 30 11 35 9 72 -28 36 -37 39 -42 28 -66 -29 -64 -4 -128 58
-146 49 -15 88 3 114 52 23 43 16 80 -22 116 -23 21 -34 24 -74 21 -44 -5 -49
-3 -88 37 -36 37 -40 46 -31 63 18 34 13 78 -14 110 -29 34 -71 44 -114 26
-26 -11 -31 -10 -55 15 -20 21 -26 37 -26 70 0 88 -92 132 -159 75z m112 -22
c25 -22 21 -68 -8 -97 -29 -30 -45 -31 -79 -4 -34 27 -35 71 -1 105 27 27 54
26 88 -4z m218 -182 c34 -33 33 -58 -4 -97 -26 -29 -56 -29 -91 -2 -19 15 -26
30 -26 54 0 24 7 39 26 54 36 29 60 26 95 -9z m215 -236 c20 -19 24 -31 19
-52 -9 -38 -34 -62 -64 -62 -32 0 -44 8 -60 37 -17 33 -14 51 14 78 31 32 59
32 91 -1z"/>
<path d="M2831 6053 c-46 -38 -41 -136 8 -162 28 -16 93 -14 117 4 28 19 48
69 40 101 -4 14 -18 37 -31 50 -30 30 -101 33 -134 7z m113 -28 c29 -26 32
-42 15 -78 -23 -52 -79 -58 -119 -14 -26 27 -25 65 2 94 28 30 68 29 102 -2z"/>
<path d="M7867 5920 c-70 -55 -26 -169 64 -170 45 0 85 30 94 69 8 36 -16 95
-43 110 -33 17 -87 13 -115 -9z m113 -20 c47 -47 15 -123 -51 -123 -65 0 -93
82 -43 122 34 26 68 27 94 1z"/>
<path d="M7484 5314 c-90 -44 -56 -183 44 -184 44 0 68 14 87 50 29 56 8 120
-46 139 -41 14 -48 14 -85 -5z m87 -27 c29 -23 40 -53 28 -84 -5 -15 -16 -31
-22 -35 -21 -14 -80 -8 -99 9 -23 20 -24 80 -1 105 18 21 70 24 94 5z"/>
<path d="M2370 7203 c-8 -3 -25 -15 -37 -26 -34 -30 -32 -109 2 -142 30 -31
101 -35 134 -7 45 36 43 127 -2 157 -27 17 -76 27 -97 18z m82 -50 c35 -33 36
-66 3 -98 -32 -33 -60 -31 -96 4 -34 35 -36 59 -8 95 27 34 65 34 101 -1z"/>
<path d="M1973 4755 c-17 -7 -39 -28 -48 -45 -50 -98 78 -189 156 -111 51 51
38 125 -26 156 -39 18 -41 18 -82 0z m82 -40 c40 -39 31 -89 -19 -110 -50 -21
-105 11 -106 63 0 31 43 72 75 72 14 0 37 -11 50 -25z"/>
<path d="M7865 4683 c-30 -7 -63 -42 -70 -73 -8 -35 16 -95 43 -109 27 -14 77
-14 105 0 18 9 20 9 10 -2 -18 -18 -16 -90 2 -116 23 -32 80 -46 121 -28 18 7
37 22 43 33 15 27 13 93 -2 113 -28 37 -88 50 -128 28 -19 -9 -19 -9 -10 10
29 53 2 120 -56 142 -26 9 -26 10 -58 2z m79 -42 c35 -38 18 -113 -28 -125
-27 -7 -76 8 -88 27 -15 23 -8 77 12 97 26 26 81 26 104 1z m149 -153 c40 -48
7 -118 -57 -118 -78 0 -104 111 -33 140 30 13 69 3 90 -22z"/>
<path d="M4125 5390 l-750 -750 290 -290 290 -290 -461 -462 c-253 -255 -758
-762 -1121 -1128 l-662 -665 67 -68 c282 -288 715 -598 1108 -795 433 -217
959 -374 1424 -427 597 -67 1113 -36 1650 100 679 172 1293 494 1820 954 116
101 240 223 240 236 -1 5 -502 514 -1115 1130 l-1114 1120 292 292 292 293
-705 707 c-388 390 -725 727 -750 750 l-46 42 -749 -749z m1437 -57 c373 -373
678 -683 678 -690 0 -14 -1355 -1356 -1367 -1352 -4 1 -314 305 -688 676
l-679 673 684 685 c377 377 687 685 690 685 3 0 310 -305 682 -677z m-1523
-1357 c15 -17 -8 -70 -34 -80 -22 -8 -60 -8 -69 1 -6 7 72 93 85 93 4 0 12 -6
18 -14z m1765 -93 c-15 -56 41 -117 106 -115 33 2 52 -16 432 -395 218 -218
394 -401 391 -406 -15 -25 -4 -80 24 -109 25 -27 33 -29 75 -25 l46 4 232
-232 232 -232 -99 -89 -98 -89 -3 36 c-3 31 -27 59 -216 248 l-213 213 5 48
c4 44 1 52 -26 80 -53 52 -128 35 -158 -36 -34 -82 59 -165 138 -123 19 10 41
-9 234 -202 200 -200 214 -216 214 -250 0 -34 -6 -41 -79 -97 l-79 -61 -213
215 c-118 119 -212 221 -211 227 18 59 14 77 -21 112 -46 46 -91 48 -136 6
-25 -23 -31 -37 -31 -69 0 -67 70 -118 131 -95 26 10 35 3 233 -196 113 -113
206 -212 206 -218 0 -20 -188 -145 -364 -242 l-59 -33 -81 81 c-73 73 -80 83
-68 101 21 35 15 94 -13 123 -74 73 -192 3 -164 -98 13 -44 43 -65 98 -65 45
0 49 -3 124 -78 l78 -78 -88 -42 c-98 -47 -108 -49 -117 -27 -9 24 -70 46
-106 39 -17 -4 -41 -19 -55 -35 l-24 -29 -362 0 -362 0 -112 -110 c-61 -60
-115 -110 -121 -110 -5 0 -54 45 -109 100 l-100 100 -590 0 -591 0 -11 30
c-14 36 -70 64 -111 54 -32 -8 -72 -42 -72 -61 0 -32 -41 -19 -226 72 l-196
98 66 66 66 66 63 -63 c34 -34 67 -62 73 -62 5 0 41 32 79 70 l70 70 -120 120
-120 120 58 58 59 57 119 -125 118 -125 66 65 c36 35 65 70 65 77 0 7 -55 66
-122 131 l-122 119 35 41 34 41 130 -129 130 -130 78 77 77 78 -127 127 -128
128 43 42 42 43 65 -65 65 -65 62 63 63 62 -118 118 c-113 113 -117 119 -108
146 13 34 -6 86 -40 110 -63 44 -149 -5 -149 -84 0 -33 6 -48 30 -72 26 -25
36 -29 68 -26 20 3 44 8 53 12 12 5 43 -20 118 -94 55 -56 101 -104 101 -108
0 -4 -19 -27 -43 -50 l-43 -42 -59 60 c-33 33 -64 60 -69 60 -14 0 -106 -91
-106 -105 0 -6 56 -66 125 -135 l125 -125 -57 -57 c-32 -32 -62 -58 -67 -58
-6 0 -65 57 -132 128 l-122 127 -59 -57 -58 -58 125 -125 125 -125 -48 -47
-47 -48 -119 119 -120 120 -73 -69 c-40 -38 -75 -73 -77 -78 -2 -5 50 -63 115
-128 l119 -119 -55 -55 -54 -55 -68 67 -68 67 -78 -76 -77 -77 -78 48 c-43 27
-78 52 -77 56 1 3 -45 56 -101 116 l-102 110 21 22 22 21 53 -52 53 -52 27 28
c15 15 27 32 27 37 0 5 -17 26 -37 47 l-37 38 35 35 35 36 44 -41 44 -41 50
50 50 51 -32 33 -32 33 55 54 55 54 -82 83 c-46 46 -87 83 -94 83 -6 0 -21
-11 -33 -24 -19 -20 -28 -23 -48 -15 -42 16 -64 10 -99 -25 -45 -45 -46 -91
-5 -135 75 -81 212 14 160 111 -9 16 -8 24 5 36 17 17 18 17 113 -72 l42 -39
-51 -59 -52 -59 32 -32 32 -31 -32 -33 -32 -33 -46 45 -46 45 -54 -55 -54 -55
43 -44 c29 -30 39 -46 31 -51 -7 -4 -30 11 -59 39 -26 25 -50 46 -55 46 -4 0
-28 -17 -52 -37 l-45 -36 93 -95 c84 -86 88 -91 43 -61 -69 46 -225 170 -225
178 0 4 34 40 75 80 l75 73 0 186 0 187 87 87 87 88 162 -168 162 -167 131
129 131 130 23 -22 c57 -54 157 -5 157 77 -1 39 -12 58 -50 84 -55 38 -133 0
-146 -71 -5 -30 -29 -60 -127 -160 l-122 -122 -152 152 -153 153 172 172 c165
166 173 172 185 150 11 -20 5 -29 -85 -120 l-97 -98 75 -69 75 -69 203 202
c111 111 202 206 202 212 0 5 -38 48 -85 95 l-85 86 45 44 45 44 0 -33 c0 -44
46 -91 90 -91 71 0 119 56 105 120 -6 29 -2 37 46 86 l53 54 296 -295 296
-295 277 0 276 0 12 -22 c18 -36 51 -58 89 -57 l35 0 -34 18 c-61 32 -77 86
-36 126 27 28 58 31 98 11 25 -14 26 -14 17 4 -5 10 -25 23 -44 30 -46 15 -99
-7 -121 -49 l-16 -31 -272 0 -272 0 -302 302 -303 303 -63 -63 c-61 -61 -64
-62 -95 -51 -18 6 -40 8 -50 5 -9 -4 39 50 108 119 89 89 129 123 140 118 8
-4 34 -7 57 -8 32 -1 50 -8 71 -28 17 -16 39 -27 56 -27 21 0 44 -16 88 -58
56 -54 60 -60 48 -81 -18 -34 -4 -86 31 -115 33 -28 53 -32 95 -16 27 11 33 6
154 -115 113 -112 129 -125 160 -125 31 0 45 -10 110 -75 41 -41 79 -75 85
-75 6 0 44 34 85 75 l74 75 93 0 93 0 14 -35 c10 -22 27 -41 50 -51 31 -15 39
-16 73 -3 72 27 87 110 29 167 -38 38 -92 33 -133 -12 -33 -35 -35 -36 -111
-36 l-77 0 330 330 330 330 42 -42 c33 -33 41 -47 37 -65z m-1525 -162 c-6 -2
-39 24 -73 58 -48 48 -68 61 -92 61 -19 0 -39 9 -53 24 -22 23 -22 25 -5 51
l17 26 109 -108 c59 -59 103 -110 97 -112z m1632 66 c-11 -11 -46 -1 -66 19
-8 9 -15 30 -15 47 l0 31 45 -44 c26 -26 41 -48 36 -53z m-1552 -131 c36 -37
41 -47 32 -64 -19 -36 -77 -44 -104 -14 -28 30 -30 65 -7 95 12 15 25 27 29
27 4 0 26 -20 50 -44z m-624 -61 c47 -46 19 -125 -44 -125 -88 0 -81 145 7
149 7 1 24 -10 37 -24z m934 -264 c-15 -5 -260 240 -252 252 3 5 64 -49 134
-119 71 -71 124 -131 118 -133z m-1110 45 c62 -62 71 -76 63 -92 -6 -11 -90
-98 -186 -194 l-176 -174 -51 53 -52 53 84 84 c83 83 85 84 115 73 39 -15 79
-5 110 28 42 46 23 128 -36 154 l-30 14 37 37 c21 21 40 38 43 38 3 0 38 -33
79 -74z m1816 -31 c28 -27 31 -45 14 -78 -16 -29 -28 -37 -61 -37 -64 0 -91
80 -42 119 35 27 59 26 89 -4z m-1938 -17 c47 -44 13 -128 -51 -128 -35 0 -59
20 -71 59 -5 18 0 30 26 57 38 39 63 43 96 12z m397 -199 c17 -13 26 -30 26
-48 0 -35 -35 -81 -61 -81 -23 0 -61 18 -71 34 -15 21 -8 72 12 94 26 28 60
28 94 1z m-175 -205 c12 -15 21 -38 21 -51 0 -34 -42 -73 -80 -73 -36 0 -80
38 -80 70 0 24 18 61 34 72 6 4 28 8 48 8 28 0 42 -6 57 -26z m3175 -72 c-36
-5 -74 32 -74 72 l0 30 51 -49 c49 -49 50 -50 23 -53z m-163 -51 c36 -36 37
-73 4 -106 -30 -30 -54 -31 -89 -4 -43 34 -34 99 19 127 29 16 33 15 66 -17z
m-3951 -279 l0 -158 -74 -73 -74 -73 -85 78 c-77 72 -83 80 -69 96 14 16 16
16 43 -6 39 -33 81 -41 118 -22 38 20 51 44 51 94 0 28 -7 47 -26 67 l-26 28
63 63 c35 35 67 64 71 64 4 0 8 -71 8 -158z m213 91 c27 -25 22 -78 -9 -102
-62 -49 -137 5 -112 80 16 48 79 59 121 22z m3575 -30 c22 -30 15 -79 -15
-103 -47 -37 -113 -2 -113 60 0 60 92 91 128 43z m-3911 -102 c18 -24 15 -55
-8 -85 -31 -40 -94 -32 -120 15 -9 19 -5 27 32 65 37 37 45 42 63 32 12 -6 26
-18 33 -27z m-166 -255 c181 -173 440 -363 670 -492 453 -254 942 -405 1458
-450 219 -19 569 -15 776 11 585 71 1195 318 1677 678 117 88 256 204 343 288
l50 49 249 -249 c226 -227 248 -251 235 -267 -26 -32 -261 -234 -364 -313
-431 -334 -1000 -617 -1493 -747 -448 -116 -702 -149 -1167 -148 -440 1 -678
29 -1077 129 -686 173 -1374 549 -1877 1027 l-74 70 249 249 c137 137 251 249
253 249 2 0 43 -38 92 -84z m3880 -175 c51 -41 17 -131 -49 -131 -38 0 -72 37
-72 77 0 64 70 96 121 54z m-2627 -376 c20 -21 29 -52 22 -81 -8 -29 -19 -30
-90 -3 -62 24 -71 44 -36 79 24 24 82 27 104 5z m2550 -1 c9 -8 16 -19 16 -24
0 -9 -77 -46 -117 -56 -20 -5 -23 -3 -23 25 0 18 9 40 20 51 24 24 82 27 104
4z m-149 -78 c0 -27 -122 -70 -369 -131 l-188 -47 -37 36 c-20 20 -41 36 -46
36 -5 0 -33 -23 -61 -51 -51 -50 -54 -52 -131 -60 -43 -5 -175 -11 -293 -15
l-215 -7 -24 27 c-22 24 -31 26 -103 26 -62 0 -80 3 -85 15 -7 19 -55 45 -83
45 -32 0 -78 -27 -85 -51 -6 -19 -12 -21 -57 -15 -28 4 -63 16 -78 28 -22 16
-38 19 -72 15 -28 -3 -84 5 -163 25 -117 28 -275 76 -275 83 0 2 4 15 10 29
l10 26 577 0 578 0 110 -110 c60 -60 114 -110 120 -110 6 0 62 52 125 115
l115 115 360 -2 c349 -3 360 -4 360 -22z m-622 -187 c-15 -4 -39 -7 -52 -8
l-25 -1 29 30 29 30 24 -23 24 -22 -29 -6z m-961 14 c10 -9 18 -23 18 -31 0
-12 -11 -14 -67 -8 -37 4 -69 9 -72 11 -2 3 4 14 14 25 22 25 81 27 107 3z"/>
<path d="M4832 4648 l3 -693 40 0 40 0 3 693 2 692 -45 0 -45 0 2 -692z"/>
<path d="M4237 4872 c-119 -119 -217 -222 -217 -227 0 -6 101 -111 225 -235
l226 -225 31 34 30 34 -196 196 -196 196 195 195 195 194 -27 28 c-15 15 -32
28 -37 28 -6 0 -109 -98 -229 -218z"/>
<path d="M5242 5067 c-12 -13 -22 -27 -22 -33 0 -5 87 -95 192 -201 l193 -193
-195 -195 -195 -195 33 -32 32 -33 228 228 227 227 -225 225 c-124 124 -230
225 -236 225 -6 0 -20 -10 -32 -23z"/>
<path d="M4390 4485 c-8 -9 -8 -15 -2 -15 12 0 26 19 19 26 -2 2 -10 -2 -17
-11z"/>
<path d="M5632 3745 c-16 -14 -33 -36 -36 -50 -10 -39 18 -92 58 -111 49 -24
104 -4 129 48 16 33 16 40 4 71 -29 69 -101 88 -155 42z m102 -7 c15 -13 29
-37 32 -55 5 -25 1 -37 -19 -57 -33 -33 -61 -33 -92 -1 -43 42 -30 108 25 128
25 9 28 8 54 -15z"/>
<path d="M5495 3591 c-49 -14 -75 -48 -75 -100 0 -56 76 -115 119 -91 10 5 5
10 -17 15 -37 8 -72 48 -72 82 0 13 11 35 25 48 41 42 96 28 120 -28 l14 -32
1 31 c0 48 -63 90 -115 75z"/>
<path d="M5683 3402 c-28 -4 -72 -48 -80 -80 -3 -14 1 -38 10 -57 15 -31 15
-34 -8 -55 -19 -18 -27 -20 -43 -11 -99 53 -201 -81 -119 -157 69 -64 177 -7
164 87 -4 33 -1 43 22 65 20 19 30 23 44 14 25 -13 59 -4 96 28 72 60 9 182
-86 166z m66 -58 c27 -35 26 -59 -4 -89 -43 -44 -94 -26 -110 37 -5 21 -1 33
19 52 33 34 69 33 95 0z m-186 -182 c22 -19 22 -79 0 -104 -23 -25 -84 -24
-108 2 -37 40 -13 114 39 122 27 5 46 -1 69 -20z"/>
<path d="M6053 3398 c-42 -11 -73 -52 -73 -95 0 -26 8 -43 34 -69 39 -39 67
-43 114 -14 45 28 58 60 44 109 -17 56 -65 84 -119 69z m67 -48 c41 -41 12
-120 -44 -120 -28 0 -66 42 -66 72 0 25 44 68 70 68 11 0 29 -9 40 -20z"/>
<path d="M3913 3350 c-58 -35 -55 -127 6 -163 37 -22 65 -21 102 0 l29 17 133
-132 132 -132 160 0 160 0 1 -41 c0 -34 6 -47 32 -70 34 -31 55 -35 95 -20 42
16 67 51 67 94 0 80 -96 127 -160 77 -22 -18 -42 -20 -185 -20 l-160 0 -132
132 c-119 119 -131 134 -126 160 12 58 -38 118 -99 118 -13 0 -37 -9 -55 -20z
m102 -25 c70 -69 -24 -164 -97 -98 -25 23 -23 77 4 103 29 27 64 25 93 -5z
m758 -370 c51 -48 28 -125 -39 -125 -35 0 -74 37 -74 69 0 32 44 76 80 80 3 1
18 -10 33 -24z"/>
<path d="M5827 3190 c-58 -46 -51 -130 14 -164 87 -47 171 43 128 137 -22 48
-97 62 -142 27z m118 -24 c25 -37 22 -86 -5 -108 -40 -32 -92 -22 -115 23 -20
37 -19 51 6 83 28 36 91 37 114 2z"/>
<path d="M6188 3180 c-25 -26 -29 -36 -27 -75 4 -61 -17 -83 -78 -82 -40 0
-50 -4 -75 -32 -39 -43 -38 -92 1 -132 42 -42 92 -40 137 5 37 37 42 62 19
105 -13 26 -13 30 5 46 16 15 23 15 54 4 30 -11 41 -11 70 4 30 14 36 14 47 1
8 -10 15 -12 23 -4 7 7 5 15 -6 26 -13 13 -14 23 -7 42 12 32 -5 87 -34 107
-37 26 -94 19 -129 -15z m102 -5 c73 -38 31 -152 -50 -136 -27 5 -60 44 -60
70 1 38 32 71 78 80 2 1 16 -6 32 -14z m-166 -200 c16 -15 26 -34 26 -52 0
-36 -9 -49 -43 -62 -74 -28 -129 58 -72 114 31 32 55 32 89 0z"/>
<path d="M5283 3005 c-40 -17 -53 -42 -53 -98 0 -39 -5 -49 -40 -81 -39 -35
-42 -36 -123 -36 l-84 0 -67 -70 -68 -70 -132 0 -133 0 -300 -307 c-283 -290
-302 -308 -337 -309 -70 -1 -112 -73 -80 -139 43 -91 190 -57 186 42 -1 21
-10 49 -21 63 l-19 26 295 297 295 297 127 0 127 0 69 70 69 70 85 0 85 0 43
42 c39 38 44 41 68 30 43 -20 82 -14 117 16 25 23 31 36 30 66 -2 50 -18 75
-57 92 -41 17 -42 17 -82 -1z m97 -35 c46 -46 11 -124 -55 -124 -27 0 -43 6
-56 23 -42 52 -10 121 56 121 22 0 43 -8 55 -20z m-1370 -980 c38 -38 13 -118
-37 -121 -59 -4 -93 22 -93 72 0 40 32 69 75 69 22 0 43 -8 55 -20z"/>
<path d="M6394 3010 c-12 -4 -31 -21 -43 -36 -74 -94 65 -210 150 -125 52 53
33 135 -38 162 -29 11 -41 11 -69 -1z m78 -34 c40 -30 42 -105 3 -120 -58 -22
-105 7 -105 65 0 58 58 89 102 55z"/>
<path d="M5475 2841 c-60 -25 -80 -97 -42 -152 l25 -37 -94 -93 -94 -94 0
-112 0 -113 83 0 82 0 110 110 c81 81 114 108 128 104 54 -17 127 36 127 93 0
45 -14 69 -50 88 -42 22 -74 19 -108 -10 -39 -33 -49 -75 -28 -117 l17 -32
-103 -103 -103 -103 -62 0 -63 0 0 94 0 94 96 91 c53 50 103 91 111 91 33 0
82 33 98 66 38 81 -47 169 -130 135z m68 -32 c30 -16 37 -28 37 -68 0 -46 -24
-71 -70 -71 -56 0 -88 45 -69 98 15 44 61 62 102 41z m209 -206 c23 -28 28
-50 17 -81 -18 -51 -78 -63 -121 -24 -23 19 -23 79 -1 104 21 24 85 24 105 1z"/>
<path d="M5811 2811 c-24 -23 -31 -37 -31 -68 1 -41 11 -59 50 -86 64 -44 150
10 150 95 0 11 -15 35 -34 54 -45 45 -91 46 -135 5z m102 -2 c30 -16 37 -28
37 -66 0 -81 -102 -99 -128 -23 -24 67 31 120 91 89z"/>
<path d="M4310 2758 c-59 -40 -64 -105 -12 -153 20 -19 37 -25 67 -24 38 1 39
1 11 9 -70 21 -102 103 -56 145 25 23 83 15 116 -16 25 -23 32 -15 11 11 -20
26 -60 50 -83 50 -11 0 -36 -10 -54 -22z"/>
<path d="M4443 2634 c-6 -13 -7 -24 -3 -24 9 0 25 39 18 45 -2 2 -8 -7 -15
-21z"/>
<path d="M4138 2581 c-27 -24 -33 -36 -33 -70 0 -90 102 -135 166 -72 22 23
29 39 29 68 -1 41 -11 59 -50 86 -36 25 -75 21 -112 -12z m114 -28 c11 -10 18
-30 18 -54 0 -43 -19 -59 -69 -59 -59 0 -93 69 -54 112 20 23 80 24 105 1z"/>
<path d="M4629 2441 c-23 -24 -29 -38 -29 -74 0 -51 -12 -64 -57 -64 -93 1
-135 -103 -69 -169 39 -39 67 -43 114 -14 53 33 67 91 31 141 -26 37 -16 56
19 33 88 -58 195 33 148 124 -32 61 -108 72 -157 23z m117 -14 c55 -47 24
-127 -49 -127 -42 0 -67 25 -67 69 0 41 6 53 35 69 30 17 51 14 81 -11z m-145
-185 c35 -45 3 -112 -54 -112 -35 0 -77 34 -77 61 0 33 23 68 49 77 35 12 58
5 82 -26z"/>
<path d="M6213 2455 c-12 -8 -27 -30 -33 -49 -28 -86 44 -152 133 -121 45 15
53 6 32 -36 -35 -67 10 -142 85 -142 24 0 48 7 59 17 26 23 37 4 21 -35 -21
-49 2 -107 48 -126 80 -33 154 26 138 111 -10 51 -53 77 -121 74 l-50 -3 3 47
c3 42 0 51 -27 79 -26 26 -37 30 -74 28 -59 -4 -65 2 -59 60 4 46 2 53 -26 81
-35 34 -92 41 -129 15z m91 -15 c41 -15 51 -86 19 -122 -20 -22 -71 -23 -101
-2 -33 23 -31 86 4 113 30 24 42 25 78 11z m175 -177 c11 -10 24 -32 27 -50 5
-26 1 -37 -19 -57 -51 -51 -127 -22 -127 49 0 65 69 99 119 58z m175 -162 c26
-29 24 -91 -4 -113 -74 -60 -167 45 -100 112 26 26 81 26 104 1z"/>
<path d="M5853 2453 c-38 -7 -73 -52 -73 -92 0 -20 5 -43 10 -51 7 -12 -8 -33
-67 -92 l-77 -78 -43 42 -42 41 -78 -71 c-43 -39 -121 -114 -173 -166 l-94
-96 -53 52 -53 52 -37 -36 c-33 -32 -44 -36 -86 -36 -37 1 -53 -4 -72 -22 -33
-31 -41 -79 -21 -118 20 -38 44 -52 89 -52 70 0 115 73 87 141 -12 28 -11 33
14 57 l28 27 49 -55 49 -54 173 172 173 172 39 -40 c21 -22 44 -40 50 -40 6 0
46 36 89 79 l79 79 53 -5 c49 -5 55 -4 85 26 28 28 31 37 26 73 -9 64 -61 102
-124 91z m75 -43 c14 -13 22 -33 22 -53 0 -38 -7 -50 -37 -66 -54 -28 -105 2
-105 64 0 67 71 100 120 55z m-900 -526 c16 -11 22 -25 22 -52 0 -43 -6 -55
-38 -71 -50 -27 -102 9 -102 69 0 44 26 70 70 70 14 0 36 -7 48 -16z"/>
<path d="M4955 2326 c-43 -19 -59 -55 -52 -115 l6 -49 -27 8 c-75 21 -146 -52
-122 -125 15 -45 44 -65 95 -65 43 1 65 13 83 47 15 27 16 90 2 98 -5 3 -10
14 -10 23 0 12 3 13 12 4 18 -18 90 -14 115 6 29 22 42 68 31 109 -14 54 -79
83 -133 59z m90 -41 c48 -47 16 -125 -52 -125 -32 0 -73 42 -73 75 0 33 42 75
75 75 14 0 37 -11 50 -25z m-140 -155 c41 -45 9 -130 -47 -130 -22 0 -60 18
-70 34 -15 22 -8 76 12 96 27 27 81 26 105 0z"/>
<path d="M6033 2274 c-40 -20 -57 -61 -49 -116 l6 -43 -140 -140 -140 -140
-80 80 -80 80 -128 -128 c-121 -121 -129 -127 -168 -127 -23 0 -55 5 -73 11
-100 35 -177 -87 -102 -162 42 -42 98 -41 141 3 29 29 32 36 26 75 l-6 43 36
0 c32 0 47 11 155 121 l119 121 80 -78 81 -78 152 151 152 152 46 -6 c58 -7
86 8 105 54 37 88 -48 170 -133 127z m97 -34 c20 -20 27 -74 12 -97 -14 -22
-59 -33 -91 -22 -32 11 -55 56 -44 87 19 53 84 71 123 32z m-928 -527 c18 -17
25 -77 10 -100 -4 -6 -21 -17 -37 -23 -76 -29 -132 59 -77 123 19 22 79 22
104 0z"/>
<path d="M3921 2266 c-63 -35 -67 -120 -7 -168 24 -20 77 -23 107 -8 22 12 49
61 49 89 0 75 -83 124 -149 87z m102 -34 c22 -19 22 -79 0 -104 -21 -24 -85
-24 -105 0 -23 27 -28 49 -17 81 17 49 79 60 122 23z"/>
<path d="M4578 1955 c-14 -14 -28 -39 -32 -55 l-5 -30 -86 0 -85 0 -15 35
c-19 48 -72 71 -121 55 -44 -15 -64 -44 -64 -95 0 -85 93 -125 159 -69 17 14
31 32 31 40 0 11 20 14 95 14 85 0 95 -2 105 -21 18 -33 75 -52 116 -39 44 15
64 44 64 94 0 57 -39 96 -96 96 -31 0 -48 -6 -66 -25z m113 -24 c34 -35 36
-59 8 -95 -26 -33 -79 -36 -109 -6 -30 30 -27 83 6 109 36 28 60 26 95 -8z
m-374 -13 c52 -49 8 -138 -62 -124 -38 8 -53 23 -61 61 -13 69 71 112 123 63z"/>
</g>
</svg>
