<?xml version="1.0" standalone="no"?>
<!DOCTYPE svg PUBLIC "-//W3C//DTD SVG 20010904//EN"
 "http://www.w3.org/TR/2001/REC-SVG-20010904/DTD/svg10.dtd">
<svg version="1.0" xmlns="http://www.w3.org/2000/svg"
 width="700.000000pt" height="700.000000pt" viewBox="0 0 700.000000 700.000000"
 preserveAspectRatio="xMidYMid meet">
<metadata>
Created by potrace 1.11, written by Peter Selinger 2001-2013
</metadata>
<g transform="translate(0.000000,700.000000) scale(0.100000,-0.100000)"
fill="#000000" stroke="none">
<path d="M1745 5250 l-1750 -1750 1753 -1753 1752 -1752 1752 1752 1753 1753
-1750 1750 c-962 962 -1752 1750 -1755 1750 -3 0 -793 -788 -1755 -1750z
m3370 -136 l1608 -1616 -1611 -1611 -1612 -1612 -1612 1612 -1611 1611 1608
1616 c885 889 1611 1616 1615 1616 4 0 730 -727 1615 -1616z"/>
<path d="M3402 3498 l3 -1613 95 0 95 0 3 1613 2 1612 -100 0 -100 0 2 -1612z"/>
<path d="M2020 4025 l-525 -525 527 -527 528 -528 67 68 68 67 -460 460 -460
460 460 460 460 460 -65 65 c-35 36 -67 65 -70 65 -3 0 -241 -236 -530 -525z"/>
<path d="M4380 4485 l-65 -65 460 -460 460 -460 -460 -460 -460 -460 68 -67
67 -68 528 528 527 527 -525 525 c-289 289 -527 525 -530 525 -3 0 -35 -29
-70 -65z"/>
</g>
</svg>
