<?xml version="1.0" encoding="utf-8"?>
<!-- Generator: Adobe Illustrator 19.2.0, SVG Export Plug-In . SVG Version: 6.00 Build 0)  -->
<svg version="1.1" id="svg1936" xmlns="http://www.w3.org/2000/svg" xmlns:xlink="http://www.w3.org/1999/xlink" x="0px" y="0px"
	 viewBox="0 0 1030.5 227.7" style="enable-background:new 0 0 1030.5 227.7;" xml:space="preserve">
<style type="text/css">
	.st0{fill:#221F1F;}
	.st1{fill:#FF9900;}
	.st2{fill:url(#SVGID_1_);}
</style>
<title>Amazon.com-Logo</title>
<path class="st0" d="M-35.9,6.8L-35.9,6.8L-35.9,6.8z"/>
<path id="path8" class="st1" d="M373.7,188.1c-35,25.8-85.7,39.6-129.4,39.6c-61.2,0-116.4-22.6-158.1-60.3c-3.3-3-0.3-7,3.6-4.7
	c45,26.2,100.7,41.9,158.2,41.9c41.4-0.2,82.5-8.6,120.7-24.7C374.5,177.4,379.5,183.8,373.7,188.1"/>
<path id="path10" class="st1" d="M388.2,171.5c-4.5-5.7-29.6-2.7-40.9-1.4c-3.4,0.4-4-2.6-0.9-4.7c20-14.1,52.8-10,56.6-5.3
	s-1,37.7-19.8,53.3c-2.9,2.4-5.6,1.1-4.4-2.1C383.2,200.8,392.7,177.2,388.2,171.5"/>
<path id="path12" d="M348.1,66V52.3c0-1.9,1.4-3.4,3.3-3.5c0.1,0,0.1,0,0.2,0h61.3c1.9-0.1,3.5,1.4,3.5,3.3c0,0.1,0,0.1,0,0.2V64
	c0,2-1.7,4.5-4.6,8.6L380,118c11.8-0.3,24.2,1.5,35,7.5c2,1.1,3.2,3.1,3.2,5.3v14.6c0,2-2.2,4.3-4.5,3.1c-18.9-9.9-43.9-11-64.7,0.1
	c-2.1,1.1-4.3-1.2-4.3-3.2v-13.8c0-2.2,0-6,2.2-9.4l36.8-52.8h-32c-1.9,0.1-3.5-1.4-3.5-3.2C348.1,66.1,348.1,66,348.1,66"/>
<path id="path14" d="M124.7,151.4H106c-1.8-0.1-3.2-1.5-3.3-3.2V52.5c0-1.9,1.6-3.5,3.6-3.4l0,0h17.4c1.8,0.1,3.2,1.4,3.4,3.2v12.5
	h0.3c4.5-12.1,13.1-17.7,24.5-17.7c11.7,0,19,5.6,24.2,17.7c4.5-12.1,14.8-17.7,25.7-17.7c7.8,0,16.4,3.2,21.6,10.5
	c5.9,8,4.7,19.7,4.7,30v60.3c0,1.9-1.6,3.5-3.6,3.5l0,0h-18.7c-1.9-0.1-3.3-1.6-3.4-3.5V97.2c0-4,0.4-14.1-0.5-17.9
	c-1.4-6.4-5.6-8.2-11-8.2c-4.9,0.2-9.3,3.2-11.1,7.8c-1.9,4.8-1.7,12.9-1.7,18.3v50.7c0,1.9-1.6,3.5-3.6,3.5l0,0h-18.6
	c-1.9-0.1-3.3-1.6-3.4-3.5V97.2c0-10.7,1.8-26.4-11.5-26.4c-13.4,0-12.9,15.3-12.9,26.4v50.7C128.2,149.9,126.6,151.4,124.7,151.4
	L124.7,151.4"/>
<path id="path16" d="M469.1,47.1c27.7,0,42.6,23.8,42.6,54c0,29.2-16.5,52.3-42.6,52.3c-27.2,0-42-23.8-42-53.3
	C427.2,70.3,442.2,47.1,469.1,47.1 M469.3,66.7c-13.7-0.1-14.6,18.7-14.6,30.3s-0.2,36.6,14.5,36.6c14.5,0,15.1-20.1,15.1-32.4
	c0-8.1-0.3-17.7-2.8-25.4C479.4,69.2,475.2,66.6,469.3,66.7"/>
<path id="path18" d="M547.7,151.4h-18.6c-1.9-0.1-3.3-1.6-3.4-3.5V52.3c0.2-1.8,1.8-3.2,3.6-3.1h17.3c1.6,0.1,2.9,1.1,3.3,2.7v14.6
	h0.3c5.2-13.1,12.5-19.3,25.4-19.3c8.4,0,16.5,3,21.8,11.3c4.9,7.7,4.9,20.5,4.9,29.8v60.3c-0.3,1.8-1.8,3-3.6,3H580
	c-1.7-0.1-3.1-1.3-3.3-3v-52c0-10.5,1.2-25.8-11.7-25.8c-4.5,0-8.7,3-10.8,7.7c-2.6,5.8-3,11.7-3,18.1v51.3
	C551.2,149.9,549.6,151.4,547.7,151.4"/>
<path class="st0" d="M318.1,151.1L318.1,151.1L318.1,151.1z"/>
<path d="M332.5,133.8c-3.4-4.7-7-8.6-7-17.3v-29c0-12.3,0.9-23.6-8.2-32.1c-7.2-6.9-19-9.3-28.1-9.3c-17.7,0-37.5,6.6-41.7,28.5
	c-0.4,1.8,0.8,3.5,2.6,3.9c0.1,0,0.1,0,0.2,0l18.1,1.9c1.7-0.1,2.9-1.7,3.2-3.4c1.5-7.5,7.9-11.2,15-11.2c3.9,0,8.2,1.4,10.5,4.8
	c2.6,3.8,2.3,9.1,2.3,13.5v2.4c-10.8,1.2-24.9,2-35,6.5c-11.7,5-19.9,15.3-19.9,30.5c0,19.4,12.2,29,27.9,29
	c13.2,0,20.5-3.1,30.7-13.6c3.4,4.9,4.5,7.3,10.7,12.4c1.4,0.8,3.2,0.6,4.4-0.4l0,0v0.1c3.7-3.3,10.5-9.2,14.3-12.4
	C333.9,137.5,333.7,135.5,332.5,133.8z M295.8,125.4c-3,5.2-7.7,8.5-12.9,8.5c-7.2,0-11.4-5.4-11.4-13.5c0-15.9,14.2-18.8,27.7-18.8
	v4C299.3,112.9,299.5,119,295.8,125.4z"/>
<path d="M88.1,132.5c-3.4-4.7-7-8.6-7-17.3v-29c0-12.3,0.9-23.6-8.2-32.1c-7.1-6.8-19-9.2-28.1-9.2c-17.7,0-37.5,6.6-41.7,28.5
	c-0.4,1.8,0.8,3.5,2.6,3.9c0.1,0,0.1,0,0.2,0L24,79.2c1.7-0.1,2.9-1.7,3.2-3.4c1.5-7.5,7.9-11.2,15-11.2c3.8,0,8.2,1.4,10.5,4.8
	c2.6,3.8,2.3,9.1,2.3,13.5v2.4c-10.8,1.2-24.9,2-35,6.5C8.2,96.9,0,107.2,0,122.3c0,19.4,12.2,29,27.9,29c13.2,0,20.5-3.1,30.7-13.6
	c3.4,4.9,4.5,7.3,10.7,12.4c1.4,0.8,3.2,0.6,4.4-0.4l0,0v0.1c3.7-3.3,10.5-9.2,14.3-12.4C89.6,136.2,89.3,134.2,88.1,132.5z
	 M51.4,124.1c-3,5.2-7.7,8.5-12.9,8.5c-7.2,0-11.3-5.4-11.3-13.5c0-15.9,14.2-18.8,27.7-18.8v4C54.9,111.6,55.1,117.7,51.4,124.1z"
	/>
<linearGradient id="SVGID_1_" gradientUnits="userSpaceOnUse" x1="832.75" y1="-47.602" x2="832.7501" y2="104.898" gradientTransform="matrix(1 0 0 1 0 47.602)">
	<stop  offset="0" style="stop-color:#00BFD9"/>
	<stop  offset="0.1882" style="stop-color:#00BAD5"/>
	<stop  offset="0.3832" style="stop-color:#00AFCE"/>
	<stop  offset="0.5814" style="stop-color:#00A0C3"/>
	<stop  offset="0.7818" style="stop-color:#008CB5"/>
	<stop  offset="0.982" style="stop-color:#0075A5"/>
	<stop  offset="1" style="stop-color:#0073A4"/>
</linearGradient>
<path class="st2" d="M679.3,102.2c-8,0.2-13.4,1.5-17.7,3.6c-5.1,3-7.9,8-7.9,14.2c0,10.4,6.8,17.2,17.7,17.2
	c11.5,0,19.9-6.9,24.2-11.5v-24.2L679.3,102.2z M697,139.5c-7.7,7.2-17.4,13-29.9,13c-18.4,0-32.3-12.1-32.3-31.4
	c0-13.4,6.8-22.3,17.1-27.2c6.9-3.5,15.1-4.7,25.2-5.1l18.7-0.6v-5.3c0-14.2-8.8-20.4-20.8-20.4c-11.5,0-20.2,3.6-27.3,7.9l-6.6-13
	c11.6-6.9,24.5-10,36.4-10c22.8,0,37.1,10.9,37.1,35V119c0,17.2,0.6,26.3,2,31.4h-16.2L697,139.5z M730.7,0h18.7v125.3
	c0,7.7,2.3,10,7.7,10c1.5,0,4.5-0.6,6.2-1.2l3.8,14.6c-4.7,2-10.6,3-15.6,3c-14,0-20.8-7.7-20.8-21L730.7,0L730.7,0z M832.9,90.3
	c-0.5-14-7.2-28.1-22.3-28.1c-14.5,0-23.1,12.7-23.4,28.1H832.9z M768.1,99.4c0-30.7,16.8-52.1,42.4-52.1
	c26.3,0,41.7,20.2,41.7,52.2v4.7h-64.9c0.5,18.9,11.9,32.9,31.9,32.9c9.5,0,17.8-3,24.9-6.8l5.9,13c-9.4,5.9-21.6,9.1-33.1,9.1
	C783.4,152.5,768.1,128,768.1,99.4 M890.7,100.1L855.4,50h20.5l25.5,37l26.1-37h19.9l-35.9,49.7l35.6,50.7H927l-26.3-37.6
	l-26.6,37.6h-20.2L890.7,100.1z M993.4,102.2c-8,0.2-13.4,1.5-17.7,3.6c-5.1,3-7.9,8-7.9,14.2c0,10.4,6.8,17.2,17.7,17.2
	c11.5,0,19.9-6.9,24.2-11.5v-24.2L993.4,102.2z M1011.1,139.5c-7.7,7.2-17.4,13-29.9,13c-18.4,0-32.3-12.1-32.3-31.4
	c0-13.4,6.8-22.3,17.1-27.2c6.9-3.5,15.1-4.7,25.2-5.1l18.7-0.6v-5.3c0-14.2-8.8-20.4-20.8-20.4c-11.5,0-20.2,3.6-27.3,7.9l-6.6-13
	c11.6-6.9,24.5-10,36.4-10c22.8,0,37.1,10.9,37.1,35V119c0,17.2,0.6,26.3,2,31.4h-16.2L1011.1,139.5z"/>
</svg>
