<?xml version="1.0" encoding="utf-8"?>
<!-- Generator: Adobe Illustrator 19.1.0, SVG Export Plug-In . SVG Version: 6.00 Build 0)  -->
<svg version="1.1" id="Layer_1" xmlns="http://www.w3.org/2000/svg" xmlns:xlink="http://www.w3.org/1999/xlink" x="0px" y="0px"
	 viewBox="0 0 488.3 90.9" style="enable-background:new 0 0 488.3 90.9;" xml:space="preserve">
<style type="text/css">
	.st0{fill:#F6931F;}
	.st1{fill:#F6931E;}
	.st2{fill:#0193D2;}
	.st3{fill:#0293D2;}
	.st4{fill:#0494D3;}
	.st5{fill:#F69320;}
	.st6{fill:#0093D2;}
</style>
<path class="st0" d="M484.2,30.6c-3.5-6-10.3-8.5-18.8-7.1c-5.6,0.9-10.8,5.9-11.8,11.5c-0.4,1.9-0.9,4,2.2,4.4
	c2.4,0.3,3.4-0.2,3.8-2.9c0.5-3.7,2.8-6.5,6.8-7c4.3-0.5,8.8-1.1,12,3c2.9,3.6,2.1,7.9,1.8,12c-0.1,1.8-2.1,1.2-3.3,1.2
	c-3.7,0.2-7.4-0.1-11,0.4c-8.2,1.1-13.8,8-13.2,16.1c0.6,8.5,7,14.1,15.6,14.4c4.8,0.1,8.6-1.9,12.7-5.4c-0.6,5.4,2.8,4.3,5.4,4.3
	c0-13.7,0-27.3,0-41C485.6,33.2,484.9,31.9,484.2,30.6z M480.3,58.6c0,9.9-5,13.9-14.6,11.8c-4.8-1.1-6.6-4.6-6.9-9.1
	c-0.3-4.9,2.2-8.7,6.4-10.1c2.4-0.8,4.9-0.5,7.4-0.6C480.3,50.7,480.3,50.7,480.3,58.6z"/>
<path class="st1" d="M241.6,28.4c10.1-7.5,16.9-6.8,25.2,2c3.3-3.8,7-6.9,12.5-7.1c8.7-0.2,15.7,5.7,15.9,14.4
	c0.3,11.5,0,23,0.1,34.5c0,2.2-0.4,3.3-3,3.3c-3,0.1-3.1-1.4-3.1-3.7c0.1-10.5,0.1-21,0-31.5c0-7.8-3.1-11.1-10.2-11.2
	c-7.3,0-10.5,3.4-10.5,11.4c0,10.3,0,20.6,0,31c0,2,0.5,3.9-2.8,4c-3.3,0.1-3.3-1.7-3.3-4.1c0.1-10.7,0.1-21.3,0-32
	c0-7.3-3.2-10.3-10.4-10.3c-6.8,0.1-9.8,3.2-9.9,10.3c0,10.7,0,21.3,0,32c0,2.3,0.1,4.2-3.2,4.1c-3.2-0.1-2.9-1.9-2.9-3.9
	c0-14.5,0-29,0-43.5c0-1.6-0.7-3.6,2.3-3.9C241.6,24.1,241.2,26.2,241.6,28.4z"/>
<path class="st0" d="M378.3,71.3c0.1-21.1,0.1-42.3,0.1-63.4c0-2.2,0.3-4.2-3.1-4.2c-3.7,0-2.9,2.4-2.9,4.4c0,6.4,0,12.9,0,19.4
	c-1.7,0.1-2.3-1.1-3.2-1.7c-9.8-6.2-22.6-0.8-24.1,10.7c-1.1,9.1-1.1,18.3,0,27.4c1,8.1,7.1,12.6,15.3,12.8c4.8,0.1,8.5-2.1,13-5.6
	c-0.9,3.9,0.5,4.9,3.2,4.5C379.5,75.2,378.3,72.8,378.3,71.3z M372.1,62.7c-0.2,5.5-4.2,8.1-11.1,8c-6.2-0.1-9.4-2.6-10-8.1
	c0-0.3-0.1-0.7-0.1-1c0-3.8,0-7.7,0-11.5c0,0,0,0,0.1,0c0-4.2-0.2-8.3,0.1-12.5c0.4-5.5,3.7-8.2,9.8-8.3c6.9-0.1,11,2.4,11.2,7.9
	C372.5,45.6,372.5,54.2,372.1,62.7z"/>
<path class="st2" d="M123.5,38.5c-0.2-9.2-6.4-15-15.7-15.1c-4.2,0-7.7,1.6-11.7,4.5c0-7.2,0-13.6,0-19.9c0-2.3,0.2-4.3-3.2-4.2
	c-3.2,0-2.9,1.9-2.9,4c0,18-0.1,36,0,54c0.1,9.5,6.4,14.9,16.8,14.9c10.3,0,16.4-5.5,16.6-15.1C123.6,53.8,123.6,46.1,123.5,38.5z
	 M117.4,62c-0.3,6.1-3.7,8.7-10.8,8.7c-6.7,0-10.2-2.8-10.3-8.7C96,54,96,46,96.2,38c0.2-6.1,3.7-8.8,10.8-8.7
	c6.7,0,10.1,2.8,10.3,8.8c0.2,4,0,8,0,12C117.4,54,117.6,58,117.4,62z"/>
<path class="st1" d="M333.1,58.7c-3.3-0.5-2.4,1.8-2.6,3.5c-0.4,4.8-2.8,7.7-7.6,8.4c-7.1,0.9-11.5-0.8-13-5.6
	c-1.4-4.5-1.7-9.7,0-13.7c1.1-2.4,6.1-0.5,9.4-0.8c1.7-0.1,3.3,0,5,0c14.2,0,14.5-0.3,12.2-14.6c-1.4-8.6-8-12.9-19.1-12.4
	c-7.8,0.3-13.8,6.2-14.1,14c-0.2,4.2,0,8.3,0,12.5c0,4.2-0.1,8.3,0,12.5c0.3,8.2,6.5,14,15,14.1c10.9,0.2,17.2-4.5,18.4-13.3
	C337.1,60,335.8,59.2,333.1,58.7z M309.4,36.2c1.1-5,5-7.3,12.1-6.9c5.4,0.3,8.4,3,9,8.1c0.8,8.2,0.8,8.2-10.5,8.2c-1,0-2,0-3,0
	C308.9,45.6,307.7,44.1,309.4,36.2z"/>
<path class="st2" d="M223.1,58.8c-4-0.9-2.9,1.9-3.2,3.7c-0.8,4.6-3.2,7.6-8.2,8c-7.2,0.7-11.1-1.1-12.7-6
	c-1.3-4.1-0.5-8.3-0.6-12.4c0-2,1.7-1.7,2.9-1.7c4.3,0,8.7,0,13,0c12.9,0,13.6-0.9,11.6-13.9c-1.5-9.3-8.2-13.8-19.6-13.1
	c-8,0.5-13.8,6.7-14,15.3c-0.1,3.7,0,7.3,0,11c0,4-0.1,8,0,12c0.3,8.2,6.1,14.3,14,14.8c11.2,0.7,17.9-3.6,19.5-12.6
	C226.4,61.4,226.5,59.6,223.1,58.8z M198.3,41.1c0.2-4.5,0.6-9,5.2-10.9c4.2-1.7,8.8-2,12.8,0.8c4.3,3,3.6,7.8,3.7,12.3
	c0,2.2-1.4,2.3-3,2.3c-2.7,0-5.3,0-8,0c-2,0-4-0.2-6,0C199.5,46.1,198.1,45.1,198.3,41.1z"/>
<path class="st0" d="M419.3,34.8c-1.4-8.6-8.8-12.4-19.8-11.4c-7.3,0.7-12.9,6.8-13.2,14.5c-0.1,4,0,8,0,12c0,4-0.1,8,0,12
	c0.3,7.7,5.8,13.8,13.2,14.5c10.9,1.1,18.4-2.8,19.8-11.4C420.9,55.1,420.9,44.9,419.3,34.8z M413.6,63c-0.6,6-4.5,8-12.3,7.6
	c-5.2-0.3-8.6-3.5-8.9-8.8c-0.2-4,0-8,0-12c0-3.8-0.1-7.6,0-11.5c0.2-5.6,3.5-8.8,9.1-9.1c7.7-0.4,11.6,1.8,12.1,7.8
	C414.4,45.7,414.4,54.4,413.6,63z"/>
<path class="st3" d="M176.8,71.3c-3.1,2.5-5.7,4.5-9.1,5.1c-10.5,1.7-18.7-4.6-19-15.2c-0.3-11.2-0.1-22.3-0.1-33.5
	c0-2.2,0.4-3.3,3-3.4c2.7,0,3.4,0.9,3.4,3.5c-0.1,10.7-0.1,21.3,0,32c0.1,8,3,10.9,10.8,10.9c7.6,0,10.5-3.1,10.5-11.2
	c0-10.5,0-21,0-31.5c0-2.3,0.2-3.7,3.1-3.7c3.1,0,3,1.6,3,3.7c0,14.3,0,28.7-0.1,43c0,1.6,1.5,4.1-2,4.6
	C177.1,76.1,177.1,73.8,176.8,71.3z"/>
<path class="st4" d="M132.4,40c0-10.8,0-21.6,0-32.5c0-2.2,0.1-3.8,3.1-3.9c3,0,3.1,1.5,3.1,3.8c0,21.5,0,43,0,64.4
	c0,2.2,0,3.8-3,3.8c-2.9,0-3.2-1.4-3.2-3.7C132.5,61.3,132.4,50.7,132.4,40z"/>
<path class="st5" d="M433.4,28.8c4-3.6,7.6-5.5,12.1-5.5c2.5,0,3.6,0.7,3.5,3.4c-0.1,2.3-0.4,3.8-3.3,3.7c-2.3-0.1-4.6-0.3-6.8,0.9
	c-3.5,1.9-4.8,4.8-4.7,8.6c0,10.5,0,20.9,0,31.4c0,2.1,0.6,4.3-3,4.3c-3.4,0-3.2-2-3.2-4.2c0-14.3,0-28.6,0.1-42.9
	c0-1.6-1-3.8,2-4.2C433,24,433.5,25.7,433.4,28.8z"/>
<path class="st1" d="M55.6,29.2C62,16.1,56.3,3.7,46.3,0.5C29.8-4.3,7.6,27.1,7.3,29.4c3.3-0.4,19.1-23.2,32-22.5
	c4.9,0.6,9,2.9,10.3,8.1c1.9,7.4-2.1,12.8-6.6,17.9c-3.6,4-8,3.5-12.8,0.7c0.8,7.2,1.5,14,2.2,20.7c0.1,1.4,0.8,2.2,2.2,1.9
	c6.5-1.2,13-2.4,20.4-3.8c-7.1-6.6-4.9-13.1-1.3-19.6C54.4,31.6,55,30.4,55.6,29.2z"/>
<path class="st6" d="M51.5,61.6C50.4,61,34.7,82.9,23.4,84c-9.3,1.5-16.1-5.7-14-14.8c2.3-10,9.1-14.6,19.4-12.9
	c-0.8-6.5-1.5-12.9-2.2-19.4c-0.2-1.5-0.4-2.5-2.4-2.1c-6.5,1.3-12.9,2.4-20.2,3.8c6.5,6,5.2,12,2.1,18.3c-8,15-5.8,18-5.8,20.6
	c0.9,7.2,4.8,11.6,12,13c3.9,0.8,6,0.3,9,0C36.5,87.1,52.6,62.3,51.5,61.6z"/>
</svg>
