<?xml version="1.0" encoding="utf-8"?>
<!-- Generator: Adobe Illustrator 19.2.0, SVG Export Plug-In . SVG Version: 6.00 Build 0)  -->
<svg version="1.1" id="Layer_1" xmlns="http://www.w3.org/2000/svg" xmlns:xlink="http://www.w3.org/1999/xlink" x="0px" y="0px"
	 viewBox="0 0 342 160.2" style="enable-background:new 0 0 342 160.2;" xml:space="preserve">
<style type="text/css">
	.st0{fill:#3399CC;}
</style>
<title>clarifai</title>
<path class="st0" d="M335.9,65.8c0-1.8-0.8-2.2-2.4-2.1c-4.2,0.1-8.5,0.1-12.8,0c-3.2,0-3.2-0.1-3.2,3c0,12.6,0,25.2,0,37.7
	c0,2.8-0.6,3.2-3.5,3.3c-2.4,0.1-3.2-1-3.2-3.3c0-8.3-0.2-16.7-0.3-25c-0.2-9.4-6.4-15.6-15.8-15.7c-6.2-0.1-12.3-0.1-18.5-0.1
	c-0.7,0-1.4,0.2-1.9,0.8c-2,3.8-3.9,7.6-5.9,11.6c0.3,0.2,0.6,0.4,1,0.5h15c1.3,0,2.5,0,3.8,0.1c2.3,0.3,4.4,2.8,4.2,5.4
	c-0.2,2.9-2.5,2-4.2,2.2c-1.1,0.1-2.2,0-3.2,0.1c-7.1,0.7-14.1,1.9-20.2,5.8c-7.2,4.7-9.8,11.5-8.8,19.7c0.9,7,4.8,12,11.4,14.2
	c8.7,2.8,17,1.8,24.1-4.5c1.8-1.6,2.5-1.4,3,0.8c0.1,0.5,0.2,1,0.3,1.5c0.1,1.8,1,2.4,2.8,2.4c11.9,0,23.8,0,35.8,0
	c1.8,0,2.5-0.6,2.5-2.4C335.9,103.1,335.9,84.4,335.9,65.8z M293,100.5c0,7.8-4.6,12.7-11.6,12.4c-3.2-0.1-5.6-1.6-6.9-4.5
	c-1.3-2.8-0.8-6.1,1.1-8.5c2.6-3.2,12-6.2,15.9-4.9c0.7,0.3,1.2,1,1.4,1.7C293.1,98.1,293.1,99.3,293,100.5z"/>
<path d="M143.6,88.8c0-2.4-0.1-4.8-0.5-7.2c-1.4-8.3-5.5-14.7-13.5-17.8c-3.4-1.2-6.9-2-10.4-2.3c-8.6-0.7-17.2,0.7-25.1,4.1
	c-1.9,0.8-2.8,1.8-1.9,4c0.9,2.4,1.6,4.9,2.2,7.4c0.5,2,1.3,2.4,3.3,1.5c6.5-3,13.2-4.7,20.4-2.8c2.4,0.5,4.4,2.2,5.2,4.6
	c0.8,2.1,0.2,2.9-2,3c-2.5,0.2-5,0.2-7.5,0.5c-6.8,0.9-13.2,2.5-18.8,6.6c-12,9-10.6,27.7,2.9,33.7c8.8,3.9,17.4,2.7,25.2-3.2
	c0.6-0.5,1.2-1,2.4-2c0.3,1.6,0.5,2.6,0.6,3.5c0,1.3,1.1,2.4,2.4,2.4c0.1,0,0.2,0,0.3,0c4.5,0,9,0,13.5,0c1.6,0,2.1-0.7,2.1-2.3
	C144,111.3,143.8,100,143.6,88.8z M124.2,100.8c0,6.8-3.6,11-9.5,11.4c-3.9,0.2-6.6-1.4-7.7-4.5c-1.2-3.4,0.2-7.2,3.3-9.1
	c3.7-2.3,8-2.7,12.2-2.7c0.8,0.3,1.4,0.9,1.6,1.7C124.3,98.7,124.4,99.7,124.2,100.8z"/>
<path d="M251.6,101.1c0-7.1,0-14.2,0-21.2c0-1.8,0.6-2.6,2.5-2.5c2.5,0.1,5,0,7.5,0c1.5,0.2,3-0.7,3.5-2.2c1.4-3,2.9-6,4.4-9
	s1.3-3.4-2-3.5c-4.5,0-9,0.1-13.5-0.1c-0.8,0-2.2-0.8-2.4-1.4c-1.6-6.8,3.2-12.4,10.2-12c0.8,0,1.7,0.1,2.5,0.3
	c1.8,0.4,2.7-0.2,2.8-2.1c0.1-3.5,0.3-7,0.5-10.5c0.1-1.7-0.8-2.8-2.2-2.8c-5.1,0-10.4-0.8-15.2,0.3c-11.7,2.7-17.2,11.1-18.5,22.7
	c-0.6,5.3-0.5,5.3-5.9,5.6c-1.7,0.1-2.4,0.7-2.4,2.4c0.1,2.4,0,4.8,0,7.2c0,4.9,0,4.9,4.8,4.9c3.3,0,3.3,0,3.3,3.4
	c0,13.7,0,27.5,0,41.2c0,2.2,0.7,3,2.9,2.9c4.8-0.1,9.5-0.1,14.2,0c2.3,0.1,3.1-0.8,3-3.1C251.6,114.9,251.6,108,251.6,101.1z"/>
<path d="M7.3,91.2c0,14.9,4.2,24.4,14.6,30.6c5,3,10.7,4.5,16.5,4.3c5.6-0.3,11.2-0.9,16.8-1.8c1.5-0.2,3.2-0.8,2.8-3.1
	c-0.6-3.4-1.2-6.9-1.8-10.4c-0.3-1.8-1.1-1.9-2.8-1.6c-3.1,0.8-6.4,1.2-9.6,1.2c-7.9-0.1-13.9-4.8-15.5-11.7c-2-8.6,0.7-16.5,7.3-20
	c5.5-3,11.3-2.5,17-1c1.9,0.5,2.8,0.1,3.2-1.8c0.6-3.2,1.3-6.4,2.1-9.5c0.5-2-0.1-2.9-2.1-3.4C49,61.3,41.9,60.9,35,62
	C20.1,64.3,6.8,76.3,7.3,91.2z"/>
<path d="M82.7,79.8c0-13.9,0-27.8,0-41.7c0-2.4-0.7-3.3-3.2-3.2c-4.7,0.2-9.3,0.1-14,0c-1.8,0-2.8,0.6-2.8,2.6c0,28.2,0,56.5,0,84.7
	c0,2,0.8,2.7,2.7,2.6c4.7-0.1,9.3,0,14,0c3,0,3.2-0.2,3.2-3.3C82.7,107.6,82.7,93.7,82.7,79.8z"/>
<path d="M169.4,72.5l-1-0.2c0-2.3,0-4.6,0-6.9c0-1.9-0.8-2.7-2.7-2.7c-4.1,0-8.2,0-12.2,0c-1.9,0-2.5,0.8-2.4,2.6
	c0.2,2.8,0.3,5.7,0.3,8.5c0.1,15.9,0.1,31.8,0.1,47.7c0,3.1,0.2,3.2,3.3,3.2H168c3.3,0,3.4-0.2,3.4-3.4c0-9.2-0.1-18.3,0.1-27.5
	c0-2.4,0.3-4.8,1.1-7.1c2.1-5.4,7.8-8,14.8-7c2.3,0.3,3-0.4,3-2.6c-0.1-4.3-0.1-8.7,0-13c0-2.2-0.9-3-3-3c-7-0.1-12.4,2.8-16.3,8.5
	C170.4,70.7,170,71.6,169.4,72.5z"/>
<path d="M197.2,93.8c0,9.4,0,18.8,0,28.2c0,2,0.7,2.8,2.8,2.8c4.8-0.1,9.7-0.1,14.5,0c2.1,0,2.7-0.8,2.7-2.8c0-18.8,0-37.6,0-56.4
	c0-2.2-0.9-2.9-3-2.9c-4.6,0.1-9.2,0-13.7,0c-3,0-3.2,0.3-3.2,3.4C197.2,75.3,197.2,84.6,197.2,93.8z"/>
<path d="M207.1,55.7c6.1,0,10.8-4.2,10.7-9.8s-4.5-9.9-10.6-9.9c-6.3,0-10.4,4-10.4,9.9C196.8,51.7,201,55.7,207.1,55.7z"/>
<path class="st0" d="M326.7,36.8c-5.9,0-9.6,3.5-9.6,9.1s3.8,9,9.7,9s9.6-3.5,9.7-8.8C336.4,40.4,332.6,36.8,326.7,36.8z"/>
<path d="M169.4,72.5c0.5-0.9,1-1.8,1.6-2.7c4-5.7,9.3-8.6,16.3-8.5c2.1,0,3,0.8,3,3c-0.1,4.3-0.1,8.7,0,13c0,2.2-0.6,2.9-3,2.6
	c-7-1-12.7,1.6-14.8,7c-0.8,2.3-1.2,4.7-1.1,7.1c-0.1,9.2,0,18.3-0.1,27.5c0,3.2-0.1,3.4-3.4,3.4h-13.2c-3.1,0-3.3-0.2-3.3-3.2
	c0-15.9-0.1-31.8-0.1-47.8c0-2.8-0.1-5.7-0.3-8.5c-0.1-1.8,0.5-2.7,2.4-2.6c4.1,0,8.2,0,12.2,0c1.9,0,2.8,0.8,2.7,2.7
	c0,2.3,0,4.6,0,6.9L169.4,72.5z"/>
</svg>
