<?xml version="1.0" encoding="utf-8"?>
<!-- Generator: Adobe Illustrator 19.2.0, SVG Export Plug-In . SVG Version: 6.00 Build 0)  -->
<svg version="1.1" id="Layer_1" xmlns="http://www.w3.org/2000/svg" xmlns:xlink="http://www.w3.org/1999/xlink" x="0px" y="0px"
	 viewBox="0 0 391.9 119.8" style="enable-background:new 0 0 391.9 119.8;" xml:space="preserve">
<style type="text/css">
	.st0{fill:#62BB46;}
	.st1{fill:#007AC2;}
</style>
<title>CE.logo.eps</title>
<path class="st0" d="M163.1,0C92.4,0,40.7,2.1,0,10.2c35.5-6.4,96.2-8.8,153.2-8.5c124.5,0.7,190.1,21.9,190.1,42.5
	c0,17.7-21.3,31.8-211.5,41.9l44.8-0.1C315.3,80,365.5,65.5,365.5,43.4S287.3,0,163.1,0z"/>
<path class="st1" d="M31,35.3c0.3-1.1,0.8-3.2-0.9-3.2c-2.1,0-2.5,1.3-4.2,8.8c-1.8,7.7-1.9,8.8,0.1,8.8c1.3,0,2.1-1.2,2.9-4.5
	l0.5-2h7.8l-0.4,1.7c-1.4,6.1-5,9.7-12.1,9.7c-10.4,0-9.2-5.3-7.2-13.7c1.9-8.1,3.2-13.7,13.6-13.7c8.6,0,8.6,4.2,7.7,8.3l-0.4,1.9
	h-7.9L31,35.3z"/>
<path class="st1" d="M57,44.1c-1.3,5.6-3.4,10.4-12.1,10.4s-8.5-4.9-7.1-10.5s3.4-10.5,12-10.5S58.3,38.5,57,44.1z M46,49.9
	c1.4,0,2-1.2,3.1-5.8s1-5.8-0.4-5.8s-2,1.2-3.1,5.8S44.6,49.9,46,49.9L46,49.9z"/>
<path class="st1" d="M69.6,40.9c0.3-1.5-0.1-2-1.1-2c-1.1,0.1-1.9,0.9-2,2L63.4,54h-7.9l4.7-19.9h7.6l-0.5,2.3h0.1
	c1.6-1.9,4-2.9,6.4-2.8c2.8,0,5,1.4,4.2,5L74.4,54h-7.9L69.6,40.9z"/>
<path class="st1" d="M83.6,47.6c-0.2,0.7-0.2,1.3-0.1,2c0.3,0.6,0.9,0.9,1.5,0.8c0.9,0,1.8-0.6,2-1.5c0.2-1,0-1.2-2.6-2.2
	c-4.7-1.6-6.7-2.7-5.8-6.3c0.9-4,4.1-6.7,10.2-6.7c8.7,0,7.7,4.3,7.3,6.2h-6.7c0.1-0.5,0.1-1,0-1.4c-0.3-0.5-0.9-0.7-1.5-0.6
	c-0.9-0.1-1.8,0.5-2,1.4c-0.2,1,0.7,1.3,5.1,2.8c2,0.7,4.5,1.7,3.5,5.9c-1.1,4.9-5.6,6.6-10.5,6.6c-5.7,0-8.5-1.4-7.3-6.9L83.6,47.6
	L83.6,47.6z"/>
<path class="st1" d="M105.8,51.7L105.8,51.7c-1.7,1.9-4.1,2.9-6.5,2.8c-2.8,0-5-1.4-4.2-5l3.6-15.4h7.8l-3.1,13.1
	c-0.3,1.5,0.1,2,1.1,2c1-0.1,1.9-0.9,2-2l3.1-13.2h7.8L112.9,54h-7.6L105.8,51.7z"/>
<path class="st1" d="M139.8,40.9c0.4-1.5-0.1-2-1.1-2c-1.1,0.1-1.9,0.9-2,2L133.7,54h-7.8l3.1-13.2c0.4-1.5-0.1-2-1.1-2
	c-1.1,0.1-1.9,0.9-2,2L122.7,54h-7.8l4.7-19.9h7.6l-0.5,2.3h0.1c1.6-1.9,4-2.9,6.4-2.8c2.1,0,3.9,0.8,4.6,2.8
	c1.6-1.9,3.9-2.9,6.4-2.8c2.8,0,5,1.4,4.2,5L144.7,54h-7.9L139.8,40.9z"/>
<path class="st1" d="M154.8,47.8c-0.2,1.1-0.5,2.5,1.1,2.5s2-1.3,2.5-3.3h7.1c-0.4,2.3-1.7,4.4-3.7,5.8c-2.1,1.2-4.4,1.8-6.8,1.7
	c-8.7,0-8.4-4.9-7.1-10.5s3.4-10.5,12-10.5c8.9,0,7.8,5.1,6.4,11.3l-0.1,0.3h-10.7L154.8,47.8z M160,40.3c0.5-2,0.1-2.5-1.1-2.5
	s-1.8,0.5-2.2,2.5l-0.3,1.2h3.4L160,40.3z"/>
<path class="st1" d="M170,34.1h7.6l-0.7,2.9h0.1c1.1-2,3.2-3.3,5.5-3.5c0.4,0,0.9,0,1.3,0.1l-1.5,6.5l-0.9-0.1c-0.5,0-1,0-1.5,0
	c-2.7,0-3.7,1.3-4.2,3.6l-2.4,10.3h-7.9L170,34.1z"/>
<path class="st1" d="M187.8,47.6c-0.2,0.7-0.2,1.3-0.1,2c0.3,0.6,0.9,0.9,1.5,0.8c0.9,0,1.8-0.6,2-1.5c0.2-1,0-1.2-2.6-2.2
	c-4.7-1.6-6.7-2.7-5.8-6.3c0.9-4,4.1-6.7,10.1-6.7c8.7,0,7.7,4.3,7.3,6.2h-6.6c0.1-0.5,0.1-1,0-1.4c-0.3-0.5-0.9-0.7-1.4-0.5
	c-0.9-0.1-1.8,0.5-2,1.4c-0.2,1,0.7,1.3,5.1,2.8c2,0.7,4.5,1.7,3.5,5.9c-1.1,4.9-5.7,6.7-10.5,6.7c-5.7,0-8.5-1.4-7.3-6.9
	L187.8,47.6L187.8,47.6z"/>
<path class="st1" d="M211.5,27.8h17.4l-1.4,6h-9.3l-0.9,4h8.6l-1.3,5.7h-8.7l-1.1,4.6h9.7l-1.4,6h-17.8L211.5,27.8z"/>
<path class="st1" d="M238.5,40.9c0.4-1.5-0.1-2-1.1-2c-1.1,0.1-1.9,0.9-2,2L232.3,54h-7.9l4.7-19.9h7.6l-0.5,2.3h0.1
	c1.6-1.9,4-2.9,6.4-2.8c2.8,0,5,1.4,4.2,5L243.3,54h-7.9L238.5,40.9z"/>
<path class="st1" d="M253.4,47.8c-0.2,1.1-0.5,2.5,1.1,2.5c1.6,0,2-1.3,2.5-3.3h7.1c-0.4,2.3-1.7,4.4-3.7,5.8
	c-2.1,1.2-4.4,1.8-6.8,1.7c-8.7,0-8.4-4.9-7.1-10.5s3.4-10.5,12-10.5c8.9,0,7.8,5.1,6.4,11.3l-0.1,0.3h-10.7L253.4,47.8z
	 M258.6,40.3c0.5-2,0.1-2.5-1.1-2.5s-1.8,0.5-2.2,2.5l-0.3,1.2h3.4L258.6,40.3z"/>
<path class="st1" d="M268.5,34.1h7.6l-0.7,2.9h0.1c1.1-2,3.2-3.3,5.4-3.5c0.4,0,0.9,0,1.3,0.1l-1.5,6.5l-1-0.1c-0.5,0-1,0-1.5,0
	c-2.7,0-3.7,1.3-4.2,3.6l-2.4,10.3h-7.9L268.5,34.1z"/>
<path class="st1" d="M294.3,34.1h7.5l-4.5,19.1c-1.4,5.8-5.7,7.6-11.4,7.6c-8.2,0-7.9-3.4-7.6-5.7h7.1c-0.1,0.4-0.1,0.8,0.1,1.1
	c0.3,0.3,0.7,0.5,1.2,0.4c1.1,0.2,2.1-0.5,2.3-1.6c0-0.1,0-0.1,0-0.2l0.9-3.9h-0.1c-1.3,1.7-3.4,2.7-5.6,2.5c-5.2,0-5-5-4-9.7
	s2.8-10.1,9.2-10.1c2.5,0,3.7,1,4.1,3h0.1L294.3,34.1z M291.2,38.9c-1.5,0-2.1,1.4-3,5.2c-0.6,2.8-0.8,4.2,0.8,4.2s2.2-1.5,2.8-4.2
	C292.6,40.3,292.7,38.9,291.2,38.9L291.2,38.9z"/>
<path class="st1" d="M302.3,34.1h8.1l-0.8,12.1h0.1l4.6-12.1h7.9l-10.2,19.7c-2.5,4.8-4,6.7-9.8,6.7c-1.2,0-2.4-0.1-3.6-0.3l1.1-4.7
	c0.7,0.1,1.3,0.1,2,0.1c1,0,1.9-0.6,2.2-1.6L302.3,34.1z"/>
<path class="st1" d="M221.5,110.2c-1.4,5-4.5,9.6-10.6,9.6c-7.9,0-7.4-7.1-5.9-13.7s4.3-13.7,12-13.7c5.7,0,7.4,3,6.4,8.2h-3.6
	c0.6-3,0.1-5.5-3.4-5.5c-4.7,0-6.5,5-7.8,11.1s-1.9,11,2.9,11c4.1,0,5.6-3.7,6.4-6.9L221.5,110.2L221.5,110.2z"/>
<path class="st1" d="M232.6,98.9c6,0,6.4,4.8,5.2,10.4s-3.8,10.4-9.8,10.4s-6.4-4.8-5.2-10.4S226.6,98.9,232.6,98.9z M234.3,109.3
	c1-4.3,1.1-8-2.4-8c-3.3,0-4.8,3.7-5.8,8s-1.1,8,2.2,8S233.3,113.6,234.3,109.3L234.3,109.3z"/>
<path class="st1" d="M251.5,119.2h-3.1l0.5-2.3h-0.1c-1.4,1.8-3.4,2.8-5.7,2.8c-5.5,0-4.6-4-4.1-6.3l3.1-14h3.3l-3.1,13.7
	c-0.3,1.5-0.8,4,2.2,4c2.4,0,4.5-1.7,5-4l3.1-13.7h3.3L251.5,119.2z"/>
<path class="st1" d="M258.8,99.4h3.1l-0.5,2.3h0.1c1.4-1.8,3.4-2.8,5.7-2.8c5.5,0,4.6,4,4.1,6.3l-3.1,14h-3.3l3.1-13.6
	c0.3-1.5,0.8-4-2.2-4c-2.4,0-4.5,1.7-5,4l-3,13.7h-3.3L258.8,99.4z"/>
<path class="st1" d="M278.1,93.7h3.3l-1.3,5.8h3.6l-0.5,2.4h-3.6l-2.8,12.7c-0.4,1.6-0.1,2.2,1.6,2.2c0.5,0,1,0,1.5-0.1l-0.6,2.6
	c-0.9,0.2-1.8,0.2-2.7,0.2c-3.4,0-3.9-1.3-3.3-3.9l3-13.7h-3l0.5-2.4h3L278.1,93.7z"/>
<path class="st1" d="M298.3,98.9c6,0,6.4,4.8,5.2,10.4s-3.8,10.4-9.8,10.4s-6.4-4.8-5.2-10.4S292.3,98.9,298.3,98.9z M300,109.3
	c1-4.3,1.1-8-2.4-8c-3.3,0-4.8,3.7-5.8,8s-1.1,8,2.2,8S299.1,113.6,300,109.3z"/>
<path class="st1" d="M307.9,99.4h3.1l-0.5,2.3h0.1c1.4-1.8,3.4-2.8,5.7-2.8c5.5,0,4.6,4,4.1,6.3l-3.1,14h-3.3l3-13.7
	c0.3-1.5,0.8-4-2.2-4c-2.4,0-4.5,1.7-5,4l-3,13.7h-3.3L307.9,99.4z"/>
<path class="st1" d="M332.4,92.8h3.4l-4.1,18.6c-0.9,3.9,0,5.7,3.4,5.7c3.6,0,5.2-2,6-5.7l4.1-18.6h3.4l-4.1,18.6
	c-1.1,5.1-4.6,8.3-10,8.3s-7.5-2.9-6.2-8.3L332.4,92.8z"/>
<path class="st1" d="M357.9,105.2c0.6-2.5,0.2-3.9-2.2-3.9c-1.9-0.2-3.6,1.1-4,3c-0.5,2.3,1.9,2.8,4.3,3.6s4.7,1.7,3.8,5.6
	c-0.9,4.2-4.2,6.2-8.1,6.2c-7.1,0-6-5-5.6-7h3.3c-0.5,2.4-0.3,4.6,2.9,4.6c2,0.1,3.8-1.3,4.2-3.3c0.6-2.7-1.8-3.2-4.2-4
	s-4.8-1.5-3.9-5.6c0.8-3.7,4.2-5.5,7.9-5.5c6,0,5.4,4,4.9,6.3L357.9,105.2L357.9,105.2z"/>
</svg>
