<svg id="Layer_1" data-name="Layer 1" xmlns="http://www.w3.org/2000/svg" viewBox="0 0 640.28 124.94"><defs><style>.cls-1{fill:#009ddc;}.cls-2{fill:#8ac4eb;}.cls-3{fill:#0079c1;}</style></defs><title>covisint</title><path class="cls-1" d="M131,136.49a35.22,35.22,0,0,0,5.42-5.36,35,35,0,0,1,0-44.12,35,35,0,1,0-49,49.49A35,35,0,0,1,131,136.49Z" transform="translate(-74.19 -74.02)"/><path class="cls-2" d="M136.46,131.13a35,35,0,0,0,5.43,5.36,34.94,34.94,0,0,1,43.58,0,35,35,0,1,0-49-49.49A35,35,0,0,1,136.46,131.13Z" transform="translate(-74.19 -74.02)"/><path class="cls-3" d="M136.46,131.13a35,35,0,0,0,0-44.12A35,35,0,0,0,136.46,131.13Z" transform="translate(-74.19 -74.02)"/><path class="cls-1" d="M185.47,136.49a34.93,34.93,0,0,1-43.58,0,34.68,34.68,0,0,0-5.43,5.36,35,35,0,0,1,0,44.12A35,35,0,1,0,185.47,136.49Z" transform="translate(-74.19 -74.02)"/><path class="cls-3" d="M141.89,136.49a34.93,34.93,0,0,0,43.58,0A34.94,34.94,0,0,0,141.89,136.49Z" transform="translate(-74.19 -74.02)"/><path class="cls-2" d="M136.46,141.85a34.87,34.87,0,0,0-5.42-5.36,34.94,34.94,0,0,1-43.58,0,35,35,0,1,0,49,49.48A35,35,0,0,1,136.46,141.85Z" transform="translate(-74.19 -74.02)"/><path class="cls-3" d="M131,136.49a35,35,0,0,0-43.58,0A34.94,34.94,0,0,0,131,136.49Z" transform="translate(-74.19 -74.02)"/><path class="cls-3" d="M136.46,141.85a35,35,0,0,0,0,44.12A35,35,0,0,0,136.46,141.85Z" transform="translate(-74.19 -74.02)"/><circle class="cls-1" cx="397.33" cy="11.79" r="9.1"/><circle class="cls-1" cx="495.11" cy="11.79" r="9.1"/><path class="cls-1" d="M292.41,127c-1.23-8.56-7.47-13.18-16-13.18-8,0-19.29,4.22-19.29,25.53,0,11.68,5.16,24,18.6,24,9,0,15.21-6,16.71-16h15.48c-2.85,18.19-14.12,28.25-32.18,28.25-22,0-34.09-15.61-34.09-36.26,0-21.18,11.54-37.75,34.63-37.75,16.29,0,30.15,8.16,31.64,25.4H292.41Z" transform="translate(-74.19 -74.02)"/><path class="cls-1" d="M369.95,138.51c0-12.1-6.11-24.73-20-24.73s-20,12.63-20,24.73,6.11,24.85,20,24.85,20-12.64,20-24.85m-55.41,0c0-21.47,12.9-36.95,35.45-36.95s35.45,15.48,35.45,36.95-12.9,37.07-35.45,37.07-35.45-15.48-35.45-37.07" transform="translate(-74.19 -74.02)"/><polygon class="cls-1" points="314.49 29.45 331.33 29.45 349.12 83.36 349.38 83.36 366.51 29.45 382.53 29.45 357.4 99.66 340.03 99.66 314.49 29.45"/><rect class="cls-1" x="389.59" y="29.45" width="15.48" height="70.22"/><path class="cls-1" d="M505.07,151.12c0.82,9,7.61,12.23,15.9,12.23,5.83,0,16-1.22,15.61-9.24s-11.68-9.09-23-11.68c-11.41-2.43-22.55-6.52-22.55-20.77,0-15.34,16.57-20.1,29.34-20.1,14.39,0,27.43,6,29.34,21.58H533.59c-1.35-7.33-7.47-9.36-14.26-9.36-4.48,0-12.77,1.09-12.77,7.2,0,7.6,11.41,8.68,22.82,11.27s22.68,6.66,22.68,20.5c0,16.71-16.84,22.82-31.37,22.82-17.65,0-30.83-7.88-31.1-24.45h15.48Z" transform="translate(-74.19 -74.02)"/><rect class="cls-1" x="487.38" y="29.45" width="15.48" height="70.22"/><path class="cls-1" d="M591.17,103.46h14.67v10.32l0.26,0.28A25.19,25.19,0,0,1,628,101.56c15.21,0,24.86,8.14,24.86,23.9v48.21H637.35V129.53c-0.27-11-4.63-15.75-13.72-15.75-10.32,0-17,8.15-17,18.48v41.41H591.17V103.46Z" transform="translate(-74.19 -74.02)"/><path class="cls-1" d="M659.34,103.46H671V82.41H686.5v21.06h14V115h-14v37.47c0,6.38.55,9.64,7.47,9.64a26.58,26.58,0,0,0,6.52-.54v12c-3.39.27-6.65,0.8-10,.8-16.16,0-19.15-6.25-19.42-17.93V115H659.34V103.46Z" transform="translate(-74.19 -74.02)"/><path class="cls-1" d="M707.5,77.88a7,7,0,1,1-7,6.91A6.91,6.91,0,0,1,707.5,77.88Zm0,12.89a5.93,5.93,0,1,0-5.74-6A5.75,5.75,0,0,0,707.5,90.77Zm-2.71-10h3.14c1.94,0,2.84.77,2.84,2.32a2.1,2.1,0,0,1-2.13,2.22L711,88.89H709.6l-2.22-3.5h-1.33v3.5h-1.27V80.76Zm1.27,3.61h1.32c1.12,0,2.13-.06,2.13-1.34,0-1.08-.93-1.25-1.78-1.25h-1.67v2.58Z" transform="translate(-74.19 -74.02)"/></svg>