<?xml version="1.0" encoding="utf-8"?>
<!-- Generator: Adobe Illustrator 19.2.0, SVG Export Plug-In . SVG Version: 6.00 Build 0)  -->
<svg version="1.1" id="Layer_1" xmlns="http://www.w3.org/2000/svg" xmlns:xlink="http://www.w3.org/1999/xlink" x="0px" y="0px"
	 viewBox="0 0 972 153" style="enable-background:new 0 0 972 153;" xml:space="preserve">
<style type="text/css">
	.st0{fill:#FFCC00;}
</style>
<title>Group</title>
<desc>Created with Sketch.</desc>
<path d="M281.8,48.4c-4-3.2-12.9-7.3-21.9-7.3c-20.7,0-32.9,14.8-32.9,34.5c0,21.2,14.6,35.4,32.9,35.4c9.1,0,16.3-2.9,21.2-6.2
	l4.5,6.9c-5.6,3.8-15.6,7.7-26.4,7.7c-30,0-45.2-20.5-45.2-43.6c0-21.1,16.5-43.1,46.6-43.1c12,0,20.4,4.2,25.9,8.5L281.8,48.4"/>
<path d="M301.9,65.6l4.3-4.5c2.5-2.5,6.5-4.3,9-4.3c2.6,0,6.6,1.9,9.9,5.9l-4.9,6.9c-2.6-1.3-5.3-2.5-8-2.5
	c-5.5,0-10.1,5.5-10.1,18.8V118h-10.8V58.1h10.5L301.9,65.6"/>
<path d="M321.2,87.4c0-19.4,14.4-30.7,29.5-30.7s29.6,11.3,29.6,30.7c0,18.6-11.9,32.1-29.6,32.1
	C333.1,119.4,321.2,105.9,321.2,87.4L321.2,87.4z M332.9,87.4c0,11.2,3.8,24.4,17.9,24.4s18-13.2,18-24.4c0-10.8-4.4-23-18-23
	C337.3,64.4,332.9,76.6,332.9,87.4z"/>
<path d="M428,58.1c5.9,14.2,11.7,28.6,17.5,45.7h0.2c4.7-17.6,9.6-32.2,14.4-46.9l9.9,1.7L449,118h-7.5c-6-14.8-12.1-29.7-18-46.7
	h-0.2c-5.8,17-11.6,31.8-17.5,46.7h-7.1L378,59.6l10.5-2.6c4.9,14.7,9.9,29.3,14.7,46.9h0.2c5.8-17.1,11.6-31.5,17.5-45.7L428,58.1"
	/>
<path d="M478.9,88.8c-0.1,12,8.4,23,20.2,23c5.5,0,12.2-2,16.4-5.1l3.1,5.9c-6.2,4.4-13.7,6.9-19.9,6.9c-18.7,0-31-11.5-31-32.6
	c0-20.7,14.9-30.2,28.4-30.2c18.2,0,24.3,16.4,23.1,32.1H478.9L478.9,88.8z M509.4,81.6c0-9.3-4-17.2-13.4-17.2
	c-11.5,0-16.1,9.6-16.4,17.2C479.6,81.6,509.4,81.6,509.4,81.6z"/>
<path d="M616.8,118h-11.6V76.3h-41V118h-11.6V34.2h11.6V68h41V34.2h11.6V118"/>
<path d="M621.5,87.4c0-19.4,14.4-30.7,29.5-30.7s29.6,11.3,29.6,30.7c0,18.6-11.9,32.1-29.6,32.1
	C633.3,119.4,621.5,105.9,621.5,87.4z M633.1,87.4c0,11.2,3.8,24.4,17.9,24.4c14.1,0,18-13.2,18-24.4c0-10.8-4.4-23-18-23
	C637.5,64.4,633.1,76.6,633.1,87.4z"/>
<path d="M694.6,65.6l4.3-4.5c2.5-2.5,6.5-4.3,9-4.3c2.6,0,6.6,1.9,9.9,5.9l-4.9,6.9c-2.6-1.3-5.3-2.5-8-2.5
	c-5.5,0-10.1,5.5-10.1,18.8V118H684V58.1h10.5L694.6,65.6"/>
<path d="M766,58.1c5.9,14.2,11.7,28.6,17.5,45.7h0.2c4.7-17.6,9.6-32.2,14.4-46.9l9.9,1.7L787,118h-7.5c-6-14.8-12.1-29.7-18-46.7
	h-0.2c-5.8,17-11.6,31.8-17.5,46.7h-7.1L716,59.6l10.5-2.6c4.9,14.7,9.9,29.3,14.7,46.9h0.2c5.8-17.1,11.6-31.5,17.5-45.7L766,58.1"
	/>
<path d="M835.3,111.5c-4.2,4.2-9.5,7.9-15,7.9c-10.1,0-17-7.2-17-18.4c0-10.4,8.9-17,21.3-20.7l14.5-4.6c-0.5-7.3-6.1-12-12-12
	c-6.9,0-11.4,2.9-15.7,6.5l-4.2-5.4c6-5.7,12.1-8.1,20.5-8.1c9,0,22.2,2.9,22.2,20.4v26.3c0,4.6,0.6,10.3,2.6,14.6h-11.7
	c-1.4-2.5-1.7-6.3-1.7-10.2L835.3,111.5L835.3,111.5z M828.8,85.9c-9.5,2.9-14.4,7.4-14.4,15c0,6.2,4.3,10.2,8.6,10.2
	c7.7,0,17.5-9.5,16.1-28.1L828.8,85.9L828.8,85.9z"/>
<path d="M870.4,58.1h15.7v6.2h-15.7v33.9c0,8.4,1.7,13.4,8.3,13.4c4,0,6.2-1,8.3-2l2.6,6c-3.7,2.4-8.1,3.8-12.2,3.8
	c-12,0-17.7-6.9-17.7-19.2V64.4h-8.4v-6.2h8.4V43.8l10.8-3.6L870.4,58.1"/>
<path d="M901.3,65.6c5.6-6,14.3-8.9,20.5-8.9c13.8,0,21.2,7.7,21.2,22.7V118h-10.8V81.7c0-11.3-4.8-17.1-14.5-17.1
	c-8.5,0-16.3,5.9-16.3,17.4v36h-10.8V30h10.7L901.3,65.6"/>
<path class="st0" d="M92.2,0.8c-0.3-0.5-0.6-0.8-1-0.8s-0.8,0.2-1.1,0.8L0.4,151.6c-0.3,0.5-0.4,0.8-0.4,0.8c0,0.1,0.3-0.2,0.6-0.6
	L89.4,44.7c0.4-0.5,0.6-0.7,0.7-0.6c0,0-0.1,0.3-0.4,0.8L28.3,151.6c-0.3,0.5-0.4,0.8-0.4,0.8c0.1,0.1,0.3-0.2,0.7-0.6l72.7-87.7
	c0.4-0.5,0.6-0.7,0.7-0.6c0.1,0,0,0.3-0.3,0.9l-47.8,87.2c-0.3,0.5-0.4,0.8-0.3,0.9c0.1,0.1,0.3-0.2,0.7-0.6l58-69.9
	c0.4-0.5,0.9-0.7,1.4-0.7s1,0.2,1.3,0.7l56.2,69.9c0.4,0.5,0.6,0.7,0.7,0.6c0.1,0,0-0.3-0.3-0.8L92.2,0.8"/>
<path d="M957.7,105.3h1.4c3,0,3.6-1.7,3.6-2.7c0-1.5-1.4-2.1-2.9-2.1h-2.1V105.3z M955.4,99.1h4.8c2.8,0,4.9,1.1,4.9,3.3
	c0,1.8-1.2,2.9-2.8,3.7l4.1,5.4l-2.3,0.6l-3.9-5.5h-2.5v5.2h-2.3C955.4,111.8,955.4,99.1,955.4,99.1z M969.6,105.9
	c0-5.3-4.3-9.9-9.5-9.9s-9.6,4.6-9.6,9.9c0,5.4,4.3,10,9.6,10C965.3,115.8,969.6,111.2,969.6,105.9L969.6,105.9z M948.4,105.9
	c0-6.5,5.2-11.8,11.6-11.8c6.4,0,11.6,5.3,11.6,11.8s-5.2,11.9-11.6,11.9C953.6,117.7,948.4,112.4,948.4,105.9L948.4,105.9z"/>
</svg>
