<?xml version="1.0" encoding="utf-8"?>
<!-- Generator: Adobe Illustrator 19.1.0, SVG Export Plug-In . SVG Version: 6.00 Build 0)  -->
<svg version="1.1" id="Layer_1" xmlns="http://www.w3.org/2000/svg" xmlns:xlink="http://www.w3.org/1999/xlink" x="0px" y="0px"
	 viewBox="0 0 1880 446.2" style="enable-background:new 0 0 1880 446.2;" xml:space="preserve">
<style type="text/css">
	.st0{fill:#1755A5;}
	.st1{fill:#486DB4;}
	.st2{fill:#456BB2;}
	.st3{fill:#4D71B5;}
	.st4{fill:#3B63AD;}
</style>
<path class="st0" d="M436.3,162.8c-31.6-110.9-139.5-179-253-159.4C93.1,18.9,20.7,90.8,3.7,181.4C2.5,188,2.6,194.8,0,201.2
	c0,1.7,0,3.3,0,5c0,2.2,0,4.1,0,6c0,7,0,14,0,21c0,3.4,0,3.4,0,6c0,1.7,0,3.3,0,5c1,8.7,1.4,17.5,3.4,26.1
	c11,48.4,34.8,89.3,72.3,122c29.2,25.6,63,41.9,100.8,50.3c10.1,2.2,20.4,2.4,30.6,3.6c1,0,2,0,3,0c3.3-0.8,6.7-0.8,10,0
	c1,0,2,0,3,0c3.3-1.1,6.7-0.2,10-0.5c1.7-0.1,3.4,0.3,5-0.4c8.6-0.6,17.2-1.7,25.7-3.3C391,418.4,471.9,287.5,436.3,162.8z
	 M424,275.8c-89.4,51.5-178.9,102.8-268.3,154.4c-4.3,2.5-4.6-0.4-5.7-2.8c-34-74.1-68-148.1-102-222.2c-9-19.6-18-39.3-27.1-58.9
	c-1.5-3.2-1.5-4.6,2.2-6.1c95.1-37.6,190.2-75.3,285.3-113c1-0.4,2-1.4,3.4-0.7c-0.6,2-2.6,2.3-4.1,3.2
	C229,75.4,150.2,121,71.4,166.6c-1.9,1.1-3.7,2.3-5.5,3.4c-0.2,0.4-0.9,0.6-0.8,1.2c0.3-0.1,0.5-0.1,0.8-0.1
	c22.7-8.4,45.5-16.8,68.2-25.3c63.5-23.8,126.9-47.8,190.4-71.6c1.5-0.6,3-1.7,5.1-0.9c-1,1.7-2.8,2.2-4.2,3
	C246.1,119.6,166.7,162.8,87.2,206c-0.7,0.4-1.4,0.8-2.1,1.3c-0.3,0.4-0.6,0.8-1,1c0.7,0.5,1.4,0.2,2.1,0
	c22.7-8.2,45.3-16.3,68-24.6c63.7-23.2,127.4-46.5,191.1-69.8c1.4-0.5,2.8-1.7,5.5-0.8c-2.4,1.4-4.2,2.4-6,3.4
	c-79.5,43.6-159,87.1-238.4,130.7c-0.7,0.4-1.4,0.8-2.2,1.3c-0.2,2.3,1.2,0.9,2,0.8c29.1-10.5,58.2-21,87.3-31.6
	c57.7-21,115.3-42,172.9-63c1-0.4,2.1-0.7,3.7,0.1c-82.9,46-165.7,91.9-248.6,137.9c0.1,0.3,0.3,0.7,0.4,1
	c87.9-33.6,175.7-67.2,264.7-101.3c-1.6,2.9-3.3,3.4-4.7,4.1c-78,44.3-155.9,88.6-233.9,133c-2,1.1-3.9,2.4-5.9,3.7
	c-0.2,0.4-0.9,0.6-0.8,1.2c0.3-0.1,0.5-0.1,0.8-0.1c23.9-8.8,47.7-17.5,71.5-26.4c62-23.1,124-46.3,186-69.4c1.6-0.6,3.2-2,5.3-0.9
	c-1.2,2-3.4,2.6-5.2,3.6C322,284,244.4,327,166.9,369.9c-1.3,0.7-2.6,1.5-3.8,2.3c-0.2,0.4-0.5,0.8-0.9,1c0.7,0.6,1.4,0.2,2,0
	c28.6-10.9,57.2-21.7,85.8-32.6c57-21.8,114-43.6,171-65.4c1.5-0.6,3-1.1,4.6-1.6C426.2,275.5,424.6,275.5,424,275.8z"/>
<path class="st0" d="M979.5,102.5c0,3.2,0,4.8,0,6.5c0,85.2,0,170.3,0,255.5c0,9.5,0.9,18.9,2.3,28.3c2.1,13.7,10.3,21.4,23,25.3
	c9.7,3,19.8,2.9,29.7,2.5c5.2-0.2,4.6,2.7,4.5,5.8c-0.1,2.9,1.3,6.1-4.2,6c-45.8-0.2-91.7-0.2-137.5,0c-4.8,0-4.9-2.1-4.8-5.6
	c0.1-3.3-0.7-6.6,4.8-6.2c6.8,0.5,13.7,0.5,20.4-0.7c23.7-4.1,31.2-15,33.2-35.3c0.7-7.6,1.1-15.3,1.1-22.9c0-96,0-192,0-288
	c0-3.4-0.7-6-3.1-8.4c-4.2-4.3-8.1-8.8-12.2-13.2c-16.7-18.3-37.9-26.6-62.3-26.8c-7.2,0-4-4.7-4.6-7.7c-0.9-4.2,1.6-4.4,4.9-4.4
	c34.8,0.1,69.7,0.1,104.5,0c3.2,0,5.1,1.1,7.1,3.5c83.1,101.6,166.4,203.1,249.6,304.6c1.1,1.4,2.3,2.7,3.6,4.2
	c1.2-1.8,0.7-3.5,0.7-5.1c0-79.3,0-158.6,0-238c0-9-0.7-17.9-1.9-26.9c-2.5-18.7-13.3-26.3-30.8-29.5c-7.4-1.3-15-1-22.4-0.9
	c-3.1,0-4.8-0.6-4.2-4c0.2-1.1,0.2-2.3,0-3.5c-0.5-3.5,0.9-4.5,4.4-4.5c45.8,0.1,91.7,0.1,137.5,0c4,0,4.7,1.4,4.5,4.9
	c-0.2,7.1,0,7.1-7.1,7.1c-7.8,0-15.6-0.2-23.3,1.7c-17.5,4.5-25.8,14.1-27.8,32.1c-1.2,10.5-1.5,20.9-1.5,31.4
	c-0.1,114,0,228-0.1,342c0,2.2,1.5,6.1-1.3,6.5c-3.9,0.5-8.5,2.2-12-2.1c-9.6-11.9-19.4-23.7-29.1-35.6
	c-62.3-75.8-124.6-151.6-186.9-227.4c-17.8-21.6-35.5-43.2-53.3-64.9C983.3,107.1,981.8,105.3,979.5,102.5z"/>
<path class="st0" d="M1377,369.7c0-22.3,0.1-44.7-0.1-67c0-3.5,0.9-4.5,4.4-4.4c7.4,0.2,7.3,0,8.8,7.5c2.4,12.1,5.5,24,9.2,35.7
	c9.8,31.1,30.5,52.2,60,64.9c31.4,13.4,63.5,16.3,95.5,2.6c26.8-11.4,42.5-37.5,40-65.4c-1.9-20.5-12.7-36.5-28-49.6
	c-15.5-13.3-33.7-22.6-51.3-32.7c-27.5-15.9-55.5-30.9-81.9-48.8c-16.9-11.5-32.5-24.4-43.9-41.7c-26.6-40.2-21.6-93.2,11.8-128.4
	c24.3-25.7,54.4-37.3,89.2-38.2c26.3-0.7,51.1,5.9,75,16.3c6.1,2.6,12.2,5.4,18.7,6.8c11.4,2.6,19.2-1.5,23.4-12.3
	c0.4-1.1,0.8-2.2,1.1-3.3c2.5-7.9,2.5-7.7,10.7-7.5c2.8,0.1,3.2,1.2,3.2,3.6c-0.1,45.3-0.1,90.7,0,136c0,2.8-0.8,4.1-3.7,3.7
	c-0.7-0.1-1.3-0.1-2,0c-4.9,0.8-6.7-1-7.4-6.2c-1.7-13.5-5.2-26.7-9.7-39.6c-18.5-54.1-75.9-77.1-117.4-71.4
	c-27.9,3.9-52.8,24.7-59,50.6c-4.8,19.9,1.2,36.8,15.2,51.2c13,13.4,28.5,23.4,44.2,33.2c28.6,17.9,59.2,32.6,88.1,50
	c18.2,11,36.6,21.9,51.1,38c39.1,43,37.8,107.5-3,149.2c-26,26.6-58,38.2-94.7,39.5c-27.3,1-53.2-4.9-78.6-13.8
	c-10.2-3.6-20.5-6.8-31.1-9c-14.8-3.2-21.5,1.1-24.9,15.9c-1.5,6.7-4.7,8.5-11.3,6.9c-2.9-0.7-1.7-2.9-1.7-4.4
	C1377,414.7,1377,392.2,1377,369.7z"/>
<path class="st0" d="M550.9,227.4c-0.1,35.9,4.3,70.4,19.1,102.8c21.4,46.9,58.6,73.4,108.8,81.8c28.9,4.8,57.4,2.8,84.9-8
	c21.6-8.5,38.6-23.2,54.1-40.1c9.6-10.5,18.4-21.5,26.7-33c2-2.9,3.8-3.5,6.1-0.9c1.7,2,7.5,1.7,4.9,6.2
	c-32.7,57.5-77.9,97.4-146.7,104.1c-37.7,3.6-74.6,0.7-109.7-14.3c-51-21.8-85.7-60.2-104-111.4c-29.1-81.4-19.8-159.3,31.7-229.7
	C560.4,39.1,607.2,14,663.2,6c42-6,81.8,1.2,119.5,20.7c4,2.1,8.1,4,12.3,5.4c8.2,2.7,15.9,0.2,21.5-6.4c4.5-5.4,7.2-11.6,9-18.2
	c1.8-6.4,6.8-2.4,10.3-3.2c3.4-0.8,2.3,2.5,2.4,4.1c2.3,34.4,4.6,68.8,6.9,103.1c0.7,10.3,1.5,20.6,1.9,30.9c0.1,1.6,2.1,5-2,4.8
	c-3-0.2-6.8,2-8.4-3.4c-3.7-13.3-8.9-26.1-14.9-38.6c-16.9-34.9-41.8-61.7-80-72.4c-51.8-14.6-99.6-6.7-139.4,31.7
	c-21.9,21.1-33.5,48.5-41.3,77.5C553.5,170.2,551.1,199,550.9,227.4z"/>
<path class="st0" d="M1760.8,217c0-44.3,0-88.6,0-133c0-9.7-0.7-19.3-1.8-28.9c-1.2-11.4-7.3-18.9-17.3-23.9
	c-11.1-5.5-22.9-6.6-35-6.2c-1.8,0.1-4.8,1.2-5.3-1c-0.7-3.1-0.5-6.7,0.1-9.9c0.3-1.6,3-0.8,4.6-0.8c26.2,0,52.3,0,78.5,0
	c30.2,0,60.3,0.2,90.5-0.2c5.9-0.1,4.8,3.1,5,6.4c0.2,3.8-0.1,6-5.1,5.7c-10-0.5-20-0.6-29.6,2.9c-12.5,4.5-20.2,12.7-22.5,26.1
	c-1.6,9.9-2.3,19.9-2.3,29.8c-0.1,93-0.1,185.9,0,278.9c0,10.5,0.4,21,2.4,31.3c1.4,7.3,5.2,12.8,11.3,16.9
	c9.4,6.3,19.8,9.2,31.1,9.4c2.5,0,5,0,7.5,0c7.1,0,9.1,2.8,7.3,10c-0.3,1.2-0.8,1.7-2,1.6c-1.2,0-2.3,0-3.5,0c-56,0-112,0-167.9-0.1
	c-1.8,0-4.7,1.2-5.2-1.3c-0.6-3-0.4-6.3,0.2-9.4c0.3-1.6,2.6-0.9,4-0.9c8.1-0.1,16.3,0.2,24.4-1.5c17.2-3.6,26.2-12.8,28.8-29.9
	c1.4-9.1,1.9-18.2,2-27.4C1760.9,313.6,1760.8,265.3,1760.8,217z"/>
<path class="st1" d="M84,208.3c0.7,0.5,1.4,0.2,2.1,0h0c-0.4-0.3-0.7-0.6-1.1-1C84.8,207.7,84.5,208.1,84,208.3z"/>
<path class="st1" d="M81,210.7c2.3-1.1,3.8-1.8,5.2-2.5l0,0h0c-0.7,0.2-1.4,0.5-2.1,0c0.5-0.2,0.7-0.6,1-1l0,0
	C83.7,207.8,82.2,208.2,81,210.7z"/>
<path class="st2" d="M162.1,373.2c0.7,0.6,1.4,0.2,2,0c-0.4-0.3-0.7-0.7-1.1-1C162.8,372.6,162.5,373,162.1,373.2z"/>
<path class="st2" d="M158.8,375.7c2.4-1.1,3.8-1.8,5.3-2.5c-0.7,0.3-1.4,0.6-2,0c0.5-0.2,0.7-0.6,0.9-1l0,0
	C161.6,372.7,160.1,373,158.8,375.7z"/>
<path class="st3" d="M106.1,249.2c-0.7-0.3-1.3-0.5-2-0.8C103.9,250.7,105.3,249.3,106.1,249.2z"/>
<path class="st3" d="M101.4,250c1.7,0.4,3.3,0.6,4.7-0.8c-0.8,0.1-2.2,1.5-2-0.8h0C103.2,248.9,101.9,248.7,101.4,250z"/>
<path class="st4" d="M141.2,334.3c0.3-0.1,0.5-0.1,0.8-0.1c0-0.4,0-0.7,0-1.1C141.7,333.5,141.1,333.7,141.2,334.3z"/>
<path class="st4" d="M138,334.7c1.9,0.9,3,0.5,4-0.5c-0.3,0-0.6,0-0.8,0.1c-0.1-0.6,0.6-0.8,0.8-1.2l0,0
	C140.8,333.6,139.6,334.1,138,334.7z"/>
<path class="st4" d="M65.2,171.3c0.3-0.1,0.5-0.1,0.8-0.1c0-0.4,0-0.7,0-1.1C65.7,170.5,65.1,170.7,65.2,171.3z"/>
<path class="st4" d="M62.1,171.7c1.8,0.8,3,0.5,3.9-0.5c-0.3,0-0.6,0-0.8,0.1c-0.1-0.6,0.6-0.8,0.8-1.2l0,0
	C64.8,170.6,63.6,171.1,62.1,171.7z"/>
</svg>
