<svg id="Layer_1" data-name="Layer 1" xmlns="http://www.w3.org/2000/svg" viewBox="0 0 561.98 201.3"><defs><style>.cls-1{fill:#293593;}</style></defs><title>Delphi Foundation logo</title><path class="cls-1" d="M100.65,82.76C86.37,74.34,70.38,72,54.31,71.13c-16.77-.86-33.62-0.27-50.43-0.48-3,0-4,.66-4,3.84C0.15,83.14,0,91.8,0,100.45c0,9,.07,18,0,27,0,2.47.52,3.52,3.28,3.5,20.63-.16,41.3.61,61.87-1.29,11.06-1,22-3,32.13-8,6.55-3.23,12.33-7.48,14.65-14.84C114.91,97.15,111,88.84,100.65,82.76ZM82.74,111.7c-6.06,3.76-13,4.92-19.86,5.9a209,209,0,0,1-36.26,2.23c-2.69-.08-3.79-0.57-3.74-3.55q0.26-15.47,0-30.95c-0.05-3,1-3.62,3.68-3.5,4.65,0.2,9.32.06,14,.05,13,0,25.9.57,38,6.13A26.7,26.7,0,0,1,84,91.37C91.44,97.32,90.84,106.67,82.74,111.7Z" transform="translate(0.08 0.04)"/><path class="cls-1" d="M524.27,101c0,8.66-.12,17.32.07,26,0.07,3-.75,4.09-3.89,3.93a124.89,124.89,0,0,0-15,0c-3.53.24-4.18-1.2-4.08-4.28,0.19-5.82-.05-11.66.1-17.49,0.07-2.54-.62-3.45-3.31-3.43q-26.23.17-52.47,0c-2.88,0-3.21,1.22-3.17,3.57,0.12,6-.09,12,0.09,18,0.09,2.88-.91,3.73-3.72,3.62-5.32-.2-10.66-0.17-16,0-2.49.07-3.55-.55-3.54-3.28q0.14-26.73,0-53.46c0-2.73,1-3.36,3.48-3.29,5.49,0.16,11,.19,16.49,0,2.77-.1,3.34,1,3.28,3.49-0.15,5.49.08,11-.1,16.49-0.09,2.65.82,3.37,3.4,3.36q26.23-.15,52.47,0c2.44,0,3.14-.8,3.09-3.15-0.14-5.49.06-11-.09-16.49-0.07-2.63.43-3.94,3.51-3.8,5.32,0.25,10.67.25,16,0,3.09-.15,3.49,1.16,3.45,3.78C524.18,83.37,524.27,92.2,524.27,101Z" transform="translate(0.08 0.04)"/><path class="cls-1" d="M147.31,103.81c4.8,7.53,11.38,10.19,18.31,12.09,17.32,4.74,34.86,4.37,52.31,1.16,4.88-.9,6,0.61,6,4.78a15.06,15.06,0,0,0,.42,4c0.56,2-.32,2.91-2.09,3.09-28.46,2.9-56.73,3.59-83.87-7.76a36.42,36.42,0,0,1-9.29-5.77c-10.38-8.69-10.62-21.77-.39-30.63,8.15-7.06,18.17-10.26,28.44-12.4a180.86,180.86,0,0,1,63.44-1.52c3.19,0.46,4.65,1.2,3.47,4.57a10.61,10.61,0,0,0-.47,2.95c-0.22,4.42-2,5.25-6.5,4.33-20-4.07-39.91-3.78-59.32,3.42-4.25,1.58-6.26,3.13-9.62,7h20.19c9.49,0,19,.31,28.47-0.13,4.8-.22,4.77,2,4.88,5.59,0.12,4-.71,5.47-5.1,5.37-14.48-.3-29-0.11-43.46-0.11h-5.86Z" transform="translate(0.08 0.04)"/><path class="cls-1" d="M400.55,76.27c-7.49-3.48-15.62-4.54-23.7-5.23-16.61-1.41-33.29-.52-49.94-0.82-3.27-.06-3.83,1.23-3.78,4.09,0.15,8.66.06,17.32,0.06,26h-0.08c0,9,.11,18-0.06,27-0.05,2.85.81,3.75,3.65,3.64,5.32-.21,10.67-0.24,16,0,3.08,0.14,3.57-1.15,3.48-3.79-0.17-5,.17-10-0.12-15-0.2-3.43,1.1-4.21,4.27-4.09,6,0.23,12,.16,18,0,11.16-.21,22.19-1.24,32.54-5.91,5.79-2.61,10.33-6.32,10.22-13.34S406,78.79,400.55,76.27ZM382.76,93.73c-5.89,2.58-12.25,2.77-18.53,3.19-3.65.24-7.32,0-11,0-7.13,0-7.13,0-7.13-7,0-8,0-8,8.15-8h5.91a61.09,61.09,0,0,1,22.57,3.44c1.78,0.66,4.12,1.32,4.11,3.78S384.74,92.86,382.76,93.73Z" transform="translate(0.08 0.04)"/><path class="cls-1" d="M275,130.86c-11.81,0-23.62-.07-35.44.06-2.73,0-3.75-.6-3.73-3.55q0.19-26.7,0-53.4c0-3,1.14-3.58,3.79-3.49,5.32,0.17,10.65.23,16,0,3-.14,3.48,1.11,3.46,3.74-0.11,13.47.09,27-.14,40.43-0.06,3.8.8,5.06,4.84,5,15.14-.26,30.29.24,45.41-0.27,6-.21,4.58,3.16,5,6.46,0.47,4.18-1,5.28-5.17,5.17C297.64,130.66,286.33,130.86,275,130.86Z" transform="translate(0.08 0.04)"/><path class="cls-1" d="M561.84,100.75c0,8.83-.1,17.65.06,26.48,0,2.78-.7,3.82-3.61,3.7-5.32-.22-10.66-0.16-16,0-2.42.07-3.57-.36-3.55-3.2,0.12-18,.09-36,0-54,0-2.13.57-2.91,2.79-2.86,5.66,0.14,11.33.17,17,0,2.64-.08,3.4.78,3.36,3.39C561.75,83.1,561.84,91.92,561.84,100.75Z" transform="translate(0.08 0.04)"/><path class="cls-1" d="M294.06,196.9c0-12,0-23.95,0-35.92,0-2.2-.37-3.3-2.95-3.28s-3.15.88-3.06,3.22c0.15,4,0,8,0,12.71a44.63,44.63,0,0,0-4-2.26c-6.93-2.93-13.71-2.81-19.64,2.16-5,4.21-6.48,9.82-4.71,16.21,2.85,10.26,14.88,14.54,25.22,8.92,1.4-.76,2.64-3,3.59.66,0.36,1.41,3,.79,4.59.51S294.06,197.93,294.06,196.9Zm-17,.1c-7.14.14-11.87-4.52-11.87-11.69,0-7,4.58-11.64,11.4-11.69s11.44,4.46,11.5,11.48C288.18,192.28,283.92,196.87,277.08,197Z" transform="translate(0.08 0.04)"/><path class="cls-1" d="M322.52,28.9c6,0.31,12,.08,18,0.08,6.23,0,6.84-.72,5.39-6.77a13,13,0,0,0-3.63-6.41c-4.34-4.19-14.35-5.37-20.75-2.43-5.62,2.58-8.85,8.66-8.34,15.72,0.48,6.62,3.83,11.16,9.7,13.13,7.3,2.44,16.93.73,20.59-3.72a7.69,7.69,0,0,0,2.08-5c-3.05-.66-5.3-0.48-7.67,2.44-4.73,5.81-15.09,3.81-17.87-3C318.89,30.26,318.65,28.7,322.52,28.9Zm5.14-12.84c5.26-1,9.77.95,11.62,4.75,1.25,2.57,1.46,4.36-2.44,4.22-5.64-.2-11.3-0.05-17.15-0.05C319.92,19.52,322.94,16.94,327.66,16.06Z" transform="translate(0.08 0.04)"/><path class="cls-1" d="M338.91,196.89c0.07-2.66,0-5.32,0-8h0q0-3,0-6c0-7.71-1.64-10.49-7.36-12.5-6.51-2.29-16.46-.53-19.6,3.56-0.85,1.11-2.44,2.66-1.24,3.83s3.49,0.93,5.16.1c0.8-.4,1.15-1.61,1.88-2.26,3.89-3.52,12.46-2.48,14.5,1.74,1.22,2.53,1.49,4.32-2.41,4.33-5,0-10-.32-14.82,1.25-3.77,1.22-6.52,3.32-6.94,7.52-0.44,4.39,1.79,7.42,5.58,9.09a18.54,18.54,0,0,0,15.87-.25c1.59-.74,3.39-4,4.84.35,0.15,0.45,2.54.46,3.76,0.15C339.62,199.45,338.89,197.93,338.91,196.89Zm-6-8.2c-0.34,5.23-4.19,8.28-10.76,8.32a8.15,8.15,0,0,1-5.75-1.56,4.9,4.9,0,0,1-2.25-4.69,4.6,4.6,0,0,1,3.45-3.81c4.51-1.56,9.18-1,13.79-1.14C333.62,185.74,333,187.5,332.93,188.69Z" transform="translate(0.08 0.04)"/><path class="cls-1" d="M432.45,170.19a28.09,28.09,0,0,0-12.9-.06c-7,1.57-11.06,6.08-11.75,12.47-1.29,12,5,18.46,18.18,18.34a38,38,0,0,0,4,0c8-.85,13.48-6,14.06-13.09C444.83,178.24,441,172.28,432.45,170.19ZM425.78,197c-7.38,0-12-4.47-12-11.63s4.51-11.69,11.87-11.75c7.52-.07,12.41,4.65,12.33,11.9C437.94,192.49,433.11,197,425.78,197Z" transform="translate(0.08 0.04)"/><path class="cls-1" d="M137,170.17a26.58,26.58,0,0,0-15.72.94,13.57,13.57,0,0,0-8.31,8.71c-4,11.7,3.48,21.09,16.83,21.1a46.62,46.62,0,0,0,5,0c8.34-.9,13.52-6.16,14.12-14.2C149.56,178.18,145.31,172,137,170.17ZM130.51,197c-7.22,0-12.23-4.73-12.31-11.6s5.21-11.91,12.65-11.79c7.25,0.12,12.06,4.91,11.95,11.88S137.85,197,130.51,197Z" transform="translate(0.08 0.04)"/><path class="cls-1" d="M70.88,179c0-6,.14-12-0.06-18-0.09-2.7.85-3.34,3.4-3.29,7.81,0.15,15.62.05,23.44,0.06,1.65,0,3.26-.31,3.31,2.37,0,2.86-1.57,2.74-3.52,2.72-5.82,0-11.64.1-17.45-.07-2.44-.07-3,0.78-3.06,3.11-0.38,10.29-.46,10.28,9.8,10.28,3.49,0,7,.06,10.47,0,1.87,0,2.65.61,2.68,2.58,0,2.16-1.1,2.42-2.8,2.41-5.49,0-11,.12-16.45-0.07-2.76-.1-3.86.61-3.69,3.56,0.24,4.14-.11,8.32.12,12.46,0.15,2.65-1,2.88-3.21,2.95-2.47.07-3.08-.81-3-3.14C71,190.94,70.88,185,70.88,179Z" transform="translate(0.08 0.04)"/><path class="cls-1" d="M272.4,17.65c4.2-4.62,8.44-6,13.36-5.81,8.44,0.3,13.19,5,13.35,13.47,0.08,4.33,0,8.66,0,13,0,1.83.78,4-2.65,4s-3-2.15-3-4.28c0-4,.12-8,0-12-0.26-6.32-3-9.57-8.19-10.07-6-.59-10.88,2.78-12.19,8.64-1.07,4.76-.57,9.62-0.55,14.44,0,2.26-.48,3.28-3,3.24-2.37,0-2.67-1.08-2.66-3,0.06-12.15.08-24.31,0-36.46,0-2.24.8-2.78,2.91-2.8,2.3,0,2.8,1,2.76,3C272.33,7.39,272.4,11.85,272.4,17.65Z" transform="translate(0.08 0.04)"/><path class="cls-1" d="M234,0c5.83,0,11.65,0,17.48,0,1.85,0,3.59-.35,3.54,2.63C255,5.79,253,5,251.29,5a102.37,102.37,0,0,1-10.48,0c-3.23-.27-3.87,1-3.82,4,0.17,9.82,0,19.64.11,29.47,0,2.51-.21,3.88-3.36,3.86s-2.8-1.91-2.8-3.88c0-9.82-.11-19.65.07-29.47,0.05-3-.63-4.21-3.83-4-3.64.29-7.32,0-11,.07-1.72,0-3.22.17-3.22-2.45C213,0.19,214.12,0,216,0,222,0.07,228,0,234,0Z" transform="translate(0.08 0.04)"/><path class="cls-1" d="M464,175.38c5.68-5.75,11.77-7.07,18.44-5,5.42,1.68,8.34,6,8.55,12.17,0.16,4.82-.1,9.66.1,14.47,0.1,2.49-.75,3-3.11,3-2.66,0-2.94-1.2-2.88-3.33,0.11-4.32.1-8.65,0-13-0.12-5.91-2.77-9.3-7.66-10a11,11,0,0,0-12.26,7.2c-1.71,4.84-.75,9.9-1,14.86-0.1,1.95.92,4.31-2.86,4.29s-2.92-2.28-2.93-4.31c0-6.82-.11-13.65,0-20.47,0-1.59-1.72-4.1,1.88-4.54C463.34,170.4,464.45,171.67,464,175.38Z" transform="translate(0.08 0.04)"/><path class="cls-1" d="M217.43,175.83c5.18-5.43,9.94-6.81,15.38-6.17,6.59,0.77,10.83,4.47,11.49,11,0.57,5.6.24,11.3,0.43,16.94,0.09,2.68-1.7,2.22-3.33,2.36-2,.17-2.61-0.59-2.56-2.53,0.11-4.16.06-8.32,0-12.48-0.06-7.35-3.11-11.16-9-11.35-6.46-.2-11.37,4.25-11.75,11-0.24,4.15-.16,8.32-0.05,12.48,0.05,2.07-.44,3-2.74,2.95-2.14-.06-3.35-0.27-3.29-2.93,0.17-7.32,0-14.65.11-22,0-1.6-1.48-4.21,2.15-4.36C217,170.67,218.45,171.54,217.43,175.83Z" transform="translate(0.08 0.04)"/><path class="cls-1" d="M189.94,195.44c-5.06,5.48-10.8,6.55-16.94,5.21s-9.44-5.85-9.77-12.78c-0.22-4.64.07-9.31-.1-14-0.08-2.4.74-3.1,3.12-3.17,2.71-.09,2.9,1.21,2.84,3.31-0.11,3.82-.05,7.64,0,11.47,0.05,7.45,3,11.23,8.83,11.47,6.66,0.28,11.59-4.24,12-11.22,0.21-3.64.1-7.31,0.05-11,0-2.24-.34-4.18,3.14-4.08,3.21,0.09,2.83,1.92,2.82,3.92,0,7,.09,14-0.07,20.94,0,1.55,1.63,4.07-2,4.48C190.67,200.42,189.86,198.85,189.94,195.44Z" transform="translate(0.08 0.04)"/><path class="cls-1" d="M367.95,200.27c-6.84-.08-9-2.14-9.14-8.87-0.08-4-.22-8,0-12,0.22-3.28-.45-5-4.22-4.56-1.38.18-3.54,0.87-3.54-2s2.12-1.94,3.56-2c2.13-.11,4.59.49,4.14-3.08-0.42-3.33,2.36-4.1,4.42-4.13,2.59,0,1.35,2.59,1.27,3.89-0.23,3.28,1.6,3.22,4,3.4,1.56,0.12,4.42-1.74,4.6,1.8s-2.8,2.24-4.3,2.1c-3.68-.34-4.5,1.17-4.26,4.52,0.28,4,.08,8,0.08,12,0,3.2,1.29,4.93,4.77,4.91,1.42,0,4-1.6,4,1.76s-2.89,1.67-4.46,2.26A3.07,3.07,0,0,1,367.95,200.27Z" transform="translate(0.08 0.04)"/><path class="cls-1" d="M386.93,185.48c0-4,.1-7.95,0-11.92-0.08-2.15.62-2.91,2.8-2.8,1.9,0.09,3.11.28,3.08,2.68q-0.16,11.92,0,23.84c0,2.26-.89,2.77-2.94,2.77s-3-.29-2.94-2.65C387.06,193.43,386.93,189.45,386.93,185.48Z" transform="translate(0.08 0.04)"/><path class="cls-1" d="M386.94,160.65c-0.5-2.45.66-3.08,3-3,2,0.08,3,.55,2.93,2.8s-0.41,3.34-3,3.36S386.54,163,386.94,160.65Z" transform="translate(0.08 0.04)"/></svg>