<svg id="Layer_1" data-name="Layer 1" xmlns="http://www.w3.org/2000/svg" viewBox="0 0 279.84 63.85"><defs><style>.cls-1{fill:#0054a6;}</style></defs><title>DELPHI_TagEng_CMYK</title><rect class="cls-1" y="48.92" width="1.88" height="14.67"/><path class="cls-1" d="M12.54,63.58V56.94c0-1.57-.64-2.5-2.3-2.5A2.57,2.57,0,0,0,8,56.05a6.91,6.91,0,0,0-.37,2.67v4.86H5.84V53.12H7.37l0.14,1.57a3.54,3.54,0,0,1,3.17-1.84c2.38,0,3.62,1.43,3.62,3.85v6.89H12.54Z"/><path class="cls-1" d="M24.61,63.58V56.94c0-1.57-.64-2.5-2.3-2.5A2.56,2.56,0,0,0,20,56.05a6.9,6.9,0,0,0-.37,2.67v4.86H17.9V53.12h1.53l0.15,1.57a3.54,3.54,0,0,1,3.17-1.84c2.38,0,3.62,1.43,3.62,3.85v6.89H24.61Z"/><path class="cls-1" d="M35.7,55.1a2.75,2.75,0,0,0-3.77,0,4.7,4.7,0,0,0-1,3.25,4.7,4.7,0,0,0,1,3.25,2.75,2.75,0,0,0,3.77,0,4.7,4.7,0,0,0,1-3.25,4.7,4.7,0,0,0-1-3.25M37,62.63a4.72,4.72,0,0,1-6.33,0,5.7,5.7,0,0,1-1.49-4.28,5.7,5.7,0,0,1,1.49-4.28,4.71,4.71,0,0,1,6.33,0,5.72,5.72,0,0,1,1.49,4.28A5.72,5.72,0,0,1,37,62.63"/><polygon class="cls-1" points="45.58 63.58 43.67 63.58 39.8 53.12 41.64 53.12 44.66 61.52 47.58 53.12 49.36 53.12 45.58 63.58"/><path class="cls-1" d="M57.5,58.54l-2.81.17c-1.05.06-2.3,0.56-2.3,1.88a1.79,1.79,0,0,0,2.07,1.8,3,3,0,0,0,2.15-.85,3.38,3.38,0,0,0,.89-2.38V58.54Zm1.61,5.19a1.49,1.49,0,0,1-1.51-1.59h0a3.81,3.81,0,0,1-3.37,1.71,3.28,3.28,0,0,1-3.6-3.22c0-1.35.87-3.11,3.72-3.27l3.19-.18V56.41a2.07,2.07,0,0,0-.54-1.6,2.37,2.37,0,0,0-1.72-.54,2.59,2.59,0,0,0-1.9.62,1.72,1.72,0,0,0-.52,1.26H51.1A3.1,3.1,0,0,1,52,54a4.5,4.5,0,0,1,3.23-1.12c2,0,3.19.87,3.68,2a4,4,0,0,1,.31,1.61v5.07c0,0.56.23,0.7,0.58,0.7a2.57,2.57,0,0,0,.45-0.06v1.3a2.44,2.44,0,0,1-1.16.25"/><path class="cls-1" d="M66.36,63.73a2.57,2.57,0,0,1-2.88-2.83V54.62h-2V53.12h2V50.45L65.24,50v3.08h3.1v1.51h-3.1v6.06a1.22,1.22,0,0,0,1.41,1.43,13,13,0,0,0,1.8-.19v1.51a7.69,7.69,0,0,1-2.09.29"/><path class="cls-1" d="M71,53.12h1.8V63.58H71V53.12Zm-0.12-4.47h2v2.07h-2V48.65Z"/><path class="cls-1" d="M82.29,55.1a2.75,2.75,0,0,0-3.77,0,4.69,4.69,0,0,0-1,3.25,4.69,4.69,0,0,0,1,3.25,2.75,2.75,0,0,0,3.77,0,4.7,4.7,0,0,0,1-3.25,4.7,4.7,0,0,0-1-3.25m1.28,7.53a4.72,4.72,0,0,1-6.33,0,5.7,5.7,0,0,1-1.49-4.28,5.7,5.7,0,0,1,1.49-4.28,4.71,4.71,0,0,1,6.33,0,5.72,5.72,0,0,1,1.49,4.28,5.72,5.72,0,0,1-1.49,4.28"/><path class="cls-1" d="M94.77,63.58V56.94c0-1.57-.64-2.5-2.3-2.5a2.57,2.57,0,0,0-2.28,1.61,6.92,6.92,0,0,0-.37,2.67v4.86H88.07V53.12H89.6l0.14,1.57a3.54,3.54,0,0,1,3.17-1.84c2.38,0,3.62,1.43,3.62,3.85v6.89H94.77Z"/><path class="cls-1" d="M110.73,49.93a1.37,1.37,0,0,0-1.49,1.43v1.76h3v1.49h-3v9h-1.76v-9h-1.9V53.12h1.9V51.25a2.84,2.84,0,0,1,3-2.81,10.86,10.86,0,0,1,1.94.19V50.1a12.89,12.89,0,0,0-1.74-.17"/><path class="cls-1" d="M120.19,55.1a2.75,2.75,0,0,0-3.77,0,4.69,4.69,0,0,0-1,3.25,4.69,4.69,0,0,0,1,3.25,2.75,2.75,0,0,0,3.77,0,4.69,4.69,0,0,0,1-3.25,4.69,4.69,0,0,0-1-3.25m1.28,7.53a4.72,4.72,0,0,1-6.33,0,5.7,5.7,0,0,1-1.49-4.28,5.7,5.7,0,0,1,1.49-4.28,4.71,4.71,0,0,1,6.33,0A5.71,5.71,0,0,1,123,58.35a5.71,5.71,0,0,1-1.49,4.28"/><path class="cls-1" d="M130.64,54.75a2.87,2.87,0,0,0-2,.83,4.69,4.69,0,0,0-1,3.35v4.66H126V53.12h1.55L127.67,55a3.24,3.24,0,0,1,3.12-1.9,5.35,5.35,0,0,1,.83.06v1.71a5.23,5.23,0,0,0-1-.08"/><path class="cls-1" d="M144,63.73a2.57,2.57,0,0,1-2.88-2.83V54.62h-2V53.12h2V50.45l1.76-.41v3.08H146v1.51h-3.11v6.06a1.22,1.22,0,0,0,1.41,1.43,13,13,0,0,0,1.8-.19v1.51a7.71,7.71,0,0,1-2.09.29"/><path class="cls-1" d="M155.3,63.58V56.94c0-1.57-.64-2.5-2.3-2.5a2.57,2.57,0,0,0-2.28,1.61,6.91,6.91,0,0,0-.37,2.67v4.86h-1.76V48.65h1.76V54.5a3.56,3.56,0,0,1,3.06-1.65c2.38,0,3.64,1.43,3.64,3.85v6.89H155.3Z"/><path class="cls-1" d="M166.7,55.29a2.48,2.48,0,0,0-2.07-1,2.91,2.91,0,0,0-2.88,3.08h5.59a3.64,3.64,0,0,0-.64-2.13m2.42,3.64h-7.41a3.87,3.87,0,0,0,1,2.63,3,3,0,0,0,3.87.06,2.25,2.25,0,0,0,.62-1.14h1.72a3.86,3.86,0,0,1-1.61,2.59,4.83,4.83,0,0,1-2.67.78,4.47,4.47,0,0,1-3.48-1.57,5.93,5.93,0,0,1-1.3-3.89,6.41,6.41,0,0,1,.81-3.35,4.48,4.48,0,0,1,4-2.19,4.21,4.21,0,0,1,3.19,1.34,5.4,5.4,0,0,1,1.32,3.69Z"/><path class="cls-1" d="M184.75,50.61h-3.91v5.15h3.91c1.74,0,3-.71,3-2.57s-1.24-2.59-3-2.59m2.91,13-2.77-6.1h-4.06v6.1H179V48.92h5.75a5,5,0,0,1,3.72,1.3,4.16,4.16,0,0,1,1.16,3,3.92,3.92,0,0,1-1.12,2.9,4.17,4.17,0,0,1-1.76,1l2.94,6.46h-2Z"/><path class="cls-1" d="M198.51,55.29a2.48,2.48,0,0,0-2.07-1,2.91,2.91,0,0,0-2.88,3.08h5.58a3.65,3.65,0,0,0-.64-2.13m2.42,3.64h-7.4a3.85,3.85,0,0,0,1,2.63,3,3,0,0,0,3.87.06,2.24,2.24,0,0,0,.62-1.14h1.71a3.87,3.87,0,0,1-1.61,2.59,4.83,4.83,0,0,1-2.67.78A4.47,4.47,0,0,1,193,62.28a6,6,0,0,1-1.3-3.89,6.36,6.36,0,0,1,.81-3.35,4.48,4.48,0,0,1,4-2.19,4.2,4.2,0,0,1,3.18,1.34A5.39,5.39,0,0,1,201,57.88Z"/><path class="cls-1" d="M209.88,58.54l-2.81.17c-1.06.06-2.3,0.56-2.3,1.88a1.79,1.79,0,0,0,2.07,1.8,3,3,0,0,0,2.15-.85,3.37,3.37,0,0,0,.89-2.38V58.54Zm1.61,5.19A1.49,1.49,0,0,1,210,62.14h0a3.81,3.81,0,0,1-3.37,1.71,3.28,3.28,0,0,1-3.6-3.22c0-1.35.87-3.11,3.72-3.27l3.19-.18V56.41a2.07,2.07,0,0,0-.54-1.6,2.37,2.37,0,0,0-1.72-.54,2.58,2.58,0,0,0-1.9.62,1.71,1.71,0,0,0-.52,1.26h-1.72A3.1,3.1,0,0,1,204.4,54a4.5,4.5,0,0,1,3.23-1.12c2,0,3.19.87,3.68,2a4,4,0,0,1,.31,1.61v5.07c0,0.56.23,0.7,0.58,0.7a2.55,2.55,0,0,0,.45-0.06v1.3a2.44,2.44,0,0,1-1.16.25"/><path class="cls-1" d="M217.54,63.71c-1.53,0-2.19-.91-2.19-2.57V48.65h1.76V61a0.87,0.87,0,0,0,.95,1.08,7.18,7.18,0,0,0,.73,0v1.49a4.59,4.59,0,0,1-1.24.13"/><polygon class="cls-1" points="240.51 63.58 238.54 63.58 235.19 51.77 231.8 63.58 229.85 63.58 226.91 48.92 228.63 48.92 230.97 60.88 234.36 49.12 236.02 49.12 239.41 60.85 241.75 48.92 243.43 48.92 240.51 63.58"/><path class="cls-1" d="M251.71,55.1a2.76,2.76,0,0,0-3.77,0,4.7,4.7,0,0,0-1,3.25,4.7,4.7,0,0,0,1,3.25,2.75,2.75,0,0,0,3.77,0,4.71,4.71,0,0,0,1-3.25,4.7,4.7,0,0,0-1-3.25M253,62.63a4.72,4.72,0,0,1-6.33,0,5.7,5.7,0,0,1-1.49-4.28,5.7,5.7,0,0,1,1.49-4.28,4.71,4.71,0,0,1,6.33,0,5.71,5.71,0,0,1,1.49,4.28A5.71,5.71,0,0,1,253,62.63"/><path class="cls-1" d="M262.16,54.75a2.87,2.87,0,0,0-2,.83,4.69,4.69,0,0,0-1,3.35v4.66h-1.74V53.12H259L259.18,55a3.25,3.25,0,0,1,3.13-1.9,5.35,5.35,0,0,1,.83.06v1.71a5.23,5.23,0,0,0-1-.08"/><path class="cls-1" d="M267.53,63.71c-1.53,0-2.2-.91-2.2-2.57V48.65h1.76V61a0.87,0.87,0,0,0,1,1.08,7.2,7.2,0,0,0,.72,0v1.49a4.56,4.56,0,0,1-1.24.13"/><path class="cls-1" d="M277,55a2.4,2.4,0,0,0-1.7-.68c-2.34,0-3,2.09-3,4s0.62,4,3,4a2.41,2.41,0,0,0,1.7-.68,4.34,4.34,0,0,0,1.16-3.33A4.33,4.33,0,0,0,277,55m1.26,8.56-0.12-1.37A3.67,3.67,0,0,1,275,63.85a4,4,0,0,1-3-1.14,6.2,6.2,0,0,1-1.51-4.35,6.17,6.17,0,0,1,1.59-4.47A4.08,4.08,0,0,1,275,52.85a3.65,3.65,0,0,1,3,1.49V48.65h1.76V63.58h-1.55Z"/><path class="cls-1" d="M17.33,26.38H31.47c18.85,0,33.14-3.29,33.14-13s-14.3-13-33.14-13H17.33V26.38Zm140.13,0h10.67V19.54h7.69c12.24,0,21.42-2.65,21.42-9.54S188.05,0.44,175.81.44H157.46V26.38Zm-54.89-10v-6H80.63C82.94,7,90.14,6,98.19,6A82,82,0,0,1,111.77,7.2L113,1.41A84.09,84.09,0,0,0,97.68,0c-14.91,0-28.9,3.81-28.9,13.4s14,13.4,28.9,13.4A84.1,84.1,0,0,0,113,25.38s-1.21-5.78-1.23-5.78a82.86,82.86,0,0,1-13.58,1.16c-8.07,0-15.27-.9-17.59-4.37h22Zm131.18,10h10.67V0.44H233.74v9.87h-21V0.44H202.12V26.38h10.67v-9.9h21v9.9ZM130.07,0.44H119.22V26.38h33V20.31H130.07V0.44Zm-98.6,6.3c12.44,0,22.09,1.44,22.09,6.66s-9.64,6.69-22.09,6.69H28V6.74h3.47Zm220.07-6.3V26.38h11V0.44h-11Zm-75.59,6c6.3,0,10.1,1,10.1,3.52s-3.8,3.5-10.1,3.5h-7.82l0-7h7.79Z"/></svg>