<svg xmlns="http://www.w3.org/2000/svg" viewBox="0 0 724 240" width="724" height="240">
    <path fill="#EA4335" d="M305.86 126.45c0 34.05-26.65 59.13-59.36 59.13-32.7 0-59.36-25.09-59.36-59.13 0-34.27 26.66-59.14 59.36-59.14 32.71 0 59.36 24.87 59.36 59.14zm-25.98 0c0-21.28-15.46-35.84-33.38-35.84s-33.38 14.56-33.38 35.84c0 21.05 15.46 35.84 33.38 35.84s33.38-14.79 33.38-35.84z"/>
    <path fill="#FBBC05" d="M434.86 126.45c0 34.05-26.65 59.13-59.36 59.13-32.7 0-59.36-25.09-59.36-59.13 0-34.27 26.66-59.14 59.36-59.14 32.71 0 59.36 24.87 59.36 59.14zm-25.98 0c0-21.28-15.46-35.84-33.38-35.84s-33.38 14.56-33.38 35.84c0 21.05 15.46 35.84 33.38 35.84s33.38-14.79 33.38-35.84z"/>
    <path fill="#4285F4" d="M558.7 71v106.07c0 43.68-25.76 61.6-56.22 61.6-28.67 0-45.92-19.26-52.42-34.94l22.62-9.41c4.03 9.63 13.89 21.05 29.79 21.05 19.49 0 31.58-12.1 31.58-34.72v-8.51h-.89c-5.82 7.17-17.03 13.44-31.14 13.44-29.57 0-56.67-25.76-56.67-58.91 0-33.38 27.1-59.36 56.67-59.36 14.11 0 25.31 6.27 31.14 13.22h.89V71h24.65zm-22.85 55.67c0-20.83-13.89-36.06-31.58-36.06-17.92 0-32.93 15.23-32.93 36.06 0 20.61 15.01 35.62 32.93 35.62 17.69 0 31.58-15.01 31.58-35.62z"/>
    <path fill="#34A853" d="M601.98 8.18V182H576V8.18h25.98z"/>
    <path fill="#EA4335" d="M700.72 145.94l20.16 13.44c-6.5 9.63-22.18 26.21-49.28 26.21-33.6 0-58-25.98-58-59.13 0-35.17 24.62-59.14 55.09-59.14 30.69 0 45.7 24.42 50.62 37.63l2.69 6.72-79.07 32.7c6.05 11.87 15.46 17.92 28.67 17.92 13.22 0 22.4-6.5 29.12-16.35zm-62.05-21.28l52.86-21.95c-2.91-7.39-11.65-12.54-21.95-12.54-13.21-.01-31.58 11.64-30.91 34.49z"/>
    <path fill="none" d="M0 0h724v240H0z"/>
    <path fill="#4285F4" d="M93.21 185.58C42.59 185.58.03 144.36.03 93.74.02 43.12 42.58 1.9 93.21 1.9c28 0 47.94 10.98 62.94 25.31l-17.7 17.7C127.7 34.83 113.14 26.99 93.2 26.99c-36.96 0-65.86 29.79-65.86 66.75s28.9 66.75 65.86 66.75c23.97 0 37.63-9.63 46.37-18.37 7.17-7.17 11.87-17.47 13.66-31.58H93.21V85.46h84.45c.9 4.48 1.34 9.86 1.34 15.68 0 18.82-5.15 42.11-21.73 58.69-16.13 16.79-36.73 25.75-64.06 25.75z"/>
</svg>
