<?xml version="1.0" encoding="utf-8"?>
<!-- Generator: Adobe Illustrator 19.2.0, SVG Export Plug-In . SVG Version: 6.00 Build 0)  -->
<svg version="1.1" id="Layer_1" xmlns="http://www.w3.org/2000/svg" xmlns:xlink="http://www.w3.org/1999/xlink" x="0px" y="0px"
	 viewBox="0 0 491.4 101.5" style="enable-background:new 0 0 491.4 101.5;" xml:space="preserve">
<style type="text/css">
	.st0{fill:#5EA644;}
	.st1{fill:#5FA845;}
	.st2{fill:#62A544;}
	.st3{fill:#60A845;}
	.st4{fill:#60A744;}
	.st5{fill:#60A644;}
	.st6{fill:#5FA544;}
	.st7{fill:#64AC45;}
	.st8{fill:#65AA44;}
	.st9{fill:#5DA845;}
	.st10{fill:#64AA44;}
	.st11{fill:#62A844;}
	.st12{fill:#63AA44;}
	.st13{fill:#61A945;}
	.st14{fill:#65A944;}
	.st15{fill:#5DAA46;}
	.st16{fill:#69AA44;}
	.st17{fill:#67AA44;}
	.st18{fill:#5EA945;}
	.st19{fill:#5BAD46;}
	.st20{fill:#61A845;}
	.st21{fill:#63A944;}
	.st22{fill:#5DA945;}
	.st23{fill:#61A444;}
	.st24{fill:#5DAC46;}
	.st25{fill:#59AD46;}
	.st26{fill:#5DA745;}
	.st27{fill:#5EAA45;}
	.st28{fill:#60A544;}
	.st29{fill:#5CAB46;}
	.st30{fill:#5DAB46;}
	.st31{fill:#5CAA46;}
</style>
<title>humana</title>
<path class="st0" d="M204.9,42.4l-1.8-2.1c-5.1-4.3-11-2.4-16.6-1.9c-2.5,0.2-1.9,2.8-1.9,4.5c0,14.5,0,29,0,43.5
	c0,6-0.3,6.2-6.1,6.4c-10.9,0.3-10.9,0.3-10.9-10.5c0-16,0-32,0-48c0-4.8,1.7-7,6.4-7.7c2.1-0.3,4.2-1,6.1-2.1
	c12-2.4,23.8-3.1,35,3.1c1.7,1,2.7,0.2,4.1-0.5c8.1-4.1,17.4-5.3,26.2-3.4c11.5,2.5,18.4,10.4,18.6,22.1c0.3,16.5,0,33-0.1,49.5
	c-5.3,2.3-10.6,2-15.9,0.2c-0.9-8.9-0.2-17.9-0.4-26.8c-0.1-7.1,0-14.2,0-21.2c0,15.6,0,31.2,0,46.8c0,1,0.5,2,1.3,2.6
	c2.5,1.9,5.4,0.9,8,1.2c2.4,0.2,5-0.5,7,1.4c-5.1,2.5-10.5,1.1-15.8,0.8c-2.5-0.1-2-3-2-5c0-14.5-0.1-29,0-43.5
	c0.2-4-0.9-8-3.1-11.3c-4-3.6-12.1-3.7-17,0l0,0c-1.2,0.8-2.2,1.7-2.9,2.9c-0.9,1.9-0.6,3.9-0.6,5.9c0,13.6,0,27.2,0,40.8
	c0,8.6-0.7,9.3-9.5,8.8c-1.5,0.1-3-0.2-4.4-0.7c-0.7-0.4-1.1-1.2-1-2c0.6-1.7,2-1.6,3.4-1.6c-1.5-0.2-3.3-0.2-3.8-2.2
	c-0.3-12.3,0-24.5-0.1-36.8c-0.1-2,0.2-3.9-0.3-5.9C206.2,47.2,207.5,44.2,204.9,42.4z"/>
<path class="st0" d="M490.7,31.2c0-2.8-1-4.1-3.9-4.6c-2.9-0.5-6-0.6-8.7-2.1c-7.7-1.2-15.4-2.2-23.1-1.2
	c-9.4,1.2-17.5,4.7-21.9,13.8c-0.8,1.6-0.5,3.8-2.2,5.1l0.1-0.1c-2,10.8-2.8,21.5-1,32.4c2,2.6,1.9,5.7,1.7,8.7
	c0.7,1.6,0.7,3.4,1.4,5c1.6,4.1,4.7,7.4,8.7,9.2c7,3.2,14.9,3.8,22.4,1.9c3.1-0.8,5.8-2.5,7.9-5c2.9-0.2,1.7,4.2,4.5,4.1
	c4.6-0.1,9.5,1.7,13.8-1.3C490.8,75.1,490.5,53.2,490.7,31.2z M472,83.3c-3,1.5-5.8,3-9.3,3.2c-8.4,0.5-11.9-1.7-15.5-10.2
	c-0.3-0.2-0.4-0.5-0.5-0.8c-0.7-10.7-2.1-21.4,2-31.8c1.2-1.7,2.6-3.1,4.2-4.4c5.9-2.5,12-1.3,18.1-1.1c2.1,0.1,3.1,1.7,3.1,3.8
	c0.1,12.6,0.1,25.1,0,37.7C474.2,81.2,473.4,82.6,472,83.3z"/>
<path class="st0" d="M338.2,32c0-3.6-1.4-5.1-4.9-5.3c-2.8,0-5.6-0.8-8.1-2.1c-5.2-1.3-10.5-1.4-15.8-1.7
	c-18.6-0.8-30.7,9.1-32.7,27.5c-1,9.2-1.2,18.6,0.5,27.8c1.2,6.8,3.5,13.2,9.5,17.4c2.6,1.2,4.9,3,7.8,3.3c5.2,0,10.5-0.2,15.7,0.1
	c2.6,0,4.7-1.2,6.7-2.6c4.3-3.1,4.3-3,6.3,1.5c0.7,0.3,1.5,0.3,2.1,0c3.9-2.4,7.8-0.4,11.8-0.2c0.4-0.4,0.7-0.9,0.8-1.4
	C338.3,74.7,338,53.3,338.2,32z M319.8,83.2c-1.3,0.7-2.6,1.4-4,2c-10.5,4.4-19.3-0.2-21-11.4c-1.1-7.6-0.8-15.2-0.1-22.9
	c0.4-3.8,2-7.4,4.5-10.3c2.3-3.6,6-3.7,9.7-3.7c13.2-0.1,13.2-0.1,13.2,13.1c0,9.3,0,18.6,0,27.8C322.1,79.9,322.6,82.3,319.8,83.2z
	"/>
<path class="st0" d="M19.5,36.2c2.2,3,5.1,4.3,9,4.2c9.5-0.2,18.9-0.2,28.4-0.2c0.8-0.4,1.4-0.9,2-1.6c1.8-3.3,0.8-6.8,0.9-10.2
	c0.2-5.1,0-10.2,0.1-15.4c0-1.8-0.1-3.7,1.3-5.1c4.1-1.4,8.2-1.7,12.3,0.2c1.6,2.2,1.1,4.8,1.1,7.3c0,21.6,0,43.3,0,64.9
	c-0.2,2.5,0,5,0.3,7.5c0.1,0.8,0.2,1.6,0.2,2.4c0,5.6-0.6,6.3-6.1,6.4c-2.9,0.1-5.9-0.2-8.7,1c-0.6,0.1-1.2-0.2-1.6-0.7
	c-1.3-9.7-0.3-19.5-0.5-29.2c-0.1-2.7-0.4-5.2-2-7.5l-4.1-4.1c-1.2-1.5-2.8-1.5-4.5-1.5c-8,0-16,0.1-24,0c-4,0-5.7,1.5-5.6,5.6
	c0.2,10.5,0.1,21,0,31.4c0,1.8,0.4,3.7-0.7,5.4c-0.5,0.4-1.1,0.6-1.7,0.5c-9-2.5-9-2.5-9-12.3c0-22.5,0.1-44.9,0-67.4
	c0-1.5,0-3,0-4.5C7,7,9.6,5.6,15.4,8.7c1.8,2.7,1,5.8,1.2,8.7c0.4,5.4-0.9,11,0.8,16.3C18.1,34.5,18.4,35.7,19.5,36.2z"/>
<path class="st0" d="M99,95.4c-5.8-3.8-8.4-9.8-8.6-16.1c-0.5-17.8-0.3-35.6-0.4-53.5c-0.1-0.7,0.4-1.3,1.1-1.3c0,0,0,0,0.1,0
	c1.8,1.9,1.4,4.3,1.4,6.6c0.1,15.2-0.2,30.4,0.2,45.6c1,1.3,1.6,0.2,2.3-0.4c0.8-0.9,1.4-2,1.8-3.1c0.8-2.2,1.1-4.5,0.9-6.8
	c0-11.8,0-23.5,0-35.3c0-2.3-0.4-4.7,1.4-6.6l6,0.1c0.6,0.7,0.9,1.5,0.9,2.4c0,0.6-0.1,1.2-0.3,1.7c-0.4,16.2-0.2,32.4-0.1,48.5
	c0.3,0.9,0.9,1.7,1.8,2.2c0.8,0.5,1.1,1.5,2,1.9c4.6,4.9,17.4,6.8,23.4,3.6c2.2-1.2,1.4-3.2,1.4-4.8c0.1-16.5,0-32.9,0-49.4
	c0-6.1,0.3-6.4,6.6-6.4c11.4-0.1,11.4-0.1,11.4,11.3c0,20-0.1,39.9-0.2,59.9c-2.5,1.9-5.6,2.3-8.6,2.8c-9.1,2.1-18.3,2.4-27.6,2.3
	C109.8,100.3,104.3,98.3,99,95.4z"/>
<path class="st1" d="M396.9,43.4l-1.9-2.7c-1.2-2.5-3.7-2.7-6-2.8c-4.5-0.2-9-0.1-13.4,0.2c-3.4,0.3-4,1.7-4,4.7
	c0.1,16.8,0.1,33.5,0,50.3c0,1.8,0.4,3.7-0.4,5.4c-2,3.5-5.4,1.7-8,1.8c-9.5,0.2-9.5,0.1-9.5-9.2c0-19.6,0.1-39.2-0.1-58.8
	c0-4,1.3-5.5,5.1-6.2c12.8-2.5,25.4-4.9,38.5-2.1c5.9,1.3,10.8,3.9,14,9.3c0.8,0.9,1.3,2,1.4,3.2c0.2,3.1-0.8,6.2-2.8,8.7
	c-0.6,0.7-1.4,1.3-2.3,1.6c-0.6,0.2-1.4,0.2-2,0c-0.4-1.1-1.1-1.6-2.2-1.1c-0.8-0.1-1.6-0.2-2.5-0.3c-0.6,0-1.3-0.2-1.9-0.4
	C398,44.8,397.7,43.8,396.9,43.4z"/>
<path class="st0" d="M59.2,40.3l-2.3-0.1c0-11.6,0.2-23.3,0-34.9c0-3.6,1-5.2,4.8-5c4.4,0.3,10.3-1.4,13,0.9
	c2.9,2.4,0.9,8.4,0.9,12.9c0.1,27.1,0,54.2,0.1,81.4c0,3.7-0.7,5.2-4.9,5.1c-14-0.2-13.9,0-14-13.9c-0.1-8.8,0.7-17.6-0.7-26.4
	c2.7,1.3,3,3.6,3,6.2c-0.1,10.2,0,20.5,0,30.7c4.1,2.1,8.4,0.4,11.8,1c1.4-0.1,0.4-0.9,0.8-0.3c0.1,0.2-0.1,0.3-0.4,0.3
	c-3.7-0.3-7.6,1.1-11.2-0.9c1.7-3.1,4.7-1.9,7.1-1.9c6.8-0.2,6.9-0.1,6.9-7.1c-0.9-1.7-0.5-3.6-0.5-5.4c0-23.1,0-46.2,0-69.2
	c0-1.8,0.5-3.7-0.5-5.4h-12c-1.3,1.6-1,3.5-1,5.3c0,7.2,0,14.3,0,21.5C60.1,36.8,60.5,38.7,59.2,40.3z"/>
<path class="st2" d="M19.5,36.2l-2.3-0.9c-1.8-2.7-0.9-5.8-1-8.7C16,20.8,16.3,15,16,9.2C14.8,5,11.5,7.1,9,6.8
	c-2.1,0.5-2.5,2.1-2.5,3.9c0,26.7,0,53.3,0,79.9c0,2.8,0.5,5.8-2.2,7.8c-1,0.6-2.1,1.2-3.1,1.8c-1.9-1-0.9-2.7-0.9-4
	c-0.1-30.4,0-60.9-0.2-91.4c0-3.8,1-4.7,4.7-4.6c14.4,0.1,14.4,0,14.4,14.5C19.2,21.9,19.4,29.1,19.5,36.2z"/>
<path class="st3" d="M180.1,24.5c-1.7,3.7-5.3,2.7-8.2,3c-0.7,2.5,2,1.2,2.3,2.7c-0.5,0.3-1.3,1-1.6,0.8c-5.9-2.8-4.5,1.8-4.5,4.6
	c0,16.8,0.1,33.6-0.1,50.5c0,4,0.8,5.6,5.2,5.5c10.9-0.2,10.9,0,10.9-11.1c0-12.8,0.1-25.7-0.1-38.5c0-3.5,1-4.8,4.5-4.5
	c3.1,0.2,6.3,0,9.5,0.1c2.2,0,4.4,0.1,5,3c-1.3-0.6-2.7-1.2-4.1-1.6c-4.3-0.8-9-1.5-12.6,0.8c-2.9,1.9-1.1,6.1-1.1,9.3
	c-0.1,15.1,0,30.2-0.1,45.3c0,1.7,0.7,3.7-1,5.2c-3.3-2.2-7-0.4-10.5-1.1c3.5,0.7,7.1-1,10.5,1.1c-5,2.4-10.3,0.8-15.5,1
	c-1.9,0.1-1.6-1.8-1.6-3c0-22.2,0-44.5-0.1-66.7c0-2.2,0.8-3.4,2.9-3.9C173.4,26,176.6,24.5,180.1,24.5z"/>
<path class="st4" d="M339.2,38.9c0-12.6,0-12.6-12.5-14.5c-0.5,0-1,0-1.5,0c1.1,2.2,3.5,3.3,5.9,2.8c4.9-0.7,6.2,1.4,6.2,6.2
	c-0.2,21.3-0.1,42.5-0.1,63.8c-4.7,0.9-9.3,1.3-14,0l0.5-5.8c-4.9,1.7-7.9,5.7-12.5,6.8l0,0h-17c-2.6-0.6-4.6-2.8-7.4-2.9
	c9.4,7.9,19.5,7.8,34.3-0.9c-0.9,6,2.7,6.3,6.9,6c2.2-0.2,4.3-0.2,6.5,0c3.7,0.4,4.8-0.7,4.8-4.6C339,76.9,339.2,57.9,339.2,38.9z"
	/>
<path class="st5" d="M415.3,43.2c1.3,2.7,1,5.5,1,8.3c0.1,14.8-0.1,29.6,0.1,44.4c0.1,3.9-1.2,5.1-4.8,4.5
	c-4.1-0.7-8.5,1.5-12.5-1.2c-0.3-0.2-0.4-0.7-0.1-1c0.1-0.1,0.2-0.2,0.3-0.2c0.5-0.1,1-0.1,1.5,0.1c3.7,0.6,7.4-0.3,11,0.6
	c-3.5-0.9-7.3,0.3-10.8-1c-0.5-0.6-0.7-1.4-0.4-2.2c2.4-1.9,5.6-0.4,8.1-2c1.4-1.8,0.8-3.9,0.9-5.8c0-12.1,0-24.3,0-36.4
	c-0.1-1.7,0-3.3,0.2-5c0.3-1.3,0.1-3.3,2.2-3.3c1.9,0.1,1.3,2,1.8,3.1c0.3,14,0,28,0.1,39.5c0-11,0-24.5,0-38
	c0.1-1.4-0.6-2.8-0.3-4.2c0.3-0.5,0.9-0.6,1.4-0.3C415.2,43.2,415.3,43.2,415.3,43.2z"/>
<path class="st6" d="M1.2,100.2l1-1.9c5-0.9,10.1,0.4,15-1c0-12.3,0-24.6,0-36.9c0-5.5,1.5-7,7.1-7.1c8.3-0.1,16.6,0.1,24.9-0.3
	c3-0.1,2.8,1.4,3,3.2c-10-0.1-20-0.1-29.9-0.3c-3-0.1-3.1,1.5-3.1,3.7c0.1,11.7-0.1,23.3,0.1,34.9c0.1,4.7-1.6,6.3-6.1,5.9
	C9.1,100.2,5.2,100.3,1.2,100.2z"/>
<path class="st7" d="M223.1,41.3l3-1c-1.6,1.8-1.4,4-1.4,6.1c0,16-0.1,32,0.1,48c0.1,4.8-1.5,6.8-6.3,6.1c-3.7-0.6-7.6,1.2-11-1.2
	c0.4-0.4,1-0.8,1.6-0.9c2.3-0.1,4.7-0.1,7,0c5.6,0.2,6.1-0.1,6.1-5.6c0-15.3,0-30.5,0-45.8C222.2,45.1,221.7,43,223.1,41.3z"/>
<path class="st8" d="M491.4,38.7c0-12,0-12-11.7-14.1c-0.5,0-1,0-1.5,0c1,3.3,4.1,1.9,6,2.1c5.2,0.5,6.2,3.1,6.1,7.9
	c-0.2,20.9-0.1,41.9-0.1,62.8c-4.9,1.6-10.1,1.6-15,0c-0.3-3.6-0.6-3.9-3-2.9c1.1,6.4,5.7,6.7,10.8,6.2c1.3-0.2,2.7-0.2,4,0
	c3.5,0.5,4.5-0.9,4.5-4.4C491.3,77,491.4,57.8,491.4,38.7z"/>
<path class="st0" d="M93.2,79.3c-2-1.3-2-1.3-2-4.2c0-16.9,0-33.8,0-50.7h2c1.5,1.6,1.4,3.6,1.4,5.6c0,14.4,0,28.7,0,43.1
	C94.7,75.3,94.2,77.4,93.2,79.3z"/>
<path class="st4" d="M93.2,79.3c0-18.3,0-36.6,0-54.9h2c1.5,1.6,1.4,3.6,1.4,5.6c0,13.7,0,27.4,0,41.1c0.1,2.2-0.4,4.3-1.4,6.2
	C94.8,78.2,94.1,79,93.2,79.3z"/>
<path class="st9" d="M95.2,77.3c0-17.6,0-35.3,0-52.9h2c1.1,1.2,1,2.8,1,4.3c0,13.4,0,26.9,0,40.3c0,2.2-0.3,4.3-1,6.3
	C96.8,76.2,96.1,77,95.2,77.3z"/>
<path class="st0" d="M109.5,81.2l-2.3-0.9c-2.1-3.6-1.9-7.6-2-11.5c-0.3-14.2,0.3-28.3,0-42.5v-1.9c3.7,0.2,2.8,3.1,2.8,5.2
	c0.1,13.6,0.1,27.2,0,40.8C107.8,74.1,108.3,77.7,109.5,81.2z"/>
<path class="st10" d="M208.2,99.2l-0.7,0.1c-1.5-1.7-0.9-3.8-0.9-5.7c0-13.3,0-26.6,0-39.9c0-3.8-0.2-7.6-1.6-11.3
	c3.6,1.4,1.7,4.6,2.3,7c1,1.5-0.3,3.5,0.9,5c0,13,0,26,0,39c0.6,0.5,0.6,1.4,0.1,1.9c0,0-0.1,0.1-0.1,0.1c0,0.7,0,1.3,0,2
	C208.7,97.9,208.7,98.7,208.2,99.2C208.2,99.2,208.2,99.2,208.2,99.2z"/>
<path class="st0" d="M97.2,75.3c0-17,0-34,0-50.9h2c0,14.3,0,28.6,0,43C99.2,70.2,99.1,73,97.2,75.3z"/>
<path class="st11" d="M371.2,98.6c0-19,0-37.9-0.2-56.9c0-3.1,0.7-4.6,4.1-4.4c5.1,0.2,10.3,0.1,15.5,0c2.4,0,4.5,0.2,4.3,3.4
	c-6.6-3.6-13.5-2.5-20.4-1.6c-3.4,0.5-2.6,2.9-2.6,4.9c0,16.4,0,32.9,0,49.3C372,95.1,372.6,97,371.2,98.6z"/>
<path class="st12" d="M432.2,83.3c0.8,1.5,1.2,3.2,1,4.9c-1.4-1.5-2.2-3.3-2.5-5.3c-2.9-13.6-3.7-27.2,0.3-40.8
	c-0.8,9.1-1.1,18.2-0.9,27.4c0,2-0.1,4,1,5.8C432.9,77.8,431.9,80.6,432.2,83.3z"/>
<path class="st3" d="M99,95.4c0.5-0.1,1-0.1,1.5,0c10.8,6.6,22.7,3.2,34.1,3.8c3.1,0.2,6-2.7,9.5-1.8c0.3,0.1,0.4,0.4,0.3,0.7
	c0,0.2-0.2,0.3-0.3,0.3l0,0c-1.5,1.1-3.6-0.3-5.1,1c-11.6,2.4-23.2,3.4-34.7-0.7C102.4,98,100.3,97.2,99,95.4z"/>
<path class="st13" d="M399.3,98.3c-0.1,0.3-0.1,0.7-0.1,1c-1.6-1.5-0.8-3.4-0.8-5.2c-0.1-13,0-25.9,0-38.9c0.2-4-0.3-8-1.4-11.8
	l2.2,0.9c1.5,1.6,1.4,3.7,1.4,5.7c0,13.8,0,27.7,0,41.5C400.5,93.8,400.5,96.2,399.3,98.3z"/>
<path class="st14" d="M441.9,97.4c7.3,2.7,14.9,1.7,22.4,2C456.5,103,449,101.6,441.9,97.4z"/>
<path class="st5" d="M248.2,95.3H264c0,0.7,0,1.3,0,2c-5.1,1.8-10.3,1.1-15.5,0.4C247.5,97,247.6,96.2,248.2,95.3z"/>
<path class="st15" d="M248.2,97.3H264v2c-5.3-0.5-10.7,1.1-15.8-1c-0.2-0.1-0.4-0.4-0.3-0.7C247.9,97.5,248,97.4,248.2,97.3z"/>
<path class="st3" d="M226.1,40.3c0.1-1.5,0.8-2.8,2.3-2.8c4.1-0.2,8.3-0.2,12.4,0c1.5,0.1,2.2,1.4,2.3,2.8
	C237.5,37,231.8,38,226.1,40.3z"/>
<path class="st16" d="M415.3,43.2l-1.1,0c-2.4-1.8-2.1-4.5-2-7l-1-3C414.2,36,414.9,39.5,415.3,43.2z"/>
<path class="st17" d="M144.2,98.4c0-0.3,0-0.7,0-1l7.9-2C150.4,98.8,147,97.7,144.2,98.4z"/>
<path class="st12" d="M433.1,37.1c0,2,0.6,4.3-2.2,5.1C431,40.3,431.8,38.5,433.1,37.1z"/>
<path class="st17" d="M139.1,99.4c1.4-1.7,3.3-0.9,5.1-1C142.7,99.4,140.9,99.4,139.1,99.4z"/>
<path class="st18" d="M208.2,99.2l-0.1-1.9c2.3,0,4.7-0.4,7,0.1c5.2,1.1,6.2-1.1,6.1-5.8c-0.2-15.1-0.1-30.3,0-45.4
	c0-1.8-1.1-4.2,2-4.9c0,17.7-0.1,35.3,0.1,53c0,3.9-1,5.5-5,5.1C214.9,99,211.6,99.2,208.2,99.2z"/>
<path class="st18" d="M217.4,94.7V43h1.2v51.7H217.4z"/>
<path class="st1" d="M211.1,43.3c0.8-0.1,1.6,0.3,2,1c1.2,1.4,1.2,3.6,0,5c0,11.1,0,22.2,0,33.2c0,1.7,0.7,3.6-2,6.3V50.3
	C209.7,48.2,209.7,45.4,211.1,43.3z"/>
<path class="st19" d="M248.2,97.3v1c-0.4-0.5-0.7-1.1-0.9-1.7c0-17,0-34.1,0.9-51.2c0,16.6,0,33.2,0,49.8
	C248.2,96,248.2,96.6,248.2,97.3z"/>
<path class="st18" d="M208.2,95.3c0-0.7,0-1.3,0-2h7.4v1.4C213.2,95.8,210.6,95.1,208.2,95.3z"/>
<path class="st20" d="M211.1,43.3c0,2.3,0,4.7,0,7C208.4,47.7,208.4,45.9,211.1,43.3z"/>
<path class="st20" d="M213.1,49.3c0-1.7,0-3.3,0-5C216.3,46,216.3,47.6,213.1,49.3z"/>
<path class="st20" d="M208.1,54.3c-1.6-1.4-0.8-3.3-0.9-5C208.8,50.8,207.9,52.7,208.1,54.3z"/>
<path class="st21" d="M475.1,78.2c0-12.6,0-25.2,0-37.9c-0.4-1.5-1.5-2.6-3-3c-5.1,0-10.2,0-15.4,0c-1.9,0-3.7-0.1-4.6,2
	c-0.1,0-0.3,0.2-0.3,0.3c-0.1,0.2,0,0.3,0.1,0.5c0.3-0.3,0.7-0.6,1-0.9c5.9-2.5,12-1.3,18.1-1.1c2.1,0.1,3.1,1.7,3.1,3.8
	c0.1,12.6,0.1,25.1,0,37.7c0.2,1.5-0.7,3-2.1,3.6C475.5,83.1,475.1,80.5,475.1,78.2z"/>
<path class="st21" d="M474.1,79.6c0.1-12.6,0.1-25.2,0-37.7c0-2.1-1-3.7-3.1-3.8c-6.1-0.2-12.2-1.4-18.1,1.1c-0.4,0.3-0.7,0.6-1,0.9
	c0.1,0.1,0.1,0.1,0.2,0.2c5.5-2.8,11.3-1.9,17.1-1.8c3.2,0.1,4.1,1.5,4.1,4.7c-0.1,11.8,0,23.6,0,35.5c0.1,1.7-0.3,3.3-1.3,4.6
	C473.4,82.6,474.2,81.2,474.1,79.6z"/>
<path class="st10" d="M448.7,43.7c0.1-0.2,0.3-0.3,0.4-0.5c-0.3-0.2-0.6-0.1-0.9,0.2c-4.7,9.8-2.6,20.2-2.9,30.4
	c0,1.2,0.8,2.2,1.9,2.6c-0.2-0.2-0.4-0.5-0.5-0.8C446,64.8,444.6,54,448.7,43.7z"/>
<path class="st10" d="M449.3,43.4c0-0.1-0.1-0.1-0.2-0.2c0,0,0,0-0.1,0c-0.1,0.2-0.3,0.3-0.4,0.5c-4.1,10.4-2.7,21.1-2,31.8
	c0.1,0.3,0.3,0.6,0.5,0.8c0,0,0.1,0,0.1,0C446.9,65.2,445.1,54.1,449.3,43.4z"/>
<path class="st18" d="M441.1,71.3c-0.5-8.8-2.2-17.7,0.9-26.3c2,4.3-1.9,8.1-1.1,12.5S441.1,66.7,441.1,71.3z"/>
<path class="st15" d="M490.1,97.3c-0.3,0.6-0.6,1.6-0.9,1.6c-4.7-0.3-9.8,2.7-14.1-1.6L490.1,97.3L490.1,97.3z"/>
<path class="st6" d="M469.1,35.3H455V34c4.2-1.5,8.8-0.3,13.2-0.7C468.7,33.9,469.8,34.2,469.1,35.3z"/>
<path class="st22" d="M432.2,83.3c-1.6-2.5-0.9-5.3-1-8C434.9,77.6,433.2,80.5,432.2,83.3z"/>
<path class="st3" d="M469.1,35.3l-1-2c1.8,0.2,3.8-0.5,5.6,0.8C472.4,36,470.6,35,469.1,35.3z"/>
<path class="st3" d="M452.2,39.9c0-0.2,0-0.3,0-0.5c-1.7,0.9-3.1,2.3-4,4h0.7C449.8,42.1,450.9,40.9,452.2,39.9z"/>
<path class="st3" d="M452.2,40.3c0-0.1,0-0.3,0-0.4c-1.2,1-2.3,2.2-3.3,3.5h0.4L452.2,40.3z"/>
<path class="st3" d="M472.2,37.3l3,3C475.4,38.1,474.4,37.1,472.2,37.3z"/>
<path class="st6" d="M322.2,37.3c-7.2-1.6-14.8-1.6-22,0l-0.9,3.3c0,0,0,0,0,0c2.3-3.6,6-3.6,9.7-3.7c13.2-0.1,13.2-0.1,13.2,13.1
	c0,9.3,0,18.6,0,27.8c0,2,0.5,4.5-2.3,5.4c2.3,0.1,3.4-1.1,3.4-3.3C322.7,65.7,324.2,51.5,322.2,37.3z"/>
<path class="st6" d="M322.1,77.8c0-9.3,0-18.5,0-27.8c0-13.2,0-13.2-13.2-13.1c-3.7,0-7.3,0.1-9.7,3.7c5.5-3.3,11.5-2.2,17.5-2.2
	c3.4,0,4.5,1.3,4.5,4.8c-0.2,11.8-0.1,23.6-0.1,35.4c0,1.7-0.1,3.3-1.4,4.6C322.6,82.3,322.1,79.9,322.1,77.8z"/>
<path class="st22" d="M291.8,76.4V48h0.7v28.3L291.8,76.4z"/>
<path class="st18" d="M279.1,74.3c-1.4-1.2-2.1-3-2-4.9c0-5,0-10,0-15c0-1.8,0.2-3.3,2-4.2C279.9,58.3,279.9,66.3,279.1,74.3z"/>
<path class="st22" d="M318.1,37.3h4c0-0.1,0-0.2,0-0.3c-0.2-1.1-1.2-1.9-2.3-1.7c-5.5,0-11,0-16.5,0c-1.4-0.1-2.6,0.7-3.2,2h3.9
	c1.5-0.3,3.2-0.4,4.9-0.4C313.2,36.9,316.1,36.9,318.1,37.3z"/>
<path class="st22" d="M308.9,36.9c-1.7,0-3.3,0-4.9,0.4h14C316.1,36.9,313.2,36.9,308.9,36.9z"/>
<path class="st9" d="M311.1,98.3c-5.6,1.6-11.4,1.6-17,0C299.7,96.7,305.6,96.7,311.1,98.3z"/>
<path class="st15" d="M337.1,97.3c-2.7,2.9-11.3,2.9-14,0h2c3.5-1.5,7.5-1.5,11,0H337.1z"/>
<path class="st23" d="M279.1,74.3v-24c1.9,0.2,1,1.7,1,2.5c0,7.1-0.1,14.2-0.1,21.4c-0.1,0.1-0.2,0.2-0.4,0.2
	C279.5,74.4,279.3,74.4,279.1,74.3z"/>
<path class="st5" d="M336.1,97.3h-11C327.9,94.5,332.7,94.5,336.1,97.3z"/>
<path class="st24" d="M309.4,87.8c2.3-0.5,3.5-0.7,4.9-0.1C312.9,88.7,311.5,88.4,309.4,87.8z"/>
<path class="st25" d="M303,87.8c1-0.6,2.3-0.6,3.4,0C305.4,88.5,304,88.5,303,87.8z"/>
<path class="st18" d="M17.1,97.3c-0.2,1.7-1.4,2.1-2.8,2c-4.1-0.3-8.2,0.9-12.2-1c2.8-1.1,3-3.3,3-5.9c-0.1-28-0.1-56,0-84
	c3.5-0.9,2.4,1.8,2.4,3.3c0.2,8.5,0.2,17,0.1,25.5C7.6,54.7,7.7,72.3,7.6,90c0,5.8,0,5.8,5.7,6.4c1,0.1,2,0.4,2.8,0.9L17.1,97.3
	L17.1,97.3z"/>
<path class="st5" d="M16.1,97.3c-9,0-9,0-9-8.9c0-24.9,0-49.8-0.1-74.7c0-1.9,1.3-4.6-1.9-5.4c0.6-1.3,1.7-2.4,3-3
	c2.3,2.1,5.4,0.1,7.8,1.6c0.9,1.2,0.1,1.8-0.8,2.4c-6.3-2.1-7-1.6-7,4.7c0,25.1,0.1,50.1-0.1,75.2c0,3.9,0.1,7,5.4,6.2
	C14.7,95.2,15.6,96.2,16.1,97.3z"/>
<path class="st26" d="M73.2,8.3c1.7,1.6,1,3.8,1,5.7c0.1,24.8,0.1,49.5,0,74.3c-1.7-1.7-1-3.8-1-5.7C73.1,57.9,73.1,33.1,73.2,8.3z"
	/>
<path class="st9" d="M59.2,40.3c0-9.2,0-18.5,0-27.7c0-1.6-0.8-3.8,2-4.3c0,9.2,0,18.5,0,27.7C61.1,37.7,61.9,39.8,59.2,40.3z"/>
<path class="st18" d="M15.1,9.3l1-2C16.3,7,16.7,7,17,7.2c0.1,0,0.1,0.1,0.2,0.2c0,9.3,0,18.7,0,28c-2.8-0.5-2-2.7-2-4.3
	C15.1,23.8,15.1,16.5,15.1,9.3z"/>
<path class="st15" d="M60.2,97.3c4.5,0.3,9.1-0.7,14.9,1.3c-5.8,1.1-10.2,0.6-14.5,0.5c-0.9,0-1.2-1-1.4-1.8H60.2L60.2,97.3z"/>
<path class="st27" d="M105.2,26.3c3.2,3.8,1.2,8.3,1.2,12.3c0,11.8-0.8,23.5,0.4,35.2c0.2,2.1,0.2,4.3,0.3,6.4c-0.8,0.1-1.6-0.3-2-1
	c-1.1-4.1-0.4-8.2-0.4-12.3c-0.1-11.6-0.1-23.2,0-34.8c0-1.6-0.4-3.3,0.5-4.9L105.2,26.3L105.2,26.3z"/>
<path class="st9" d="M135.9,31.4v51.7h-0.5V31.4H135.9z"/>
<path class="st28" d="M105.2,27.3c0,17.3,0,34.7,0,52c-1.2-1-1-2.4-1-3.7c0-14.9,0-29.8,0-44.7C104.2,29.7,103.9,28.3,105.2,27.3z"
	/>
<path class="st29" d="M116.5,87.5h12.3V88h-12.5L116.5,87.5z"/>
<path class="st1" d="M361.1,40.3c0.7-1,1.3-1,2,0c1.7,1.8,1.4,4,1.4,6.1c-0.2,14.2,0.7,28.5-0.5,42.7c-0.4,4.4,3.6,2.3,5.1,3.8
	c0.7,0.6,0.7,1.6,0.1,2.3c0,0,0,0,0,0l0,0c-2.9,2.2-6.6,0.9-9.7,2.3c-0.6-0.3-1-0.8-1.2-1.3c-0.9-4.3-0.4-8.6-0.5-12.9
	c-0.1-15.1-0.1-30.3,0-45.4c0-2.3-0.5-4.7,1.4-6.6c1,0.3,3.4-0.3,2,1.8c-1.6,2.4-0.7,4.8-1,7.2c1,5.1,0.4,10.2,0.5,15.3
	c0.1,11.1,0,22.2,0,33.3c0-14.6,0-29.2,0-43.8C360.7,43.6,360.3,41.9,361.1,40.3z"/>
<path class="st18" d="M356.1,98.3c-1.4-1.1-1-2.7-1-4.2c0-20.5,0-41.1,0-61.6c0-1.2-1.4-3.8,1.9-3.2c1.1,1.3,1,2.8,1,4.3
	c-0.1,21,0.2,42-0.1,62.9C357.8,97.5,357.5,98.4,356.1,98.3z"/>
<path class="st5" d="M357.1,97.3c0-22.7,0-45.3,0-68h2v68C358.6,97.9,357.8,97.9,357.1,97.3C357.2,97.4,357.2,97.3,357.1,97.3z"/>
<path class="st18" d="M412.1,36.3l2,7l1,3c-0.5,0.6-1.3,0.6-1.8,0.2c-0.1,0-0.1-0.1-0.2-0.2c-0.1-0.9,0.2-2.5-1-2.3
	c-1.5,0.2-1,1.9-1,2.9c0,14.7,0,29.5-0.1,44.2c0,1.4,1.6,4.2-1.9,4.2c-0.7-0.7-1.1-1.6-1.2-2.6c-0.2-14.9-0.3-29.9,0-44.8
	c0.2-0.9,0.6-1.8,1.2-2.6L412.1,36.3z"/>
<path class="st0" d="M369.1,93.3c-2.8,0.8-5.5-0.4-9.2-0.1c3.4-3,3.2-6.3,3.2-9.5c0-14.5,0-28.9,0-43.4h2c1.8,1.9,1.4,4.3,1.4,6.6
	c0,12.4,0,24.8,0,37.3c0,2.5-0.2,5,2.4,6.6C369.7,91.5,369.8,92.6,369.1,93.3z"/>
<path class="st18" d="M409.1,93.3v2c-2.7-0.2-5.3,1.3-8,0c-0.6-0.8-0.7-1.8-0.3-2.7c1.1-2,0.9-4.2,0.9-6.3c0-11.6,0-23.2,0-34.9
	c0-2.1-0.4-4.4,1.4-6.1c1.1-0.5,2-0.8,2,1c1.6,1.8,1.4,4,1.4,6.1c0,10.6,0,21.2,0,31.8c0,2.4-0.3,5,1.2,7.2
	C408.2,92,408.7,92.6,409.1,93.3z"/>
<path class="st9" d="M401.1,93.3v2c0,0.7,0,1.3,0,2c-0.1,0.5-0.5,0.9-1,1c-0.3,0-0.6,0-0.9,0c0-18-0.1-36-0.1-54h2
	c1.1,1.3,1,2.8,1,4.3c0,13.5,0,27,0,40.4C402.1,90.5,402.2,92.1,401.1,93.3z"/>
<path class="st1" d="M369.1,91.3c-3.5,0.5-4.1-1.3-4-4.4c0.1-15.5,0-31.1,0-46.6h2c1.9,1.9,1.4,4.4,1.4,6.6c0.1,12.5,0,25,0.1,37.5
	c0,1.6-0.5,3.3,0.6,4.9l0,0C369.7,89.8,369.7,90.7,369.1,91.3C369.2,91.3,369.2,91.3,369.1,91.3z"/>
<path class="st4" d="M369.1,89.3c-3-0.6-2-3.1-2-4.8c-0.1-14.7,0-29.5,0-44.2c0.2-1.3,0.4-2.5,2-1c1.1,6.6,0.5,13.2,0.4,19.8
	c0,9.7,0.6,19.5-0.4,29.2V89.3z"/>
<path class="st5" d="M401.1,93.3v-49c0.8-0.1,1.6,0.3,2,1c0,14.4,0,28.8,0,43.2C403.1,90.2,404.2,92.7,401.1,93.3z"/>
<path class="st4" d="M408.1,92.3c-1.9,0.9-2.8,1.3-2.8-1.7c0.1-14.8-0.1-29.5-0.2-44.3h2c1.5,1.7,0.9,3.8,1,5.7
	c0.2,11.9-0.2,23.9,0.2,35.8C408.7,89.3,409,90.8,408.1,92.3z"/>
<path class="st0" d="M361.1,40.3v47.8h-1c0-15.9,0-31.9,0-47.8C360.1,40.3,361.1,40.3,361.1,40.3z"/>
<path class="st18" d="M369.1,88.3v-49c1.2,1,1,2.4,1,3.7c0,13.9,0,27.8,0,41.7C370.1,86,370.4,87.3,369.1,88.3z"/>
<path class="st18" d="M408.1,88.3c-1.6-1.5-1-3.4-1-5.2c-0.1-12.3,0-24.6,0-36.8c0.4-0.7,1.2-1.1,2-1c0,0.7,0,1.3,0,2
	c-1.2,6.2-0.2,12.5-0.5,18.8C408.3,73.5,409.2,80.9,408.1,88.3z"/>
<path class="st15" d="M357.1,97.3h3c2.8-1.5,6.2-1.5,9,0c0.7,0.7,0.9,1.8-0.2,1.8c-4.3,0-8.6,1.2-12.8-0.8L357.1,97.3z"/>
<path class="st0" d="M369.1,97.3h-9c2.3-4,6-1.1,9-2V97.3z"/>
<path class="st18" d="M359.1,29.3c-0.3-1-0.7-2,1-2h6.5C364.2,30.1,361.5,29,359.1,29.3L359.1,29.3L359.1,29.3z"/>
<path class="st18" d="M369.1,91.3v-2c1.5,1.7,1.5,4.3,0,6V91.3z"/>
<path class="st22" d="M73.4,6C69,7.5,64.2,7.5,59.8,6H73.4z"/>
<path class="st29" d="M59.8,2.2c4.5-1.1,9.2-1,13.6,0.2C68.9,3.3,64.3,3.6,59.8,2.2z"/>
<path class="st24" d="M2.5,6v89.4h-1V6H2.5z"/>
<path class="st24" d="M16.4,2.2c-4.5,1.4-9,1.1-13.6,0.2C7.3,0.9,11.9,1.4,16.4,2.2z"/>
<path class="st15" d="M17.1,7.3h-1c-2.6-0.9-6.2,2-8-2C11.1,6.2,14.9,3.3,17.1,7.3z"/>
<path class="st0" d="M184.2,99.3H168C172.2,96.3,181.7,96.7,184.2,99.3L184.2,99.3L184.2,99.3z"/>
<path class="st0" d="M183.4,95h-14.6v-1h14.6L183.4,95z"/>
<path class="st30" d="M413.1,46.3h2c0,16.1,0,32.2,0,48.3h-2V46.3z"/>
<path class="st31" d="M400.1,98.3l1-1c4,0.3,8.2-0.9,13.2,2.2C408.8,98.7,404.4,100.5,400.1,98.3z"/>
<path class="st4" d="M408.1,88.3c0-11.9,0-23.9,0-35.8c0-1.7-0.7-3.7,1-5.2c0,15.3,0,30.7,0,46l-1-1V88.3z"/>
</svg>
