<?xml version="1.0" encoding="utf-8"?>
<!-- Generator: Adobe Illustrator 19.2.0, SVG Export Plug-In . SVG Version: 6.00 Build 0)  -->
<svg version="1.1" id="Layer_1" xmlns="http://www.w3.org/2000/svg" xmlns:xlink="http://www.w3.org/1999/xlink" x="0px" y="0px"
	 viewBox="0 0 280.9 59.4" style="enable-background:new 0 0 280.9 59.4;" xml:space="preserve">
<style type="text/css">
	.st0{fill:#49AAFD;}
	.st1{fill:#E9B506;}
	.st2{fill:#EB3B04;}
	.st3{fill:#EAAF02;}
	.st4{fill:#069F4F;}
	.st5{fill:#1E60ED;}
	.st6{fill:#EDBA03;}
	.st7{fill:#E83808;}
	.st8{fill:#3F99FE;}
	.st9{fill:#EC3C04;}
	.st10{fill:#2463EA;}
	.st11{fill:#46A2FB;}
	.st12{fill:#246CEF;}
	.st13{fill:#266AEC;}
	.st14{fill:#236FF0;}
	.st15{fill:#08A353;}
	.st16{fill:#EBB909;}
	.st17{fill:#EA3F08;}
	.st18{fill:#09A652;}
	.st19{fill:#44A3FE;}
	.st20{fill:#FCFCFB;}
	.st21{fill:#EDBC02;}
	.st22{fill:#EAAE03;}
	.st23{fill:#FDFBF3;}
	.st24{fill:#EBB201;}
	.st25{fill:#ECB804;}
	.st26{fill:#ECB908;}
</style>
<path class="st0" d="M0,24c4-0.4,7.5-2.2,10.8-4.3c1.8,0.3,3.1,1.2,3.9,2.8c0.5,2.1,0.5,4.1-1.8,5.3c-4.2,0.4-8.2,0.1-12-1.9
	C0.6,25.6,0.3,25.3,0,25C0,24.7,0,24.3,0,24z"/>
<path class="st1" d="M24.1,1.7C24.1,1.2,24,0.6,24,0c0.7,0,1.3,0,2,0c1.8,2.8,4.8,4.7,5.9,8c-1.4,1.4-3,1.3-4.8,0.9
	C23.9,7.5,24.4,4.4,24.1,1.7z"/>
<path d="M221.2,37c1.8-0.1,3.7,0,5.5,0c5.6-0.1,7.3-2.5,5.8-8c-1.1-3.9-3.6-6.2-7.5-7c-8-1.6-13.9,3.9-14,13.1
	c-0.1,11.2,8.6,18,17.8,13.8c1.5-0.7,3.4-1.5,2.6-3.5c-0.8-2.1-2.7-0.9-3.9-0.3c-3.1,1.5-5.8,0.7-8.4-1.1c-1.8-1.3-2.4-3.2-2-5.3
	C217.6,36.3,219.7,37.1,221.2,37z M216.3,32.7c0.4-6.7,5.8-7.2,5.8-7.2s6.7,0,6.7,7.2C225.3,32.7,218.1,32.7,216.3,32.7z"/>
<path d="M192.6,45.3c-1.3-5.6-0.1-11.3-0.6-15.9c0-5.6-0.1-10.3,0-15c0-2.1-0.5-4-2.7-3.9c-2,0.1-2.1,2.2-2.2,3.9
	c-0.1,1.8-0.1,3.7,0,5.5c0,2.3-0.6,3.1-3.3,2.6c-7.3-1.4-11.2,1.4-13.2,8.6c-2.4,8.7,1.2,16.3,8.5,18.5c4.2,1.2,7.8-2.9,12.1-1
	C191.8,48.8,192.9,46.7,192.6,45.3z M187,39.5c0.1,3-0.9,5.1-4.3,5.5c-3.5,0.4-6.7-0.6-7.5-4.1c-0.7-3.3-0.8-6.9,0.4-10.3
	c1.4-3.7,4-5,7.8-4.5c4.1,0.6,3.6,3.6,3.5,6.4c0,1,0,2,0,3C187,36.8,187,38.1,187,39.5z"/>
<path d="M97.5,48.4c-2.1,1-3.8,0.8-5.2-0.6c-1.8-1.8-3.6-3.5-5.1-5.4s-3-5.2-5.2-4.5c-2.3,0.7-0.6,4.1-1,6.3c-0.3,2-0.2,4.6-2.7,4.5
	c-2.1-0.1-2.3-2.5-2.3-4.4c0-10,0-20,0-29.9c0-1.9,0-4.2,2.5-4c2.2,0.2,2.4,2.5,2.5,4.3c0.1,5.5,0,10.9,0,17.1
	c3.8-2.2,5.9-5.4,8.7-7.9c1.3-1.1,2.5-2.6,4.2-1.1c2,1.8-0.2,2.8-1.2,4c-0.7,0.9-1.6,1.7-2.5,2.5c-3.2,3-4.3,5.7-0.4,9.5
	C92.7,41.5,95.8,44.4,97.5,48.4z"/>
<path d="M134,25.6c-4.1-5-11.5-5.4-16.2-1c-3.3,3-4.1,6.7-3.8,10.8c0,1.2-0.1,2.3,0,3.5c0.6,5.7,3.8,9.8,8.8,10.9
	c5.2,1.1,9.1-1.3,12.1-5.3C138.2,40.2,137.6,30,134,25.6z M130.7,42.2c-0.9,2.2-2.6,3.9-5.3,3.8c-2.9-0.2-5.2-1.5-5.9-4.4
	c-0.5-1.9-0.4-3.9-0.6-5.9c0.1-7.7,2.2-10.3,7.8-9.7c1.7,0.2,2.9,0.7,3.5,2.3C131.7,32.9,132.7,37.5,130.7,42.2z"/>
<path d="M164,36c0.3,3-0.6,6.6,0.5,10c0.5,1.4-0.2,2.2-1.1,3c-1.1,1-1.9,0.1-2.5-0.6c-1.3-1.4-2.3-1-3.9-0.1
	c-8.5,4.6-15.2-0.5-14.1-9.2c0.5-4.1,0.1-8.3,0.1-12.5c0-2,0.7-4,2.8-4c2,0,2.1,2.3,2.1,3.9c0.1,4.3,0.1,8.7,0,13
	c0,3.2,0.2,6.2,4.3,6.5c3.1,0.2,6.5-3.2,6.6-6.8c0.1-4.2,0.1-8.3,0-12.5c0-2,0.1-4.1,2.4-4.2c2.5-0.1,2.4,2.3,2.5,4
	C164.1,29.6,164,32.6,164,36z"/>
<path d="M246.5,50.2c-2.3,0-4.3-1-6.3-1.7c-1.3-0.4-2.6-1.2-1.9-2.9c0.7-1.6,2-1.6,3.3-0.8c2.1,1.3,4.4,1.4,6.8,1.1
	c1.9-0.3,3.5-1,3.6-3.4c0.1-2.1-0.5-3.6-2.6-4.2c-1.3-0.4-2.5-0.9-3.8-1.2c-5.7-1.5-8.1-4.5-7.3-8.8c0.9-4.5,6.7-8.1,11.5-7.2
	c0.5,0.1,1,0.3,1.4,0.5c1.5,0.7,4.5,0.5,4.1,2.7c-0.6,2.6-3.1,1.5-5,0.9c-1.6-0.5-3.3-0.4-4.8,0.5c-1.4,0.8-2.2,2.1-2.3,3.6
	c-0.1,1.9,1.4,2.5,2.8,3c1.5,0.6,3.1,1,4.8,1.4c4,0.9,7,3.1,6.8,7.3c-0.2,4.2-2.5,7.5-7.2,8.2C249.1,49.5,247.8,49.9,246.5,50.2z"/>
<path d="M270.9,50c-2.6,0.2-5-0.5-7.1-1.8c-0.9-0.6-2-1.5-1.3-2.9s1.9-1.2,3-0.5c2.1,1.3,4.4,1.4,6.8,1.1c1.9-0.3,3.5-0.9,3.7-3.3
	c0.2-2.4-0.7-3.7-2.9-4.5c-2.7-1-5.9-0.9-8.1-3.5s-3.8-4.8-1.8-8.4c2.4-4.3,6.3-5,10.5-5.1c0.3,0,0.7,0.1,0.9,0.3
	c1.6,0.9,5,0.6,4.6,2.8c-0.6,3-3.4,1.3-5.4,0.9c-2.9-0.5-5.7,0-6.4,3.2c-0.7,3.1,1.9,4.2,4.5,4.7c0.5,0.1,1,0.2,1.5,0.3
	c5.8,1.5,8.5,4.3,8,8.3C281,46.7,276.8,50,270.9,50z"/>
<path d="M102,28.4c0-4.5,0-9,0-13.5c0-2,0.4-4,2.5-4.3s2.3,1.8,2.7,3.5c1.6,7.6,0.3,15.2,0.8,22.8c0.2,3.4-1.1,7,1.3,10.1
	c0.6,0.8,0.3,1.6-0.4,2.2c-0.8,0.8-1.8,0.7-2.8,0.3c-3.5-1.2-4-4.3-4.2-7.2C101.8,37.7,102,33.1,102,28.4z"/>
<path d="M200,28.6c0-5,0-10,0-15c0-1.2,0-2.6,1.4-2.9c1.4-0.3,2.4,0.8,3,2.1c0.7,1.4,0.6,2.9,0.6,4.4c0,7.5,0,15,0,22.4
	c0,2.4-0.7,5,1.2,7.2c0.8,0.9,0.5,1.9-0.4,2.6c-0.9,0.7-1.9,0.6-2.8-0.1c-1.9-1.5-3.2-3.2-3.1-5.9C200.1,38.5,200,33.5,200,28.6z"/>
<path class="st2" d="M55.7,16c0.2,0.3,0.3,0.6,0.5,0.9c-3.1,3-6.9,4.7-11,5.7c-3.3-1.7-5.7-4.5-7.7-7.5c0.1-2.8,1.5-5.1,2.7-7.5
	c1.2-1.4,1.5-3.7,3.9-3.8c1,2.7,0.9,5.6,0.8,8.3c-0.1,2.5,1.2,3.1,3.2,3.2C50.5,16.1,53.2,14.8,55.7,16z"/>
<path class="st3" d="M30,55c-2.5-3.5-5.3-3.9-8.8-1.1c-1.1,0.9-2.1,2.6-4.1,2.2c-0.3-4.8,2.4-8.2,5.2-11.6c3.8-0.1,7.4,0.9,10.9,2.2
	c1,1.2,1.1,2.6,1.1,4c0,0.6,0,1.2-0.1,1.7C33.7,54.9,32.7,56.5,30,55z"/>
<path class="st4" d="M33.2,51c0-1.3-0.1-2.7-0.1-4c2.4-2.7,5.4-4.3,8.8-5.3c3.8,2,6.3,5.4,9.1,8.4c-2.9,2.6-5.7,0.4-8.4-0.3
	c-2-0.5-3.2-0.5-4.1,1.3C36.6,52.4,34.8,53.1,33.2,51z"/>
<path class="st5" d="M0.9,25.9C5.1,25.5,9,26.8,13.1,27c2,2.9,1.4,6.2,1.4,9.4c-2.5,2.7-4.8,2.3-6.9-0.6c0.9-2.1,0.2-3.6-1.6-5
	C4.2,29.4,1.9,28.4,0.9,25.9z"/>
<path class="st6" d="M41,8c-1,2.3-2,4.6-3,6.9c-4,0.8-7.7-0.3-11.4-1.9c-1-1.7-1.1-3.3,0.1-5c1.7,0,3.5-0.1,5.2-0.1
	c1,1.1,2.1-0.6,3.2,0C37,7.3,39,6.3,41,8z"/>
<path class="st7" d="M15,45.9c-2.9-1.9-6.3-0.8-9.4-1.3C3.8,44.3,2.8,44,4.1,42c2.8-3.4,6.8-4,10.7-4.7c2.6,0.9,3.9,2.8,4.5,5.3
	C18.4,44.4,16.6,45.1,15,45.9z"/>
<path class="st8" d="M59.5,33.9c0.9,2.9-1.9,2.1-2.9,2.7c-2.4,1.4-5,2.3-7.5,3.4c-1.6,1.3-3.2,1.4-5,0.3c-1.4-3.7,0.3-6.3,3.2-8.3
	C51.6,31.1,55.5,32.4,59.5,33.9z"/>
<path class="st9" d="M15,45.9c0.3-2.3,2.1-2.5,3.8-2.9c1.5,0,3.3-0.3,3.4,2.1c-1.7,3.7-3.4,7.3-5.1,11c-1.5,1.3-1.5-0.4-1.5-1
	C15.3,52.1,15.2,49,15,45.9z"/>
<path class="st10" d="M45.1,22.3c3.5-2.2,7.1-4.2,11.1-5.4c0.2,3.6-2.8,5.5-4.3,8.1c-1.7,2.9-3.9,2.2-6.1,0.7
	C44.9,24.7,44,23.7,45.1,22.3z"/>
<path class="st11" d="M43.9,40c1.7,0,3.4,0,5.1,0c0.6,3.3,1.3,6.7,1.9,10c-4.1-1.4-6.1-5.2-8.9-8C41.6,40.4,42.4,39.9,43.9,40z"/>
<path class="st12" d="M46.2,25c1.9,1.4,3.8,1.2,5.7,0c-0.1,1.8-0.2,3.6,2.1,4.3c0.9,1.9-0.4,2.5-1.8,2.5c-1.8,0.1-3.5,1-5.4,0.3
	C45.5,29.9,44.5,27.5,46.2,25z"/>
<path class="st13" d="M14.9,37.7c-3.6,1.4-7.2,2.9-10.8,4.3c0.1-2.6,1.9-4.4,3.5-6.2C9.7,36.7,11.8,38,14,36
	C15.5,36,15.6,36.6,14.9,37.7z"/>
<path class="st14" d="M47,32c2.1-1.4,5.4,0.3,6.9-2.7c1.8,1.5,3.7,3.1,5.5,4.6c-4.3,0.7-8.3-1.4-12.6-1C46.7,32.6,46.7,32.3,47,32z"
	/>
<path class="st15" d="M33.2,51c1.7,0.6,3.4,0.2,5.2,0.1c-1.4,2.2-0.7,5.4-3.3,7.1c-1.9-0.1-1.9-1.5-1.7-2.9c0.2-1.1,0.6-2.3-0.3-3.3
	C33,51.6,33,51.3,33.2,51z"/>
<path class="st1" d="M41,8c-2,0-4,0-5.9,0C38,6.5,40,3,44,3.8C43,5.2,42,6.6,41,8z"/>
<path class="st16" d="M33,52c2.2,1.6-0.3,4.7,2,6.2C31.5,60,31.7,56,30,55C32.2,55.2,33.2,54.2,33,52z"/>
<path class="st17" d="M55.7,16c-2.5-0.3-5.2,0.8-7.7-0.8C50.6,15.1,53.2,15,55.7,16z"/>
<path class="st18" d="M26.7,8.1c0.1,1.6,0.2,3.3,0.4,4.9c-2.2,3-5.8,3.5-8.9,4.8c-4.9-1-7.7-4.2-9.2-8.7c2.5-1.1,4.9,0.5,7.1,1.1
	c3.7,1,5.1-0.3,6-3.5c0.5-1.7,1.4-3.3,2.1-4.9C25,3.9,25.8,6,26.7,8.1z"/>
<path class="st19" d="M8.9,9.1c2.8,2.9,5,6.6,9,8.1c1,3.4-1,4.5-3.8,4.9c-1.6,0-2.7-0.8-3.3-2.3C10,16.3,9.1,12.9,8.2,9.5
	c0-0.1,0-0.3,0.1-0.5C8.4,8.7,8.7,8.7,8.9,9.1z"/>
<path class="st20" d="M14.1,22c1.7-1.3,3.5-2.5,3.8-4.9c3-1.4,6.1-2.8,9.1-4.1c3.8-0.1,7.4,0.5,10.9,1.9c2.8,2,5,4.6,7.1,7.4
	c0.4,0.9,0.7,1.8,1.1,2.7c0.3,2.3,0.6,4.7,0.9,7c0,0.3-0.1,0.7-0.1,1c-1,2.3-2,4.7-3.1,7c-0.6,0.7-1.3,1.4-1.9,2.1
	c-2.7,2.2-5.7,3.8-8.9,4.9c-3.7,0.1-7.4-0.5-10.9-1.9c-1.1-0.7-2.2-1.4-3.4-2.1c-1.3-1.8-2.6-3.5-3.9-5.3c-0.3-0.6-0.6-1.1-0.9-1.7
	c-1.5-2.9-0.5-6-0.9-9C14.4,25.6,13.9,23.7,14.1,22z"/>
<path class="st21" d="M42.3,36.1c-3.3,6.4-9.7,9.3-16.1,7.4c-6.9-2-10.6-7.8-10-15.5c0.5-1.2,1.2-2,2.6-1c0.1,0.3,0.2,0.7,0.3,1
	c0.5,0.5,1.2,0.7,1.5,1.3c2.2,4.6,5.9,5.8,10.6,4.4C35.1,33.9,39.2,32.5,42.3,36.1z"/>
<path class="st22" d="M21.1,26.9c-2.2-6.5-0.2-9.9,6.8-10.7C33.3,15.5,38,17,41.1,22c-2,3.6-6,1.6-8.7,3.3c-1.9,0.3-2.5-1.3-3.4-2.4
	c-1-1.3-1.9-2.9-4-1.8c-2.3,1.2-1,2.8-0.4,4.2c0.3,0.6,0.6,1.2,0.9,1.9c0-1-0.7-1.8-0.8-2.7c-0.2-1-0.3-2.1,0.8-2.6
	c1.1-0.6,1.9,0.1,2.6,0.9c0.8,0.8,1.5,1.8,2,2.9c1.8,3.6,1.2,6.6-1.6,7.7c-3.6,1.5-5.1-1.1-6.6-3.6C21.3,28.8,21.6,27.8,21.1,26.9z"
	/>
<path class="st23" d="M21.1,26.9c0.9,1.3,2,2.6,2.8,4c1,1.8,2,2.5,4.3,1.7c2.6-1,2.3-2.9,1.7-4.3c-0.8-2.3-2.4-4.3-4.1-7.2
	c-1.2,3.5,1.1,5,1.7,7c0.3,1,0.8,2-0.4,2.5c-0.9,0.4-1.5-0.5-1.9-1.2c-0.8-1.6-1.3-3.4-2.4-4.8c-1.6-2.1-0.7-3.1,1-4.4
	c1.8-1.3,3.5-1.4,4.8,0.2c1.3,1.5,2.1,3.3,3.2,5c2.3,1.2,2.3,3.3,2.1,5.5c-0.3,2.4-2,3.4-4,4.2c-6.5,2.1-8.8-2.3-10.8-7
	C20,28,20.7,27.7,21.1,26.9z"/>
<path class="st24" d="M33.1,31c-0.4-1.9-0.8-3.8-1.3-5.7C32,23,33.7,23,35.4,23c2,0.1,3.9,0,5.7-1c2.6,2.9,3.3,6.3,2.6,10
	C40,33.4,36.5,32.8,33.1,31z"/>
<path class="st25" d="M33.1,31c3.6-0.3,7.1,0.2,10.6,1c0,1.5-0.4,2.9-1.4,4.1c-4-1.5-8.1-1.1-12.3-1.1C31.1,33.7,32.1,32.3,33.1,31z
	"/>
<path class="st26" d="M18.8,27c-0.9,0.3-1.7,0.6-2.6,1c0-1.3,0.1-2.8,1.3-3.3C18,24.5,18.9,25.9,18.8,27z"/>
</svg>
