<?xml version="1.0" encoding="utf-8"?>
<!-- Generator: Adobe Illustrator 19.1.0, SVG Export Plug-In . SVG Version: 6.00 Build 0)  -->
<!DOCTYPE svg PUBLIC "-//W3C//DTD SVG 1.1//EN" "http://www.w3.org/Graphics/SVG/1.1/DTD/svg11.dtd">
<svg version="1.1" id="Layer_1" xmlns="http://www.w3.org/2000/svg" xmlns:xlink="http://www.w3.org/1999/xlink" x="0px" y="0px"
	 width="199.8px" height="54.2px" viewBox="0 0 199.8 54.2" style="enable-background:new 0 0 199.8 54.2;" xml:space="preserve">
<style type="text/css">
	.st0{fill:#006594;}
	.st1{opacity:0.7;}
	.st2{fill:#FFFFFF;}
</style>
<g>
	<g>
		<path class="st0" d="M32,54.2l-0.5-22.7L19.6,49.7h-0.8l-12-18.1L6.4,54.2H0l1.6-38.3l1-0.1l16.8,25.1l16.4-25.1l1,0.1l1.6,38.3
			H32z"/>
	</g>
	<path class="st0" d="M70.8,54.2l-3.7-8.7h-15l-3.7,8.7h-6.7l17.4-38.4h0.9l17.4,38.4H70.8z M59.6,27.8l-5.4,12.6H65L59.6,27.8z"/>
	<path class="st0" d="M91,22.3v32h-6.5v-32h-12v-5.9H103v5.9H91z"/>
	<path class="st0" d="M127.9,54.2l-8.3-13.6c-0.3,0-0.7,0.1-1,0.1c-0.3,0-0.7,0-1,0c-0.6,0-1.2,0-1.9,0c-0.6,0-1.3,0-1.9-0.1v13.7
		h-6.5V16.8c1.5-0.2,3.1-0.3,4.7-0.4c1.6-0.1,3.4-0.2,5.3-0.2c2.7,0,5,0.3,6.9,0.9c1.9,0.6,3.6,1.5,4.8,2.5c1.3,1.1,2.2,2.3,2.8,3.8
		c0.6,1.4,0.9,3,0.9,4.7c0,2.5-0.6,4.7-1.9,6.6c-1.3,1.9-3.1,3.4-5.5,4.4l9.9,15.2H127.9z M126.1,28.4c0-1.9-0.7-3.5-2.1-4.7
		c-1.4-1.2-3.3-1.8-5.8-1.8c-0.8,0-1.5,0-2.3,0.1c-0.7,0-1.4,0.1-2.1,0.3v12.9c0.6,0.1,1.2,0.1,1.8,0.2c0.6,0,1.3,0.1,1.9,0.1
		c2.8,0,4.9-0.6,6.3-1.9C125.3,32.3,126.1,30.6,126.1,28.4z"/>
	<path class="st0" d="M141.3,54.2V16.4h6.4v37.8H141.3z"/>
	<path class="st0" d="M153.2,16.4h7.7l25.8,37.8H179L153.2,16.4z"/>
	<g class="st1">
		<polygon class="st0" points="199.8,0 192.8,0 192.2,0.9 199.1,0.9 		"/>
		<polygon class="st0" points="190.9,2.6 197.9,2.6 198.5,1.7 191.6,1.7 		"/>
		<polygon class="st0" points="189.7,4.3 196.6,4.3 197.3,3.4 190.3,3.4 		"/>
		<polygon class="st0" points="188.5,6.1 195.4,6.1 196.1,5.2 189.1,5.2 		"/>
		<polygon class="st0" points="187.2,7.8 194.2,7.8 194.8,6.9 187.9,6.9 		"/>
		<polygon class="st0" points="186,9.5 192.9,9.5 193.6,8.6 186.6,8.6 		"/>
		<polygon class="st0" points="184.8,11.2 191.7,11.2 192.4,10.3 185.4,10.3 		"/>
		<polygon class="st0" points="183.5,12.9 190.5,12.9 191.1,12 184.2,12 		"/>
		<polygon class="st0" points="182.3,14.7 189.2,14.7 189.9,13.8 182.9,13.8 		"/>
		<polygon class="st0" points="181.1,16.4 188,16.4 188.7,15.5 181.7,15.5 		"/>
		<polygon class="st0" points="179.8,18.1 186.8,18.1 187.4,17.2 180.5,17.2 		"/>
		<polygon class="st0" points="178.6,19.8 185.5,19.8 186.2,18.9 179.2,18.9 		"/>
		<polygon class="st0" points="177.4,21.5 184.3,21.5 185,20.6 178,20.6 		"/>
		<polygon class="st0" points="176.1,23.3 183.1,23.3 183.7,22.4 176.8,22.4 		"/>
		<polygon class="st0" points="174.9,25 181.8,25 182.5,24.1 175.5,24.1 		"/>
		<polygon class="st0" points="173.7,26.7 180.6,26.7 181.3,25.8 174.3,25.8 		"/>
		<polygon class="st0" points="172.4,28.4 179.4,28.4 180,27.5 173.1,27.5 		"/>
		<polygon class="st0" points="171.2,30.1 178.2,30.1 178.8,29.2 171.8,29.2 		"/>
		<polygon class="st0" points="170,31.9 176.9,31.9 177.6,31 170.6,31 		"/>
		<polygon class="st0" points="168.7,33.6 175.7,33.6 176.3,32.7 169.4,32.7 		"/>
		<polygon class="st0" points="167.5,35.3 174.4,35.3 175.1,34.4 168.1,34.4 		"/>
		<polygon class="st0" points="166.3,37 173.2,37 173.9,36.1 166.9,36.1 		"/>
		<polygon class="st0" points="165,38.7 172,38.7 172.6,37.8 165.7,37.8 		"/>
		<polygon class="st0" points="163.8,40.5 170.8,40.5 171.4,39.6 164.4,39.6 		"/>
		<polygon class="st0" points="162.6,42.2 169.5,42.2 170.2,41.3 163.2,41.3 		"/>
		<polygon class="st0" points="161.3,43.9 168.3,43.9 168.9,43 162,43 		"/>
		<polygon class="st0" points="160.1,45.6 167.1,45.6 167.7,44.7 160.7,44.7 		"/>
		<polygon class="st0" points="158.9,47.3 165.8,47.3 166.5,46.4 159.5,46.4 		"/>
		<polygon class="st0" points="157.6,49.1 164.6,49.1 165.2,48.2 158.3,48.2 		"/>
		<polygon class="st0" points="156.4,50.8 163.4,50.8 164,49.9 157,49.9 		"/>
		<polygon class="st0" points="155.2,52.5 162.1,52.5 162.8,51.6 155.8,51.6 		"/>
		<polygon class="st0" points="153.9,54.2 160.9,54.2 161.5,53.3 154.6,53.3 		"/>
	</g>
</g>
</svg>
