<?xml version="1.0" encoding="utf-8"?>
<!-- Generator: Adobe Illustrator 19.2.0, SVG Export Plug-In . SVG Version: 6.00 Build 0)  -->
<svg version="1.1" id="Layer_1" xmlns="http://www.w3.org/2000/svg" xmlns:xlink="http://www.w3.org/1999/xlink" x="0px" y="0px"
	 viewBox="0 0 500.6 161.3" style="enable-background:new 0 0 500.6 161.3;" xml:space="preserve">
<style type="text/css">
	.st0{clip-path:url(#SVGID_2_);}
	.st1{fill:#005039;}
	.st2{clip-path:url(#SVGID_4_);}
</style>
<title>MSUE-01</title>
<g>
	<path d="M198.9,93.6c0,1.9-0.3,3.8-0.9,5.6c-0.5,1.5-1.4,2.9-2.5,4s-2.4,1.9-3.8,2.4c-1.6,0.6-3.3,0.8-5.1,0.8
		c-1.7,0-3.4-0.2-5-0.8c-1.4-0.5-2.7-1.3-3.8-2.4s-1.9-2.5-2.4-3.9c-0.6-1.7-0.9-3.6-0.9-5.4V77.4h5v16.2c0,2.7,0.6,4.7,1.9,6.1
		c1.4,1.4,3.3,2.2,5.3,2.1c2,0.1,3.9-0.6,5.3-2c1.3-1.3,1.9-3.3,1.9-6V77.4h5V93.6L198.9,93.6L198.9,93.6z"/>
	<path d="M210.2,106h-5V84.4h5v3.4c0.3-0.5,0.7-1,1.2-1.5c0.4-0.5,0.9-0.9,1.5-1.2c0.6-0.4,1.2-0.6,1.8-0.8c0.7-0.2,1.5-0.3,2.2-0.3
		c2.1-0.1,4.2,0.7,5.6,2.3c1.4,1.7,2.1,3.8,2,6V106h-5V93.8c0.1-1.4-0.3-2.8-1.2-3.9c-0.9-0.9-2.1-1.4-3.4-1.4
		c-1.3,0-2.6,0.5-3.5,1.4c-0.9,1.1-1.4,2.5-1.3,3.9L210.2,106L210.2,106L210.2,106z"/>
	<path d="M246.7,106v-3.6c-0.8,1.1-1.8,2.1-2.9,2.9c-1.3,0.8-2.8,1.2-4.4,1.2c-1.3,0-2.5-0.2-3.7-0.7s-2.3-1.2-3.2-2.2
		c-1-1-1.7-2.2-2.2-3.5c-0.6-1.5-0.9-3.1-0.8-4.8c0-1.6,0.3-3.2,0.8-4.8c0.5-1.3,1.3-2.5,2.2-3.5c0.9-0.9,2-1.7,3.2-2.2
		s2.4-0.7,3.7-0.7c1.5-0.1,3.1,0.3,4.4,1.1c1.1,0.7,2.1,1.6,2.9,2.6V76.2h5V106H246.7L246.7,106z M246.2,92.4
		c-0.3-0.8-0.8-1.5-1.4-2.2c-0.6-0.6-1.2-1.1-2-1.4c-0.7-0.3-1.5-0.5-2.4-0.5c-0.8,0-1.6,0.2-2.4,0.5c-0.8,0.3-1.4,0.8-2,1.4
		s-1,1.4-1.3,2.2c-0.3,0.9-0.5,1.9-0.5,2.9s0.2,2,0.5,2.9c0.3,0.8,0.8,1.6,1.3,2.2c0.6,0.6,1.2,1.1,2,1.4c2.3,1,5,0.4,6.7-1.4
		c0.6-0.6,1-1.4,1.4-2.2C246.9,96.2,246.9,94.2,246.2,92.4L246.2,92.4z"/>
	<path d="M263.7,101c1.1,0.9,2.6,1.4,4.1,1.4c1.1,0,2.2-0.2,3.2-0.6c1-0.5,1.9-1.1,2.6-1.9l2.9,2.6c-1,1.2-2.3,2.2-3.7,2.9
		c-1.6,0.8-3.3,1.1-5.1,1.1c-1.5,0-3-0.3-4.3-0.8c-2.7-1-4.8-3.1-5.9-5.8c-0.6-1.5-0.9-3-0.9-4.6c0-1.5,0.2-3,0.8-4.4
		c0.5-1.3,1.2-2.5,2.2-3.6c0.9-1,2.1-1.8,3.3-2.4c1.3-0.6,2.8-0.9,4.2-0.9c1.6,0,3.1,0.3,4.5,0.9c1.2,0.6,2.3,1.5,3.2,2.5
		c0.9,1.1,1.5,2.4,1.9,3.7c0.4,1.4,0.7,2.9,0.6,4.4c0,0.2,0,0.4,0,0.6s0,0.5-0.1,0.7h-15.8C261.7,98.5,262.5,100,263.7,101z
		 M272.5,93.7c-0.1-0.8-0.3-1.5-0.5-2.2c-0.3-0.7-0.6-1.3-1.1-1.8s-1-0.9-1.6-1.2c-0.7-0.3-1.4-0.5-2.2-0.5c-1.4,0-2.8,0.5-3.8,1.6
		s-1.7,2.6-1.8,4.1H272.5L272.5,93.7z"/>
	<path d="M287.4,106h-5V84.4h5v4.9c0.6-1.5,1.6-2.9,2.9-3.9c1.4-1,3-1.5,4.7-1.3v5.2h-0.3c-1,0-2,0.2-3,0.5
		c-0.9,0.3-1.7,0.9-2.3,1.6c-0.7,0.8-1.2,1.7-1.5,2.7c-0.4,1.2-0.6,2.5-0.5,3.7L287.4,106L287.4,106L287.4,106z"/>
	<path d="M316.7,109.9c-2,1.8-4.9,2.6-8.6,2.6c-3.4,0.1-6.7-0.8-9.6-2.6l1.8-3.7c1.1,0.7,2.3,1.3,3.6,1.7c1.3,0.4,2.7,0.6,4.1,0.6
		c1.8,0.1,3.7-0.5,5-1.7c1.3-1.3,1.9-3.2,1.8-5v-1.7c-0.9,1.1-1.9,2.1-3.1,2.9c-1.3,0.8-2.9,1.2-4.4,1.1c-1.3,0-2.5-0.2-3.7-0.7
		c-1.2-0.4-2.2-1.1-3.1-2s-1.7-2-2.2-3.2c-1.1-2.7-1.1-5.8,0-8.5c0.5-1.2,1.2-2.3,2.2-3.2c0.9-0.9,2-1.5,3.1-2
		c1.2-0.5,2.4-0.7,3.6-0.7c1.6-0.1,3.1,0.3,4.5,1.1c1.1,0.7,2.1,1.6,3,2.6v-3.2h4.9v17.1C319.7,105.3,318.8,108.1,316.7,109.9z
		 M314.4,91.7c-0.3-0.7-0.8-1.4-1.4-1.9s-1.3-0.9-2-1.2c-0.8-0.3-1.6-0.4-2.4-0.4s-1.6,0.1-2.4,0.4c-0.7,0.3-1.4,0.7-1.9,1.2
		c-0.6,0.5-1,1.2-1.3,1.9c-0.3,0.8-0.5,1.6-0.5,2.4s0.2,1.7,0.5,2.4c0.3,0.7,0.8,1.3,1.3,1.9c0.6,0.5,1.2,0.9,1.9,1.2
		c0.8,0.3,1.6,0.4,2.4,0.4s1.6-0.1,2.4-0.4c1.5-0.5,2.7-1.6,3.4-3.1c0.3-0.8,0.5-1.6,0.5-2.4C314.9,93.3,314.8,92.5,314.4,91.7z"/>
	<path d="M330.9,106h-5V84.4h5v4.9c0.6-1.5,1.6-2.9,2.9-3.9c1.4-1,3-1.5,4.7-1.3v5.2h-0.3c-1,0-2,0.2-3,0.5
		c-0.9,0.3-1.7,0.9-2.3,1.6c-0.7,0.8-1.2,1.7-1.5,2.7c-0.4,1.2-0.6,2.5-0.5,3.7L330.9,106L330.9,106L330.9,106z"/>
	<path d="M354.9,106v-2.6c-0.8,0.9-1.7,1.7-2.8,2.2c-1.3,0.6-2.7,0.9-4.1,0.9c-1,0-2-0.1-2.9-0.4s-1.7-0.7-2.4-1.3
		c-1.5-1.2-2.3-3-2.3-5v-0.1c0-1.1,0.2-2.1,0.6-3s1-1.6,1.8-2.2s1.8-1,2.8-1.3c1.1-0.3,2.3-0.4,3.5-0.4c1.1,0,2.2,0.1,3.3,0.2
		c0.9,0.2,1.8,0.4,2.6,0.6V93c0.1-1.3-0.4-2.5-1.4-3.4c-1.1-0.9-2.5-1.3-3.9-1.2c-1.1,0-2.2,0.1-3.3,0.4c-1,0.3-2,0.6-2.9,1l-1.4-4
		c1.2-0.5,2.4-1,3.7-1.3c1.5-0.4,3-0.5,4.5-0.5c3.2,0,5.6,0.8,7.1,2.4c1.6,1.8,2.5,4.2,2.3,6.7v12.8L354.9,106L354.9,106z M355,96.8
		c-0.7-0.3-1.5-0.5-2.2-0.6c-0.9-0.2-1.8-0.2-2.7-0.2c-1.3-0.1-2.5,0.2-3.6,0.9c-0.9,0.6-1.3,1.5-1.3,2.6v0.1c0,0.9,0.4,1.8,1.2,2.4
		c0.9,0.6,1.9,0.9,3,0.8c0.8,0,1.5-0.1,2.3-0.3c0.7-0.2,1.3-0.5,1.8-0.9s0.9-0.9,1.2-1.4c0.3-0.6,0.4-1.2,0.4-1.9L355,96.8L355,96.8
		L355,96.8z"/>
	<path d="M381.8,106v-3.6c-0.8,1.1-1.8,2.1-3,2.9c-1.3,0.8-2.8,1.2-4.3,1.2c-1.3,0-2.5-0.2-3.7-0.7s-2.3-1.2-3.2-2.2
		c-1-1-1.7-2.2-2.2-3.5c-0.6-1.5-0.9-3.1-0.9-4.8c0-1.6,0.3-3.2,0.8-4.8c0.5-1.3,1.3-2.5,2.2-3.5c0.9-0.9,2-1.7,3.2-2.2
		s2.4-0.7,3.7-0.7c1.5-0.1,3.1,0.3,4.4,1.1c1.1,0.7,2.1,1.6,2.9,2.6V76.2h5V106H381.8L381.8,106z M381.4,92.4
		c-0.3-0.8-0.8-1.5-1.4-2.2c-1.1-1.2-2.7-1.9-4.3-1.9c-0.8,0-1.6,0.2-2.4,0.5s-1.4,0.8-2,1.4s-1,1.4-1.3,2.2
		c-0.3,0.9-0.5,1.9-0.5,2.9s0.2,2,0.5,2.9c0.3,0.8,0.8,1.6,1.3,2.2c0.6,0.6,1.2,1.1,2,1.4c2.3,1,5,0.4,6.7-1.4
		c0.6-0.6,1-1.4,1.4-2.2C382.1,96.2,382.1,94.2,381.4,92.4L381.4,92.4z"/>
	<path d="M407,84.4h5V106h-5v-3.4c-0.7,1-1.6,2-2.6,2.7c-1.2,0.8-2.6,1.2-4.1,1.1c-2.1,0.1-4.2-0.7-5.6-2.2c-1.4-1.7-2.1-3.8-2-6
		V84.4h5v12.2c-0.1,1.4,0.3,2.8,1.2,3.9c0.9,0.9,2.1,1.4,3.4,1.4s2.6-0.5,3.5-1.4c0.9-1.1,1.4-2.5,1.3-3.9L407,84.4L407,84.4z"/>
	<path d="M431.3,106v-2.6c-0.8,0.9-1.7,1.7-2.8,2.2c-1.3,0.6-2.7,0.9-4.1,0.9c-1,0-2-0.1-2.9-0.4s-1.7-0.7-2.4-1.3
		c-1.5-1.2-2.3-3-2.3-5v-0.1c0-1.1,0.2-2.1,0.6-3s1-1.6,1.8-2.2s1.8-1,2.8-1.3c1.1-0.3,2.3-0.4,3.5-0.4c1.1,0,2.2,0.1,3.3,0.2
		c0.9,0.2,1.8,0.4,2.6,0.6V93c0.1-1.3-0.4-2.5-1.4-3.4c-1.1-0.9-2.5-1.3-3.9-1.2c-1.1,0-2.2,0.1-3.3,0.4c-1,0.3-2,0.6-2.9,1l-1.4-4
		c1.2-0.5,2.4-1,3.7-1.3c1.5-0.4,3-0.5,4.5-0.5c3.2,0,5.6,0.8,7.1,2.4c1.6,1.8,2.5,4.2,2.3,6.7v12.8L431.3,106L431.3,106z
		 M431.4,96.8c-0.7-0.3-1.5-0.5-2.2-0.6c-0.9-0.2-1.8-0.2-2.7-0.2c-1.3-0.1-2.5,0.2-3.6,0.9c-0.9,0.6-1.3,1.5-1.3,2.6v0.1
		c0,0.9,0.4,1.8,1.2,2.4c0.9,0.6,1.9,0.9,3,0.8c0.8,0,1.5-0.1,2.3-0.3c0.7-0.2,1.3-0.5,1.8-0.9s0.9-0.9,1.2-1.4
		c0.3-0.6,0.4-1.2,0.4-1.9L431.4,96.8L431.4,96.8L431.4,96.8z"/>
	<path d="M447.9,99.2c-0.1,0.8,0.2,1.5,0.7,2.1c0.6,0.5,1.3,0.7,2,0.6c1.1,0,2.1-0.2,3.1-0.7v4c-0.6,0.4-1.3,0.6-2,0.8
		c-0.8,0.2-1.6,0.3-2.4,0.3s-1.7-0.1-2.5-0.3c-0.7-0.2-1.4-0.6-2-1.1s-1-1.2-1.3-1.9c-0.3-1-0.5-2-0.5-3V88.6h-2.7v-4.2h2.7v-5.9h5
		v5.9h5.8v4.2h-5.9L447.9,99.2L447.9,99.2L447.9,99.2z"/>
	<path d="M463.8,101c1.1,0.9,2.6,1.4,4.1,1.4c1.1,0,2.2-0.2,3.2-0.6c1-0.5,1.9-1.1,2.6-1.9l2.9,2.6c-1,1.2-2.3,2.2-3.7,2.9
		c-1.6,0.8-3.3,1.1-5.1,1.1c-1.5,0-3-0.3-4.3-0.8c-2.7-1-4.8-3.1-5.9-5.8c-0.6-1.5-0.9-3-0.9-4.6c0-1.5,0.2-3,0.8-4.4
		c0.5-1.3,1.2-2.5,2.2-3.6c0.9-1,2.1-1.8,3.3-2.4c1.3-0.6,2.8-0.9,4.2-0.9c1.6,0,3.1,0.3,4.5,0.9c1.2,0.6,2.3,1.5,3.2,2.5
		c0.9,1.1,1.5,2.4,1.9,3.7c0.4,1.4,0.7,2.9,0.6,4.4c0,0.2,0,0.4,0,0.6s0,0.5-0.1,0.7h-15.8C461.9,98.5,462.7,100,463.8,101z
		 M472.7,93.7c-0.1-0.8-0.3-1.5-0.5-2.2c-0.3-0.7-0.6-1.3-1.1-1.8s-1-0.9-1.6-1.2c-0.7-0.3-1.4-0.5-2.2-0.5c-1.4,0-2.8,0.5-3.8,1.6
		s-1.7,2.6-1.8,4.1H472.7L472.7,93.7z"/>
	<path d="M172.9,130.8h-16.1v7.3h14.3v4.5h-14.3v7.6h16.3v4.5h-21.3v-28.5h21.1V130.8L172.9,130.8z"/>
	<path d="M183.5,154.8h-5v-21.5h5v3.4c0.3-0.5,0.7-1,1.2-1.5c0.4-0.5,0.9-0.9,1.5-1.2c0.6-0.4,1.2-0.6,1.8-0.8
		c0.7-0.2,1.5-0.3,2.2-0.3c2.1-0.1,4.2,0.7,5.7,2.2c1.4,1.7,2.1,3.8,2,6v13.7h-5v-12.1c0.1-1.4-0.3-2.8-1.2-3.9
		c-0.9-0.9-2.1-1.4-3.4-1.4c-1.3,0-2.6,0.5-3.5,1.4c-0.9,1.1-1.4,2.5-1.3,3.9V154.8L183.5,154.8L183.5,154.8z"/>
	<path d="M209.8,148.1c-0.1,0.8,0.2,1.5,0.7,2.1c0.6,0.5,1.3,0.7,2,0.6c1,0,2.1-0.2,3-0.7v4c-0.6,0.4-1.3,0.6-2,0.8
		c-0.8,0.2-1.6,0.3-2.4,0.3c-0.8,0-1.7-0.1-2.5-0.3c-0.7-0.2-1.4-0.6-2-1.1s-1-1.2-1.3-1.9c-0.3-1-0.5-2-0.4-3v-11.4h-2.7v-4.2h2.7
		v-5.9h5v5.9h5.8v4.2h-5.8v10.6L209.8,148.1L209.8,148.1z"/>
	<path d="M225.5,154.8h-5v-21.5h5v4.9c0.6-1.5,1.6-2.9,2.9-3.9c1.4-1,3-1.5,4.7-1.3v5.2h-0.3c-1,0-2,0.2-3,0.5
		c-0.9,0.3-1.7,0.9-2.3,1.6c-0.7,0.8-1.2,1.7-1.5,2.7c-0.4,1.2-0.6,2.5-0.5,3.7L225.5,154.8L225.5,154.8z"/>
	<path d="M242.5,149.9c1.1,0.9,2.6,1.4,4.1,1.4c1.1,0,2.2-0.2,3.2-0.6c1-0.5,1.9-1.1,2.6-1.9l2.9,2.6c-1,1.2-2.3,2.2-3.7,2.9
		c-1.6,0.8-3.3,1.1-5.1,1.1c-1.5,0-3-0.3-4.3-0.8c-2.7-1-4.8-3.1-5.8-5.8c-0.6-1.5-0.9-3-0.9-4.6c0-1.5,0.2-3,0.8-4.4
		c0.5-1.3,1.2-2.5,2.2-3.6c0.9-1,2.1-1.8,3.3-2.4c1.3-0.6,2.8-0.9,4.2-0.9c1.6,0,3.1,0.3,4.5,0.9c1.2,0.6,2.3,1.5,3.2,2.5
		c0.9,1.1,1.5,2.4,1.9,3.7c0.4,1.4,0.7,2.9,0.6,4.4c0,0.2,0,0.4,0,0.6c0,0.2,0,0.5-0.1,0.7h-15.8
		C240.6,147.4,241.3,148.8,242.5,149.9z M251.4,142.6c-0.1-0.8-0.3-1.5-0.5-2.2c-0.3-0.7-0.6-1.3-1.1-1.8s-1-0.9-1.7-1.2
		s-1.4-0.5-2.2-0.5c-1.4,0-2.8,0.5-3.8,1.6s-1.7,2.6-1.8,4.1L251.4,142.6L251.4,142.6z"/>
	<path d="M282.6,148.8c-0.5,1.3-1.3,2.5-2.2,3.5c-0.9,0.9-2,1.7-3.2,2.2s-2.5,0.7-3.7,0.7c-1.5,0.1-3.1-0.3-4.4-1.1
		c-1.1-0.7-2.1-1.6-2.9-2.6v9.9h-5v-28h5v3.6c0.8-1.1,1.8-2.1,2.9-2.9c1.3-0.8,2.8-1.2,4.4-1.2c1.3,0,2.5,0.2,3.7,0.7
		s2.3,1.2,3.2,2.2c1,1,1.7,2.2,2.3,3.5c0.6,1.5,0.9,3.1,0.9,4.8C283.5,145.7,283.2,147.3,282.6,148.8z M278,141.2
		c-0.3-0.8-0.7-1.5-1.3-2.2c-0.6-0.6-1.2-1.1-2-1.4c-0.8-0.3-1.6-0.5-2.4-0.5s-1.6,0.2-2.4,0.5s-1.4,0.8-2,1.4
		c-0.6,0.6-1.1,1.4-1.4,2.2c-0.7,1.8-0.7,3.9,0,5.7c0.3,0.8,0.8,1.5,1.4,2.2c0.6,0.6,1.2,1.1,2,1.4c0.8,0.3,1.6,0.5,2.4,0.5
		s1.6-0.2,2.4-0.5s1.4-0.8,2-1.4c0.6-0.6,1-1.4,1.3-2.2C278.7,145.1,278.6,143.1,278,141.2L278,141.2z"/>
	<path d="M293.5,154.8h-5v-21.5h5v4.9c0.6-1.5,1.6-2.9,2.9-3.9c1.4-1,3-1.5,4.7-1.3v5.2h-0.3c-1,0-2,0.2-3,0.5
		c-0.9,0.3-1.7,0.9-2.3,1.6c-0.7,0.8-1.2,1.7-1.5,2.7c-0.4,1.2-0.6,2.5-0.5,3.7L293.5,154.8L293.5,154.8L293.5,154.8z"/>
	<path d="M310.5,149.9c1.1,0.9,2.6,1.4,4.1,1.4c1.1,0,2.2-0.2,3.2-0.6c1-0.5,1.9-1.1,2.6-1.9l2.9,2.6c-1,1.2-2.3,2.2-3.7,2.9
		c-1.6,0.8-3.3,1.1-5.1,1.1c-1.5,0-3-0.3-4.3-0.8c-2.7-1-4.8-3.1-5.9-5.8c-0.6-1.5-0.9-3-0.9-4.6c0-1.5,0.2-3,0.8-4.4
		c0.5-1.3,1.2-2.5,2.2-3.6c0.9-1,2.1-1.8,3.3-2.4c1.3-0.6,2.8-0.9,4.2-0.9c1.6,0,3.1,0.3,4.5,0.9c1.2,0.6,2.3,1.5,3.2,2.5
		c0.9,1.1,1.5,2.4,1.9,3.7c0.4,1.4,0.7,2.9,0.6,4.4c0,0.2,0,0.4,0,0.6c0,0.2,0,0.5-0.1,0.7h-15.8
		C308.5,147.4,309.3,148.8,310.5,149.9z M319.3,142.6c-0.1-0.8-0.3-1.5-0.5-2.2c-0.3-0.7-0.6-1.3-1.1-1.8s-1-0.9-1.6-1.2
		c-0.7-0.3-1.4-0.5-2.2-0.5c-1.4,0-2.8,0.5-3.8,1.6s-1.7,2.6-1.8,4.1L319.3,142.6L319.3,142.6z"/>
	<path d="M334.2,154.8h-5v-21.5h5v3.4c0.3-0.5,0.7-1,1.2-1.5c0.4-0.5,0.9-0.9,1.5-1.2c0.6-0.4,1.2-0.6,1.8-0.8
		c0.7-0.2,1.5-0.3,2.2-0.3c2.1-0.1,4.2,0.7,5.6,2.2c1.4,1.7,2.1,3.8,2,6v13.7h-5v-12.1c0.1-1.4-0.3-2.8-1.2-3.9
		c-0.9-0.9-2.1-1.4-3.4-1.4s-2.6,0.5-3.5,1.4c-0.9,1.1-1.4,2.5-1.3,3.9L334.2,154.8L334.2,154.8L334.2,154.8z"/>
	<path d="M360.3,149.9c1.1,0.9,2.6,1.4,4.1,1.4c1.1,0,2.2-0.2,3.2-0.6c1-0.5,1.9-1.1,2.6-1.9l2.9,2.6c-1,1.2-2.3,2.2-3.7,2.9
		c-1.6,0.8-3.3,1.1-5.1,1.1c-1.5,0-3-0.3-4.3-0.8c-2.7-1-4.8-3.1-5.9-5.8c-0.6-1.5-0.9-3-0.9-4.6c0-1.5,0.2-3,0.8-4.4
		c0.5-1.3,1.2-2.5,2.2-3.6c0.9-1,2.1-1.8,3.3-2.4c1.3-0.6,2.8-0.9,4.2-0.9c1.6,0,3.1,0.3,4.5,0.9c1.2,0.6,2.3,1.5,3.2,2.5
		c0.9,1.1,1.5,2.4,1.9,3.7c0.4,1.4,0.7,2.9,0.6,4.4c0,0.2,0,0.4,0,0.6c0,0.2,0,0.5-0.1,0.7H358C358.4,147.4,359.2,148.8,360.3,149.9
		z M369.2,142.6c-0.1-0.8-0.3-1.5-0.5-2.2c-0.3-0.7-0.6-1.3-1.1-1.8s-1-0.9-1.6-1.2c-0.7-0.3-1.4-0.5-2.2-0.5
		c-1.4,0-2.8,0.5-3.8,1.6s-1.7,2.6-1.8,4.1L369.2,142.6L369.2,142.6z"/>
	<path d="M393.2,133.3h5v21.5h-5v-3.4c-0.7,1-1.6,1.9-2.6,2.6c-1.2,0.8-2.6,1.2-4.1,1.1c-2.1,0.1-4.2-0.7-5.6-2.2
		c-1.4-1.7-2.1-3.8-2-6v-13.7h5v12.2c-0.1,1.4,0.3,2.8,1.2,3.9c0.9,0.9,2.1,1.4,3.4,1.4s2.6-0.5,3.5-1.4c0.9-1.1,1.4-2.5,1.3-3.9
		L393.2,133.3L393.2,133.3L393.2,133.3z"/>
	<path d="M409.3,154.8h-5v-21.5h5v4.9c0.6-1.5,1.6-2.9,2.9-3.9c1.4-1,3-1.5,4.7-1.3v5.2h-0.3c-1,0-2,0.2-3,0.5
		c-0.9,0.3-1.7,0.9-2.3,1.6c-0.7,0.8-1.2,1.7-1.5,2.7c-0.4,1.2-0.6,2.5-0.5,3.7L409.3,154.8L409.3,154.8L409.3,154.8z"/>
	<path d="M435.9,151.5c-0.4,0.8-1,1.5-1.7,2.1c-0.8,0.6-1.6,1-2.5,1.3c-1,0.3-2.1,0.4-3.1,0.4c-1.6,0-3.2-0.3-4.7-0.8
		c-1.6-0.5-3.1-1.4-4.4-2.4l2.2-3.3c1.1,0.8,2.3,1.5,3.6,2c1.1,0.4,2.3,0.7,3.5,0.7c0.9,0.1,1.7-0.2,2.5-0.6c0.6-0.4,0.9-1,0.9-1.7
		V149c0-0.4-0.1-0.8-0.4-1.1s-0.7-0.6-1.1-0.8c-0.5-0.2-1-0.5-1.5-0.6l-1.8-0.5c-0.8-0.2-1.6-0.5-2.4-0.8s-1.5-0.7-2.2-1.2
		c-0.6-0.5-1.2-1.1-1.6-1.8c-0.4-0.8-0.6-1.7-0.6-2.6v-0.1c0-0.9,0.2-1.9,0.6-2.7s0.9-1.5,1.6-2.1s1.6-1,2.4-1.3c1-0.3,2-0.5,3-0.5
		c1.4,0,2.8,0.2,4.1,0.6c1.3,0.4,2.6,1,3.8,1.8l-2,3.5c-1-0.6-2-1.1-3.1-1.5c-0.9-0.3-1.9-0.5-2.9-0.5c-0.8,0-1.6,0.2-2.2,0.6
		c-0.5,0.4-0.8,0.9-0.8,1.5l0,0c0,0.4,0.1,0.7,0.4,1s0.7,0.6,1.1,0.8c0.5,0.3,1,0.5,1.5,0.6c0.6,0.2,1.2,0.4,1.8,0.6
		c0.8,0.2,1.6,0.5,2.4,0.9c0.8,0.3,1.5,0.7,2.1,1.2s1.2,1.1,1.6,1.7c0.4,0.8,0.6,1.6,0.6,2.5v0.1
		C436.5,149.5,436.3,150.5,435.9,151.5z"/>
	<path d="M446.5,154.8h-5v-29.7h5v11.6c0.3-0.5,0.7-1,1.2-1.5c0.4-0.5,0.9-0.9,1.5-1.2c0.6-0.4,1.2-0.6,1.8-0.8
		c0.7-0.2,1.5-0.3,2.2-0.3c2.1-0.1,4.2,0.7,5.6,2.2c1.4,1.7,2.1,3.8,2,6v13.7h-5v-12.2c0.1-1.4-0.3-2.8-1.2-3.9
		c-0.9-0.9-2.1-1.4-3.4-1.4s-2.6,0.5-3.5,1.4c-0.9,1.1-1.4,2.5-1.3,3.9L446.5,154.8L446.5,154.8L446.5,154.8z"/>
	<path d="M466.8,130v-4.7h5.3v4.7H466.8z M467,154.8v-21.5h5v21.5H467z"/>
	<path d="M499.8,148.8c-0.5,1.3-1.3,2.5-2.2,3.5c-0.9,0.9-2,1.7-3.2,2.2s-2.5,0.7-3.7,0.7c-1.5,0.1-3.1-0.3-4.4-1.1
		c-1.1-0.7-2.1-1.6-2.9-2.6v9.9h-5v-28h5v3.6c0.8-1.1,1.8-2.1,2.9-2.9c1.3-0.8,2.8-1.2,4.4-1.2c1.3,0,2.5,0.2,3.7,0.7
		s2.3,1.2,3.2,2.2c1,1,1.7,2.2,2.3,3.5c0.6,1.5,0.9,3.1,0.9,4.8C500.7,145.7,500.4,147.3,499.8,148.8z M495.2,141.2
		c-0.3-0.8-0.7-1.5-1.3-2.2c-1.1-1.2-2.7-1.9-4.3-1.9c-0.8,0-1.6,0.2-2.4,0.5s-1.4,0.8-2,1.4c-0.6,0.6-1,1.4-1.4,2.2
		c-0.7,1.8-0.7,3.9,0,5.7c0.3,0.8,0.8,1.5,1.4,2.2c0.6,0.6,1.2,1.1,2,1.4c0.8,0.3,1.6,0.5,2.4,0.5s1.6-0.2,2.4-0.5s1.4-0.8,2-1.4
		c0.6-0.6,1-1.4,1.3-2.2C495.9,145.1,495.9,143.1,495.2,141.2L495.2,141.2z"/>
	<path d="M194.8,40.5v10.4c0,1.7,0.6,4.2,3.6,4.2c2.8,0,3.8-1.9,3.8-4.4V40.5c0-0.5-0.2-0.9-0.6-1.1h2.7c-0.4,0.2-0.6,0.7-0.6,1.1
		l-0.1,10.2c0,4.2-2.4,5.9-5.6,5.9c-2.8,0-6.3-1.3-6.3-5.7V40.5c0-0.5-0.3-0.9-0.8-1.1h4.6C195.1,39.6,194.8,40,194.8,40.5
		L194.8,40.5L194.8,40.5z"/>
	<path d="M234.7,40.5c0-0.5-0.2-0.9-0.6-1.1h2.6c-0.4,0.2-0.6,0.7-0.6,1.1V57c0,0-11.3-14.1-11.3-14.3v12.5c0,0.5,0.2,0.9,0.7,1.1
		h-2.6c0.4-0.2,0.6-0.7,0.6-1.1V41.9c0.1-0.6,0-1.2-0.4-1.6c-0.3-0.4-0.7-0.7-1.1-0.9h4.1l8.7,11L234.7,40.5L234.7,40.5L234.7,40.5z
		"/>
	<path d="M259.8,39.3c-0.4,0.2-0.7,0.7-0.6,1.1v14.7c0,0.5,0.2,0.9,0.6,1.1h-4.3c0.4-0.2,0.6-0.7,0.6-1.1V40.5
		c0-0.5-0.2-0.9-0.6-1.1h4.3L259.8,39.3L259.8,39.3z"/>
	<path d="M288.6,40.6c0.2-0.4,0.1-0.9-0.3-1.1c-0.1,0-0.2-0.1-0.2-0.1h2.9c-0.5,0.3-0.8,0.7-0.9,1.2c-0.4,1-6.1,16.3-6.1,16.3
		s-6.2-15.4-6.6-16.3c-0.3-0.5-0.7-1-1.3-1.2h5.2c-0.5,0.2-0.7,0.8-0.5,1.3c0,0,0,0,0,0.1c0,0.2,4,10.5,4,10.5
		S288.6,40.8,288.6,40.6L288.6,40.6L288.6,40.6z"/>
	<path d="M317.3,41.5c-0.4-0.6-1.1-1-1.8-0.9c-0.7-0.1-4-0.1-4-0.1v5.7h3.6c0.4-0.1,0.7-0.3,0.9-0.7v2.6c-0.1-0.4-0.5-0.7-0.9-0.7
		h-3.6v7.3c1,0.1,2,0.2,3.1,0.1c2.1-0.1,3,0,3.9-1.6l-0.5,2.9h-10.2c0.4-0.2,0.7-0.6,0.7-1.1V40.5c0-0.5-0.3-0.9-0.7-1.1h9.5V41.5
		L317.3,41.5L317.3,41.5z"/>
	<path d="M339.7,40.6v6.5c0,0,0.7,0.1,1.1,0.1c1.7,0.1,3.2-1.2,3.3-3c0-0.2,0-0.3,0-0.5c0.1-1.7-1.2-3.1-2.9-3.1h-0.1
		C340.4,40.6,339.7,40.6,339.7,40.6L339.7,40.6L339.7,40.6z M343.2,47.7c1.1,0.2,2.1,0.8,2.7,1.9c0,0,2.8,4.7,3.7,5.7
		c0.4,0.4,0.9,0.8,1.5,1l-3.1,0.1c-0.8,0-1.6-0.5-2.1-1.2c-1.1-1.6-2.1-3.4-3-4.8c-0.6-1-1.2-2.1-2.2-2.1c-0.3,0-1,0.1-1,0.1v6.8
		c0,0.5,0.2,0.9,0.7,1.1h-4.3c0.4-0.2,0.6-0.7,0.6-1.1V40.5c0-0.5-0.2-0.9-0.6-1.1h5.1c4.9,0,6,2.5,6,4.2
		C347.1,45.8,345.4,47.6,343.2,47.7L343.2,47.7L343.2,47.7z"/>
	<path d="M377,51.3c0,2.9-2.5,5.3-5.4,5.2h-0.1c-1.6,0-3.1-0.4-4.5-1.2l-0.1-4.2c0.4,1.8,1.9,4.1,4.3,4.1c1.6,0.1,2.9-1.1,3-2.7
		c0-0.1,0-0.2,0-0.3c0-2.4-2.1-2.7-4.2-3.9s-3.1-2.6-3.1-4.5c0-3.4,3-4.7,5.1-4.7c1.2,0,2.5,0.3,3.6,0.9l0.1,3.7
		c-0.4-1.9-2-3.2-3.9-3.3c-1.3-0.1-2.4,0.9-2.5,2.2c0,0.1,0,0.1,0,0.2c0,1.5,1,2.1,3.2,3.2C374.7,47,376.9,47.8,377,51.3L377,51.3
		L377,51.3z"/>
	<path d="M399.7,39.3c-0.4,0.2-0.7,0.7-0.6,1.1v14.7c0,0.5,0.2,0.9,0.6,1.1h-4.3c0.4-0.2,0.6-0.7,0.6-1.1V40.5
		c0-0.5-0.2-0.9-0.6-1.1h4.3V39.3z"/>
	<path d="M425.4,40.6v14.6c0,0.5,0.2,0.9,0.6,1.1h-4.2c0.4-0.2,0.6-0.7,0.6-1.1V40.6c-1.8,0-3.8,0.2-3.8,0.2c-0.5,0.1-1,0.5-1.2,1
		v-2.4h13v2.4c-0.2-0.5-0.6-0.9-1.1-1C429.3,40.8,427.1,40.6,425.4,40.6L425.4,40.6L425.4,40.6z"/>
	<path d="M460.2,39.3c-0.7,0.3-1.2,0.8-1.6,1.5l-3.8,7.6v6.7c0.1,0.5,0.4,0.9,0.8,1.1h-4.7c0.5-0.2,0.8-0.6,0.8-1.1v-6.6l-4.6-8
		c-0.3-0.5-0.7-1-1.2-1.2h5.3c-0.6,0.2-1,0.4-0.4,1.5l3.3,6.1l3.1-6.4c0.3-0.3,0.2-0.8-0.1-1.1c-0.1-0.1-0.2-0.1-0.4-0.2L460.2,39.3
		L460.2,39.3z"/>
	<path d="M209.3,0.3h5.6c-0.6,0.3-0.9,0.9-0.8,1.6v20.4c0,0.6,0.3,1.2,0.8,1.6H209c0.6-0.3,0.9-0.9,0.8-1.6V4.8c0-0.3,0-0.5,0.1-0.8
		l-0.3,0.8l-7.9,19.4l-7.9-18.9l-0.2-0.9v17.8c0,0.7,0.3,1.3,0.9,1.6h-3.6c0.5-0.3,0.9-0.9,0.9-1.6V1.8c-0.1-0.7-0.5-1.3-1.1-1.6
		h5.8l6.6,15.9L209.3,0.3L209.3,0.3z"/>
	<path d="M226.1,0.3c-0.6,0.3-0.9,0.9-0.9,1.6v20.4c-0.1,0.6,0.3,1.3,0.9,1.6h-5.9c0.6-0.3,0.9-0.9,0.8-1.6V1.8
		c0.1-0.6-0.3-1.3-0.8-1.6h5.9V0.3z"/>
	<path d="M251.3,7.1c-2-4.8-5.8-5.3-7.4-5.3c-5.6,0-8.8,4.3-8.8,9.9c0,4.7,2.3,10.6,9,10.6c1.5,0,5.2-0.6,7.4-5.3
		c0.1-0.1-0.3,5-0.3,5c-2.5,1.5-5.4,2.2-8.3,2.2c-6.5,0-12.2-4.7-12.2-12c0-6,4.2-12.2,12.6-12.2c2.7,0,5.3,0.6,7.7,1.8
		C251,1.8,251.3,7.3,251.3,7.1L251.3,7.1L251.3,7.1z"/>
	<path d="M270.5,0.3h6c-0.6,0.3-1,0.9-0.9,1.6v20.4c0,0.7,0.3,1.3,0.9,1.6h-6c0.6-0.3,0.9-0.9,0.9-1.6V11.7h-10.2v10.6
		c-0.1,0.6,0.3,1.3,0.9,1.6h-5.9c0.6-0.3,0.9-0.9,0.9-1.6V1.8c0.1-0.6-0.3-1.3-0.9-1.6h5.9c-0.6,0.3-0.9,0.9-0.9,1.6V10h10.2V1.8
		C271.5,1.2,271.1,0.6,270.5,0.3L270.5,0.3L270.5,0.3z"/>
	<path d="M287.7,0.3c-0.6,0.3-0.9,0.9-0.9,1.6v20.4c-0.1,0.6,0.3,1.3,0.9,1.6h-5.9c0.6-0.3,0.9-0.9,0.9-1.6V1.8
		c0.1-0.6-0.3-1.3-0.9-1.6h5.9V0.3z"/>
	<path d="M312.7,1.7l0.2,5.5c-1-3.2-4-5.4-7.4-5.4c-5.6,0-8.8,4.3-8.8,9.9c0,4.7,2.2,10.6,9,10.6c1.5,0,2.9-0.4,4.2-1.1v-6
		c0-0.6-0.3-1.3-0.9-1.6h5.9c-0.6,0.3-0.9,0.9-0.9,1.6v5.1c0,0.5,0.2,1,0.5,1.4c-3.1,1.6-6.5,2.4-10,2.5c-6.5,0-12.3-4.7-12.3-12
		c0-6.1,4.3-12.2,12.7-12.2C307.7,0,310.3,0.6,312.7,1.7L312.7,1.7L312.7,1.7z"/>
	<path d="M329.4,15.5C327.9,11.7,326,7,326,7s-2.2,5.9-3.3,8.5H329.4z M336.6,22.1c0.3,0.8,0.9,1.4,1.6,1.7h-7
		c0.7-0.2,1-0.9,0.8-1.6v-0.1c-0.1-0.4-1-2.5-1.9-4.8h-8c-1,2.4-1.8,4.4-1.8,4.8c-0.3,0.6-0.1,1.3,0.4,1.6c0.1,0.1,0.2,0.1,0.3,0.1
		h-4.6c0.7-0.4,1.2-1,1.5-1.7c0.6-1.3,9.3-22.6,9.3-22.6S336,20.8,336.6,22.1L336.6,22.1z"/>
	<path d="M356.8,1.8c0.1-0.6-0.3-1.3-0.9-1.6h3.6c-0.6,0.3-0.9,0.9-0.9,1.6v22.9c0,0-15.8-19.6-15.8-19.9v17.3
		c0,0.7,0.3,1.3,0.9,1.6h-3.6c0.5-0.3,0.9-0.9,0.9-1.6V3.8c0-1.4,0-1.4-0.6-2.2c-0.4-0.5-0.9-1-1.5-1.3h5.6l12.1,15.2V1.8H356.8z"/>
	<path d="M386.5,16.9c-0.1,4.1-3.4,7.3-7.5,7.3c-0.1,0-0.1,0-0.2,0c-2.2,0-4.4-0.6-6.3-1.7l-0.2-5.9c0.6,2.5,2.6,5.7,6,5.7
		c2.2,0.1,4.1-1.6,4.2-3.8c0-0.1,0-0.3,0-0.4c0-3.3-2.9-3.8-5.8-5.5s-4.3-3.6-4.3-6.3c0-4.7,4.2-6.6,7.1-6.6c1.7,0,3.5,0.4,5,1.3
		l0.2,5.1c-0.5-1.8-2.3-4.6-5.5-4.6c-1.8-0.1-3.3,1.2-3.5,3c0,0.1,0,0.2,0,0.3c0,2.1,1.4,2.9,4.5,4.4S386.5,12.1,386.5,16.9
		L386.5,16.9z"/>
	<path d="M399.6,2v20.2c0,0.6,0.3,1.2,0.9,1.6h-5.9c0.6-0.3,0.9-0.9,0.9-1.6V2c-2.4,0-5.2,0.2-5.2,0.2c-0.8,0.1-1.4,0.7-1.6,1.4V0.3
		h18v3.4c-0.2-0.7-0.8-1.2-1.5-1.4C405,2.2,402,2,399.6,2L399.6,2L399.6,2z"/>
	<path d="M416.4,15.5C414.9,11.7,413,7,413,7s-2.2,5.9-3.3,8.5H416.4z M423.7,22.1c0.3,0.8,0.9,1.4,1.6,1.7h-7
		c0.7-0.2,1-0.9,0.8-1.6v-0.1c-0.1-0.4-1-2.5-1.9-4.8h-8c-1,2.4-1.8,4.4-1.8,4.8c-0.3,0.6-0.1,1.3,0.4,1.6c0.1,0.1,0.2,0.1,0.3,0.1
		h-4.6c0.7-0.4,1.2-1,1.5-1.7c0.6-1.3,9.3-22.6,9.3-22.6S423,20.8,423.7,22.1L423.7,22.1L423.7,22.1z"/>
	<path d="M433.9,2v20.2c0,0.6,0.3,1.2,0.9,1.6h-5.9c0.6-0.3,0.9-0.9,0.9-1.6V2c-2.4,0-5.2,0.2-5.2,0.2c-0.8,0.1-1.4,0.7-1.6,1.4V0.3
		h18v3.4c-0.2-0.7-0.8-1.2-1.5-1.4C439.3,2.2,436.3,2,433.9,2L433.9,2L433.9,2z"/>
	<path d="M457.6,3.3C457,2.5,456.1,2,455,2.1C454,2,449.4,2,449.4,2v8h5c0.5-0.1,1-0.5,1.2-1v3.7c-0.2-0.5-0.6-0.9-1.2-1h-5v10.2
		c1.4,0.2,2.8,0.2,4.3,0.2c2.9-0.1,4.2,0,5.4-2.2l-0.7,4h-14.1c0.6-0.3,1-0.9,1-1.6V1.8c0-0.7-0.4-1.3-1-1.6h13.2L457.6,3.3
		L457.6,3.3L457.6,3.3z"/>
	<polygon points="459.7,31.7 190.6,31.7 190.6,29.9 459.7,29.9 	"/>
</g>
<g>
	<g>
		<g>
			<g>
				<g>
					<defs>
						<rect id="SVGID_1_" y="7.6" width="125.8" height="145.7"/>
					</defs>
					<clipPath id="SVGID_2_">
						<use xlink:href="#SVGID_1_"  style="overflow:visible;"/>
					</clipPath>
					<g class="st0">
						<path class="st1" d="M118,17.6c0,0-7.6,16.2-11.4,24.3c-18.8-8.7-43.5-9.9-64.3,2.4c-13.8,8.5-25,23.5-26.1,39.6
							c-0.4,10.8,4.3,22.5,2.8,33.3c-0.3,5.8-1.8,11.4-4.4,16.5c-3.5,5.8-7.6,10.8-14.5,11.1c1.5-1.9,12.2-7.2,8-31.4
							C6.4,103.8-6.7,80,6,50.2C17.5,23.1,67.8-9.1,118,17.6L118,17.6z"/>
					</g>
				</g>
			</g>
		</g>
	</g>
	<g>
		<g>
			<g>
				<g>
					<defs>
						<rect id="SVGID_3_" x="-6.9" y="-0.4" width="139.5" height="161.6"/>
					</defs>
					<clipPath id="SVGID_4_">
						<use xlink:href="#SVGID_3_"  style="overflow:visible;"/>
					</clipPath>
					<g class="st2">
						<path class="st1" d="M60,63.6c7.4-2.4,15.4-2.8,23-1c14.5,2.6,25.3,11.3,30.6,24.3c5.5,13.5,9.5,24.5,19,36.2
							c0.2,0.3-14.9-2.2-14.8-2.7c3.7-27-21.7-28.1-28.7-18c5.3,5.8,14.3,8.8,21.4,7.7c-1.6,26.7,6,51,5.5,50.9
							c-6.1-0.9-33.8-17.2-41.9-24.3c-12,2.1-21.3,6.5-35,8.4c-0.4,0.1,2.6-10.2,2.1-15.3c0-14.1-10.8-27.3-3.1-44.5
							C42.5,75.2,49.4,67.5,60,63.6L60,63.6z"/>
					</g>
				</g>
			</g>
		</g>
	</g>
	<path class="st1" d="M69.3,58c0.7,0,1.8,0.2,1.9,0.1c0.6-4.3,2.8-8.3,6-11.2c5.7-4.9,13.2-4.4,13.1-4.4c-6.6-1.9-13.6-2.6-20.5-2
		L69.3,58L69.3,58L69.3,58z"/>
	<path class="st1" d="M21.9,79.9c-1.1,7.2-1.2,13.9-0.6,17.5c0,0,1.1-6.1,4.6-9.6c2.2-2.2,5.2-3.5,8.3-3.6c0.2-0.8,0.4-1.6,0.6-2.4
		L21.9,79.9L21.9,79.9L21.9,79.9z"/>
	<path class="st1" d="M36.3,78.5c0.4-1,0.9-2,1.4-2.9l-13.3-5.1c-0.8,1.8-1.4,3.6-1.8,5.5L36.3,78.5L36.3,78.5L36.3,78.5z"/>
	<path class="st1" d="M39.5,73.5c0,0,2.1-2.7,2.2-2.7l-12.2-9.1c-1.3,1.6-2.3,3.3-3.1,5.2L39.5,73.5L39.5,73.5L39.5,73.5z"/>
	<path class="st1" d="M44,68.5l2.7-2.5L36.2,54c-1.7,1.4-3.2,3-4.5,4.8L44,68.5L44,68.5z"/>
	<path class="st1" d="M49.5,64.4c1.1-0.5,2.1-1.1,3.1-1.8l-7.8-14.2c-2,1-4,2.2-5.8,3.6L49.5,64.4L49.5,64.4L49.5,64.4z"/>
	<path class="st1" d="M55.3,61.2C59,59.9,59,59.9,59,60l-4.4-16c-2.3,0.7-4.5,1.6-6.6,2.7L55.3,61.2L55.3,61.2L55.3,61.2z"/>
	<path class="st1" d="M61.9,59c0.1,0.1,3.4-0.7,3.4-0.7L65.7,41c-0.1,0.1-4,0.7-7.3,1.7L61.9,59L61.9,59L61.9,59z"/>
</g>
</svg>
