<?xml version="1.0" encoding="utf-8"?>
<!-- Generator: Adobe Illustrator 19.2.0, SVG Export Plug-In . SVG Version: 6.00 Build 0)  -->
<svg version="1.1" id="Layer_1" xmlns="http://www.w3.org/2000/svg" xmlns:xlink="http://www.w3.org/1999/xlink" x="0px" y="0px"
	 viewBox="0 0 256.4 46.3" style="enable-background:new 0 0 256.4 46.3;" xml:space="preserve">
<style type="text/css">
	.st0{fill:#FE8B44;}
	.st1{fill:#FE5100;}
	.st2{fill:#FE5000;}
	.st3{fill:#6D6E71;}
	.st4{fill:#FD5502;}
	.st5{fill:#FC5905;}
	.st6{fill:#FC5A05;}
	.st7{fill:#FA5D08;}
	.st8{fill:#F85E0B;}
	.st9{fill:#F55C0F;}
	.st10{fill:#F45B0F;}
	.st11{fill:#F05713;}
	.st12{fill:#EC5217;}
	.st13{fill:#E94C1A;}
	.st14{fill:#E5451D;}
	.st15{fill:#DE3723;}
	.st16{fill:#E23F20;}
	.st17{fill:#D92C28;}
	.st18{fill:#D92D27;}
</style>
<path class="st0" d="M19.7,0.9C21,0.3,22.3,0,23.6,0c3.4,0,6.8,0,10.2,0c3.3,0,5.7,1.5,7.2,4.5c4.4,8.6,8.7,17.3,13.1,26
	c0.2,0.4,0.2,0.9,0.8,0.9c0.4,0.7,0.8,1.4,1.2,2.2s0.8,1.6,1.2,2.4c0.3,0.7,0.6,1.3,1,1.9c0.3,0.7,0.6,1.3,1,1.9
	c0.3,0.7,0.6,1.3,1,1.9c0.7,1.7,2.1,2.8,3.6,3.7c-1.2,0.6-2.4,1-3.8,0.9c-3.5,0-7,0-10.5,0c-3.3,0-5.7-1.6-7.2-4.5
	c-4.4-8.6-8.7-17.2-13-25.8c-0.2-0.4-0.3-0.8-0.7-1.1c-0.6-0.5-0.7-1.3-1.2-1.8c-0.4-0.8-0.7-1.7-1.2-2.4c-0.4-0.6-0.6-1.3-0.9-2
	s-0.6-1.3-1-1.9c-0.3-0.7-0.6-1.3-1-1.9c-0.6-1.4-1.6-2.5-2.9-3.3C20.2,1.3,19.9,1.2,19.7,0.9z"/>
<path class="st1" d="M17.1,37.4c-0.9,1.8-1.7,3.6-2.7,5.3c-2.2,3.5-6.9,4.6-10.4,2.5c-3.6-2.1-5-6.7-3.1-10.4
	c0.7-1.4,1.5-2.8,2.2-4.2c0.3-0.2,0.6,0,0.9,0.1c4,1.9,8.2,3.7,12.2,5.7C16.6,36.7,17.1,36.8,17.1,37.4z"/>
<path class="st2" d="M67,7.8c1.1-2.4,2-4.9,4.3-6.5c2.9-1.9,6.7-1.8,9.4,0.4c2.7,2.2,3.6,6,2.2,9.2c-0.5,1.2-1.2,2.3-1.7,3.4
	c-0.5,0.4-0.9,0.1-1.3-0.1c-4.1-1.8-8.1-3.8-12.1-5.6C67.3,8.5,66.8,8.4,67,7.8z"/>
<path class="st3" d="M132.2,25.8c1.6-2.4,3.7-3.6,6.7-3.4c2.4,0.2,3.7,1.6,4.2,3.9c0.3-0.5,0.6-0.8,0.9-1.2c1.8-2.3,4.1-3.2,7-2.6
	c2.2,0.4,3.7,2.1,3.8,4.6c0.2,3.8,0.1,7.7,0.1,11.5c0,0.9-0.6,0.9-1.2,0.9c-0.7,0-1-0.3-1-1c0-2.6,0-5.2,0-7.8c0-1-0.1-1.9-0.2-2.9
	c-0.3-2.9-2.5-4.2-5.1-3.1c-2.4,1-3.6,3.1-3.8,5.6c-0.2,2.6-0.1,5.3-0.1,7.9c0,0.7-0.2,1.2-1.1,1.2c-0.9,0-1.3-0.3-1.3-1.2
	c0-3,0-6,0-9c0-0.5,0-1-0.1-1.5c-0.5-3.1-2.9-4.3-5.6-2.7c-2.1,1.2-3.2,3.1-3.3,5.4c-0.2,2.5-0.1,5.1-0.1,7.7c0,0.9-0.2,1.4-1.2,1.4
	c-1.1,0-1.1-0.6-1.1-1.4c0-4.7,0-9.4,0-14.1c0-0.5,0-1.1,0.7-1.2c0.6-0.1,1.3-0.3,1.6,0.6C132.2,24.2,131.9,25,132.2,25.8
	C132,25.9,132.1,25.9,132.2,25.8C132.2,25.9,132.2,25.9,132.2,25.8z"/>
<path class="st3" d="M256.3,29.5c-0.5-3.2-1.8-5.9-5.3-6.8c-3-0.8-5.5,0-7.6,2.7c0-0.5-0.1-0.8-0.1-1c0-0.8,0.1-1.6-1.1-1.6
	c-1.2,0-1.2,0.8-1.2,1.6c0,6.8,0,13.6,0,20.4c0,0.8,0.1,1.5,1.2,1.5c1.1,0,1.2-0.6,1.2-1.5c0-2.5,0-5,0-7.5c0.2,0.1,0.3,0.1,0.3,0.1
	c2.6,4.2,10.2,3.6,12.2-2.7C256.4,33,256.5,31.3,256.3,29.5z M252.7,35.7c-2,3-6.2,2.9-8.1-0.1c-1.7-2.7-1.7-5.6-0.3-8.4
	c0.9-1.8,2.5-2.6,4.5-2.6s3.4,1,4.3,2.7c0.7,1.2,0.9,2.5,0.9,3.5C254,32.8,253.7,34.4,252.7,35.7z"/>
<path class="st3" d="M194.2,25.6c1.8-2.3,4-3.5,7-3.2s4.6,1.8,4.7,4.7c0.2,3.8,0.1,7.7,0.1,11.5c0,0.9-0.6,0.9-1.2,0.9
	c-0.8,0-1.1-0.3-1.1-1.1c0-1.7,0-3.4,0-5c0-1.7,0-3.4-0.1-5.2c-0.2-3.1-2.1-4.4-5.1-3.5c-2.8,0.8-4.7,3.3-4.7,6.5c0,2.3,0,4.6,0,7
	c0,0.8-0.1,1.4-1.2,1.4c-1,0-1.2-0.5-1.2-1.4c0-6.9,0-13.8,0-20.7c0-0.5-0.1-1.1,0.6-1.3c0.7-0.2,1.4-0.3,1.8,0.5
	c0.2,2.6,0,5.3,0.1,8C193.9,25,193.5,25.5,194.2,25.6z"/>
<path class="st4" d="M67,7.8c1.1,0.8,2.5,1.3,3.7,1.9c3.2,1.5,6.4,3,9.6,4.5c0.2,0.1,0.5,0.1,0.8,0.2c-1.1,2.2-2.2,4.3-3.3,6.5
	c-0.4,0.3-0.8,0.2-1.1,0c-4-1.9-8.1-3.7-12.1-5.7c-0.4-0.2-0.7-0.3-0.9-0.8C64.6,12.1,65.7,9.9,67,7.8z"/>
<path class="st3" d="M219.6,23.1c-3.8-1.9-10.2-0.3-11.4,6.2c-0.7,3.7,0.7,7.3,3.7,9.2s7.2,1.9,10.2-0.2c0.9-0.6,1-1.4,0.2-2
	c-0.7-0.5-1.1,0.1-1.6,0.4c-4.2,2.6-9.2,0.5-10.1-4.3c-0.2-0.9-0.1-1.3,1-1.3c1.7,0.1,3.4,0,5.2,0s3.6,0,5.4,0
	c0.7,0,1.2-0.2,1.3-0.9C223.8,27.8,222,24.3,219.6,23.1z M220.2,29.5c-1.4,0-2.9,0-4.3,0c-1.4,0-2.9,0-4.3,0c-0.8,0-1-0.2-0.8-1
	c0.7-2.9,3.8-4.8,6.7-4.1c1.9,0.4,3.5,2.5,3.6,4.5C221,29.6,220.6,29.5,220.2,29.5z"/>
<path class="st3" d="M160.4,31.3c1.7,0.1,3.4,0,5.2,0s3.6,0,5.4,0c0.8,0,1.4-0.2,1.3-1.1c-0.2-5.9-4-8.7-9.1-7.5
	c-4,0.9-6.4,4.3-6.2,9c0.1,3.4,1.6,6,4.8,7.4c3.3,1.5,6.4,1.1,9.4-0.9c0.6-0.4,0.6-0.9,0.3-1.4c-0.5-1-1.1-0.5-1.8-0.1
	c-4.3,2.8-9.4,0.7-10.3-4.2C159.3,31.7,159.4,31.2,160.4,31.3z M165.2,24.4c2.5,0,4.3,1.8,4.6,4.4c0.1,0.7-0.2,0.7-0.7,0.7
	c-1.5,0-3,0-4.4,0s-3,0-4.4,0c-0.5,0-0.7-0.1-0.7-0.7C160,26.4,162.5,24.3,165.2,24.4z"/>
<path class="st3" d="M126.3,27.2c-0.3-2.5-1.9-4.1-4.3-4.6c-2.3-0.4-4.5-0.1-6.6,1c-0.7,0.3-1.2,0.7-0.7,1.6c0.4,0.8,1,0.8,1.7,0.4
	c1-0.6,2.1-0.8,3.2-1c2.4-0.3,4.1,0.9,4.5,3.2c0.3,1.5,0.2,1.5-1.3,1.6c-2.4,0.1-4.9,0.2-7.1,1.4c-1.9,1-2.9,2.7-2.7,4.7
	c0.2,2.2,1.4,3.6,3.4,4.3c3,1,5.3,0.2,7.9-2.6c0,0.5,0,1.1,0,1.6c0,0.7,0.3,1,1,1s1.2-0.2,1.2-1C126.4,34.8,126.7,31,126.3,27.2z
	 M123.9,33.4c-0.5,2.5-2.1,4.2-4.2,4.6c-1.9,0.4-3.7-0.6-4.2-2.3s0.4-3.2,2.4-4c0.7-0.2,1.4-0.4,2.1-0.5s1.4-0.1,2.1-0.2
	C124.4,31,124.4,31,123.9,33.4z"/>
<path class="st3" d="M237.9,28.1c-0.1-2.9-1.7-4.9-4.3-5.5c-2.4-0.5-4.8-0.1-7,1.1c-0.6,0.3-0.9,0.7-0.5,1.4
	c0.4,0.7,0.9,0.9,1.6,0.4c1-0.6,2.1-0.9,3.3-1c2.5-0.3,4.4,1.1,4.6,3.4c0.1,1-0.1,1.4-1.2,1.4c-2.3-0.1-4.6,0.2-6.7,1.1
	c-1.8,0.8-3,2-3.2,4c-0.3,3.1,1.8,5.3,5.1,5.6c2.7,0.2,4.6-1,6.2-3.5c0,0.9,0,1.4,0,1.9c-0.1,0.8,0.3,1.1,1.1,1.1s1.1-0.3,1.1-1.1
	C237.9,35.1,237.9,31.6,237.9,28.1z M235.3,33.6c-0.6,2.2-1.8,3.9-4.2,4.4c-1.9,0.3-3.8-0.7-4.2-2.3c-0.4-1.7,0.5-3.2,2.5-3.9
	c1.3-0.5,2.6-0.6,3.9-0.6C235.8,31,236,31.2,235.3,33.6z"/>
<path class="st3" d="M98.7,26.4c1.9-2.9,4.4-4.3,7.6-3.9c2.6,0.3,4.2,1.8,4.5,4.4c0.4,3.9,0.1,7.7,0.2,11.6c0,0.9-0.6,1.1-1.4,1.1
	s-1-0.5-1-1.2c0-2.9,0-5.8,0-8.8c0-0.5,0-1-0.1-1.6c-0.4-3-2.1-4.1-5.1-3.3c-2.9,0.8-4.8,3.3-4.8,6.7c0,2.3,0,4.6,0,6.8
	c0,0.8-0.1,1.3-1.1,1.3c-0.9,0-1.3-0.3-1.3-1.2c0-4.8,0-9.7,0-14.5c0-0.8,0.4-1.1,1.2-1.1c0.8,0,1.2,0.4,1.1,1.2
	C98.7,24.7,98.7,25.4,98.7,26.4z"/>
<path class="st4" d="M17.1,37.4c-2.1-1.5-4.6-2.3-6.9-3.4c-2.3-1.2-4.7-2.2-7.1-3.3C4,28.8,4.9,27,5.9,25.2c0.4-0.3,0.8-0.1,1.2,0.1
	c4.1,1.9,8.2,3.8,12.3,5.7c0.3,0.1,0.7,0.2,0.6,0.7C19.1,33.6,18.2,35.6,17.1,37.4z"/>
<path class="st3" d="M174.2,31.4c0.1-3.5,1.4-6.2,4.4-7.8c3.1-1.7,6.3-1.5,9.3,0.3c0.7,0.4,1.3,0.8,0.7,1.8s-1.2,0.5-1.9,0.1
	c-2.4-1.5-4.9-1.7-7.3-0.1c-2.5,1.6-3.2,4.1-2.8,6.9c0.4,2.6,2.3,4.6,5,5.2c2.1,0.5,4,0,5.8-1.3c0.5-0.4,1-0.8,1.6,0
	c0.5,0.7,0.3,1.2-0.4,1.7c-3.1,2.2-6.4,2.5-9.8,0.9C175.7,37.5,174.3,34.7,174.2,31.4z"/>
<path class="st5" d="M63.6,14.4c4.4,2.1,8.8,4.2,13.2,6.3c0.3,0.1,0.6,0.3,0.9,0.2c-0.7,1.7-1.5,3.2-2.4,4.8c-1,0.1-1.8-0.5-2.7-0.9
	c-3.6-1.7-7.2-3.4-10.7-5c-0.3-0.1-0.6-0.3-0.8-0.6C61.9,17.5,62.7,15.9,63.6,14.4z"/>
<path class="st6" d="M20,31.7c-1.1-0.6-2.2-1.1-3.3-1.7c-3.3-1.6-6.7-3.1-10.1-4.7c-0.2-0.1-0.5-0.1-0.8-0.2
	c0.8-1.6,1.6-3.2,2.4-4.8c1.1,0,2,0.6,2.9,1c3.5,1.6,6.9,3.2,10.4,4.8c0.4,0.2,0.9,0.2,0.8,0.8C21.6,28.7,20.9,30.2,20,31.7z"/>
<path class="st7" d="M61.2,19.2c1.9,0.5,3.6,1.6,5.3,2.3c3,1.3,5.9,2.8,8.8,4.2c-0.6,1.3-1.3,2.6-1.9,3.8c-0.4,0.4-0.8,0.1-1.2-0.1
	c-4.1-1.9-8.2-3.8-12.2-5.7c-0.3-0.2-0.8-0.2-0.7-0.8C59.8,21.6,60.4,20.3,61.2,19.2z"/>
<path class="st7" d="M22.4,27.1c-2.8-1.3-5.6-2.7-8.4-4c-1.9-0.9-3.8-1.8-5.7-2.7c0.5-1,1.1-2.1,1.6-3.1c0.5-0.8,1.2-0.3,1.7-0.1
	c2.8,1.3,5.6,2.6,8.3,3.9c1.1,0.5,2.3,1,3.4,1.6c0.4,0.2,1,0.3,0.7,1C23.5,24.8,23.1,26,22.4,27.1z"/>
<path class="st8" d="M24,23.7c-0.1-0.4-0.5-0.5-0.8-0.7c-4-1.9-7.9-3.7-11.9-5.6c-0.4-0.2-0.9-0.5-1.5-0.1c0.4-1.2,1.1-2.3,1.7-3.4
	c0.4-0.3,0.8-0.1,1.2,0.1c3.9,1.9,7.9,3.6,11.9,5.6c0.4,0.2,0.9,0.3,1.1,0.9C25.2,21.5,24.8,22.7,24,23.7z"/>
<path class="st8" d="M59.3,22.9c2.1,1.3,4.4,2.1,6.5,3.2c2.2,1.1,4.5,2.1,6.7,3.1c0.3,0.1,0.6,0.3,0.9,0.2C73,30.3,72.6,31.2,72,32
	c-0.3,0.6-0.8,0.4-1.2,0.2c-4-1.9-8.1-3.7-12.1-5.7c-0.4-0.2-0.9-0.3-0.8-1C58.2,24.7,58.7,23.8,59.3,22.9z"/>
<path class="st9" d="M57.9,25.6c1,1,2.3,1.4,3.5,2c3.1,1.5,6.3,2.9,9.4,4.4c0.4,0.2,0.8,0.5,1.2,0.1c-0.3,1.1-1,2.1-1.5,3.1
	c-0.4,0.4-0.8,0.1-1.2-0.1c-3.9-1.9-7.8-3.6-11.7-5.5c-0.5-0.2-1.2-0.3-1.1-1.2C56.8,27.5,57.3,26.6,57.9,25.6z"/>
<path class="st10" d="M25.7,20.4c-4.4-2.1-8.8-4.2-13.2-6.3c-0.3-0.1-0.6-0.2-0.9-0.2c0.4-1,0.9-2,1.5-2.9c0.4-0.3,0.8-0.1,1.2,0.1
	c3.9,1.9,7.9,3.6,11.8,5.5c0.5,0.2,1,0.4,1.2,0.9C26.8,18.5,26.3,19.5,25.7,20.4z"/>
<path class="st11" d="M56.4,28.5c0.7,0.9,1.9,1.2,2.8,1.7c3.4,1.7,6.9,3.2,10.4,4.8c0.3,0.1,0.6,0.2,0.9,0.3
	c-0.4,0.8-0.9,1.7-1.3,2.5c-1.7-0.3-3.1-1.3-4.6-2c-2.9-1.3-5.8-2.7-8.7-4c-0.3-0.2-0.7-0.3-0.9-0.6C55.4,30.2,55.9,29.3,56.4,28.5z
	"/>
<path class="st11" d="M27.2,17.5c-4.4-2.1-8.8-4.2-13.3-6.3C13.7,11.1,13.4,11,13,11c0.3-0.8,0.6-1.5,1.1-2.2c0.4-0.2,0.7-0.1,1,0.1
	c4.1,2,8.3,3.8,12.3,5.8c0.3,0.2,0.6,0.3,0.8,0.6C28,16.1,27.6,16.8,27.2,17.5z"/>
<path class="st12" d="M55.1,31.2c1.2,0.1,2.2,0.9,3.3,1.4c3.6,1.6,7.2,3.3,10.7,5c0.1,0,0.1,0.1,0.1,0.2c-0.2,0.7-0.5,1.3-1,1.9
	c-0.9-0.7-1.8-1.1-2.8-1.5c-3.2-1.5-6.4-2.8-9.5-4.5c-0.4-0.7-1-1.3-1-2.2C55,31.3,55,31.2,55.1,31.2z"/>
<path class="st12" d="M28.3,15.3c-1.7-0.8-3.4-1.5-5.1-2.3c-3-1.4-6.1-2.8-9.1-4.2c0.2-0.7,0.5-1.4,1-1.9c3.2,1.7,6.6,3.1,10,4.7
	c0.9,0.4,1.7,0.8,2.6,1.3c0.5,0.6,0.8,1.2,1,1.9C28.5,15,28.4,15.2,28.3,15.3z"/>
<path class="st13" d="M27.7,12.9c-1.1,0-1.9-0.7-2.9-1.1c-3-1.3-5.9-2.7-8.9-4.1c-0.3-0.2-0.8-0.3-0.8-0.8c0.1-0.5,0.4-1,0.7-1.4
	c2.8,1.4,5.7,2.7,8.5,4c0.7,0.3,1.4,0.7,2.1,1.1C27.1,11.2,27.3,12.1,27.7,12.9z"/>
<path class="st13" d="M55.9,33.6c1.1,0,2,0.7,3,1.1c2.8,1.2,5.6,2.6,8.3,3.9c0.5,0.2,1,0.4,1,1c0,0.4-0.2,0.6-0.4,0.9
	c-0.5,0.2-0.9,0.1-1.4-0.1c-2.9-1.4-5.8-2.8-8.7-4c-0.2-0.1-0.4-0.3-0.6-0.4C56.6,35.2,56.2,34.4,55.9,33.6z"/>
<path class="st14" d="M26.5,10.5c-1,0-1.8-0.6-2.7-1c-2.4-1-4.8-2.2-7.1-3.3c-0.4-0.2-0.8-0.3-0.8-0.8c0-0.4,0.2-0.7,0.5-0.9
	c0.3-0.2,0.6-0.1,0.9,0c2.5,1.1,5,2.3,7.5,3.5c0.3,0.1,0.5,0.4,0.7,0.6C26,9.1,26.1,9.9,26.5,10.5z"/>
<path class="st14" d="M57.1,36c2.7,0.7,5,2.2,7.5,3.3c1.1,0.4,2,1.1,3.2,1.3c-0.3,0.5-0.3,1.1-0.7,1.4c-0.8,0.2-1.4-0.4-2.1-0.7
	c-2.3-1.1-4.8-1.9-6.9-3.4C57.6,37.3,57.3,36.7,57.1,36z"/>
<path class="st15" d="M23.6,4.8c0.5,0.6,0.8,1.2,1,1.9C24.5,7.4,24,7,23.8,6.9c-2.1-0.8-4-1.9-6.1-2.8C17.3,4,17,3.7,17.1,3.2
	c0.1-0.6,0.6-0.8,1-1.1C20,2.9,21.8,3.7,23.6,4.8z"/>
<path class="st16" d="M17.1,3.3c0.2,0.2,0.3,0.4,0.5,0.5c2.3,0.9,4.5,2,6.7,3.1c0.1,0,0.2-0.1,0.3-0.2c0.5,0.6,0.8,1.2,1,1.9
	c-1.5-0.7-3.1-1.4-4.6-2c-1.5-0.7-3.1-1.4-4.6-2C16.4,4,16.7,3.6,17.1,3.3z"/>
<path class="st15" d="M60,41.7c-0.5-0.6-0.8-1.2-1-1.9c0.1-0.6,0.6-0.4,0.9-0.3c2,0.9,4,1.8,6,2.8c0.3,0.2,0.7,0.4,0.4,0.8
	c-0.2,0.5-0.5,0.8-1,1.1C63.5,43.5,61.7,42.8,60,41.7z"/>
<path class="st16" d="M66.3,43.2c0-0.3-0.1-0.4-0.4-0.5c-2-0.9-4.1-1.9-6.1-2.9c-0.2-0.1-0.5-0.3-0.7,0c-0.5-0.6-0.8-1.2-1-1.9
	c1.3,0.5,2.5,1.1,3.8,1.7c1.7,0.8,3.4,1.6,5.2,2.4C66.9,42.5,66.7,42.9,66.3,43.2z"/>
<path class="st17" d="M23.6,4.8c-2-0.6-3.8-1.5-5.5-2.6c0.5-0.6,1-0.9,1.7-1.2C21.6,1.6,22.9,2.9,23.6,4.8z"/>
<path class="st18" d="M60,41.7c1.9,0.7,3.7,1.3,5.3,2.6c-0.4,0.5-0.9,0.8-1.5,1.1C61.9,44.9,60.8,43.5,60,41.7z"/>
</svg>
