<?xml version="1.0" encoding="utf-8"?>
<!-- Generator: Adobe Illustrator 19.1.0, SVG Export Plug-In . SVG Version: 6.00 Build 0)  -->
<svg version="1.1" id="Layer_1" xmlns="http://www.w3.org/2000/svg" xmlns:xlink="http://www.w3.org/1999/xlink" x="0px" y="0px"
	 viewBox="-89 363.9 431.4 67.1" style="enable-background:new -89 363.9 431.4 67.1;" xml:space="preserve">
<style type="text/css">
	.st0{enable-background:new    ;}
	.st1{fill:#605F5F;}
	.st2{fill:url(#SVGID_1_);stroke:#000000;stroke-width:0.25;stroke-miterlimit:10;}
	.st3{fill:url(#SVGID_2_);stroke:#000000;stroke-width:0.25;stroke-miterlimit:10;}
	.st4{fill:url(#SVGID_3_);stroke:#000000;stroke-width:0.25;stroke-miterlimit:10;}
	.st5{fill:url(#SVGID_4_);stroke:#000000;stroke-width:0.25;stroke-miterlimit:10;}
	.st6{fill:url(#SVGID_5_);stroke:#000000;stroke-width:0.25;stroke-miterlimit:10;}
	.st7{fill:url(#SVGID_6_);stroke:#000000;stroke-width:0.25;stroke-miterlimit:10;}
	.st8{fill:url(#SVGID_7_);stroke:#000000;stroke-width:0.25;stroke-miterlimit:10;}
</style>
<g class="st0">
	<path class="st1" d="M-86.5,400.4h24.4c1,0,1.8-0.2,2.3-0.5c0.5-0.4,1-0.8,1.2-1.3c0.3-0.5,0.4-1,0.5-1.6s0.1-1,0.1-1.4
		c0-0.4,0-0.9-0.1-1.3c-0.1-0.5-0.3-0.9-0.6-1.4c-0.3-0.4-0.7-0.9-1.3-1.3c-0.6-0.4-1.3-0.7-2.3-1l-17.4-5.5c-0.2,0-0.5-0.1-0.9-0.3
		c-0.4-0.1-0.9-0.4-1.4-0.6c-0.5-0.3-1-0.6-1.6-1c-0.5-0.4-1-0.8-1.4-1.4c-0.5-0.6-0.9-1.2-1.2-2c-0.3-0.7-0.5-1.4-0.7-2.2
		c-0.2-0.7-0.3-1.5-0.3-2.2c0-0.7-0.1-1.4-0.1-2c0-1.3,0.2-2.8,0.5-4.2c0.3-1.5,1.1-2.8,2.4-4c1.1-1.1,2.4-1.8,3.7-2
		c1.3-0.3,2.5-0.4,3.6-0.4h25.4v6.6h-22.6c-0.6,0-1.2,0.1-1.8,0.2c-0.6,0.1-1.2,0.4-1.7,0.9c-0.5,0.5-0.9,1.1-1,1.8
		c-0.1,0.7-0.2,1.2-0.2,1.6c0,1,0.2,1.9,0.7,2.8c0.5,0.9,1.6,1.6,3.4,2.2l16.1,5.1c1.5,0.5,2.7,0.9,3.7,1.4c1,0.5,1.9,1.1,2.6,1.7
		c0.7,0.6,1.2,1.3,1.6,2.1c0.4,0.8,0.7,1.6,0.9,2.3c0.2,0.8,0.3,1.5,0.4,2.2c0.1,0.7,0.1,1.3,0.1,1.8c0,1.4-0.1,2.8-0.4,4.3
		c-0.3,1.4-0.9,2.8-1.8,3.9c-1.1,1.4-2.3,2.3-3.7,2.6c-1.3,0.3-2.8,0.5-4.2,0.5h-27.1V400.4z"/>
	<path class="st1" d="M-33.2,407c-0.8,0-1.7,0-2.6-0.1c-0.9-0.1-1.8-0.2-2.7-0.5c-0.9-0.3-1.7-0.7-2.6-1.3c-0.8-0.6-1.6-1.3-2.3-2.3
		c-1.1-1.6-1.8-3.5-2-5.6c-0.3-2.1-0.4-4.3-0.4-6.6c0-1.6,0-3,0.1-4.4c0.1-1.4,0.2-2.6,0.5-3.8c0.3-1.2,0.7-2.2,1.2-3.2
		c0.5-1,1.2-1.8,2.2-2.6c0.9-0.8,1.9-1.4,3.1-1.8c1.1-0.4,2.2-0.7,3.4-0.9c1.1-0.2,2.2-0.3,3.3-0.3c1,0,2-0.1,2.8-0.1
		c2,0,3.9,0.1,5.8,0.3c1.9,0.2,3.6,0.8,5.2,1.8c1,0.6,1.8,1.3,2.4,2.1c0.6,0.8,1.1,1.7,1.4,2.6c0.4,0.9,0.6,1.9,0.7,3
		s0.2,2.1,0.2,3.1c0,0.8-0.1,1.7-0.3,2.6c-0.2,0.9-0.6,1.7-1.3,2.4c-0.5,0.5-1.1,0.8-1.7,1c-0.6,0.2-1.2,0.3-1.9,0.3h-19.4
		c0,0.7,0,1.5,0.1,2.5c0.1,0.9,0.2,1.6,0.3,2.1c0.3,0.9,0.6,1.6,1.1,2.1c0.5,0.5,1,0.9,1.6,1.2c0.6,0.3,1.3,0.5,2,0.5
		c0.7,0.1,1.4,0.1,2,0.1h16.3v5.7H-33.2z M-22.9,387.1c0.7,0,1.2-0.2,1.4-0.6c0.2-0.4,0.3-0.9,0.3-1.3c0-1-0.2-2-0.7-2.7
		s-0.9-1.3-1.5-1.8c-0.9-0.7-1.9-1.1-3.1-1.3c-1.1-0.1-2.2-0.2-3.2-0.2c-0.5,0-1.1,0-1.6,0c-0.6,0-1.2,0.1-1.8,0.2
		c-0.6,0.1-1.2,0.3-1.9,0.7c-0.6,0.3-1.2,0.7-1.7,1.3c-0.8,0.8-1.2,1.7-1.3,2.7c-0.1,0.9-0.2,2-0.2,3.1H-22.9z"/>
	<path class="st1" d="M3.5,398.4c0.1,0.3,0.2,0.5,0.4,0.9c0.2,0.3,0.3,0.5,0.5,0.5c0.2,0,0.3-0.2,0.5-0.5c0.2-0.3,0.3-0.6,0.4-0.9
		l9.3-24.8h7.6L9.5,404.4c-0.3,0.7-0.6,1.3-1,1.7c-0.4,0.4-0.8,0.7-1.3,0.9c-0.4,0.2-0.9,0.3-1.4,0.3c-0.5,0-1,0.1-1.4,0.1
		c-0.3,0-0.7,0-1.2,0c-0.5,0-0.9-0.1-1.4-0.3c-0.5-0.2-1-0.5-1.4-0.9c-0.5-0.4-0.8-1-1.1-1.7l-12.7-30.8h7.6L3.5,398.4z"/>
	<path class="st1" d="M34.9,407c-0.8,0-1.7,0-2.6-0.1c-0.9-0.1-1.8-0.2-2.7-0.5c-0.9-0.3-1.7-0.7-2.6-1.3c-0.8-0.6-1.6-1.3-2.3-2.3
		c-1.1-1.6-1.8-3.5-2-5.6c-0.3-2.1-0.4-4.3-0.4-6.6c0-1.6,0-3,0.1-4.4c0.1-1.4,0.2-2.6,0.5-3.8c0.3-1.2,0.7-2.2,1.2-3.2
		c0.5-1,1.2-1.8,2.2-2.6c0.9-0.8,1.9-1.4,3.1-1.8c1.1-0.4,2.2-0.7,3.4-0.9c1.1-0.2,2.2-0.3,3.3-0.3c1,0,2-0.1,2.8-0.1
		c2,0,3.9,0.1,5.8,0.3c1.9,0.2,3.6,0.8,5.2,1.8c1,0.6,1.8,1.3,2.4,2.1c0.6,0.8,1.1,1.7,1.4,2.6c0.4,0.9,0.6,1.9,0.7,3
		s0.2,2.1,0.2,3.1c0,0.8-0.1,1.7-0.3,2.6c-0.2,0.9-0.6,1.7-1.3,2.4c-0.5,0.5-1.1,0.8-1.7,1c-0.6,0.2-1.2,0.3-1.9,0.3H29.9
		c0,0.7,0,1.5,0.1,2.5c0.1,0.9,0.2,1.6,0.3,2.1c0.3,0.9,0.6,1.6,1.1,2.1c0.5,0.5,1,0.9,1.6,1.2c0.6,0.3,1.3,0.5,2,0.5
		c0.7,0.1,1.4,0.1,2,0.1h16.3v5.7H34.9z M45.3,387.1c0.7,0,1.2-0.2,1.4-0.6c0.2-0.4,0.3-0.9,0.3-1.3c0-1-0.2-2-0.7-2.7
		s-0.9-1.3-1.5-1.8c-0.9-0.7-1.9-1.1-3.1-1.3c-1.1-0.1-2.2-0.2-3.2-0.2c-0.5,0-1.1,0-1.6,0c-0.6,0-1.2,0.1-1.8,0.2
		c-0.6,0.1-1.2,0.3-1.9,0.7c-0.6,0.3-1.2,0.7-1.7,1.3c-0.8,0.8-1.2,1.7-1.3,2.7c-0.1,0.9-0.2,2-0.2,3.1H45.3z"/>
	<path class="st1" d="M58.7,378.7c0-0.5,0.1-1.1,0.2-1.8c0.1-0.7,0.4-1.3,0.9-1.8c0.7-0.8,1.6-1.2,2.6-1.4c1-0.1,1.8-0.2,2.6-0.2
		h11.8c1.8,0,3.4,0.1,5,0.4c1.6,0.3,3,1.1,4.3,2.3c0.9,0.8,1.6,1.9,2.3,3.2c0.7,1.3,1,3.2,1,5.5v22h-7.4v-19.8
		c0-1.1-0.1-2.2-0.3-3.2c-0.2-1-0.5-1.9-1.1-2.7c-0.5-0.7-1.2-1.2-2-1.5c-0.8-0.3-1.9-0.5-3.2-0.5h-7.5c-0.2,0-0.4,0-0.6,0
		c-0.2,0-0.4,0.1-0.6,0.3c-0.2,0.2-0.3,0.4-0.3,0.7c0,0.3,0,0.5,0,0.7v26h-7.4V378.7z"/>
	<path class="st1" d="M95.5,407v-37.5c0-0.8,0.1-1.7,0.2-2.5c0.1-0.8,0.6-1.6,1.3-2.4c0.7-0.7,1.5-1.2,2.5-1.4
		c0.9-0.2,1.8-0.3,2.5-0.3h21c0.6,0,1.2,0,2,0c0.7,0,1.5,0.1,2.3,0.3c0.8,0.2,1.6,0.4,2.3,0.8c0.8,0.4,1.5,0.9,2.2,1.5
		c0.8,0.7,1.4,1.5,1.8,2.5c0.4,0.9,0.8,1.9,1,3c0.2,1,0.4,2.1,0.4,3.1c0.1,1.1,0.1,2,0.1,3c0,0.9,0,1.9-0.1,3
		c-0.1,1.1-0.3,2.2-0.5,3.3c-0.3,1.1-0.6,2.2-1.1,3.2c-0.5,1-1.2,1.9-2.1,2.6c-0.8,0.7-1.8,1.2-3,1.6s-2.4,0.6-3.7,0.6h-20.7V407
		H95.5z M119.7,384.8c0.9,0,1.9-0.1,2.9-0.2c1-0.1,1.8-0.6,2.6-1.4c0.3-0.4,0.6-0.8,0.8-1.4c0.2-0.5,0.3-1.1,0.4-1.6
		c0.1-0.5,0.2-1.1,0.2-1.6c0-0.5,0-1,0-1.4c0-1-0.1-2-0.3-3.2c-0.2-1.2-0.6-2.1-1.3-2.8c-0.7-0.7-1.6-1.1-2.6-1.3
		c-1-0.1-1.9-0.2-2.6-0.2h-13.4c-0.3,0-0.6,0-0.9,0c-0.3,0-0.7,0.2-1,0.5c-0.3,0.3-0.5,0.6-0.5,1c0,0.4-0.1,0.7-0.1,1.1v12.6H119.7z
		"/>
	<path class="st1" d="M160.3,373.3c1.2,0,2.4,0.2,3.6,0.4c1.2,0.2,2.4,0.6,3.5,1.1c1.1,0.5,2.2,1.1,3.1,2c1,0.9,1.7,1.9,2.3,3.1
		c0.6,1.2,1,2.4,1.3,3.6c0.3,1.2,0.5,2.4,0.6,3.6c0.1,1.2,0.1,2.2,0.1,3.1c0,3.6-0.4,6.4-1.2,8.6c-0.8,2.2-1.8,3.8-3.1,5
		c-0.9,0.8-1.9,1.5-3.1,2c-1.2,0.5-2.4,0.8-3.6,1.1c-1.2,0.2-2.4,0.4-3.6,0.4c-1.2,0.1-2.2,0.1-3.2,0.1c-1,0-2.1,0-3.3-0.1
		c-1.2-0.1-2.4-0.2-3.6-0.4s-2.4-0.6-3.5-1.1c-1.1-0.5-2.2-1.1-3.1-2c-1-0.9-1.8-2-2.4-3.2c-0.6-1.2-1-2.4-1.3-3.6
		c-0.3-1.2-0.5-2.4-0.5-3.6c-0.1-1.2-0.1-2.2-0.1-3c0-0.9,0-2,0.1-3.2c0.1-1.2,0.3-2.4,0.6-3.7c0.3-1.2,0.7-2.5,1.3-3.7
		c0.6-1.2,1.3-2.2,2.3-3.1c0.9-0.8,2-1.5,3.1-2c1.1-0.5,2.3-0.8,3.5-1.1c1.2-0.2,2.4-0.4,3.6-0.4c1.2,0,2.3-0.1,3.3-0.1
		S159.1,373.2,160.3,373.3z M147.2,394.8c0.2,1.6,0.8,2.9,1.9,4.2c1.1,1.2,2.4,2,3.8,2.3c1.4,0.3,2.8,0.5,4.2,0.5
		c1.4,0,2.8-0.2,4.2-0.5c1.4-0.3,2.7-1.1,3.7-2.3c1.1-1.2,1.7-2.6,1.9-4.1c0.2-1.5,0.3-3,0.3-4.5c0-0.6,0-1.3,0-2
		c0-0.8-0.1-1.5-0.2-2.3s-0.3-1.6-0.6-2.4c-0.3-0.8-0.7-1.5-1.3-2.1c-0.5-0.6-1.1-1.1-1.8-1.4c-0.7-0.4-1.3-0.6-2-0.8
		s-1.4-0.3-2.1-0.3c-0.7,0-1.4-0.1-2.1-0.1c-0.6,0-1.2,0-2,0.1c-0.7,0-1.5,0.2-2.2,0.3c-0.7,0.2-1.4,0.5-2.1,0.8
		c-0.7,0.4-1.3,0.8-1.8,1.4c-0.5,0.6-0.9,1.3-1.2,2.1c-0.3,0.8-0.5,1.6-0.6,2.4c-0.1,0.8-0.2,1.6-0.2,2.4c0,0.8,0,1.4,0,2
		C146.9,391.7,147,393.2,147.2,394.8z"/>
	<path class="st1" d="M178.9,368.8v-5.9h7.4v5.9H178.9z M178.9,373.6h7.4V407h-7.4V373.6z"/>
	<path class="st1" d="M191.3,378.7c0-0.5,0.1-1.1,0.2-1.8c0.1-0.7,0.4-1.3,0.9-1.8c0.7-0.8,1.6-1.2,2.6-1.4c1-0.1,1.8-0.2,2.6-0.2
		h11.8c1.8,0,3.4,0.1,5,0.4c1.6,0.3,3,1.1,4.3,2.3c0.9,0.8,1.6,1.9,2.3,3.2c0.7,1.3,1,3.2,1,5.5v22h-7.4v-19.8
		c0-1.1-0.1-2.2-0.3-3.2c-0.2-1-0.5-1.9-1.1-2.7c-0.5-0.7-1.2-1.2-2-1.5c-0.8-0.3-1.9-0.5-3.2-0.5h-7.5c-0.2,0-0.4,0-0.6,0
		c-0.2,0-0.4,0.1-0.6,0.3c-0.2,0.2-0.3,0.4-0.3,0.7s0,0.5,0,0.7v26h-7.4V378.7z"/>
	<path class="st1" d="M241.3,407c-2.3,0-4.1-0.2-5.4-0.6c-1.3-0.4-2.5-1-3.6-1.9c-1.1-0.9-1.9-2-2.5-3.3c-0.6-1.3-0.9-3-0.9-5.2
		v-16.8h-4.6v-5.7h4.6v-10.7h7.4v10.7h9.3v5.7h-9.3v13.4c0,0.6,0,1.2,0,1.9c0,0.6,0.1,1.3,0.2,1.9c0.1,0.6,0.3,1.3,0.6,1.9
		c0.3,0.6,0.7,1.1,1.2,1.5c0.8,0.7,1.8,1.1,3,1.3s2.1,0.2,2.7,0.2h1.8v5.7H241.3z"/>
	<path class="st1" d="M248,401.3h18.8c0.4,0,0.8-0.1,1.3-0.2c0.5-0.1,0.9-0.4,1.2-0.8c0.3-0.3,0.5-0.7,0.6-1.1c0-0.4,0.1-0.7,0.1-1
		c0-0.5-0.1-0.9-0.2-1.3c-0.1-0.4-0.4-0.8-0.8-1.2c-0.1-0.1-0.3-0.2-0.5-0.3c-0.2-0.1-0.5-0.2-1-0.4c-0.4-0.2-1-0.4-1.7-0.6
		c-0.7-0.2-1.7-0.5-2.8-0.8l-6.4-1.8c-1.8-0.5-3.3-1-4.5-1.7c-1.2-0.7-2.2-1.4-2.8-2.4c-0.7-0.9-1.1-1.9-1.3-2.9
		c-0.2-1-0.3-1.9-0.3-2.8c0-0.8,0.1-1.8,0.3-2.8c0.2-1,0.6-2,1.3-2.9c0.5-0.7,1.1-1.2,1.7-1.6c0.6-0.4,1.3-0.7,2-0.9
		s1.4-0.3,2.1-0.3c0.7,0,1.5-0.1,2.2-0.1H276v5.7h-17.7c-0.4,0-0.9,0-1.3,0.1c-0.4,0-0.9,0.2-1.3,0.6c-0.5,0.3-0.7,0.7-0.8,1.1
		c-0.1,0.4-0.1,0.8-0.1,1.3c0,0.5,0.1,0.9,0.2,1.3c0.1,0.4,0.4,0.8,0.9,1.3c0.3,0.2,0.6,0.4,0.9,0.6c0.4,0.2,0.8,0.3,1.2,0.5
		c0.4,0.1,0.8,0.3,1.2,0.4s0.7,0.2,0.9,0.3l7.2,2c2,0.6,3.7,1.1,5,1.7c1.3,0.5,2.4,1.2,3.3,2.1c0.8,0.9,1.4,1.9,1.6,3.1
		c0.3,1.1,0.4,2.1,0.4,3.1c0,2-0.3,3.6-0.9,4.7c-0.6,1.1-1.2,1.9-1.9,2.4c-0.8,0.6-1.7,1-2.7,1.2c-1,0.1-1.8,0.2-2.6,0.2H248V401.3z
		"/>
</g>
<g>
	<path class="st1" d="M111.8,412.6v3.2h2.9c0.3,0,0.6,0,0.9,0.1c0.3,0,0.6,0.1,0.9,0.2c0.3,0.1,0.6,0.3,0.9,0.5s0.5,0.5,0.7,0.9
		c0.3,0.5,0.4,1,0.5,1.5c0.1,0.6,0.1,1.2,0.1,1.8c0,0.8-0.1,1.5-0.2,2s-0.3,0.9-0.5,1.3c-0.2,0.3-0.4,0.6-0.7,0.8
		c-0.3,0.2-0.6,0.4-0.9,0.5c-0.3,0.1-0.6,0.2-0.9,0.2c-0.3,0-0.6,0.1-0.9,0.1h-3.1c-0.3,0-0.6,0-0.8-0.1c-0.3,0-0.5-0.2-0.7-0.4
		c-0.2-0.2-0.3-0.4-0.4-0.6c0-0.2-0.1-0.4-0.1-0.6v-11.3H111.8z M111.8,423.1c0,0.1,0,0.2,0,0.3s0.1,0.2,0.1,0.3
		c0.1,0.1,0.2,0.1,0.3,0.1c0.1,0,0.2,0,0.3,0h1.6c0.1,0,0.3,0,0.5,0c0.2,0,0.4-0.1,0.6-0.1c0.2-0.1,0.4-0.2,0.5-0.3s0.3-0.3,0.5-0.6
		c0.1-0.1,0.1-0.4,0.2-0.7c0.1-0.3,0.1-0.8,0.1-1.4c0-0.8,0-1.3-0.1-1.7s-0.2-0.6-0.2-0.6c-0.1-0.2-0.2-0.4-0.4-0.5
		c-0.2-0.1-0.3-0.3-0.5-0.3c-0.2-0.1-0.4-0.1-0.6-0.2c-0.2,0-0.4,0-0.5,0h-2.4V423.1z"/>
	<path class="st1" d="M123.4,425.6c-0.2,0-0.5,0-0.8,0s-0.5-0.1-0.8-0.2c-0.3-0.1-0.5-0.2-0.8-0.4c-0.2-0.2-0.5-0.4-0.7-0.7
		c-0.3-0.5-0.5-1-0.6-1.7c-0.1-0.6-0.1-1.3-0.1-1.9c0-0.5,0-0.9,0-1.3c0-0.4,0.1-0.8,0.1-1.1c0.1-0.3,0.2-0.7,0.4-0.9
		c0.2-0.3,0.4-0.5,0.6-0.8c0.3-0.2,0.6-0.4,0.9-0.5c0.3-0.1,0.7-0.2,1-0.3c0.3-0.1,0.7-0.1,1-0.1c0.3,0,0.6,0,0.8,0
		c0.6,0,1.2,0,1.7,0.1c0.6,0.1,1.1,0.2,1.5,0.5c0.3,0.2,0.5,0.4,0.7,0.6c0.2,0.2,0.3,0.5,0.4,0.8c0.1,0.3,0.2,0.6,0.2,0.9
		s0.1,0.6,0.1,0.9c0,0.2,0,0.5-0.1,0.8s-0.2,0.5-0.4,0.7c-0.1,0.1-0.3,0.2-0.5,0.3c-0.2,0-0.4,0.1-0.6,0.1H122c0,0.2,0,0.5,0,0.7
		c0,0.3,0.1,0.5,0.1,0.6c0.1,0.3,0.2,0.5,0.3,0.6c0.1,0.2,0.3,0.3,0.5,0.4s0.4,0.1,0.6,0.2c0.2,0,0.4,0,0.6,0h4.8v1.7H123.4z
		 M126.5,419.8c0.2,0,0.3-0.1,0.4-0.2c0.1-0.1,0.1-0.3,0.1-0.4c0-0.3-0.1-0.6-0.2-0.8c-0.1-0.2-0.3-0.4-0.4-0.5
		c-0.3-0.2-0.6-0.3-0.9-0.4c-0.3,0-0.6-0.1-1-0.1c-0.1,0-0.3,0-0.5,0s-0.4,0-0.5,0.1s-0.4,0.1-0.5,0.2s-0.3,0.2-0.5,0.4
		c-0.2,0.2-0.3,0.5-0.4,0.8s-0.1,0.6-0.1,0.9H126.5z"/>
	<path class="st1" d="M134,425.6c-0.2,0-0.4,0-0.6,0c-0.2,0-0.5-0.1-0.8-0.2c-0.3-0.1-0.5-0.2-0.8-0.4c-0.3-0.2-0.5-0.4-0.7-0.6
		c-0.4-0.5-0.7-1-0.8-1.6c-0.1-0.6-0.1-1.3-0.1-2c0-0.3,0-0.6,0-1c0-0.3,0.1-0.7,0.1-1c0.1-0.4,0.2-0.7,0.3-1s0.4-0.7,0.6-0.9
		c0.1-0.1,0.2-0.2,0.4-0.3c0.2-0.1,0.4-0.2,0.6-0.3c0.2-0.1,0.5-0.2,0.9-0.3s0.7-0.1,1.2-0.1h4.2v1.7H135c-0.7,0-1.3,0.2-1.7,0.5
		c-0.4,0.3-0.6,0.7-0.8,1.1c0,0.1-0.1,0.3-0.1,0.5c0,0.2,0,0.4,0,0.5c0,0.2,0,0.3,0,0.5c0,0.2,0,0.3,0,0.3c0,0.1,0,0.3,0,0.5
		c0,0.2,0,0.4,0,0.5s0.1,0.4,0.1,0.5c0,0.2,0.1,0.3,0.2,0.5c0.1,0.2,0.3,0.4,0.5,0.6c0.2,0.1,0.4,0.2,0.6,0.3
		c0.2,0.1,0.5,0.1,0.7,0.1s0.5,0,0.7,0h3.5v1.7H134z"/>
	<path class="st1" d="M146,415.8c0.4,0,0.8,0.1,1.2,0.2c0.4,0.1,0.6,0.3,0.9,0.6c0.2,0.2,0.4,0.5,0.5,0.9c0.1,0.4,0.2,0.9,0.2,1.4
		v5.1c0,0.2,0,0.4-0.1,0.6s-0.2,0.5-0.3,0.6c-0.2,0.2-0.4,0.3-0.6,0.3c-0.2,0-0.5,0.1-0.7,0.1h-4.7c-0.3,0-0.6,0-0.9-0.1
		s-0.6-0.2-0.9-0.4c-0.2-0.2-0.4-0.4-0.5-0.6s-0.2-0.5-0.3-0.7c-0.1-0.2-0.1-0.5-0.1-0.7s0-0.4,0-0.6c0-0.4,0-0.9,0.1-1.3
		c0.1-0.4,0.3-0.8,0.7-1.1c0.3-0.3,0.6-0.4,0.9-0.5c0.3-0.1,0.6-0.1,0.9-0.1h4.3v-0.7c0-0.1,0-0.3,0-0.5c0-0.2-0.1-0.3-0.2-0.5
		c-0.1-0.2-0.3-0.3-0.5-0.4c-0.2,0-0.4-0.1-0.5-0.1h-4.8v-1.7H146z M143,421.2c-0.1,0-0.2,0-0.4,0s-0.3,0.1-0.4,0.3
		c0,0-0.1,0.1-0.1,0.3s-0.1,0.4-0.1,0.8c0,0.1,0,0.3,0,0.6c0,0.2,0.1,0.4,0.2,0.5c0.1,0.1,0.2,0.1,0.3,0.2c0.1,0.1,0.3,0.1,0.4,0.1
		h3c0.1,0,0.1,0,0.2,0c0.1,0,0.2,0,0.2-0.1c0.1-0.1,0.1-0.1,0.1-0.2c0-0.1,0-0.1,0-0.2v-2.3H143z"/>
	<path class="st1" d="M159.2,424.5c0,0.3-0.2,0.5-0.4,0.7c-0.2,0.2-0.5,0.3-0.7,0.3c-0.3,0-0.5,0.1-0.8,0.1h-3.5
		c-0.6,0-1.1-0.1-1.5-0.2c-0.4-0.1-0.8-0.3-1.1-0.6c-0.4-0.4-0.7-0.8-0.8-1.3c-0.1-0.5-0.2-1-0.2-1.6v-6.2h2.2v5.8
		c0,0.4,0,0.8,0.1,1s0.2,0.5,0.3,0.7c0.2,0.3,0.4,0.4,0.7,0.5s0.6,0.1,1,0.1h1.8c0.3,0,0.5-0.1,0.6-0.2c0.1-0.1,0.2-0.2,0.2-0.3
		c0-0.1,0-0.2,0-0.3v-7.4h2.2v8.1C159.3,424,159.3,424.2,159.2,424.5z"/>
	<path class="st1" d="M160.7,423.9h5.5c0.1,0,0.2,0,0.4,0c0.1,0,0.3-0.1,0.4-0.2c0.1-0.1,0.2-0.2,0.2-0.3c0-0.1,0-0.2,0-0.3
		c0-0.1,0-0.3,0-0.4c0-0.1-0.1-0.2-0.2-0.4c0,0-0.1-0.1-0.1-0.1c-0.1,0-0.2-0.1-0.3-0.1c-0.1,0-0.3-0.1-0.5-0.2
		c-0.2-0.1-0.5-0.1-0.8-0.2l-1.9-0.5c-0.5-0.1-1-0.3-1.3-0.5c-0.4-0.2-0.6-0.4-0.8-0.7c-0.2-0.3-0.3-0.6-0.4-0.9s-0.1-0.6-0.1-0.8
		s0-0.5,0.1-0.8c0.1-0.3,0.2-0.6,0.4-0.9c0.1-0.2,0.3-0.4,0.5-0.5s0.4-0.2,0.6-0.3c0.2-0.1,0.4-0.1,0.6-0.1c0.2,0,0.4,0,0.6,0h5.5
		v1.7h-5.2c-0.1,0-0.2,0-0.4,0c-0.1,0-0.3,0.1-0.4,0.2c-0.1,0.1-0.2,0.2-0.2,0.3c0,0.1,0,0.2,0,0.4s0,0.3,0,0.4
		c0,0.1,0.1,0.2,0.3,0.4c0.1,0.1,0.2,0.1,0.3,0.2s0.2,0.1,0.3,0.1c0.1,0,0.2,0.1,0.3,0.1s0.2,0.1,0.3,0.1l2.1,0.6
		c0.6,0.2,1.1,0.3,1.5,0.5c0.4,0.2,0.7,0.4,1,0.6c0.2,0.3,0.4,0.6,0.5,0.9c0.1,0.3,0.1,0.6,0.1,0.9c0,0.6-0.1,1.1-0.3,1.4
		c-0.2,0.3-0.4,0.6-0.5,0.7c-0.2,0.2-0.5,0.3-0.8,0.3c-0.3,0-0.5,0.1-0.8,0.1h-6.3V423.9z"/>
	<path class="st1" d="M174,425.6c-0.2,0-0.5,0-0.8,0s-0.5-0.1-0.8-0.2c-0.3-0.1-0.5-0.2-0.8-0.4c-0.2-0.2-0.5-0.4-0.7-0.7
		c-0.3-0.5-0.5-1-0.6-1.7c-0.1-0.6-0.1-1.3-0.1-1.9c0-0.5,0-0.9,0-1.3c0-0.4,0.1-0.8,0.1-1.1s0.2-0.7,0.4-0.9
		c0.2-0.3,0.4-0.5,0.6-0.8c0.3-0.2,0.6-0.4,0.9-0.5c0.3-0.1,0.7-0.2,1-0.3s0.7-0.1,1-0.1c0.3,0,0.6,0,0.8,0c0.6,0,1.2,0,1.7,0.1
		c0.6,0.1,1.1,0.2,1.5,0.5c0.3,0.2,0.5,0.4,0.7,0.6c0.2,0.2,0.3,0.5,0.4,0.8c0.1,0.3,0.2,0.6,0.2,0.9s0.1,0.6,0.1,0.9
		c0,0.2,0,0.5-0.1,0.8s-0.2,0.5-0.4,0.7c-0.1,0.1-0.3,0.2-0.5,0.3c-0.2,0-0.4,0.1-0.6,0.1h-5.7c0,0.2,0,0.5,0,0.7
		c0,0.3,0.1,0.5,0.1,0.6c0.1,0.3,0.2,0.5,0.3,0.6c0.1,0.2,0.3,0.3,0.5,0.4s0.4,0.1,0.6,0.2c0.2,0,0.4,0,0.6,0h4.8v1.7H174z
		 M177,419.8c0.2,0,0.3-0.1,0.4-0.2c0.1-0.1,0.1-0.3,0.1-0.4c0-0.3-0.1-0.6-0.2-0.8c-0.1-0.2-0.3-0.4-0.4-0.5
		c-0.3-0.2-0.6-0.3-0.9-0.4c-0.3,0-0.6-0.1-1-0.1c-0.1,0-0.3,0-0.5,0s-0.4,0-0.5,0.1s-0.4,0.1-0.5,0.2c-0.2,0.1-0.3,0.2-0.5,0.4
		c-0.2,0.2-0.3,0.5-0.4,0.8s-0.1,0.6-0.1,0.9H177z"/>
	<path class="st1" d="M187.5,428.8h-2.2v-11.5c0-0.3,0.1-0.6,0.2-0.8c0.1-0.2,0.2-0.3,0.4-0.4c0.2-0.1,0.4-0.2,0.6-0.3
		s0.4-0.1,0.6-0.1h3.4c0.2,0,0.4,0,0.6,0s0.5,0.1,0.7,0.1s0.5,0.2,0.8,0.3c0.3,0.1,0.5,0.3,0.8,0.6c0.2,0.3,0.4,0.5,0.6,0.9
		c0.1,0.3,0.2,0.6,0.3,0.9c0.1,0.3,0.1,0.6,0.1,1c0,0.3,0,0.6,0,0.9c0,0.3,0,0.6,0,1c0,0.3,0,0.7-0.1,1c-0.1,0.3-0.1,0.6-0.2,0.9
		c-0.1,0.3-0.2,0.6-0.4,0.8c-0.2,0.3-0.5,0.6-0.8,0.8s-0.6,0.3-0.9,0.4c-0.3,0.1-0.6,0.1-0.9,0.2s-0.6,0-0.8,0h-2.7V428.8z
		 M190,423.9c0.5,0,1-0.1,1.2-0.3s0.5-0.4,0.6-0.6c0.1-0.1,0.2-0.4,0.3-0.7c0.1-0.3,0.1-0.9,0.1-1.6c0-0.7,0-1.2-0.1-1.5
		c-0.1-0.3-0.1-0.5-0.2-0.7c-0.1-0.3-0.4-0.6-0.7-0.8s-0.7-0.3-1.2-0.3h-2.1c0,0-0.1,0-0.2,0c-0.1,0-0.1,0.1-0.1,0.1
		c-0.1,0.1-0.1,0.2-0.1,0.3v6H190z"/>
	<path class="st1" d="M201.7,415.8c0.4,0,0.8,0.1,1.2,0.2c0.4,0.1,0.6,0.3,0.9,0.6c0.2,0.2,0.4,0.5,0.5,0.9c0.1,0.4,0.2,0.9,0.2,1.4
		v5.1c0,0.2,0,0.4-0.1,0.6c0,0.2-0.2,0.5-0.3,0.6c-0.2,0.2-0.4,0.3-0.6,0.3c-0.2,0-0.5,0.1-0.7,0.1h-4.7c-0.3,0-0.6,0-0.9-0.1
		c-0.3,0-0.6-0.2-0.9-0.4c-0.2-0.2-0.4-0.4-0.5-0.6c-0.1-0.2-0.2-0.5-0.3-0.7c-0.1-0.2-0.1-0.5-0.1-0.7c0-0.2,0-0.4,0-0.6
		c0-0.4,0-0.9,0.1-1.3c0.1-0.4,0.3-0.8,0.7-1.1c0.3-0.3,0.6-0.4,0.9-0.5c0.3-0.1,0.6-0.1,0.9-0.1h4.3v-0.7c0-0.1,0-0.3,0-0.5
		c0-0.2-0.1-0.3-0.2-0.5c-0.1-0.2-0.3-0.3-0.5-0.4c-0.2,0-0.4-0.1-0.5-0.1h-4.8v-1.7H201.7z M198.7,421.2c-0.1,0-0.2,0-0.4,0
		c-0.2,0-0.3,0.1-0.4,0.3c0,0-0.1,0.1-0.1,0.3c-0.1,0.1-0.1,0.4-0.1,0.8c0,0.1,0,0.3,0,0.6s0.1,0.4,0.2,0.5c0.1,0.1,0.2,0.1,0.3,0.2
		c0.1,0.1,0.3,0.1,0.4,0.1h3c0.1,0,0.1,0,0.2,0c0.1,0,0.2,0,0.2-0.1c0.1-0.1,0.1-0.1,0.1-0.2s0-0.1,0-0.2v-2.3H198.7z"/>
	<path class="st1" d="M205.8,423.9h5.5c0.1,0,0.2,0,0.4,0c0.1,0,0.3-0.1,0.4-0.2c0.1-0.1,0.2-0.2,0.2-0.3c0-0.1,0-0.2,0-0.3
		c0-0.1,0-0.3,0-0.4c0-0.1-0.1-0.2-0.2-0.4c0,0-0.1-0.1-0.1-0.1c-0.1,0-0.2-0.1-0.3-0.1c-0.1,0-0.3-0.1-0.5-0.2
		c-0.2-0.1-0.5-0.1-0.8-0.2l-1.9-0.5c-0.5-0.1-1-0.3-1.3-0.5c-0.4-0.2-0.6-0.4-0.8-0.7c-0.2-0.3-0.3-0.6-0.4-0.9
		c-0.1-0.3-0.1-0.6-0.1-0.8s0-0.5,0.1-0.8c0.1-0.3,0.2-0.6,0.4-0.9c0.1-0.2,0.3-0.4,0.5-0.5c0.2-0.1,0.4-0.2,0.6-0.3
		c0.2-0.1,0.4-0.1,0.6-0.1c0.2,0,0.4,0,0.6,0h5.5v1.7h-5.2c-0.1,0-0.2,0-0.4,0c-0.1,0-0.3,0.1-0.4,0.2c-0.1,0.1-0.2,0.2-0.2,0.3
		c0,0.1,0,0.2,0,0.4s0,0.3,0,0.4c0,0.1,0.1,0.2,0.3,0.4c0.1,0.1,0.2,0.1,0.3,0.2s0.2,0.1,0.3,0.1c0.1,0,0.2,0.1,0.3,0.1
		s0.2,0.1,0.3,0.1l2.1,0.6c0.6,0.2,1.1,0.3,1.5,0.5c0.4,0.2,0.7,0.4,1,0.6c0.2,0.3,0.4,0.6,0.5,0.9c0.1,0.3,0.1,0.6,0.1,0.9
		c0,0.6-0.1,1.1-0.3,1.4c-0.2,0.3-0.4,0.6-0.5,0.7c-0.2,0.2-0.5,0.3-0.8,0.3c-0.3,0-0.5,0.1-0.8,0.1h-6.3V423.9z"/>
	<path class="st1" d="M215.6,423.9h5.5c0.1,0,0.2,0,0.4,0c0.1,0,0.3-0.1,0.4-0.2c0.1-0.1,0.2-0.2,0.2-0.3c0-0.1,0-0.2,0-0.3
		c0-0.1,0-0.3,0-0.4c0-0.1-0.1-0.2-0.2-0.4c0,0-0.1-0.1-0.1-0.1c-0.1,0-0.2-0.1-0.3-0.1c-0.1,0-0.3-0.1-0.5-0.2
		c-0.2-0.1-0.5-0.1-0.8-0.2l-1.9-0.5c-0.5-0.1-1-0.3-1.3-0.5c-0.4-0.2-0.6-0.4-0.8-0.7c-0.2-0.3-0.3-0.6-0.4-0.9
		c-0.1-0.3-0.1-0.6-0.1-0.8s0-0.5,0.1-0.8c0.1-0.3,0.2-0.6,0.4-0.9c0.1-0.2,0.3-0.4,0.5-0.5s0.4-0.2,0.6-0.3
		c0.2-0.1,0.4-0.1,0.6-0.1c0.2,0,0.4,0,0.6,0h5.5v1.7h-5.2c-0.1,0-0.2,0-0.4,0c-0.1,0-0.3,0.1-0.4,0.2c-0.1,0.1-0.2,0.2-0.2,0.3
		c0,0.1,0,0.2,0,0.4s0,0.3,0,0.4c0,0.1,0.1,0.2,0.3,0.4c0.1,0.1,0.2,0.1,0.3,0.2c0.1,0,0.2,0.1,0.3,0.1c0.1,0,0.2,0.1,0.3,0.1
		s0.2,0.1,0.3,0.1l2.1,0.6c0.6,0.2,1.1,0.3,1.5,0.5c0.4,0.2,0.7,0.4,1,0.6c0.2,0.3,0.4,0.6,0.5,0.9c0.1,0.3,0.1,0.6,0.1,0.9
		c0,0.6-0.1,1.1-0.3,1.4c-0.2,0.3-0.4,0.6-0.5,0.7c-0.2,0.2-0.5,0.3-0.8,0.3c-0.3,0-0.5,0.1-0.8,0.1h-6.3V423.9z"/>
	<path class="st1" d="M225.5,414.4v-1.7h2.2v1.7H225.5z M225.5,415.8h2.2v9.8h-2.2V415.8z"/>
	<path class="st1" d="M235.1,415.7c0.3,0,0.7,0.1,1.1,0.1c0.4,0.1,0.7,0.2,1,0.3c0.3,0.1,0.6,0.3,0.9,0.6c0.3,0.3,0.5,0.6,0.7,0.9
		c0.2,0.4,0.3,0.7,0.4,1.1c0.1,0.4,0.1,0.7,0.2,1.1c0,0.3,0,0.6,0,0.9c0,1.1-0.1,1.9-0.4,2.5s-0.5,1.1-0.9,1.5
		c-0.3,0.2-0.6,0.4-0.9,0.6c-0.3,0.1-0.7,0.2-1.1,0.3c-0.4,0.1-0.7,0.1-1.1,0.1c-0.3,0-0.7,0-0.9,0c-0.3,0-0.6,0-1,0
		s-0.7-0.1-1.1-0.1c-0.4-0.1-0.7-0.2-1-0.3c-0.3-0.1-0.6-0.3-0.9-0.6c-0.3-0.3-0.5-0.6-0.7-0.9c-0.2-0.3-0.3-0.7-0.4-1.1
		c-0.1-0.4-0.1-0.7-0.2-1.1c0-0.3,0-0.6,0-0.9c0-0.3,0-0.6,0-0.9c0-0.4,0.1-0.7,0.2-1.1c0.1-0.4,0.2-0.7,0.4-1.1
		c0.2-0.4,0.4-0.7,0.7-0.9c0.3-0.2,0.6-0.4,0.9-0.6c0.3-0.1,0.7-0.2,1-0.3c0.4-0.1,0.7-0.1,1.1-0.1s0.7,0,1,0
		C234.4,415.7,234.8,415.7,235.1,415.7z M231.2,422c0.1,0.5,0.2,0.9,0.5,1.2c0.3,0.4,0.7,0.6,1.1,0.7s0.8,0.1,1.2,0.1
		c0.4,0,0.8,0,1.2-0.1s0.8-0.3,1.1-0.7s0.5-0.8,0.6-1.2c0.1-0.4,0.1-0.9,0.1-1.3c0-0.2,0-0.4,0-0.6c0-0.2,0-0.5-0.1-0.7
		c0-0.2-0.1-0.5-0.2-0.7s-0.2-0.4-0.4-0.6c-0.2-0.2-0.3-0.3-0.5-0.4c-0.2-0.1-0.4-0.2-0.6-0.2s-0.4-0.1-0.6-0.1c-0.2,0-0.4,0-0.6,0
		c-0.2,0-0.4,0-0.6,0c-0.2,0-0.4,0-0.6,0.1s-0.4,0.1-0.6,0.2c-0.2,0.1-0.4,0.2-0.5,0.4s-0.3,0.4-0.4,0.6c-0.1,0.2-0.1,0.5-0.2,0.7
		s-0.1,0.5-0.1,0.7c0,0.2,0,0.4,0,0.6C231.1,421.1,231.2,421.6,231.2,422z"/>
	<path class="st1" d="M240.6,417.3c0-0.1,0-0.3,0-0.5c0-0.2,0.1-0.4,0.3-0.5c0.2-0.2,0.5-0.4,0.8-0.4c0.3,0,0.5,0,0.8,0h3.5
		c0.5,0,1,0,1.5,0.1c0.5,0.1,0.9,0.3,1.3,0.7c0.3,0.2,0.5,0.5,0.7,0.9c0.2,0.4,0.3,0.9,0.3,1.6v6.5h-2.2v-5.8c0-0.3,0-0.6-0.1-0.9
		c0-0.3-0.2-0.6-0.3-0.8c-0.2-0.2-0.4-0.4-0.6-0.5s-0.6-0.1-1-0.1h-2.2c-0.1,0-0.1,0-0.2,0c-0.1,0-0.1,0-0.2,0.1
		c-0.1,0.1-0.1,0.1-0.1,0.2s0,0.1,0,0.2v7.6h-2.2V417.3z"/>
	<path class="st1" d="M255.4,417.5c0-0.1,0-0.3,0-0.5c0-0.2,0.1-0.4,0.2-0.6c0.2-0.3,0.4-0.4,0.7-0.5c0.3-0.1,0.5-0.1,0.8-0.1h8.8
		c0.4,0,0.8,0,1.3,0.1c0.5,0.1,0.9,0.3,1.3,0.6c0.3,0.3,0.5,0.6,0.7,1c0.2,0.4,0.2,0.9,0.2,1.4v6.6h-2.2v-6.3c0-0.2,0-0.4-0.1-0.7
		c0-0.3-0.2-0.5-0.3-0.7c-0.2-0.2-0.4-0.3-0.6-0.4c-0.2,0-0.5-0.1-0.7-0.1h-2v8.2h-2.2v-8.2h-3.2c-0.2,0-0.3,0-0.3,0.1
		c-0.1,0-0.1,0.1-0.1,0.1c0,0,0,0.1-0.1,0.1c0,0.1,0,0.2,0,0.4v7.5h-2.2V417.5z"/>
	<path class="st1" d="M276.9,415.8c0.4,0,0.8,0.1,1.2,0.2c0.4,0.1,0.6,0.3,0.9,0.6c0.2,0.2,0.4,0.5,0.5,0.9c0.1,0.4,0.2,0.9,0.2,1.4
		v5.1c0,0.2,0,0.4-0.1,0.6c0,0.2-0.2,0.5-0.3,0.6c-0.2,0.2-0.4,0.3-0.6,0.3c-0.2,0-0.5,0.1-0.7,0.1h-4.7c-0.3,0-0.6,0-0.9-0.1
		c-0.3,0-0.6-0.2-0.9-0.4c-0.2-0.2-0.4-0.4-0.5-0.6c-0.1-0.2-0.2-0.5-0.3-0.7c-0.1-0.2-0.1-0.5-0.1-0.7c0-0.2,0-0.4,0-0.6
		c0-0.4,0-0.9,0.1-1.3c0.1-0.4,0.3-0.8,0.7-1.1c0.3-0.3,0.6-0.4,0.9-0.5c0.3-0.1,0.6-0.1,0.9-0.1h4.3v-0.7c0-0.1,0-0.3,0-0.5
		c0-0.2-0.1-0.3-0.2-0.5c-0.1-0.2-0.3-0.3-0.5-0.4c-0.2,0-0.4-0.1-0.5-0.1h-4.8v-1.7H276.9z M273.9,421.2c-0.1,0-0.2,0-0.4,0
		s-0.3,0.1-0.4,0.3c0,0-0.1,0.1-0.1,0.3c-0.1,0.1-0.1,0.4-0.1,0.8c0,0.1,0,0.3,0,0.6c0,0.2,0.1,0.4,0.3,0.5c0.1,0.1,0.2,0.1,0.3,0.2
		c0.1,0.1,0.3,0.1,0.4,0.1h3c0.1,0,0.1,0,0.2,0c0.1,0,0.2,0,0.2-0.1c0.1-0.1,0.1-0.1,0.1-0.2c0-0.1,0-0.1,0-0.2v-2.3H273.9z"/>
	<path class="st1" d="M285.4,425.6c-0.7,0-1.2-0.1-1.6-0.2c-0.4-0.1-0.7-0.3-1-0.5c-0.3-0.3-0.6-0.6-0.7-1c-0.2-0.4-0.2-0.9-0.2-1.5
		v-5h-1.4v-1.7h1.4v-3.2h2.2v3.2h2.7v1.7h-2.7v3.9c0,0.2,0,0.4,0,0.6c0,0.2,0,0.4,0,0.6c0,0.2,0.1,0.4,0.2,0.5
		c0.1,0.2,0.2,0.3,0.4,0.5c0.2,0.2,0.5,0.3,0.9,0.4s0.6,0.1,0.8,0.1h0.5v1.7H285.4z"/>
	<path class="st1" d="M292.1,425.6c-0.7,0-1.2-0.1-1.6-0.2c-0.4-0.1-0.7-0.3-1-0.5c-0.3-0.3-0.6-0.6-0.7-1c-0.2-0.4-0.2-0.9-0.2-1.5
		v-5h-1.4v-1.7h1.4v-3.2h2.2v3.2h2.7v1.7h-2.7v3.9c0,0.2,0,0.4,0,0.6c0,0.2,0,0.4,0,0.6c0,0.2,0.1,0.4,0.2,0.5
		c0.1,0.2,0.2,0.3,0.4,0.5c0.2,0.2,0.5,0.3,0.9,0.4s0.6,0.1,0.8,0.1h0.5v1.7H292.1z"/>
	<path class="st1" d="M297.6,425.6c-0.2,0-0.5,0-0.8,0s-0.5-0.1-0.8-0.2c-0.3-0.1-0.5-0.2-0.8-0.4c-0.2-0.2-0.5-0.4-0.7-0.7
		c-0.3-0.5-0.5-1-0.6-1.7c-0.1-0.6-0.1-1.3-0.1-1.9c0-0.5,0-0.9,0-1.3c0-0.4,0.1-0.8,0.1-1.1s0.2-0.7,0.4-0.9
		c0.2-0.3,0.4-0.5,0.6-0.8c0.3-0.2,0.6-0.4,0.9-0.5c0.3-0.1,0.7-0.2,1-0.3s0.7-0.1,1-0.1c0.3,0,0.6,0,0.8,0c0.6,0,1.2,0,1.7,0.1
		c0.6,0.1,1.1,0.2,1.5,0.5c0.3,0.2,0.5,0.4,0.7,0.6c0.2,0.2,0.3,0.5,0.4,0.8c0.1,0.3,0.2,0.6,0.2,0.9s0.1,0.6,0.1,0.9
		c0,0.2,0,0.5-0.1,0.8c0,0.3-0.2,0.5-0.4,0.7c-0.1,0.1-0.3,0.2-0.5,0.3c-0.2,0-0.4,0.1-0.6,0.1h-5.7c0,0.2,0,0.5,0,0.7
		c0,0.3,0.1,0.5,0.1,0.6c0.1,0.3,0.2,0.5,0.3,0.6c0.1,0.2,0.3,0.3,0.5,0.4s0.4,0.1,0.6,0.2c0.2,0,0.4,0,0.6,0h4.8v1.7H297.6z
		 M300.7,419.8c0.2,0,0.3-0.1,0.4-0.2c0.1-0.1,0.1-0.3,0.1-0.4c0-0.3-0.1-0.6-0.2-0.8c-0.1-0.2-0.3-0.4-0.4-0.5
		c-0.3-0.2-0.6-0.3-0.9-0.4c-0.3,0-0.6-0.1-1-0.1c-0.1,0-0.3,0-0.5,0s-0.4,0-0.5,0.1c-0.2,0-0.4,0.1-0.5,0.2
		c-0.2,0.1-0.3,0.2-0.5,0.4c-0.2,0.2-0.3,0.5-0.4,0.8s-0.1,0.6-0.1,0.9H300.7z"/>
	<path class="st1" d="M304.6,419.5c0-0.5,0.1-1.1,0.2-1.6c0.1-0.5,0.4-0.9,0.8-1.3c0.2-0.2,0.5-0.4,0.7-0.5s0.5-0.2,0.8-0.3
		s0.5-0.1,0.8-0.1c0.2,0,0.5,0,0.6,0h1.5v1.7h-0.9c-0.3,0-0.6,0-0.9,0.1c-0.3,0.1-0.6,0.3-0.9,0.6c-0.2,0.2-0.3,0.5-0.4,0.9
		c-0.1,0.3-0.1,0.7-0.1,1.1v5.5h-2.2V419.5z"/>
	<path class="st1" d="M310.6,423.9h5.5c0.1,0,0.2,0,0.4,0c0.1,0,0.3-0.1,0.4-0.2c0.1-0.1,0.2-0.2,0.2-0.3c0-0.1,0-0.2,0-0.3
		c0-0.1,0-0.3,0-0.4c0-0.1-0.1-0.2-0.2-0.4c0,0-0.1-0.1-0.1-0.1c-0.1,0-0.2-0.1-0.3-0.1c-0.1,0-0.3-0.1-0.5-0.2s-0.5-0.1-0.8-0.2
		l-1.9-0.5c-0.5-0.1-1-0.3-1.3-0.5c-0.4-0.2-0.6-0.4-0.8-0.7c-0.2-0.3-0.3-0.6-0.4-0.9s-0.1-0.6-0.1-0.8s0-0.5,0.1-0.8
		c0.1-0.3,0.2-0.6,0.4-0.9c0.1-0.2,0.3-0.4,0.5-0.5s0.4-0.2,0.6-0.3s0.4-0.1,0.6-0.1c0.2,0,0.4,0,0.6,0h5.5v1.7h-5.2
		c-0.1,0-0.2,0-0.4,0c-0.1,0-0.3,0.1-0.4,0.2c-0.1,0.1-0.2,0.2-0.2,0.3c0,0.1,0,0.2,0,0.4s0,0.3,0,0.4c0,0.1,0.1,0.2,0.3,0.4
		c0.1,0.1,0.2,0.1,0.3,0.2c0.1,0,0.2,0.1,0.3,0.1c0.1,0,0.2,0.1,0.3,0.1s0.2,0.1,0.3,0.1l2.1,0.6c0.6,0.2,1.1,0.3,1.5,0.5
		c0.4,0.2,0.7,0.4,1,0.6c0.2,0.3,0.4,0.6,0.5,0.9c0.1,0.3,0.1,0.6,0.1,0.9c0,0.6-0.1,1.1-0.3,1.4c-0.2,0.3-0.4,0.6-0.5,0.7
		c-0.2,0.2-0.5,0.3-0.8,0.3c-0.3,0-0.5,0.1-0.8,0.1h-6.3V423.9z"/>
	<path class="st1" d="M320.9,425.6v-2.4h2.2v2.4H320.9z"/>
	<path class="st1" d="M325.4,425.6v-2.4h2.2v2.4H325.4z"/>
	<path class="st1" d="M329.9,425.6v-2.4h2.2v2.4H329.9z"/>
</g>
<linearGradient id="SVGID_1_" gradientUnits="userSpaceOnUse" x1="309.7559" y1="434.7212" x2="298.6946" y2="421.5389" gradientTransform="matrix(1 0 0 -1 0 797.8)">
	<stop  offset="8.018396e-02" style="stop-color:#5DA1FC"/>
	<stop  offset="0.2225" style="stop-color:#61A3FC"/>
	<stop  offset="0.3528" style="stop-color:#6CAAFC"/>
	<stop  offset="0.4785" style="stop-color:#7EB4FD"/>
	<stop  offset="0.6013" style="stop-color:#99C4FD"/>
	<stop  offset="0.7221" style="stop-color:#BAD7FE"/>
	<stop  offset="0.8396" style="stop-color:#E3EFFE"/>
	<stop  offset="0.9095" style="stop-color:#FFFFFF"/>
</linearGradient>
<rect x="297.7" y="363.9" class="st2" width="13" height="11.6"/>
<linearGradient id="SVGID_2_" gradientUnits="userSpaceOnUse" x1="341.4416" y1="434.7042" x2="330.3803" y2="421.5219" gradientTransform="matrix(1 0 0 -1 0 797.8)">
	<stop  offset="8.020000e-02" style="stop-color:#E05042"/>
	<stop  offset="0.2127" style="stop-color:#E15346"/>
	<stop  offset="0.334" style="stop-color:#E25E51"/>
	<stop  offset="0.451" style="stop-color:#E56F63"/>
	<stop  offset="0.5654" style="stop-color:#EA877E"/>
	<stop  offset="0.6778" style="stop-color:#EFA69F"/>
	<stop  offset="0.7888" style="stop-color:#F6CDC9"/>
	<stop  offset="0.8967" style="stop-color:#FEF9F9"/>
	<stop  offset="0.9095" style="stop-color:#FFFFFF"/>
</linearGradient>
<rect x="329.4" y="363.9" class="st3" width="13" height="11.6"/>
<linearGradient id="SVGID_3_" gradientUnits="userSpaceOnUse" x1="325.6416" y1="434.7042" x2="314.5803" y2="421.5219" gradientTransform="matrix(1 0 0 -1 0 797.8)">
	<stop  offset="8.018396e-02" style="stop-color:#5DA1FC"/>
	<stop  offset="0.2225" style="stop-color:#61A3FC"/>
	<stop  offset="0.3528" style="stop-color:#6CAAFC"/>
	<stop  offset="0.4785" style="stop-color:#7EB4FD"/>
	<stop  offset="0.6013" style="stop-color:#99C4FD"/>
	<stop  offset="0.7221" style="stop-color:#BAD7FE"/>
	<stop  offset="0.8396" style="stop-color:#E3EFFE"/>
	<stop  offset="0.9095" style="stop-color:#FFFFFF"/>
</linearGradient>
<rect x="313.6" y="363.9" class="st4" width="13" height="11.6"/>
<linearGradient id="SVGID_4_" gradientUnits="userSpaceOnUse" x1="325.6416" y1="418.9042" x2="314.5803" y2="405.7218" gradientTransform="matrix(1 0 0 -1 0 797.8)">
	<stop  offset="8.018396e-02" style="stop-color:#5DA1FC"/>
	<stop  offset="0.2225" style="stop-color:#61A3FC"/>
	<stop  offset="0.3528" style="stop-color:#6CAAFC"/>
	<stop  offset="0.4785" style="stop-color:#7EB4FD"/>
	<stop  offset="0.6013" style="stop-color:#99C4FD"/>
	<stop  offset="0.7221" style="stop-color:#BAD7FE"/>
	<stop  offset="0.8396" style="stop-color:#E3EFFE"/>
	<stop  offset="0.9095" style="stop-color:#FFFFFF"/>
</linearGradient>
<rect x="313.6" y="379.7" class="st5" width="13" height="11.6"/>
<linearGradient id="SVGID_5_" gradientUnits="userSpaceOnUse" x1="341.4648" y1="418.9318" x2="330.4034" y2="405.7494" gradientTransform="matrix(1 0 0 -1 0 797.8)">
	<stop  offset="8.018396e-02" style="stop-color:#5DA1FC"/>
	<stop  offset="0.2225" style="stop-color:#61A3FC"/>
	<stop  offset="0.3528" style="stop-color:#6CAAFC"/>
	<stop  offset="0.4785" style="stop-color:#7EB4FD"/>
	<stop  offset="0.6013" style="stop-color:#99C4FD"/>
	<stop  offset="0.7221" style="stop-color:#BAD7FE"/>
	<stop  offset="0.8396" style="stop-color:#E3EFFE"/>
	<stop  offset="0.9095" style="stop-color:#FFFFFF"/>
</linearGradient>
<rect x="329.4" y="379.7" class="st6" width="13" height="11.6"/>
<linearGradient id="SVGID_6_" gradientUnits="userSpaceOnUse" x1="341.4297" y1="403.1901" x2="330.3684" y2="390.0077" gradientTransform="matrix(1 0 0 -1 0 797.8)">
	<stop  offset="8.018396e-02" style="stop-color:#5DA1FC"/>
	<stop  offset="0.2225" style="stop-color:#61A3FC"/>
	<stop  offset="0.3528" style="stop-color:#6CAAFC"/>
	<stop  offset="0.4785" style="stop-color:#7EB4FD"/>
	<stop  offset="0.6013" style="stop-color:#99C4FD"/>
	<stop  offset="0.7221" style="stop-color:#BAD7FE"/>
	<stop  offset="0.8396" style="stop-color:#E3EFFE"/>
	<stop  offset="0.9095" style="stop-color:#FFFFFF"/>
</linearGradient>
<rect x="329.4" y="395.4" class="st7" width="13" height="11.6"/>
<linearGradient id="SVGID_7_" gradientUnits="userSpaceOnUse" x1="309.7416" y1="403.2042" x2="298.6803" y2="390.0218" gradientTransform="matrix(1 0 0 -1 0 797.8)">
	<stop  offset="8.020000e-02" style="stop-color:#E05042"/>
	<stop  offset="0.2127" style="stop-color:#E15346"/>
	<stop  offset="0.334" style="stop-color:#E25E51"/>
	<stop  offset="0.451" style="stop-color:#E56F63"/>
	<stop  offset="0.5654" style="stop-color:#EA877E"/>
	<stop  offset="0.6778" style="stop-color:#EFA69F"/>
	<stop  offset="0.7888" style="stop-color:#F6CDC9"/>
	<stop  offset="0.8967" style="stop-color:#FEF9F9"/>
	<stop  offset="0.9095" style="stop-color:#FFFFFF"/>
</linearGradient>
<rect x="297.7" y="395.4" class="st8" width="13" height="11.6"/>
</svg>
