<?xml version="1.0" encoding="utf-8"?>
<!-- Generator: Adobe Illustrator 19.2.0, SVG Export Plug-In . SVG Version: 6.00 Build 0)  -->
<svg version="1.1" id="Layer_1" xmlns="http://www.w3.org/2000/svg" xmlns:xlink="http://www.w3.org/1999/xlink" x="0px" y="0px"
	 viewBox="0 0 946.5 441.9" style="enable-background:new 0 0 946.5 441.9;" xml:space="preserve">
<style type="text/css">
	.st0{fill:none;}
</style>
<title>Soylent</title>
<path d="M525.4,280.1c-15,0-27.2-10.2-27.2-22.8V105.3c0-3.3-2.5-5.5-6.1-5.5c-3.1-0.1-5.7,2.3-5.8,5.4c0,0,0,0.1,0,0.1v152.1
	c0,18.8,17.1,33.6,39.1,33.6c4,0,6.1-2.7,6.1-5.3C531.5,282.4,528.9,280.1,525.4,280.1z"/>
<path class="st0" d="M265.4,155h-3.5c-27.4,0-49.7,19-49.7,42.3v51.3c0,23.3,22.3,42.3,49.7,42.3h3.5c27.4,0,49.7-19,49.7-42.3
	v-51.3C315.1,174,292.8,155,265.4,155z"/>
<path d="M443.2,155c-3.1-0.1-5.7,2.3-5.8,5.4c0,0,0,0.1,0,0.1v89.9v3.6c-2,14.6-18.7,26.1-38,26.1H396c-20.9,0-37.9-14.2-37.9-31.7
	v-87.8c0-3.2-2.6-5.5-6.1-5.5c-3.1-0.1-5.7,2.3-5.8,5.4c0,0,0,0.1,0,0.1v87.8c0,23.5,22.3,42.6,49.7,42.6h3.5
	c14.8,0,29.4-5.6,37.9-13.9v27.1c0,17.4-17,31.5-37.9,31.5h-3.5c-19.4,0-36.7-8.8-41.2-21.1c-0.9-2.3-3.1-3.8-5.6-3.8
	c-2.9,0-6.1,2.1-6.1,5.3c-0.1,0.9,0.2,1.7,0.6,2.4c6.8,18.4,31.4,28,52.2,28h3.5c27.4,0,49.7-19,49.7-42.3V160.5
	C449.3,157.1,446.1,155,443.2,155z"/>
<path d="M133.7,213c-14.4-2.6-38.7-8.9-38.7-22v-2.4c0-18,23-22.8,36.6-22.8h1.9c17.1,0,28.8,7.1,36.1,12.4c3.3,2.6,8.4,1,9.6-2.5
	c0.7-2.2-0.1-4.6-2.1-5.9c-8.7-6.4-22.6-14.8-43.6-14.8h-1.9c-23.2,0-48.2,10.5-48.2,33.6v2.4c0,24.4,36.4,30.3,48.4,32.2
	c22.2,3.6,43.9,8.8,43.9,29.7c0,20.1-21.2,27.3-41,27.3h-2.8c-14.5,0-35.4-8.8-42.3-21.4c-1.1-1.9-3.2-3.1-5.4-3
	c-2.3-0.1-4.5,1.1-5.7,3.1c-0.8,1.5-0.8,3.4,0.2,4.9c9,16.9,34.6,27.3,53.2,27.3h2.8c24.4,0,52.9-10,52.9-38.1
	C187.6,222.3,157.7,217.1,133.7,213z"/>
<path d="M861.7,280.1c-15.2,0-27.2-10-27.2-22.8v-91h25.3c3,0.3,5.6-1.9,5.9-4.9c0.3-3-1.9-5.6-4.9-5.9c-0.3,0-0.7,0-1,0h-25.3V105
	c0-3.1-2.6-5.4-5.9-5.4s-5.9,2.3-5.9,5.4v50.5h-14.3c-4,0-6.2,2.8-6.2,5.4s2.2,5.4,6.2,5.4h14.3v91c0,18.8,17.2,33.6,39,33.6
	c2.9,0.6,5.8-1.4,6.4-4.4s-1.4-5.8-4.3-6.4C863.1,280,862.4,280,861.7,280.1z"/>
<path class="st0" d="M598.8,155h-2.5c-27.6,0-50,19-50,42.3v51.3c0,23.3,22.3,42.3,49.7,42.3h3.5c21.2,0,40.1-11.5,47-28.6l0.2-0.6
	c0.2-0.5,0.3-0.9,0.3-1.4c0-3-2.8-5.3-6.4-5.3c-2.7,0-4.8,1.5-5.2,3.5c-5.4,13-19.8,21.6-35.9,21.6H596c-20.9,0-37.9-14.1-37.9-31.5
	V228H643c3.2,0.1,5.9-2.3,6.1-5.5v-25.2C649.1,173.2,627.5,155,598.8,155z"/>
<path d="M730.2,155h-3.1c-15,0-29.7,5.6-38.2,14.1v-8.5c0-3.2-2.5-5.3-6.1-5.3c-3.3,0-5.8,2.2-5.8,5.3v124.8c0,3.1,2.6,5.6,5.6,5.6
	c0,0,0.1,0,0.1,0c3.5,0,6.1-2.3,6.1-5.5v-90.5c0-15.8,17.5-29.1,38.2-29.1h3.1c21,0,38.2,14.2,38.2,31.8v87.8c0,3.1,2.6,5.6,5.6,5.6
	c0,0,0.1,0,0.1,0c2.9,0,6.1-2.1,6.1-5.5v-87.8C780.2,174.1,757.8,155,730.2,155z"/>
<path class="st0" d="M13.2,13.2v415.5h920.1V13.2H13.2z M134.8,290.9h-2.8c-18.6,0-44.2-10.4-53.2-27.3c-1-1.5-1-3.3-0.2-4.9
	c1.2-2,3.4-3.1,5.7-3.1c2.2-0.1,4.3,1.1,5.4,3c6.9,12.6,27.8,21.4,42.3,21.4h2.8c19.8,0,41-7.2,41-27.2c0-20.8-21.7-26.1-43.9-29.7
	c-12-1.9-48.4-7.9-48.4-32.2v-2.4c0-23.1,25-33.6,48.2-33.6h1.9c21,0,35,8.4,43.6,14.8c1.9,1.3,2.8,3.7,2.1,5.9
	c-1.2,3.6-6.3,5.1-9.6,2.5c-7.3-5.3-19-12.4-36.1-12.4h-1.9c-13.7,0-36.7,4.8-36.7,22.8v2.4c0,13.1,24.2,19.4,38.6,22
	c24,4.1,54,9.3,54,39.9C187.6,281,159.2,290.9,134.8,290.9z M315.1,248.6c0,23.3-22.3,42.3-49.7,42.3h-3.5
	c-27.4,0-49.7-19-49.7-42.3v-51.3c0-23.3,22.3-42.3,49.7-42.3h3.5c27.4,0,49.7,19,49.7,42.3V248.6L315.1,248.6z M449.2,304.2
	c0,23.3-22.3,42.3-49.7,42.3h-3.5c-20.9,0-45.4-9.6-52.2-28c-0.5-0.7-0.7-1.6-0.6-2.4c0-3.2,3.1-5.3,6.1-5.3
	c2.5-0.1,4.7,1.5,5.6,3.8c4.5,12.2,21.8,21.1,41.2,21.1h3.5c20.9,0,37.9-14.1,37.9-31.5V277c-8.5,8.3-23.1,13.9-37.9,13.9H396
	c-27.4,0-49.7-19.1-49.7-42.6v-87.8c0-3.1,2.6-5.6,5.7-5.5c0,0,0.1,0,0.1,0c3.5,0,6.1,2.3,6.1,5.5v87.8c0,17.5,17,31.7,37.9,31.7
	h3.5c19.2,0,35.9-11.5,38-26.1v-3.6v-89.9c0-3.1,2.6-5.6,5.6-5.6c0,0,0.1,0,0.1,0c2.9,0,6.1,2.1,6.1,5.6L449.2,304.2L449.2,304.2z
	 M525.4,290.9c-21.9,0-39.1-14.7-39.1-33.6V105.3c0-3.1,2.6-5.6,5.7-5.5c0,0,0.1,0,0.1,0c3.6,0,6.1,2.2,6.1,5.5v152.1
	c0,12.5,12.2,22.8,27.2,22.8c3.5,0,6.1,2.3,6.1,5.5C531.5,288.2,529.3,290.9,525.4,290.9L525.4,290.9z M649.1,222.4
	c-0.2,3.2-2.9,5.7-6.1,5.6h-84.9v20.6c0,17.4,17,31.5,37.9,31.5h3.5c16,0,30.4-8.7,35.9-21.6c0.4-2,2.5-3.5,5.2-3.5
	c3.6,0,6.4,2.3,6.4,5.3c0,0.5-0.1,1-0.3,1.4l-0.2,0.6c-6.9,17.1-25.8,28.6-47,28.6H596c-27.4,0-49.7-19-49.7-42.3v-51.3
	c0-23.3,22.5-42.3,50-42.3h2.5c28.7,0,50.4,18.2,50.4,42.3L649.1,222.4L649.1,222.4z M780.2,285.4c0,3.4-3.2,5.5-6.1,5.5
	c-3.1,0.1-5.7-2.3-5.8-5.4c0,0,0-0.1,0-0.1v-87.8c0-17.5-17.1-31.8-38.2-31.8h-3.1c-20.7,0-38.2,13.3-38.2,29.1v90.4
	c0,3.2-2.6,5.5-6.1,5.5c-3.1,0.1-5.7-2.3-5.8-5.4c0,0,0-0.1,0-0.1V160.5c0-3.1,2.4-5.3,5.8-5.3c3.6,0,6.1,2.1,6.1,5.3v8.5
	c8.5-8.4,23.1-14.1,38.2-14.1h3.1c27.6,0,50,19.1,50,42.6L780.2,285.4L780.2,285.4z M861.6,290.9c-21.9,0-39-14.7-39-33.6v-91h-14.3
	c-4,0-6.2-2.8-6.2-5.4s2.2-5.4,6.2-5.4h14.3V105c0-3.1,2.5-5.4,5.9-5.4s5.9,2.3,5.9,5.4v50.5h25.3c3-0.3,5.6,1.9,5.9,4.9
	c0.3,3-1.9,5.6-4.9,5.9c-0.3,0-0.7,0-1,0h-25.3v91c0,12.8,11.9,22.8,27.2,22.8c3-0.3,5.7,1.8,6,4.8c0.3,3-1.8,5.7-4.8,6
	C862.5,291,862.1,291,861.6,290.9L861.6,290.9z"/>
<path d="M131.9,290.9h2.8c24.4,0,52.9-10,52.9-38.1c0-30.6-29.9-35.7-54-39.9c-14.4-2.6-38.6-8.9-38.6-22v-2.4
	c0-18,23-22.8,36.6-22.8h1.9c17.1,0,28.8,7.1,36.1,12.4c3.3,2.6,8.4,1,9.6-2.5c0.7-2.2-0.1-4.6-2.1-5.9
	c-8.7-6.4-22.6-14.8-43.6-14.8h-1.9c-23.2,0-48.2,10.5-48.2,33.6v2.4c0,24.4,36.4,30.3,48.4,32.2c22.2,3.6,43.9,8.8,43.9,29.7
	c0,20.1-21.2,27.3-41,27.3h-2.8c-14.5,0-35.4-8.8-42.3-21.4c-1.1-1.9-3.2-3.1-5.4-3c-2.3-0.1-4.5,1.1-5.7,3.1
	c-0.8,1.5-0.8,3.4,0.2,4.9C87.7,280.5,113.4,290.9,131.9,290.9z"/>
<path d="M262,290.9h3.5c27.4,0,49.7-19,49.7-42.3v-51.3c0-23.3-22.3-42.3-49.7-42.3h-3.5c-27.4,0-49.7,19-49.7,42.3v51.3
	C212.2,272,234.5,290.9,262,290.9z M224.1,248.6v-51.3c0-17.4,17-31.5,37.9-31.5h3.5c20.9,0,37.9,14.1,37.9,31.5v51.3
	c0,17.4-17,31.5-37.9,31.5H262c-20.8,0-37.8-14-37.9-31.3C224.1,248.7,224.1,248.7,224.1,248.6L224.1,248.6z"/>
<path d="M396.1,346.5h3.5c27.4,0,49.7-19,49.7-42.3V160.5c0-3.4-3.2-5.6-6.1-5.6c-3.1-0.1-5.7,2.3-5.8,5.4c0,0,0,0.1,0,0.1v89.9v3.6
	c-2,14.6-18.7,26.1-38,26.1H396c-20.9,0-37.9-14.2-37.9-31.7v-87.8c0-3.2-2.6-5.5-6.1-5.5c-3.1-0.1-5.7,2.3-5.8,5.4c0,0,0,0.1,0,0.1
	v87.8c0,23.5,22.3,42.6,49.7,42.6h3.5c14.8,0,29.4-5.6,37.9-13.9v27.1c0,17.4-17,31.5-37.9,31.5h-3.5c-19.4,0-36.7-8.8-41.2-21.1
	c-0.9-2.3-3.1-3.8-5.6-3.8c-2.9,0-6.1,2.1-6.1,5.3c-0.1,0.9,0.2,1.7,0.6,2.4C350.7,336.9,375.2,346.5,396.1,346.5z"/>
<path d="M525.4,290.9c4,0,6.1-2.7,6.1-5.3c0-3.2-2.6-5.5-6.1-5.5c-15,0-27.2-10.2-27.2-22.8V105.3c0-3.3-2.5-5.5-6.1-5.5
	c-3.1-0.1-5.7,2.3-5.8,5.4c0,0,0,0.1,0,0.1v152.1C486.3,276.2,503.5,290.9,525.4,290.9z"/>
<path d="M595.9,290.9h3.5c21.2,0,40.1-11.5,47-28.6l0.2-0.6c0.2-0.5,0.3-0.9,0.3-1.4c0-3-2.8-5.3-6.4-5.3c-2.7,0-4.8,1.5-5.2,3.5
	c-5.4,13-19.8,21.6-35.9,21.6h-3.5c-20.9,0-37.9-14.1-37.9-31.5V228H643c3.2,0.1,5.9-2.3,6.1-5.5v-25.2c0-24.1-21.7-42.3-50.4-42.3
	h-2.5c-27.6,0-50,19-50,42.3v51.3C546.2,272,568.5,290.9,595.9,290.9z M558.1,217.1v-19.8c0-17.4,17.1-31.5,38.2-31.5h3.1
	c20.9,0,37.9,14.1,37.9,31.5v19.8L558.1,217.1L558.1,217.1z"/>
<path d="M682.8,290.9c3.5,0,6.1-2.3,6.1-5.5v-90.4c0-15.8,17.5-29.1,38.2-29.1h3.1c21,0,38.2,14.2,38.2,31.8v87.8
	c0,3.1,2.6,5.6,5.6,5.6c0,0,0.1,0,0.1,0c2.9,0,6.1-2.1,6.1-5.5v-87.8c0-23.5-22.5-42.6-50-42.6h-3.1c-15,0-29.7,5.6-38.2,14.1v-8.5
	c0-3.2-2.5-5.3-6.1-5.3c-3.3,0-5.8,2.2-5.8,5.3v124.8C677.1,288.5,679.6,291,682.8,290.9C682.7,290.9,682.8,290.9,682.8,290.9z"/>
<path d="M808.3,166.4h14.3v91c0,18.8,17.2,33.6,39,33.6c3,0.3,5.6-1.9,5.9-4.9c0.3-3-1.9-5.6-4.9-5.9c-0.3,0-0.7,0-1,0
	c-15.2,0-27.2-10-27.2-22.8v-91h25.3c3,0.3,5.6-1.9,5.9-4.9c0.3-3-1.9-5.6-4.9-5.9c-0.3,0-0.7,0-1,0h-25.3V105
	c0-3.1-2.6-5.4-5.9-5.4s-5.9,2.3-5.9,5.4v50.5h-14.3c-4,0-6.2,2.8-6.2,5.4S804.3,166.4,808.3,166.4z"/>
<path d="M0,0v441.9h946.5V0H0z M933.3,428.7H13.2V13.2h920.1V428.7z"/>
</svg>
