<?xml version="1.0" encoding="utf-8"?>
<!-- Generator: Adobe Illustrator 19.1.0, SVG Export Plug-In . SVG Version: 6.00 Build 0)  -->
<svg version="1.1" id="Layer_1" xmlns="http://www.w3.org/2000/svg" xmlns:xlink="http://www.w3.org/1999/xlink" x="0px" y="0px"
	 viewBox="-260 309.7 758.2 182.3" style="enable-background:new -260 309.7 758.2 182.3;" xml:space="preserve">
<style type="text/css">
	.st0{fill:#036643;}
	.st1{fill:#7CB742;}
	.st2{fill:#89C241;}
	.st3{fill:#3F8A49;}
	.st4{fill:#1D7346;}
	.st5{fill:#6CAB46;}
	.st6{fill:#358348;}
	.st7{fill:#19453B;}
	.st8{fill:#939598;}
	.st9{fill:#939597;}
	.st10{fill:#8CC53F;}
	.st11{fill:#949699;}
	.st12{fill:#1D483E;}
	.st13{fill:#1C473E;}
	.st14{fill:#1C473D;}
	.st15{fill:#79B543;}
	.st16{fill:#82BC41;}
	.st17{fill:#1E493F;}
	.st18{fill:#035F41;}
	.st19{fill:#85BF41;}
	.st20{fill:#4A9249;}
	.st21{fill:#559A48;}
	.st22{fill:#157046;}
	.st23{fill:#72B045;}
	.st24{fill:#5EA148;}
	.st25{fill:#2B7B48;}
	.st26{fill:#237747;}
	.st27{fill:#065A40;}
	.st28{fill:#358349;}
	.st29{fill:#479049;}
	.st30{fill:#2E7D48;}
	.st31{fill:#3E8849;}
	.st32{fill:#66A648;}
	.st33{fill:#116F47;}
</style>
<path class="st0" d="M179,472c-1.4-2.1-2.4-4.4-2.9-6.8c1.8-3,2.7-3.3,8-2.2c0.7,1.6,1.3,3.3,2.2,5.5c0.8-1.8,1.4-3.2,2.1-4.6
	c3.2-1.5,6.4-3.6,8.9,1c-0.9,3-2.1,5.8-3.8,8.4C188.8,470.3,183.9,471.4,179,472z"/>
<path class="st1" d="M231.2,389.9c-0.8,3-2.1,5.8-3.8,8.4c-3.4,0.4-6.8,1-10.2-0.4c1.6-3.7,3.2-7.4,4.8-11.1
	c2.3-1.1,4.7-1.2,7.1-0.3C230.6,387.1,232.4,387.7,231.2,389.9z"/>
<path class="st2" d="M276.6,381.8c-3.5,1.1-8.2-2-10.4,3.2c-1.5-2.1-2.4-4.5-3-7c1.3-1.3,2.4-2.3,4.6-1.4c2,0.9,4.2,0.7,6.1-0.6
	C274.8,377.9,275.7,379.9,276.6,381.8z"/>
<path class="st3" d="M201.3,434c2.9,1.2,6.4-0.4,9,2.1c-0.6,2.5-1.6,4.8-3.1,6.9c-2.6-2.3-6.3,0.1-8.9-2
	C198.8,438.4,200,436.2,201.3,434z"/>
<path class="st4" d="M174.2,460.9c-1.3-2.2-2.6-4.4-3-7c2.6-3.5,5.7-2.1,8.7-1c-0.1,2.8,2.7,4.4,3,7
	C180.2,462.2,177.1,460.2,174.2,460.9z"/>
<path class="st5" d="M215,402.9c3.2,0.6,6.5,0.4,9.4,2.2c-0.4,1.8-1,3.5-2.2,4.9c-3.4,1.2-6.8,0.4-10.2,0
	C213,407.6,214,405.2,215,402.9z"/>
<path class="st6" d="M168.2,446.9c-1.1-1.5-2-3-2.1-4.9c-0.6-1-0.5-2.2,0.7-2.2c2.7,0.1,5.6-0.9,8.1,1.1c0.7,1.7,1.4,3.4,2.1,5
	C174.5,450.2,171.4,449.3,168.2,446.9z"/>
<path class="st7" d="M-207.9,476c5.8-14.7,2.3-28.3-2-41.7c-8.5-26,14.6-60.3,50.5-53.8c19.2,3.5,32.5,13.4,39.4,31.8
	c5,13.4,10.7,26.5,20.5,38.2c-2.4-0.3-4-0.4-5.6-0.7c-3.4-0.6-7.4-0.5-10.2-2.2c-3.4-2.1-0.6-6.3-1.2-9.6
	c-1.2-7.4-4.1-13.4-11.3-16.3c-6.9-2.8-13.3-1.8-19.3,2.5c-2.3,1.6-2.7,2.9-0.1,4.9c5.6,4.3,11.8,6.8,18.9,6.7
	c2.6,0,3.3,0.5,3.2,3.3c-0.6,16.4,1.3,32.6,5.2,48.5c1.1,4.5-0.8,4.8-4.1,4.3c-1.3-0.2-2.6-0.7-3.7-1.3
	c-12.5-6.4-24.6-13.3-35.8-21.7c-2.7-2.1-5.1-2.4-8.2-1.6c-10.8,2.7-21.3,6.5-32.4,8.3C-205,475.6-205.8,475.7-207.9,476z"/>
<path class="st7" d="M-260,483.4c12.7-10.8,12.4-24,10.7-37.5c-1-7.8-4.3-15-6.3-22.5c-12.3-45.7,6.4-84,50.8-104.4
	c14-6.4,28.5-9.2,44-9.3c16.9-0.1,32.7,2.7,47.8,10.1c3,1.5,3.3,2.6,1.8,5.5c-3.8,7.5-7.3,15.2-10.8,23c-1.4,3.2-2.7,4.2-6.5,2.7
	c-25.3-9.9-50.5-9.8-74.7,3.3c-18,9.8-30.3,24.7-35,45.1c-2.5,10.7,0.5,21.2,1.9,31.7c2,15,1.2,29.6-7.8,42.6
	C-247.7,478.7-252.2,482.7-260,483.4z"/>
<path class="st8" d="M303.1,400.9c-10.5,0.3-10.5,0.3-10.5-10c0-22,0-44,0-67.2c18.7,18.1,36.8,35.5,55,53.1
	c1.2-0.3,0.2-1.5,0.2-2.3c0.1-14.7,0.1-29.3-0.1-44c0-3.2,1-3.8,3.9-3.8c7.4,0.1,7.4-0.1,7.4,7.3c0,22.9,0,45.9,0,68.8
	c-2,0.3-2.5-1.3-3.3-2.1c-14.4-13.8-28.9-27.7-43.2-41.6c-2.6-2.5-4.9-5.4-7.4-8.1c-2.8,0.5-1.3,2.7-1.3,4
	c-0.1,13.7-0.1,27.3-0.1,41C303.7,397.6,304.2,399.4,303.1,400.9z"/>
<path class="st8" d="M146.4,367.5c0.8-0.3,1.3-0.5,1.7-0.6c11.2-2.9,16.1-10.3,14.9-22.3c-1-10.5-7.9-17-18.8-17.6
	c-6.8-0.3-13.7-0.1-20.5-0.2c-1.8,0-3.2,0-3.2,2.6c0.1,23,0,46,0.1,69c0,4.8,3.9,2.1,6,2.6c4.1,0.9,5.8-0.4,5.5-5.1
	c-0.5-9.1-0.1-18.3-0.1-27.4c0.3-0.2,0.7-0.3,1-0.5c1,1.2,2.1,2.4,3,3.6c6.6,8.8,13.1,17.6,19.7,26.4c0.9,1.3,1.5,3.1,3.6,3.1
	c3.9,0,7.8,0,12.3,0C162.9,389.3,154.8,378.5,146.4,367.5z M133.8,358.2c-1.3-0.6-1-1.5-1-2.5c0-2.7,0-5.3,0-8c0-1-0.3-2.1,0.1-3
	c0.9-2.5-2.3-6.4,1.8-7.6c5.4-1.6,13.4,1.4,14.9,5.3c1.7,4.3,2,8.8-1.1,12.7C146.6,357.5,136.4,359.3,133.8,358.2z"/>
<path class="st8" d="M-34.9,402.9c-11.2,0-19.1-4.7-22.6-13.3c-0.9-2.3-1.1-3.6,1.7-5c4.1-1.9,6.8-3.5,9.8,2.1
	c3.1,5.8,13.5,6.7,18.9,2.8c6.1-4.3,5.6-13.5-1.1-17.5c-6.1-3.7-12.9-6.1-18.9-10.1c-5.7-3.9-9.3-8.9-9.5-16.1
	c-0.3-8.8,4.7-16.2,13.1-19.3c10.5-3.9,23.3-0.8,28.7,6.7c1.9,2.6,2.6,4.3-1.2,5.8c-3.6,1.4-6.1,3.9-9.9-0.8c-4-4.9-13-3.6-16.3,1.3
	c-3.4,5-1.6,10.9,4.8,14.5c4.3,2.4,9,4.3,13.4,6.7c11.8,6.4,15.7,14.2,12.9,25.6C-13.5,396.7-22.5,402.9-34.9,402.9z"/>
<path class="st8" d="M27.9,326.9c-6.8-0.3-13.7,0.1-20.5-0.2c-3.5-0.2-4.9,0.6-4.7,4.5C3,342,2.8,352.8,2.8,363.7
	c0,11.2,0.1,22.3-0.1,33.5c-0.1,3.1,0.7,4.3,3.9,3.9c1.1-0.2,2.3-0.2,3.5,0c3.2,0.5,4.3-0.7,4.2-4c-0.3-8.6,0-17.3-0.1-26
	c-0.1-2.7,0.8-3.4,3.4-3.3c4,0.1,8,0,12-0.4c11.9-1.3,18.1-8.9,17.7-21.1C46.8,334.6,39.7,327.4,27.9,326.9z M25.5,357.3
	c-10.6,1.7-10.6,1.7-10.6-10c0-0.7-0.2-1.5,0-2c1.4-2.6-3.3-7.6,2.9-8.2c9.8-0.9,15.5,2.1,16.5,8.1C35.6,352.6,33,356.1,25.5,357.3z
	"/>
<path class="st8" d="M78.1,348c-7,17.5-15,34.2-22.5,51.2c-0.7,1.5-1.6,1.8-3.1,1.8c-3.3-0.1-6.6,0-10.4,0
	c12-25.8,23.8-51.2,35.9-77.3c12.1,25.9,23.8,51.2,36,77.3c-4,0-7.4-0.1-10.7,0c-2.9,0.2-3.1-2.2-3.8-3.8
	C92.4,380.8,85.3,364.5,78.1,348z"/>
<path class="st9" d="M357.5,428.2c-17.1,0.2-30.5,13.5-30.5,30.4s13.3,30.3,30.4,30.4c17.3,0.1,31-13.2,31-30.3
	C388.4,441.7,374.5,428,357.5,428.2z M357.4,480.1c-11.5-0.1-20.8-9.5-20.8-21.2c0-12,9.7-22,21.3-21.9c11.4,0.2,21,10.3,20.9,21.9
	C378.8,470.7,369.2,480.2,357.4,480.1z"/>
<path class="st9" d="M127.7,428.2c-16.7,0-30.5,13.9-30.5,30.6c0,16.8,13.7,30.2,30.7,30.2c16.8,0,31-13.8,31-30.2
	C158.9,442.1,144.7,428.2,127.7,428.2z M127.5,480.1c-11.5-0.1-20.5-9.8-20.4-21.9c0.2-11.8,9.9-21.4,21.3-21.1
	c11.3,0.3,20.8,10.4,20.6,22.1C148.8,470.9,139.2,480.2,127.5,480.1z"/>
<path class="st8" d="M11.3,468.7c0-11.9,0.1-23.3-0.1-34.6c-0.1-3.6,1.2-4.4,4.6-4.5c3.6,0,4.5,1.1,4.4,4.6
	c-0.2,17.1-0.1,34.3-0.1,51.4c0,0.9,0.4,2-1,3.2c-13.8-13.3-27.6-26.6-42-40.5c0,4.2,0,8.1,0,11.9c0,7.8-0.2,15.7,0.1,23.5
	c0.1,3.7-1.8,3.9-4.6,3.9c-2.7,0-4.3-0.4-4.3-3.8c0.1-18.5,0.1-36.9,0.1-56.8C-16.9,441.4-3.1,454.7,11.3,468.7z"/>
<path class="st9" d="M85.1,489.9c-14.8-14.2-28.6-27.6-43-41.4c0,4.2,0,8,0,11.9c0,8-0.1,16,0.1,24c0.1,3.3-1.8,3.5-4.1,3.3
	c-2.2-0.1-4.8,0.7-4.8-3.2c0.1-18.6,0-37.2,0-57.2c14.7,14.2,28.6,27.5,43,41.4c0-11.7,0-22.7,0-33.8c0-4.9,2.3-6.5,7.1-5.1
	c1.5,0.4,1.7,1.3,1.7,2.6C85.1,451.1,85.1,469.8,85.1,489.9z"/>
<path class="st9" d="M442.2,468.8c0-12,0.1-23.3-0.1-34.6c-0.1-3.5,0.9-4.6,4.5-4.5c3.4,0,4.6,0.9,4.6,4.5
	c-0.2,18.1-0.1,36.2-0.1,55.8c-14.8-14.2-28.7-27.6-43-41.3c0,12-0.2,23.4,0.1,34.7c0.1,3.8-1.4,4.4-4.7,4.4c-3.2,0-4.3-1-4.3-4.3
	c0.1-18.3,0.1-36.5,0.1-56.1C413.9,441.5,427.7,454.8,442.2,468.8z"/>
<path class="st8" d="M202.8,368.9c0,9.3-0.2,18.7,0.1,28c0.1,3.4-1,4.2-4.2,4.1c-8-0.1-8,0-8-8.2c0-17.1-0.1-34.3,0.1-51.4
	c0-3.3-0.6-4.8-4.3-4.5c-4.1,0.3-8.3-0.1-12.5,0.1c-2.5,0.1-3-0.8-3.1-3.1c-0.2-7.2-0.3-7.2,7-7.2c13.5,0,27,0.2,40.5-0.1
	c4.7-0.1,4,2.4,4,5.2c0,2.7,0.9,6.1-3.9,5.2c-0.2,0-0.3,0-0.5,0c-4.9,0.3-11.5-2.1-14.3,1c-2.4,2.7-0.7,9.2-0.8,14
	C202.8,357.6,202.8,363.3,202.8,368.9z"/>
<path class="st9" d="M480,488.9c-9.3,0-15.7-3.8-18.3-9.8c-1.2-2.7-0.3-4,2.2-4.9c2-0.7,3.7-2.8,5.6,0.7c2.4,4.4,7.6,6.1,12.5,4.9
	c3.4-0.8,5.6-2.9,6.2-6.4c0.8-3.9-0.7-6.8-4.1-8.8c-5-2.9-10.6-4.9-15.3-8.4c-5.4-4-7.5-9.2-6.2-15.7c1.4-6.5,5.7-10.3,12.1-11.8
	c6.9-1.6,13.3-0.7,18.6,4.3c1.2,1.2,4.3,3.1,1.8,5.1c-2,1.5-4.8,5.1-8,1.1c-1.1-1.3-2.5-2.1-4.2-2.5c-4.1-1-7.7-0.3-9.8,3.7
	c-2.1,4.1-0.6,7.6,3.1,9.8c4.4,2.6,9.3,4.6,13.7,7.2c8.9,5.4,11,15.7,5.1,24.1C491.1,487.1,485.2,488.6,480,488.9z"/>
<path class="st9" d="M236.4,427.3c9.2,19.8,18,38.7,26.8,57.5c1,2.2,0.6,2.7-1.8,2.9c-4.6,0.4-7.5-0.6-9.5-5.6
	c-4.6-11.9-10.1-23.5-15.3-35.6c-3.3,7.4-6.5,14.7-9.7,22c-2.3,5.2-4.6,10.3-6.9,15.5c-0.7,1.6-1.2,3.7-3.6,3.5
	c-2.3-0.1-5.2,1.1-6.7-0.7c-1.5-1.8,0.9-3.9,1.8-5.8C219.6,463.6,227.8,446,236.4,427.3z"/>
<path class="st10" d="M225.5,378.9c7.9-18.1,15.8-36.2,24.3-55.4c8.3,18.2,16.2,35.3,24.2,52.5c-0.8,2.2-2.7,2.2-4.5,2
	c-2.1-0.2-4.2,0.3-6.3-0.1c-4.8-9.8-9.1-19.7-13.3-30.2c-4.1,10.6-8.5,20.6-13.3,30.3C232.9,378.9,229.4,381.1,225.5,378.9z"/>
<path class="st8" d="M274.4,462.7c0-7.2-0.1-14.3,0-21.5c0-2.6-0.9-3.6-3.5-3.5c-2.7,0.2-5.3-0.2-8,0.1c-3.3,0.3-3.8-1.3-3.8-4.1
	c0-3,0.8-4.1,3.9-4c10.8,0.2,21.7,0.2,32.5,0c3.4-0.1,3.7,1.5,3.8,4.2c0.1,3.1-1,3.9-4,4c-11.2,0.2-11.2,0.3-11.2,11.6
	c0,11.2-0.1,22.3,0.1,33.5c0.1,3.7-1,4.9-4.8,4.9c-3.9,0-5.3-1-5.1-5.1C274.6,476.1,274.4,469.4,274.4,462.7z"/>
<path class="st11" d="M316,458.4c0,8.5-0.2,17,0.1,25.4c0.1,4.3-2.5,3.8-5.2,3.9c-2.8,0.1-4.7-0.1-4.7-3.9c0.2-16.8,0.2-33.6,0-50.3
	c-0.1-4.4,2.6-3.7,5.2-3.7c2.6-0.1,4.8-0.3,4.7,3.7C315.8,441.8,316,450.1,316,458.4z"/>
<path class="st9" d="M-46.7,458.4c0,8.5-0.2,17,0.1,25.5c0.1,3.8-1.9,3.9-4.7,3.8c-2.6,0-4.8,0.2-4.7-3.7c0.2-16.8,0.2-33.6,0-50.4
	c0-3.9,1.9-3.8,4.6-3.8c2.6,0,4.9-0.2,4.7,3.7C-46.8,441.8-46.7,450.1-46.7,458.4z"/>
<path class="st12" d="M-147.1,352.9c-11.3,1.6-18.9,7.2-21.7,18.4c-0.3,1.1-0.6,1.9-1.9,1.7c-1.4-0.3-1-1.5-1-2.4
	c0.2-5.8,0.5-11.6,0.6-17.5c0-2.5,1.5-2.6,3.2-2.6C-160.9,350.2-154,350.9-147.1,352.9z"/>
<path class="st13" d="M-185.1,374c0.6,1.6-0.6,1.9-1.7,2.3c-1.2,0.4-2.4,1.4-3.3-0.5c-2.7-5.3-5.8-10.5-8-16
	c-1.1-2.8,2.6-2.6,4.2-3.3c1.1-0.5,3.1-2.6,4,0.3C-188.2,362.4-186.7,368.2-185.1,374z"/>
<path class="st14" d="M-176.7,362.6c0,2.8-0.1,5.7,0,8.5c0.1,1.8-0.6,2.7-2.5,3c-2.3,0.3-2.4-1.2-2.7-2.7c-1-5.1-2.2-10.1-3.1-15.2
	c-1.1-5.8,4.1-3.2,6.3-4.2c3-1.4,2.5,1.4,2.5,3.1c0,2.5-0.2,5-0.4,7.5C-176.6,362.6-176.6,362.6-176.7,362.6z"/>
<path class="st13" d="M-232.6,421.2c-0.8-5.9-0.4-11.6,0.1-17.4c0.2-2.4,1.3-3,3.6-2.6c3.6,0.7,7.2,1.2,10.8,1.8
	c0.9,0.1,2.1-0.1,2.3,1.3c0.2,1.5-0.8,2.1-2.1,2.3C-226.2,407.9-230.1,413.6-232.6,421.2z"/>
<path class="st14" d="M-193.1,378.1c0.1,1.4-1.1,1.5-1.8,2c-1,0.8-1.9,1.1-3-0.1c-3.7-4.5-7.4-8.9-11.2-13.3
	c-1.1-1.3-0.7-2.1,0.5-2.7c2-1,4.6-4.1,5.8-2.5C-199,366.6-196.2,372.5-193.1,378.1z"/>
<path class="st14" d="M-200.5,383.4c-1.6,0.7-1.9,4-4.6,1.9c-4.4-3.2-8.7-6.6-12.9-10c-2.9-2.4,0.5-3.4,1.5-4.5c0.8-1,1.7-4.1,4-1.5
	c3.8,4.2,7.5,8.4,11.2,12.6C-201.1,382.3-200.9,382.8-200.5,383.4z"/>
<path class="st15" d="M280.9,391c0.3,0.4,0.6,0.8,0.8,1.3c0.9,2.9,4.6,6.6,2.8,8.1c-2.1,1.7-6.6,0.6-10.1,0.6c-2.2,0-2.3-2.1-3-3.5
	c-0.8-1.8-1.4-3.7-2.1-5.5C272.9,389,276.8,389.2,280.9,391z"/>
<path class="st14" d="M-206.9,389.1c-1.4,3.3-3.3,3.7-6.2,1.9c-3.1-1.9-6.4-3.5-9.7-4.9c-3-1.2-3.6-2.5-1.8-5.4
	c1.8-2.9,3.1-2.9,5.6-0.8C-215.1,383.2-210.9,386.1-206.9,389.1z"/>
<path class="st16" d="M280.9,391c-3.9,0.2-7.9-0.3-11.7,1c-1.4-2.1-2.5-4.4-3.1-6.9c-0.8-3.6,2-3.9,4.3-4.3c2.1-0.4,4.2-0.1,6.1,1.1
	C278,384.9,279.5,387.9,280.9,391z"/>
<path class="st17" d="M-215.8,398.8c-4.3-0.8-8.5-1.7-12.7-2.4c-3-0.5-2.3-2.1-1.5-3.9c0.7-1.6,0.3-4.4,3.6-2.9
	c3.9,1.7,8.1,3.1,12,4.7c0.9,0.4,3,0.2,2,2.5C-213.1,398.4-214,399.4-215.8,398.8z"/>
<path class="st18" d="M179,472c5.4-3.3,11.3-2.8,14.4,1.3c-0.6,2.5-1.6,4.7-3.1,6.8c-2.8,0-5.4-1.1-8.2-1
	C180.7,476.9,179.2,474.8,179,472z"/>
<path class="st19" d="M231.2,389.9c-0.9-2.8-3.3-3-5.5-2.6c-1.4,0.2-2.5,0.1-3.7-0.5c1.2-2.6,2.3-5.3,3.5-7.9
	c3.7,0.4,7.3-1.9,11.1-0.8C235.2,382.2,233.5,386.2,231.2,389.9z"/>
<path class="st20" d="M201.3,434c0.8-2.4,1.5-4.9,3.1-7c3.4-1.4,6.7-2.2,10,0.1c-1.4,3-2,6.4-4.1,9.1
	C207.3,435.6,203.8,436.7,201.3,434z"/>
<path class="st21" d="M214.4,427c-3.3,0-6.7,0-10-0.1c1.2-2.7,2.4-5.4,3.6-8.1c2.5-0.9,5.1,0.2,7.7-0.3c1.5-0.3,2.5,0.6,1.5,2.4
	C216.7,423.1,215.8,425.2,214.4,427z"/>
<path class="st22" d="M197.2,465c-2.7-2.6-6-0.7-8.9-1c0.4-2.6,1.5-4.8,3-7c3.3-1.6,6.3-1.4,9.1,1
	C199.7,460.5,198.8,462.9,197.2,465z"/>
<path class="st23" d="M217.3,397.9c3.4-1,6.8-0.5,10.2,0.4c-0.6,2.4-1.6,4.7-3,6.7c-3.4,0.2-6.6,0.1-9.4-2.2
	C215.7,401.2,216.5,399.6,217.3,397.9z"/>
<path class="st24" d="M217.2,420.9c-0.1-0.8-0.5-2.1-1.3-1.5c-2.8,1.7-5.3,0.5-7.9-0.5c0.9-2.4,1.3-5,3.1-7c3.3,0.4,7,0,8.3,4.3
	C219,417.9,218.4,419.5,217.2,420.9z"/>
<path class="st25" d="M168.2,446.9c3,0.5,6.1,1.5,8.8-1c1,2.3,2,4.6,3,7c-2.8,1.1-6-1.1-8.7,1C169.8,451.8,168.8,449.5,168.2,446.9z
	"/>
<path class="st26" d="M200.4,458c-3-0.3-6.1-0.7-9.1-1c0.2-1.9,1.2-3.4,2.1-5c2-1.5,4.3-2.2,6.9-1.7c2.2,0.4,3.1,1.5,2,3.7
	C202,455.5,201.4,456.9,200.4,458z"/>
<path class="st27" d="M182.1,479.2c3.1-2.6,5.7-0.8,8.2,1c-1.2,3-2.4,5.9-4,10.1C184.6,485.8,183.3,482.5,182.1,479.2z"/>
<path class="st28" d="M198.3,441c2.6-0.1,5.2-0.3,7.8-0.3c1.5,0,0.9,1.5,1.1,2.3c-0.2,1.6-0.8,3-1.9,4.2c-3.2-1.2-6.6,2.1-9.8-0.2
	C196.4,445,197.4,443,198.3,441z"/>
<path class="st29" d="M163.1,435c-0.6-1.6-3-3-1.2-5c1.2-1.3,8.4,0,9.1,1.4c0.8,1.8,1.4,3.7,2.1,5.5
	C169.7,436.9,166.1,437.4,163.1,435z"/>
<path class="st30" d="M195.5,447c1.8,0.2,3.5-0.4,5.2-1c1.8-0.6,3.5-0.7,4.6,1.2c-1.2,2.2-1.3,4.9-3.1,6.8c0.3-3.5-2.4-2.9-4.2-2.7
	c-1.5,0.2-3.1,0.8-4.7,0.7C194.1,450.3,194.8,448.6,195.5,447z"/>
<path class="st31" d="M163.1,435c3.3,0.8,7-0.4,10,2c0.6,1.3,1.2,2.7,1.8,4c-3,0.1-6-0.4-8.8,1.1C164.3,440.1,163.6,437.6,163.1,435
	z"/>
<path class="st9" d="M303.1,400.9c0.1-15.9,0.1-31.8,0.3-47.8c0-0.8-1.5-3.7,1.7-2c-1.5,1.3-0.8,3.1-0.8,4.6
	c-0.1,13.4,0,26.9-0.1,40.3C304.2,397.6,305.3,399.7,303.1,400.9z"/>
<path class="st32" d="M212,409.9c3.4-1.8,6.8-0.6,10.2,0c-0.5,2.3-1.4,4.4-2.9,6.3c-2-2.8-5.9-2.2-8.3-4.3
	C211.4,411.2,211.7,410.6,212,409.9z"/>
<path class="st33" d="M174.2,460.9c0.2-1.8,1.3-2.2,2.8-1.6c1.9,0.8,3.9,0.5,5.9,0.6c0.4,1,0.8,2,1.1,3c-2.4,1.6-5.9-0.5-8,2.2
	C175,464,174.4,462.5,174.2,460.9z"/>
</svg>
