<?xml version="1.0" encoding="utf-8"?>
<!-- Generator: Adobe Illustrator 19.2.0, SVG Export Plug-In . SVG Version: 6.00 Build 0)  -->
<svg version="1.1" id="Layer_1" xmlns="http://www.w3.org/2000/svg" xmlns:xlink="http://www.w3.org/1999/xlink" x="0px" y="0px"
	 viewBox="0 0 1900.3 514.1" style="enable-background:new 0 0 1900.3 514.1;" xml:space="preserve">
<style type="text/css">
	.st0{fill:#FCB411;}
	.st1{fill:#FCB513;}
	.st2{fill:#FCB512;}
	.st3{fill:#F9B211;}
	.st4{fill:#FBB411;}
</style>
<title>Symantec_logo10</title>
<path class="st0" d="M416.7,142.8h-14c3.3,4.5,5.9,7.9,8.3,11.3c31.5,44.1,46.6,93.4,42.1,147.2c-7.3,88.8-52.1,153.1-132.3,192.1
	c-31,15.1-64.4,21.5-98.8,20.6C115.5,511.2,28.2,437.2,5.7,337.2C-18.7,228.8,37.2,119,140.1,77.4c80.8-32.6,157.2-21.2,227.2,31
	l2.8,2.1c0.1,2-1.5,1.8-2.6,2c-2,0.3-3.9,0.4-5.9,0.2c-4-0.3-5.8,1.2-5.5,5.4c0.1,2.9,0.4,5.9-0.7,8.8c-0.3,0.5-0.7,0.9-1.2,1.2
	c-3.1,1.2-6.3,0.7-9.4,0.7s-4.7,1.3-4.5,4.5c0,0.2,0,0.3,0,0.5c-0.6,9.7-0.6,9.7-10.2,10c-5.1,0.2-5.6,0.7-5.8,5.9
	c-0.4,10.2-1.3,11-11.6,9.6c-12.8-8-26.1-14.8-40.6-19c-47-13.5-91.1-7.3-131.6,20.4c-33.3,22.8-53.8,54.5-62.5,93.7
	c-7.1,32-3.8,63.2,9.1,93.4c23.6,55.3,77.6,91.5,137.7,92.3c45.4,0.4,83.7-16.1,114.6-48.9c23.8-25.3,37-55.7,40.3-90.5
	c2.6-28-2.7-54.3-14-79.7c-3.4-7.5-8.4-14-11.8-21.4c-0.3-1.5-0.5-3-0.4-4.5c0.1-4.7,1.2-5.8,5.9-6.2c9.6-0.7,9.6-0.7,10.1-10.1
	c0-1.3,0.2-2.7,0.7-3.9c0.3-0.5,0.7-1,1.2-1.3c3-1.2,6.2-0.8,9.4-0.8s4.7-1.2,4.6-4.4c0-0.7,0,0.2,0-0.5
	c-0.2-8.6-0.8-11.8,10.7-11.1c2.9,0.2,4.3-1.2,4.3-4.2c0-1,0-2,0-3c0.2-3.1-0.4-7.1,3.5-8C407.9,140.6,412.7,139.1,416.7,142.8z"/>
<path d="M901,265.4c5.7-6,11-11.5,17.3-16c12.3-8.9,25.8-13.7,41.1-12.3c15.8,1.4,23.4,6.7,34.7,24.5c4.6-4.3,9.1-8.7,14.2-12.3
	c15.9-11.4,33.3-15.5,52.4-10c8.4,2.4,14.6,7.7,19,15.2c6.6,11.3,10,24.1,9.9,37.2c0.2,36.1,0.1,72.3,0.2,108.5c0,3.5-1.2,4.1-4.3,4
	c-13.2-0.1-26.3-0.2-39.5,0c-3.6,0.1-4.4-1-4.4-4.5c0.1-33.5,0.1-67,0.1-100.5c0-3.5,0.2-7-0.6-10.5c-2.1-9.6-8.8-14-18.4-12
	c-8.4,1.7-15.2,6.5-21.7,11.8c-1.9,1.6-1.3,3.6-1.3,5.5c0,35-0.1,70,0.1,105c0,4.2-1.1,5.2-5.2,5.1c-12.7-0.3-25.3-0.3-38,0
	c-3.9,0.1-5-0.9-5-4.9c0.2-33.5,0.1-67,0.1-100.5c0-4.2,0-8.3-1.2-12.4c-1.8-6.1-6.4-9.8-12.8-10c-11.2-0.3-19.6,5.4-27,13
	c-1.5,1.5-0.9,3.5-0.9,5.2c0,34.7-0.1,69.3,0.1,104c0,4.1-0.6,5.7-5.3,5.6c-12.8-0.4-25.7-0.3-38.5,0c-3.6,0.1-4.4-1.1-4.4-4.5
	c0.1-51.7,0.1-103.3,0-155c0-3.2,0.8-4.3,4.1-4.2c7.5,0.2,15,0.2,22.5,0c2.4-0.1,3.5,0.8,4.3,3C895.2,250.6,898,257.7,901,265.4z"/>
<path d="M370.8,174.1c-0.1,4.3-0.3,8.6-0.3,12.9c0,2.3-0.7,3.3-3.1,3.2c-3-0.2-6,0.2-9-0.1s-4.3,0.6-3.9,3.8
	c0.2,2.1,0.3,4.3,0.2,6.4c1.5,6,0.7,7-5.5,7.1c-8.9,0.2-8.9,0.2-9.4,9c-0.2,4.9-1,6-5.9,5.9c-11-0.1-10.2,0-10,10.1
	c0.1,4.4-1.8,7.5-4.8,10.5c-13.5,13.4-25.4,28.2-34.7,44.9c-8.8,16-14.4,33-18.4,50.6c-2,8.4-3.5,17-5.7,25.4
	c-3.3,12.2-10.5,19-23.8,20c-10.5,0.8-18.7-4.6-23.7-13.8c-5-9.4-9-19.3-13.5-29c-9.9-20.9-18.8-42.4-31.9-61.6
	c-9.9-14.6-22-27.6-33.2-41.3c-3.1-3.5-5.8-7.3-8.1-11.4c-2.6-4.9-2.1-9.6,1-14.1s7.4-6.5,12.9-5.5c9,1.6,16.3,6.6,23.8,11.2
	c23.9,14.7,41.4,35.3,54.5,59.9c1.3,2.5,2.4,5.1,4.5,7.4c1.7-1.1,2-3,2.6-4.5c14-38.1,35.9-71.7,61-103.3c3.6-4.5,7.7-5.1,12.7-5
	c6.9,0.2,6.9,0,7-6.9c0-1.3,0-2.7,0.1-4c0.4-4.4,1.1-4.9,5.7-3.8c10.8,0.7,11,0.7,10.6-10c-0.2-4.8,1.5-5.8,5.9-5.6
	c10.1,0.3,10.3,0.1,10-9.9c-0.1-4.4,0.9-6.4,5.6-5.7c3.4,0.4,6.9,0.3,10.4,0.4c1.9,2.1,1.4,4.7,1.5,7.1c0.2,6,0.4,6.3,6.2,6.3
	c6.7,0.1,7-0.3,7-7c0-3.6-1.3-5.1-5-5.1c-3.3,0-6.7,0.8-9.7-1.3c0-4.5,0.2-9,0.1-13.4c0-2.2,0.7-2.8,2.8-2.9
	c4.2-0.1,8.5,0.8,12.7-0.6c0.1-3.8,0.5-7.6,0.3-11.4c-0.2-3,0.7-4,3.8-3.9c9.1,0.2,18.3,0.1,27.5,0.1l0.6,0.6
	c1.3,2.8,0.9,5.9,0.8,8.8c-0.1,3.9,1.5,5.5,5.3,5.1c0.8-0.1,1.7-0.1,2.5,0c4.2,0.4,5.6-1.6,5.4-5.6c-0.1-2.8-0.4-5.7,0.6-8.4
	c0.3-0.5,0.7-1,1.1-1.2c4.9-1.2,10-1.2,14.9,0l0.7,0.6c0,9.3-0.1,18.6,0,27.8c0,2.8-0.4,4.2-3.7,4.1c-3.9-0.2-9-1.8-11.5,0.7
	c-2.5,2.4-0.5,7.5-0.8,11.5c-0.1,1.3,0.4,2.7-1,3.6c-0.5-0.1-1-0.2-1.5-0.3c-4.1,0.1-9.3-1.3-12.1,0.7c-3.1,2.2-1,7.7-1.1,11.8
	c0,3-1.1,3.5-3.8,3.6c-3.9,0.1-9-2-11.3,1c-1.9,2.5-0.8,7.4-0.6,11.1c0.1,2.8-0.8,3.8-3.7,3.6c-4-0.2-8-0.1-12-0.1
	c-2.3-2.8-1.5-6.1-1.5-9.1c0-3.8-1.3-5.4-5.2-5.4c-7.2,0-10.3,4.3-7.6,11c0.8,2,2.5,1.9,4.1,2C364,173.1,367.6,172,370.8,174.1z"/>
<path d="M581.1,407.1c-26.1-0.7-50.7-6.7-72.9-20.9c-3.8-2.4-4.7-4.1-1.9-8.2c5.9-8.7,11.1-17.8,16.4-26.8c1.6-2.7,2.6-2.8,5.2-1.1
	c19.4,12.9,41,17.8,64.1,16.2c6.7-0.3,13.2-2.4,18.7-6.1c9.8-6.7,12.3-20,5.6-29.8c-1.7-2.5-4-4.6-6.6-6.2
	c-13.2-8.1-28.3-11.4-42.5-16.7c-10.6-4-20.8-8.5-30.2-15.1c-16.1-11.2-23.1-26.9-24.2-45.8c-2.6-40.9,23.6-60.7,52.9-66.1
	c28.1-5.2,55.7-2.6,82.1,9c7.5,3.3,7.4,3.4,4.1,10.9c-3.5,8-7.2,16-10.5,24.2c-1.6,3.9-3.1,4.9-7.4,3c-15.6-7-32.6-10.1-49.6-9.2
	c-4,0.2-7.9,0.9-11.8,2c-9.5,2.8-14.5,8.5-15.2,16.9c-0.8,9.8,3.6,17.9,12.3,22c8.4,4,17.5,6.3,26.3,9.1
	c14.1,4.4,28.1,9.1,40.7,17.1c23.3,14.8,31.2,36.7,29.3,62.9c-2.1,29.4-24,51.3-57.1,56.9C599.7,406.8,590.4,407.4,581.1,407.1z"/>
<path d="M1335.2,265.3c5.3-5.4,10.2-10.6,15.9-14.9c17.1-12.6,35.9-17.4,56.5-10.8c16.8,5.4,23.8,19.1,27.1,35.3
	c1.4,7.4,2.1,14.9,2,22.4c0,34-0.1,68,0.1,102c0,3.6-0.6,4.9-4.6,4.8c-13-0.3-26-0.3-39,0c-3.8,0.1-4.7-1-4.6-4.7
	c0.2-33.1,0.1-66.3,0.1-99.5c0-2,0-4-0.1-6c-0.6-13.5-8.3-19.6-21.5-17.2c-8.3,1.5-15.1,5.8-21.1,11.5c-2,1.9-1.9,4-1.9,6.4
	c0,34.6-0.1,69.3,0.1,104c0,4.4-1,5.6-5.5,5.5c-12.8-0.3-25.7-0.2-38.5,0c-3.3,0-4.2-0.8-4.2-4.2c0.1-51.8,0.1-103.6,0-155.4
	c0-2.9,0.6-4.1,3.8-4c7.5,0.2,15,0.2,22.5,0c2.6-0.1,3.8,0.7,4.7,3.2C1329.4,250.7,1332.2,257.6,1335.2,265.3z"/>
<path d="M1738.7,292.5c-8.6-35-30.4-54-64.4-55.5c-22.1-1-41.9,4.4-57.4,21.3c-16.3,17.8-22.3,39.3-22.7,62.8
	c-0.4,21.6,3.3,42.1,17.4,59.5c13.4,16.7,31.4,24.6,52.4,26.1c26.1,1.9,50.3-3.1,71.4-19.6c2.2-1.7,2.5-2.8,1-5.1
	c-4.6-6.9-8.9-14-13.3-21.1c-3.9-6.2-3.9-6.3-10.2-2.8c-13.3,7.5-27.3,12.1-42.9,10.4c-11.7-1.3-19.8-7.1-23.4-18.6
	c-1.4-4.4-2.4-9-2.8-13.6h5.6c29.5,0,59,0,88.5,0c2.2,0,4.6,0.9,4.6-3.1C1742.1,319.5,1741.9,305.9,1738.7,292.5z M1690.1,308.3
	c-7.3-0.1-14.7,0-22,0c-7.2,0-14.3,0-21.5,0c-1.9,0-3.2,0-2.8-2.6c1.2-7.5,2.3-15.1,5.9-22c4.5-8.7,11.7-12.9,21.6-12.3
	c9.6,0.6,15.5,6,18.7,14.7c2.3,6.2,2.7,12.6,3.2,19.1C1693.4,307.7,1692.5,308.3,1690.1,308.3L1690.1,308.3z"/>
<path d="M684.9,240.5c15.9,0,31.2,0.1,46.5-0.1c3.7-0.1,3.5,2.4,4,4.4c8.1,31.5,16.2,63.1,24.2,94.6c1.5,6.3,3.4,12.6,5.7,18.7
	c4.1-18.8,8.2-37.6,12.3-56.5c4.1-19,8.2-38,12.2-57c0.6-3,1.6-4.4,5.1-4.3c12.5,0.3,25,0.3,37.5,0c4.7-0.1,4.5,1.4,3.4,5.1
	c-13.7,45.8-27.1,91.7-40.8,137.6c-4.6,15.6-8.1,31.6-16.3,45.9c-12.7,22.2-31.9,33.7-57.4,34.6c-9.3,0.3-18.7-0.4-27.8-2
	c-2.8-0.5-3.2-1.6-2.8-3.9c1.4-8.9,2.8-17.8,4-26.6c0.4-3.1,1.7-3.7,4.6-3.3c7.9,1.1,15.9,1.5,23.9-0.1c8.1-1.6,14.2-6,19-12.6
	c1.8-2.4,1.8-4.5,0.8-7.3c-18.9-54.1-37.8-108.2-56.6-162.3C686,244,685.5,242.6,684.9,240.5z"/>
<path d="M1257.7,346.1L1257.7,346.1c-0.1-17.7,0.2-35.3-0.2-53c-0.6-26.9-15.3-46.9-40.1-53c-31.6-7.8-61.3-1.5-89.5,13.8
	c-2.7,1.4-1.3,2.8-0.5,4.4c4.3,8.2,8.8,16.4,12.8,24.8c1.6,3.3,2.9,3.3,5.9,1.9c14.2-6.3,28.8-11.4,44.7-10.8
	c12.5,0.5,18.2,6.6,19,19c0.3,5.2-1.5,6.5-6.3,7.2c-19.7,3-39.3,6.8-57.4,15.7c-8.6,4.2-16.1,9.6-20.2,18.5
	c-7.2,15.4-7.7,31.3-0.6,46.8c8.1,17.7,30.1,28,52.2,25.5c14.9-1.7,27.7-8,38.9-17.6c2.5-2.1,3.9-2.5,5.2,0.9
	c1.5,3.7,3.6,7.1,5.1,10.8c1,2.4,2.4,3.1,4.9,3c7.2-0.2,14.3-0.3,21.5,0c4.2,0.2,4.8-1.4,4.8-5
	C1257.6,381.4,1257.7,363.7,1257.7,346.1z M1204.9,367.1c-6.1,3.7-12.6,6-19.7,6.1c-9.6,0.2-14.8-3.1-16.9-10.7
	c-2.7-9.4,0.2-18.4,7.6-22.8c8.4-5,17.8-7.1,27.2-9.4c6.6-1.6,6.6-1.5,6.6,5.5c0,3.7,0,7.3,0,11c0,3.8-0.3,7.7,0.1,11.5
	C1210.3,362.7,1208.3,365.1,1204.9,367.1L1204.9,367.1z"/>
<path d="M1534.5,316.7c0,13-0.2,26,0.1,39c0.2,11.1,3.8,14.5,14.7,15.3c5.3,0.3,10.7-0.5,15.8-2.1c2.8-0.8,3.9-0.4,4.3,2.4
	c1.4,9,2.9,18.1,4.5,27.1c0.4,2.1-0.1,3-2,3.6c-17.7,4.9-35.6,7.6-53.7,2.6c-19.5-5.4-30.9-20.1-31.4-42.3
	c-0.7-27.5-0.5-55-0.3-82.5c0-5.1-1-7.1-6.4-6.5c-4.8,0.5-9.7,0-14.5,0.2c-2.7,0.1-3.3-0.8-3.3-3.4c0.2-8.7,0.2-17.3,0-26
	c-0.1-2.9,0.9-3.7,3.7-3.6c5.7,0.2,11.3-0.1,17,0.1c3.2,0.2,4.2-1,4.7-4.1c2.1-13,4.6-25.9,6.7-38.8c0.4-2.7,1.3-3.6,4-3.6
	c10.5,0.1,21,0.2,31.5,0c3.4-0.1,4.5,0.8,4.5,4.4c-0.2,12.7,0,25.3-0.2,38c-0.1,3.3,0.9,4.2,4.1,4.1c8.8-0.2,17.7,0,26.5-0.1
	c2.8,0,4.2,0.3,4.1,3.7c-0.2,8.7-0.2,17.3,0,26c0.1,2.7-0.8,3.3-3.4,3.3c-9.2-0.1-18.3,0.1-27.5-0.1c-3.2-0.1-3.9,0.9-3.8,3.9
	c0.2,13.2,0.1,26.3,0.1,39.5L1534.5,316.7L1534.5,316.7z"/>
<path d="M1766.2,324.6c0-20.4,3.7-38.1,13.6-54.1c12.8-20.6,31.6-31.4,55.5-33.2c21.4-1.7,41.8,1.4,59.7,14.7
	c2.9,2.1,3.8,3.6,1.2,6.9c-6.1,8.1-11.9,16.5-17.5,24.9c-1.8,2.6-3,3-5.7,1c-8.1-6-17.9-9.1-28-8.8c-11.9,0.1-19.9,5.6-24.4,16.4
	c-5.2,12.6-5.5,25.9-4.5,39.3c0.3,4.8,1.1,9.6,2.5,14.2c5.2,17.7,18.5,25.4,36.5,20.9c7.3-1.8,14.1-5.1,20.1-9.6
	c2.4-1.8,3.5-2,5.4,0.6c5.9,8,12,16,18.4,23.6c2.4,2.9,1.5,4.3-0.8,6.3c-17.4,15.3-37.9,20.6-60.6,19.1c-14.8-1-29-4.3-41.2-13.3
	c-17.1-12.6-25.1-30.5-28.6-50.8C1766.7,336.8,1766.3,330.7,1766.2,324.6z"/>
<path d="M464,31.7c2.4,4.9,0.8,10,0.9,15c0,1.8-2,1.3-3.2,1.3c-4.1,0.1-8.3,0.2-12.4,0.3c-4.9,2.6-9.9,1.6-15,0.7l-0.6-0.6
	c0-4.3,0.1-8.6-0.1-12.9c-0.1-2.7,0.8-3.3,3.3-3.3C445.9,32,455,32.8,464,31.7l0.4-0.1L464,31.7z"/>
<path d="M417.7,79.3c0-9.1,0.2-18.2-0.1-27.3c-0.1-3.4,1-4.3,4.2-4c3.9,0.3,7.9,0.3,11.9,0.4l-0.1-0.1c2.9,4.7,1.2,9.8,1.5,14.7
	c-0.1,5.2,0.6,10.3-0.5,15.5c-0.2,0.6-0.6,1.1-1.1,1.4c-4.9,1.3-10.1,1.4-15.1,0.1L417.7,79.3z"/>
<path class="st1" d="M480.5,16.3c0.1-4.1-0.5-8.4,0.4-12.4c1.5-7.1,7.4-2.1,11.2-3.3c2.4-0.8,4.6-0.5,4.7,3.5
	c0.2,12.3,0.4,12.3-11.9,12.3C483.4,16.3,481.9,16.2,480.5,16.3L480.5,16.3z"/>
<path d="M480.5,32.4c-5.5-0.6-11,0.6-16.5-0.7l0,0c2.3-3.8,0.8-7.9,0.9-11.8c0.1-2.7,0.7-3.8,3.6-3.6c4,0.2,8,0,11.9,0l-0.1-0.1
	C481.1,21.5,481.1,27,480.5,32.4L480.5,32.4z"/>
<path d="M401.7,95.3l-0.1-16l-0.1,0.1l16.2-0.1l-0.1-0.1c2.5,5.1,2.5,11.1,0,16.2l0.1-0.1c-5.1,2.5-11.1,2.5-16.2,0L401.7,95.3z"/>
<path d="M449.6,79.2c-0.1,3.8-0.5,7.7-0.1,11.4c0.4,4.2-1.3,5.1-5,4.8s-7.3-0.1-10.9-0.2l0.1,0.2c-2.5-5.1-2.5-11.1,0-16.2l-0.1,0.2
	c5-2.6,10.1-1.8,15.3-0.8L449.6,79.2z"/>
<path class="st1" d="M480.4,32.4c4.5-0.1,9-0.1,13.5-0.2c2.2-0.1,3,0.8,2.8,2.9c0,0.3,0,0.7,0,1c0.3,12.9,0.1,13.1-12.8,12
	c-2.4-0.2-3.1-1-3.1-3.3C480.8,40.6,480.6,36.5,480.4,32.4L480.4,32.4z"/>
<path d="M401.6,79.3c-1.3,0-2.6,0.1-4,0.1c-12.8,0-12.7,0-11.5-13c0.2-2.2,1-3,3-2.8c0.2,0,0.3,0,0.5,0c13.1-0.6,13.9,0.4,11.8,15.8
	L401.6,79.3z"/>
<path class="st2" d="M433.8,63.6l-0.2-15.4c5.2-0.5,10.5-0.5,15.7,0c0.1,5,0.2,10.1,0.4,15.1L449,64
	C443.9,65.1,438.8,65.5,433.8,63.6z"/>
<path d="M449.7,63.4c4.1,0.1,8.5-0.6,12.4,0.5c6.8,1.8,1.6,7.8,2.9,11.6c0.7,1.9,0.6,4.3-3,4c-4.1-0.3-8.3-0.2-12.4-0.3l0.1,0.2
	C447.2,74.3,447.2,68.4,449.7,63.4L449.7,63.4z"/>
<path class="st3" d="M370.8,174.1c-4.5,0.1-9,0-13.4,0.2c-2.2,0.1-3-0.8-2.8-2.9c0-0.3,0-0.7,0-1c-0.3-13.1-0.1-13.2,13-12.1
	c2.1,0.2,2.9,0.8,2.9,2.9c0,4.3,0.1,8.6,0.2,12.9L370.8,174.1z"/>
<path class="st4" d="M354.5,127.5c4.4-0.9,8.9-0.2,13.4-0.4c0.2,0,0.3,0,0.5,0c4.7,3.3,1,8.1,2,12.1c0.5,1.8,0.1,3.8-2.6,3.6
	c-0.2,0-0.3,0-0.5,0c-12.7,0.9-12.7,0.9-12.7-11.9c0-1.2,0-2.3,0-3.5L354.5,127.5z"/>
</svg>
