<?xml version="1.0" encoding="utf-8"?>
<!-- Generator: Adobe Illustrator 19.2.0, SVG Export Plug-In . SVG Version: 6.00 Build 0)  -->
<svg version="1.1" id="Layer_1" xmlns="http://www.w3.org/2000/svg" xmlns:xlink="http://www.w3.org/1999/xlink" x="0px" y="0px"
	 viewBox="0 0 1669.9 366.6" style="enable-background:new 0 0 1669.9 366.6;" xml:space="preserve">
<style type="text/css">
	.st0{fill:#08503A;}
	.st1{fill:#FFFFFF;}
</style>
<title>MSU-Information-Technology</title>
<path class="st0" d="M257.5,260.8c-4.3-6.3-8.4-11.1-11.1-16.5c-8-16.2-15.7-32.6-23-49.2c-5.2-11.8-11.8-22.4-21.9-30.5
	c-18.1-14.5-39.3-19.3-61.9-17.7c-34.5,2.6-63,33.8-62.1,68.4c0.2,10.1,2.9,20.4,5.4,30.3c3.2,12.8,6.9,25.4,4.4,38.8
	c-1,5.5-2,11-3.2,17.4c4.3-0.8,7.9-1.1,11.4-2c16.5-4.2,32.9-8.4,49.3-12.8c3.1-0.8,5.2-0.1,7.7,1.7c20.3,15.1,42.1,28.1,65,39
	c2.9,1.4,6,2.4,9.8,3.8c-7.7-31.6-12-62.5-10.7-93.9c-20.4-1.4-33.1-6.5-39.5-16.3c3.7-2.4,7.1-5.5,11.1-7.2
	c21.1-9,42,4.7,43.2,28.3c0.2,4.4,0,8.9,0,13.8L257.5,260.8z"/>
<path class="st0" d="M0.8,312.9l0.9,1.5c4.1-1.9,8.6-3.3,12.2-5.9c9.5-6.8,15.4-16.5,19.1-27.4c6.4-19.1,6.3-38.6,2.8-58.2
	c-2.4-13.4-5.3-26.9-3-40.6c4.4-26.8,18.3-48.1,39-64.9c34.5-28,74.2-34.2,116.8-25.3c10.2,2.1,20,6,30.3,9.2l23-49.1
	c-22.6-12.1-45.9-19-70.7-20.3C127.8,29.4,89,42.3,54.3,67.9C11.9,99.3-5.6,141.7,1.6,193.7c2.3,16.7,8.5,32.8,12.3,49.3
	C19.5,268,21.7,292.7,0.8,312.9z"/>
<path class="st0" d="M463.4,225.2l0.8,0.2v47.1h11.2v-59.9c-2.4,0.1-4.8,0.1-7.3-0.1c-3.8-0.5-5.7,0.9-6.9,4.6
	c-1.6,5.1-3.9,9.9-5.9,14.9l-8.6,21.4c-4.5-10.9-8.5-20.5-12.5-30.2c-4.7-11.3-4.7-11.3-16.7-10.4v59.6h5.4v-45.6l0.8-0.1l19.9,47.1
	L463.4,225.2z"/>
<path class="st0" d="M622,212.9v24.2h-25.7V213H585v59.7h11.4v-30.8h25.7v30.7h11.2v-59.6H622L622,212.9z"/>
<path class="st0" d="M1429.5,259.3c-4.2-6.1-8.3-12.1-12.4-18.1c8.7-4.6,11.8-9.5,10.2-17.4c-1.3-6.7-7.4-11.1-17.7-11.8
	c-6.4-0.4-12.9-0.1-19.9-0.1v60.6h10.8c0-8.1-0.1-16,0.1-23.9c0-1.5,0.6-4.1,1.3-4.2c1.9-0.4,3.9-0.1,5.6,0.8
	c1.6,0.9,2.8,2.8,3.8,4.5c3.1,4.9,6,10,9.1,14.9c5.2,8.4,9.1,9.9,18.1,7.7C1435.6,268.2,1432.5,263.8,1429.5,259.3z M1414.1,235.6
	c-3.3,4.2-7.8,5.1-13.5,3.7c0-7-0.2-13.6,0.2-20.2c0-1.1,2-2.8,3.2-2.9c4.8-0.7,9,0.8,11.2,5.4
	C1417.5,226.4,1417.4,231.4,1414.1,235.6L1414.1,235.6z"/>
<path d="M1600.9,139.1c0-7.5,0-14.9,0-22.6h-5.5v9.5c-15.2-13.6-30.6-14.6-42-3.5c-10.3,10.2-10.4,26.8-0.2,37.1
	c4.2,4.3,9.8,7,15.8,7.6c10.6,1.4,19-3,26.1-11.6c0.8,10.1,0.7,19.2-8,24.6c-12.4,7.5-24.3,3.4-35.7-3.8l-3,4.2
	c8.5,6.3,17.7,9.1,27.8,8.3c15.9-1.3,24.4-10.4,24.8-26.3C1601,154.8,1600.9,147,1600.9,139.1z M1572.9,162.3
	c-11.7,0-21.2-9.4-21.3-21.2c0,0,0-0.1,0-0.1c0-12.4,9-20.9,21.9-20.8c12.5,0.1,22.3,9.4,22.2,20.9S1585.3,162.3,1572.9,162.3z"/>
<path class="st0" d="M841.4,251.1c-1.6-1.9-2.7-3.1-3.7-4.3c-8.1-10.1-16.1-20.4-24.3-30.4c-1.2-1.5-3.2-3.2-5-3.5
	c-3.3-0.6-6.8-0.2-9.1-0.2c0.8,4.4,2,8.4,2,12.4c0.3,12.1,0.1,24.3,0.1,36.4c0,3.6,0,7.2,0,11h5v-47.5l39.3,49l1-0.4v-60.8h-5.4
	L841.4,251.1L841.4,251.1z"/>
<path d="M708.9,126c-11.6-14.6-22.2-15-37.2-1.4l-0.5-8.1h-4.8v54.6h5c0-9.9-0.3-19.4,0.2-28.8c0.2-4.8,1.3-9.5,3.3-13.9
	c3.3-6.8,10.8-9.7,18.2-8.1c6.5,1.4,11.1,6.7,12,14.3c0.2,2.7,0.3,5.3,0.2,8c0,9.4,0,18.9,0,28.5h5.4c0-5.2-0.1-10,0-14.8
	c0.1-7.1-0.2-14.4,0.6-21.4c1-8.9,8.8-15.5,17.7-14.9c9,0.4,14.7,6.6,15.3,16.5c0.2,3,0.1,6,0.1,9c0,8.6,0,17.2,0,25.9h4.8
	c0-13.5,0.7-26.8-0.2-40c-0.6-9-8.2-15-17.2-16.1C721.9,113.8,714.4,117.8,708.9,126z"/>
<path class="st0" d="M1202.3,272.7v-48l40.3,50.4v-62.9h-5.1v38.9c-9.3-11.6-17.8-22.3-26.3-32.9c-5.4-6.9-9-8-17.1-5.7
	c1,2.5,2.8,5,2.9,7.5c0.3,17.5,0.1,35.1,0.1,52.6L1202.3,272.7L1202.3,272.7z"/>
<path class="st0" d="M721.4,246.8c0,5.1-0.3,10.1,0.1,15c0.3,4.1-1.6,5.7-5.1,6.6c-11.1,2.9-21.8-2.1-26.3-12.7
	c-3.5-7.7-3.9-16.4-1.1-24.4c2.9-8.2,8.6-13.5,17.2-14.8s15.7,1.9,20.6,9.2c0.4,0.5,0.8,1,1.6,2c-0.3-13.1-0.5-13.4-12.7-15.3
	c-3.1-0.5-6.3-0.7-9.4-0.6c-13.5,0.4-24.7,8.7-28.7,21c-4.1,12.8-0.3,26.2,9.8,34.3c10.6,8.5,31.2,8.6,44.7,0.4v-20.7H721.4z"/>
<path class="st0" d="M1136.1,212.1c0.2,3.1,0.4,6.1,0.5,9c0.1,10.7,0,21.3,0,32c0,6.7,2,12.7,7.8,16.4c7.5,5.1,17.1,5.7,25.3,1.8
	c8.2-3.7,9.5-11.3,9.5-19.4c0-13.3,0-26.5,0-39.8h-4.7c0,14.4,0.2,28.5-0.1,42.6c-0.2,9-5.3,13.9-13.6,14s-13.3-4.7-13.4-14
	c-0.3-14.2-0.1-28.4-0.1-42.6L1136.1,212.1L1136.1,212.1z"/>
<path d="M1143,115.3c-11.2,2-19.5,11.7-21.2,24.8c-1.7,13.3,5.1,25.9,16.7,30.6c11.7,4.8,25.1,1.3,32.9-8.6l-3.3-2.9
	c-8.2,7.8-17.3,11.1-27.9,6.4c-8-3.5-11.7-10.4-12.7-19.5h45.5C1175,126.3,1161,112.2,1143,115.3z M1132.4,141.3
	c-1.5,0-3-0.1-4.4-0.2c-0.3-11.3,8.6-20.9,19.5-21.3s19.2,8.5,19.7,21.5C1155.3,141.3,1143.9,141.3,1132.4,141.3L1132.4,141.3z"/>
<path class="st0" d="M571,259.1c-4.2,2.9-8.4,7-13.4,9c-9.4,3.5-19.6-1.2-24.6-10.1c-5.9-10.4-5.1-25.5,1.8-34
	c9.2-11.4,24.8-9.9,35.4,3.4c0.4-12.1-0.1-12.8-11.7-14.8c-1.2-0.2-2.3-0.4-3.5-0.6c-25.3-3.2-43.7,19.2-34.8,42.6
	c5.6,14.8,21.7,22.1,39.4,17.9C570.6,269.9,571,269.4,571,259.1z"/>
<path class="st0" d="M1014.8,272.5l-25.5-61.2l-25.4,61.4h6c2-5.5,2.5-12.5,6.1-15c3.9-2.7,10.8-1.3,16.3-1.5
	c5.1-0.1,9.8,8.3,9.2,16.2L1014.8,272.5L1014.8,272.5z M977.8,251.5l8.3-21.8l8.6,21.8H977.8z"/>
<path class="st0" d="M1445.2,258.5c-0.6,12,1.8,14.6,14.4,15c1.5,0.1,3,0,4.5-0.1c8.2-0.7,15-6.7,16.8-14.8
	c1.8-8.3-1.4-15.4-9.2-19.7c-3.9-2.2-8-4-12-6.2c-6.1-3.4-7.9-8.1-5.2-13c2.6-4.6,9.1-6,14.5-2.6c2.7,1.7,4.8,4.3,7.1,6.4
	c0.8-10.5-0.6-12.1-11-12.5c-1.7-0.1-3.3,0-5,0.2c-6.9,1.1-12.4,4.4-14.4,11.4c-2,7.1-0.4,13.7,6,18.1c4.1,2.8,8.6,5,12.9,7.4
	s7,5.6,6.7,10.7c-0.5,8.8-10,13.3-17.8,8.1C1450.1,264.9,1447.7,261.2,1445.2,258.5z"/>
<path d="M1298.1,171.3c0-12.5,0.4-24.5-0.1-36.4c-0.4-9-4.9-16-14-18.7c-9.4-2.8-18.2-1.6-25.1,6.2c-0.7,0.8-1.5,1.4-2.9,2.7V92.4
	l-5.1,0.2v78.7h4.9c0.1-1.3,0.3-2.5,0.3-3.6c0-9.8-0.2-19.7,0.1-29.5c0.3-10.6,8.6-18.4,19.2-18.4s17,7,17.2,18.5c0,2,0,4,0,6
	c0,8.9,0,17.9,0,27L1298.1,171.3L1298.1,171.3z"/>
<path class="st0" d="M791.5,272.7l-25.6-61.4l-25.3,61.4h5.6l6.8-16.2c6.6,0,14.1-1.9,19.6,0.6c4.1,1.9,6.1,9.3,5.4,15.6
	L791.5,272.7L791.5,272.7z M754.4,251.3l8.3-21.5l8.5,21.5H754.4L754.4,251.3z"/>
<path d="M812.3,133.3c-0.3-8.3-5.5-14.4-13.5-16.7c-9.9-2.8-19.4-1.1-28.9,3.5l1.5,3.2c7.5-1,14.2-2.8,20.8-2.6
	c10.3,0.2,16.1,7.9,14.7,18.4c-2.4-0.4-4.8-1.2-7.2-1.2c-6.9,0-14-0.4-20.8,0.7s-12.1,5.5-13.6,13c-2.1,10.7,5,19.4,16.9,20.9
	c9.6,1.2,18-1.4,25-9.4l0.5,8.2h4.8C812.4,158.2,812.7,145.8,812.3,133.3z M779.3,166.4c-5.5-2.1-8.9-6.4-8.8-11.5
	c0-5.4,3.4-9.8,9.4-11.5c9.1-2.7,18.1-1.1,27.2,1.1C808.5,161.5,794.5,172.2,779.3,166.4L779.3,166.4z"/>
<path class="st0" d="M913,225.7c0.2-11.9-1.8-14-12.6-13.9h-0.5c-8.1,0.2-14.9,4.8-17,11.5c-2.4,7.6,0.1,14.4,7.6,19.4
	c3.4,2.1,6.9,4,10.5,5.7c4.3,2.2,7.5,5.2,7.3,10.3c-0.2,4.2-1.9,7.8-6.1,9.6c-4.6,2.1-9.9,1.2-13.5-2.3c-2.5-2.2-4.3-5.2-6.3-7.8
	c-0.5,12.3,1.8,14.8,14.1,15.2h1.5c9.6,0,17.2-5.3,19.2-13.5c2.4-9.3-1-16.4-10.2-21.4c-4.1-2.2-8.4-4.1-12.3-6.5s-5.4-5.9-3.8-10.3
	s5-5.9,9.5-5.6C906.1,216.6,909.5,220.4,913,225.7z"/>
<path d="M578.5,114.9c-15.8-0.1-28.7,12.7-28.8,28.5c0,0.1,0,0.3,0,0.4c-0.1,16.3,12.5,29.1,28.5,29c16.2-0.1,28.4-12.6,28.4-29.1
	C606.5,127.4,594.3,114.9,578.5,114.9z M578,167.6c-12.6-0.1-22.5-10.6-22.5-23.9s9.9-23.7,22.6-23.7c12.8,0,22.8,10.7,22.7,24.2
	S590.9,167.7,578,167.6z"/>
<path d="M1505,114.9c-16.2-0.2-28.8,12.7-28.8,29.3c0,16.2,12.4,28.7,28.3,28.7s28.6-12.8,28.7-29S1520.9,115,1505,114.9z
	 M1505.1,167.6c-13,0.1-22.9-10.1-23-23.8s9.6-23.8,22.3-23.8c12.6-0.1,22.6,10.3,22.8,23.6S1517.7,167.5,1505.1,167.6L1505.1,167.6
	z"/>
<path d="M926.3,114.9c-15.9,0-28.8,12.9-28.8,28.8c0,0.1,0,0.2,0,0.2c0,16.3,12.6,29,28.7,28.9s28.3-12.7,28.3-29.2
	C954.4,127.3,942.3,115,926.3,114.9z M926.2,167.6c-12.8,0-22.9-10.7-22.7-24.1s10-23.5,22.8-23.4c12.6,0.1,22.4,10.5,22.4,23.9
	C948.6,157.5,939,167.6,926.2,167.6z"/>
<path d="M1408.6,114.9c-16.2-0.1-29,12.9-28.9,29.3c0.1,16.1,12.6,28.7,28.4,28.6c16.1,0,28.5-12.7,28.5-29S1424.5,115,1408.6,114.9
	z M1408,167.6c-12.5-0.1-22.6-10.8-22.4-23.9c0.1-13.4,9.9-23.7,22.6-23.7s22.8,10.8,22.7,24.2S1420.8,167.7,1408,167.6z"/>
<path class="st0" d="M1379,264.7c-7.2,5.4-15,3.6-22.5,3.2c-1-0.4-1.7-1.3-1.9-2.3c-0.2-7.9-0.1-15.9-0.1-24.1h15.7v-4.9h-15.3
	v-20.7l20.2,1v-4.8h-31.6v60.4c-0.2-0.1,0.1,0.1,0.4,0.1c8.8,0,17.7,0.1,26.5,0.1C1377.8,272.9,1377.8,272.9,1379,264.7z"/>
<path class="st0" d="M1103.4,264.8c-6.7,5.7-14.5,3.4-22,3.3c-0.8,0-2-2.3-2.1-3.6c-0.3-4.1-0.1-8.3-0.1-12.5
	c0-11.5,0.4-11.9,12-10.4c1.2,0.2,2.5,0.6,3.7,1v-5.4h-15.4v-20.4l20.6,1.1l-0.3-4.9h-31.4v59.9h26.7
	C1102.6,272.9,1102.6,272.9,1103.4,264.8z"/>
<path class="st0" d="M1594.4,240l-14.4-27.8h-13.3c4.9,8.4,9.3,16.8,14.6,24.6c7.7,11.4,3.5,23.6,4.1,35.8h11.2
	c0-7.6-0.1-15.1,0-22.7c0-2.3-0.1-4.9,0.9-6.8c5-10.4,10.4-20.6,15.6-31h-5.4L1594.4,240z"/>
<path class="st0" d="M1282.3,212.1l25.4,62.2l23.4-62.2h-5.3l-14.5,41.3l-1.3-0.1l-15.4-41.2L1282.3,212.1L1282.3,212.1z"/>
<path class="st0" d="M1531.3,215.9v56.7h11.4v-56.6l17.3,1.4v-5.1h-46v5.2L1531.3,215.9z"/>
<path class="st0" d="M1028.4,216.8v55.8h11.2v-55.8l17.2,1.4v-5.2h-45.3v5.2L1028.4,216.8z"/>
<path class="st0" d="M940.6,216.8v55.8h11.1v-55.8l17.2,1.4v-5.1h-45.4v5L940.6,216.8z"/>
<path d="M1644.3,165.4c-7.3-15.7-14.3-30.2-20.8-44.9c-1.8-4-3.9-5.2-8.2-3.6c8,16.5,15.9,32.8,23.8,49.2c0.9,1.8,2.1,3.7,2.1,5.5
	c-0.1,6.4-8.4,13.2-15.1,12.5c-2.4-0.2-4.8-0.9-7.6-1.5l-1.5,3.9c10.2,5.6,20.5,3.1,26-6.8c3.8-7,6.7-14.5,9.8-21.9
	c5.8-13.6,11.4-27.3,17.2-41.1c-4.1-1.3-6.1-0.2-7.6,3.5C1656.7,134.9,1650.7,149.5,1644.3,165.4z"/>
<path d="M971.1,116.4v54.8h5.2c0-1.8,0-3.5,0-5.1c0-9.3-0.2-18.6,0.1-28c0.3-10.6,8.6-18.4,19.2-18.4c10,0,16.5,6.5,17.2,17.5
	c0.3,4,0.1,8,0.1,12c0,7.3,0,14.5,0,21.9h5.2c0-12.7,0.6-25.2-0.2-37.6c-0.7-10.8-8.6-17.7-19.4-18.6c-8.9-0.8-16.2,2.4-22.3,10.8
	v-9.3L971.1,116.4L971.1,116.4z"/>
<path d="M1098,171.3v-70.5h26v-4.9h-58.2v5.3h26.3v70.1H1098z"/>
<path d="M1322.4,171.3c0-10.7-0.1-21,0-31.3c0.2-11.9,8.4-20.4,19.5-20.2c10.8,0.1,17.1,7.4,17.2,20.1c0.1,9.8,0,19.6,0.1,29.5
	c0.1,0.7,0.3,1.4,0.5,2.1l4.5-0.3c0-13,0.6-25.6-0.2-38.2c-0.6-10-7.9-16.5-17.9-17.9c-9.5-1.3-17.2,1.8-23.9,10.9v-10l-4.8,0.5
	v54.7L1322.4,171.3L1322.4,171.3z"/>
<path d="M350.3,366.5l1,0.1V0h-1V366.5z"/>
<path d="M496,171.3c0.2-0.7,0.3-1.3,0.4-2c0-10.8,0.2-21.6,0-32.5c-0.4-15.1-10.9-23.7-25.9-21.8c-6.6,0.8-11.4,4.6-16.2,10.4v-9.4
	l-4.9,0.3v55l5.1-0.4c0-10.4,0-20.6,0-30.7c0-12.1,8-20.6,19-20.6S491,127.1,491,140c0,9.7,0,19.3,0,29c0.1,0.8,0.3,1.6,0.6,2.3H496
	z"/>
<path d="M1235.4,125.5c-10-11.2-24.8-13.8-36.6-6.7c-12,7.5-17.1,22.5-12,35.8c5,13.2,18.9,20.7,32.7,17.6
	c6.5-1.4,12.2-5.1,16.1-10.4l-3.5-2.9c-12.7,10.8-24.9,11.6-34.1,2.6c-8.9-8.7-10.1-24.1-1.7-33.1c3.7-3.8,8.3-6.4,13.3-7.8
	c8.7-2.3,15.7,2.2,21.7,8.5L1235.4,125.5z"/>
<path class="st0" d="M1491.8,212.1v60.5h11.5v-60.5H1491.8z"/>
<path class="st0" d="M1270.5,272.6v-60.5h-11.4v60.5L1270.5,272.6L1270.5,272.6z"/>
<path class="st0" d="M504.3,272.7V213h-11.4v59.7L504.3,272.7L504.3,272.7z"/>
<path class="st0" d="M651,212.9v59.6h11.3v-59.6H651z"/>
<path d="M524.6,116.1c-2.4-15.4,2.4-20.1,19.7-18.2c-1.3-2.2-1.8-4.7-3.1-5.2c-9.8-3.8-20,2.1-22,12.5c-0.6,3.4-0.7,6.9-1,10.5
	l-7.4,0.8c-1.4,7.6,5.3,3.1,7.9,5.9v48.7h5.6v-50c5.5,0,10.4-0.2,15.2,0.1c3.9,0.2,4.5-1.5,3.5-5.2L524.6,116.1L524.6,116.1z"/>
<path d="M858,166.2c-2.5,0.5-5.1,0.9-7.7,1.1c-6.3,0.1-10.5-2.8-10.7-8.7c-0.4-12.3-0.1-24.6-0.1-37.4c5.5,0,10.6-0.1,15.7,0
	c4.2,0.1,4.3-1.8,2.8-5.3h-18.8V98.4l-5.4,0.5v17l-7.4,0.6c-1.7,7.8,5.2,3.2,7.7,6.1c0,10.9,0,22.3,0,33.8
	c0.1,12.2,8.3,18.6,20.2,15.8C857.6,171.3,859.5,170,858,166.2z"/>
<path class="st0" d="M181.6,102.6c-11.4-3.2-23.3-4.5-35.1-3.8c-2.9,0.2-3.6,1.6-3.7,4.1c-0.2,9.7-0.5,19.3-0.6,29
	c0,1,0.9,2.1,1.4,3.2c0.8-0.8,2.1-1.5,2.4-2.5C150.7,114,163.2,104.9,181.6,102.6z"/>
<path d="M1454.1,92.6v78.9l4.8-0.2V92.6H1454.1z"/>
<path d="M421.5,95.5v76l5.1-0.3V95.8L421.5,95.5z"/>
<path d="M623.3,116.4v55.1l5-0.4c0-4.1,0-7.9,0-11.7c0.1-5-0.2-10,0.3-14.9c1.6-13.9,7.7-19.8,23.9-23.8v-6.6
	c-5.2,2-9.9,3.1-13.9,5.4s-7.5,5.7-10.4,7.9v-10.9H623.3L623.3,116.4z"/>
<path class="st0" d="M119.3,103.5l7.6,34.7c2.6-1.9,6.1-3.1,6.2-4.6c0.4-10.9,0.2-21.8,0.2-33.1L119.3,103.5z"/>
<path class="st0" d="M97.8,111.7l15.1,30l7.4-2.8l-9.2-32.7L97.8,111.7z"/>
<path class="st0" d="M43.4,180.3l-1.6,32.5c1.4-0.3,1.8-0.6,1.9-1.1c3.6-12,10.4-20.6,23.7-22.7c1.2-0.2,2.1-2.4,3.9-4.5L43.4,180.3
	z"/>
<path class="st0" d="M79.3,122.6l21.8,25.7l6.1-3.8l-16.2-29.4L79.3,122.6z"/>
<path class="st0" d="M95,151.7l-21.7-24.7l-9.1,9.8l25.4,19.9L95,151.7z"/>
<path class="st0" d="M53.2,153.3c7.8,3.9,15.1,7.2,22,11.1c4.6,2.6,7.2,1.9,9-3.2l-24.6-18.4L53.2,153.3z"/>
<path d="M880.2,171.2v-55l-4.8,0.3v54.8L880.2,171.2L880.2,171.2z"/>
<path class="st0" d="M76.3,171.5L49,161l-3.3,11l27.8,5.3L76.3,171.5z"/>
<path class="st1" d="M874.7,101.4h6.3v-6.7h-6.2L874.7,101.4L874.7,101.4z"/>
<path class="st0" d="M257.5,260.8l-26.2-4.5c0-4.9,0.2-9.4,0-13.8c-1.3-23.6-22.1-37.3-43.2-28.3c-4,1.7-7.4,4.8-11.1,7.2
	c6.4,9.8,19.1,14.9,39.5,16.3c-1.2,31.4,3,62.3,10.7,93.9c-3.8-1.5-6.9-2.5-9.8-3.8c-22.9-10.9-44.7-23.9-65-39
	c-2.5-1.9-4.6-2.6-7.7-1.7c-16.4,4.4-32.8,8.6-49.3,12.8c-3.5,0.9-7.1,1.3-11.4,2c1.2-6.4,2.2-11.9,3.2-17.4
	c2.4-13.4-1.2-26-4.4-38.8c-2.5-10-5.2-20.2-5.4-30.3c-0.8-34.6,27.7-65.8,62.1-68.4c22.6-1.7,43.8,3.2,61.9,17.7
	c10.1,8.1,16.7,18.7,21.9,30.5c7.2,16.6,15,33,23,49.2C249.1,249.8,253.2,254.5,257.5,260.8z"/>
<path class="st0" d="M0.8,312.9C21.7,292.7,19.5,268,13.8,243c-3.7-16.5-10-32.6-12.3-49.3c-7.2-52,10.4-94.3,52.8-125.8
	C89,42.3,127.8,29.4,171.2,31.7C196,33,219.3,39.9,241.8,52l-23,49.1c-10.3-3.2-20.1-7-30.3-9.2c-42.5-8.9-82.3-2.7-116.8,25.3
	c-20.7,16.8-34.6,38.2-39,64.9c-2.3,13.8,0.6,27.2,3,40.6c3.6,19.7,3.7,39.1-2.8,58.2c-3.7,10.9-9.6,20.6-19.1,27.4
	c-3.6,2.6-8.1,4-12.2,5.9L0.8,312.9z"/>
<path class="st0" d="M463.4,225.2l-19.7,48.6l-19.9-47.1l-0.8,0.1v45.6h-5.4v-59.6c12.1-0.9,12.1-0.9,16.7,10.4
	c4,9.7,8,19.3,12.5,30.2l8.6-21.4c2-4.9,4.2-9.8,5.9-14.9c1.2-3.6,3.1-5,6.9-4.6c2.4,0.2,4.8,0.2,7.3,0.1v59.9h-11.2v-47.1
	L463.4,225.2z"/>
<path class="st0" d="M622,212.9h11.3v59.6h-11.2v-30.6h-25.7v30.8H585V213h11.3v24.1H622L622,212.9L622,212.9z"/>
<path class="st0" d="M1429.5,259.3c-4.2-6.1-8.3-12.1-12.4-18.1c8.7-4.6,11.8-9.5,10.2-17.4c-1.3-6.7-7.4-11.1-17.7-11.8
	c-6.4-0.4-12.9-0.1-19.9-0.1v60.6h10.8c0-8.1-0.1-16,0.1-23.9c0-1.5,0.6-4.1,1.3-4.2c1.9-0.4,3.9-0.1,5.6,0.8
	c1.6,0.9,2.8,2.8,3.8,4.5c3.1,4.9,6,10,9.1,14.9c5.2,8.4,9.1,9.9,18.1,7.7C1435.6,268.2,1432.5,263.8,1429.5,259.3z M1414.1,235.6
	c-3.3,4.2-7.8,5.1-13.5,3.7c0-7-0.2-13.6,0.2-20.2c0-1.1,2-2.8,3.2-2.9c4.8-0.7,9,0.8,11.2,5.4
	C1417.5,226.4,1417.4,231.4,1414.1,235.6L1414.1,235.6z"/>
<path d="M1600.9,139.1c0-7.5,0-14.9,0-22.6h-5.5v9.5c-15.2-13.6-30.6-14.6-42-3.5c-10.3,10.2-10.4,26.8-0.2,37.1
	c4.2,4.3,9.8,7,15.8,7.6c10.6,1.4,19-3,26.1-11.6c0.8,10.1,0.7,19.2-8,24.6c-12.4,7.5-24.3,3.4-35.7-3.8l-3,4.2
	c8.5,6.3,17.7,9.1,27.8,8.3c15.9-1.3,24.4-10.4,24.8-26.3C1601,154.8,1600.9,147,1600.9,139.1z M1572.9,162.3
	c-11.7,0-21.2-9.4-21.3-21.2c0,0,0-0.1,0-0.1c0-12.4,9-20.9,21.9-20.8c12.5,0.1,22.3,9.4,22.2,20.9S1585.3,162.3,1572.9,162.3z"/>
<path class="st0" d="M841.4,251.1v-38.2h5.4v60.8l-1,0.4l-39.3-49v47.4h-5c0-3.8,0-7.4,0-11c0-12.1,0.2-24.3-0.1-36.4
	c-0.1-4-1.3-8.1-2-12.4c2.3,0,5.8-0.4,9.1,0.2c1.8,0.3,3.7,1.9,5,3.5c8.2,10.1,16.2,20.3,24.3,30.4
	C838.7,248,839.8,249.2,841.4,251.1z"/>
<path d="M708.9,126c5.5-8.2,13-12.1,22.9-10.9c9.1,1.1,16.6,7.1,17.2,16.1c0.9,13.2,0.2,26.5,0.2,40h-4.8c0-8.7,0-17.3,0-25.9
	c0-3,0.1-6-0.1-9c-0.6-9.9-6.4-16.1-15.3-16.5c-8.9-0.5-16.7,6.1-17.7,14.9c-0.8,7.1-0.5,14.3-0.6,21.4c-0.1,4.8,0,9.6,0,14.8h-5.4
	c0-9.6,0-19,0-28.5c0.1-2.7,0-5.3-0.2-8c-0.9-7.6-5.5-12.9-12-14.3c-7.3-1.6-14.9,1.3-18.2,8.1c-2,4.4-3.1,9.1-3.3,13.8
	c-0.5,9.4-0.2,18.9-0.2,28.8h-5v-54.6h4.8l0.5,8.1C686.7,111,697.3,111.4,708.9,126z"/>
<path class="st0" d="M1202.3,272.7h-5.1c0-17.6,0.1-35.1-0.1-52.6c0-2.6-1.9-5.1-2.9-7.5c8.1-2.3,11.7-1.1,17.1,5.7
	c8.5,10.7,17,21.3,26.3,32.9v-38.9h5.1v62.8l-40.3-50.4L1202.3,272.7L1202.3,272.7z"/>
<path class="st0" d="M721.4,246.8h10.8v20.7c-13.6,8.2-34.2,8.1-44.7-0.4c-10.1-8.1-14-21.4-9.8-34.3c4-12.3,15.2-20.6,28.7-21
	c3.2-0.1,6.3,0.1,9.4,0.6c12.2,1.9,12.4,2.2,12.7,15.3c-0.8-1-1.2-1.4-1.6-2c-5-7.3-12-10.5-20.6-9.2s-14.4,6.6-17.3,14.8
	c-2.8,7.9-2.4,16.7,1.1,24.3c4.5,10.6,15.2,15.6,26.3,12.7c3.5-0.9,5.4-2.5,5.1-6.6C721.1,256.9,721.4,251.9,721.4,246.8z"/>
<path class="st0" d="M1136.1,212.1h11.2c0,14.2-0.2,28.4,0.1,42.6c0.2,9.2,5.2,14.1,13.4,14s13.4-5,13.6-13.9
	c0.3-14.1,0.1-28.2,0.1-42.6h4.7c0,13.2,0,26.5,0,39.8c0,8-1.3,15.7-9.5,19.4c-8.2,3.9-17.8,3.2-25.3-1.8c-5.9-3.7-7.8-9.7-7.8-16.4
	c-0.1-10.7,0-21.3,0-32C1136.6,218.2,1136.3,215.2,1136.1,212.1z"/>
<path d="M1143,115.3c-11.2,2-19.5,11.7-21.2,24.8c-1.7,13.3,5.1,25.9,16.7,30.6c11.7,4.8,25.1,1.3,32.9-8.6l-3.3-2.9
	c-8.2,7.8-17.3,11.1-27.9,6.4c-8-3.5-11.7-10.4-12.7-19.5h45.5C1175,126.3,1161,112.2,1143,115.3z M1132.4,141.3
	c-1.5,0-3-0.1-4.4-0.2c-0.3-11.3,8.6-20.9,19.5-21.3s19.2,8.5,19.7,21.5C1155.3,141.3,1143.9,141.3,1132.4,141.3L1132.4,141.3z"/>
<path class="st0" d="M571,259.1c-0.1,10.2-0.5,10.8-11.5,13.4c-17.7,4.2-33.8-3.1-39.4-17.9c-8.8-23.4,9.5-45.8,34.8-42.6
	c1.2,0.1,2.3,0.4,3.5,0.6c11.6,2,12.1,2.7,11.7,14.8c-10.5-13.3-26.2-14.8-35.3-3.4c-6.9,8.6-7.7,23.6-1.8,34
	c5,8.9,15.3,13.6,24.6,10.1C562.7,266.1,566.8,262,571,259.1z"/>
<path class="st0" d="M1014.8,272.5l-25.5-61.2l-25.4,61.4h6c2-5.5,2.5-12.5,6.1-15c3.9-2.7,10.8-1.3,16.3-1.5
	c5.1-0.1,9.8,8.3,9.2,16.2L1014.8,272.5L1014.8,272.5z M977.8,251.5l8.3-21.8l8.6,21.8H977.8z"/>
<path class="st0" d="M1445.2,258.5c2.5,2.7,4.9,6.5,8.3,8.7c7.8,5.2,17.3,0.6,17.8-8.1c0.3-5.2-2.5-8.4-6.7-10.7s-8.9-4.6-12.9-7.4
	c-6.4-4.4-8-11-6-18.1c2-7,7.4-10.4,14.4-11.4c1.7-0.2,3.3-0.3,5-0.2c10.4,0.4,11.8,2,11,12.5c-2.3-2.1-4.5-4.7-7.1-6.4
	c-5.4-3.4-11.9-2.1-14.5,2.6c-2.7,4.9-0.9,9.6,5.2,13c3.9,2.2,8,4,12,6.2c7.8,4.3,11,11.3,9.2,19.7c-1.8,8.1-8.6,14-16.8,14.8
	c-1.5,0.1-3,0.1-4.5,0.1C1446.9,273,1444.6,270.5,1445.2,258.5z"/>
<path d="M1298.1,171.3h-5.5c0-9.1,0-18.1,0-27c0-2,0-4,0-6c-0.2-11.5-6.7-18.5-17.2-18.5s-18.9,7.8-19.2,18.4
	c-0.3,9.8-0.1,19.6-0.1,29.5c0,1.1-0.2,2.3-0.3,3.6h-4.9V92.6l5.1-0.2V125c1.4-1.3,2.2-2,2.9-2.7c7-7.8,15.7-9,25.1-6.2
	c9.1,2.7,13.6,9.7,14,18.7C1298.5,146.8,1298.1,158.8,1298.1,171.3z"/>
<path class="st0" d="M791.5,272.7l-25.6-61.4l-25.3,61.4h5.6l6.8-16.2c6.6,0,14.1-1.9,19.6,0.6c4.1,1.9,6.1,9.3,5.4,15.6
	L791.5,272.7L791.5,272.7z M754.4,251.3l8.3-21.5l8.5,21.5H754.4L754.4,251.3z"/>
<path d="M812.3,133.3c-0.3-8.3-5.5-14.4-13.5-16.7c-9.9-2.8-19.4-1.1-28.9,3.5l1.5,3.2c7.5-1,14.2-2.8,20.8-2.6
	c10.3,0.2,16.1,7.9,14.7,18.4c-2.4-0.4-4.8-1.2-7.2-1.2c-6.9,0-14-0.4-20.8,0.7s-12.1,5.5-13.6,13c-2.1,10.7,5,19.4,16.9,20.9
	c9.6,1.2,18-1.4,25-9.4l0.5,8.2h4.8C812.4,158.2,812.7,145.8,812.3,133.3z M779.3,166.4c-5.5-2.1-8.9-6.4-8.8-11.5
	c0-5.4,3.4-9.8,9.4-11.5c9.1-2.7,18.1-1.1,27.2,1.1C808.5,161.5,794.5,172.2,779.3,166.4L779.3,166.4z"/>
<path class="st0" d="M913,225.7c-3.4-5.4-6.9-9.1-12.6-9.5c-4.5-0.3-7.9,1.3-9.5,5.6s-0.1,8,3.8,10.3s8.2,4.3,12.3,6.5
	c9.2,5,12.6,12,10.2,21.4c-2.1,8.2-9.7,13.5-19.2,13.5h-1.5c-12.4-0.4-14.7-2.9-14.1-15.2c2,2.5,3.8,5.5,6.3,7.8
	c3.6,3.5,8.9,4.4,13.5,2.3c4.2-1.8,5.9-5.4,6.1-9.6c0.2-5.1-3-8.2-7.3-10.4c-3.6-1.7-7.1-3.6-10.5-5.7c-7.4-5-9.9-11.8-7.6-19.4
	c2.1-6.7,8.9-11.3,17-11.5h0.5C911.2,211.7,913.2,213.8,913,225.7z"/>
<path d="M578.5,114.9c-15.8-0.1-28.7,12.7-28.8,28.5c0,0.1,0,0.3,0,0.4c-0.1,16.3,12.5,29.1,28.5,29c16.2-0.1,28.4-12.6,28.4-29.1
	C606.5,127.4,594.3,114.9,578.5,114.9z M578,167.6c-12.6-0.1-22.5-10.6-22.5-23.9s9.9-23.7,22.6-23.7c12.8,0,22.8,10.7,22.7,24.2
	S590.9,167.7,578,167.6z"/>
<path d="M1505,114.9c-16.2-0.2-28.8,12.7-28.8,29.3c0,16.2,12.4,28.7,28.3,28.7s28.6-12.8,28.7-29S1520.9,115,1505,114.9z
	 M1505.1,167.6c-13,0.1-22.9-10.1-23-23.8s9.6-23.8,22.3-23.8c12.6-0.1,22.6,10.3,22.8,23.6S1517.7,167.5,1505.1,167.6L1505.1,167.6
	z"/>
<path d="M926.3,114.9c-15.9,0-28.8,12.9-28.8,28.8c0,0.1,0,0.2,0,0.2c0,16.3,12.6,29,28.7,28.9s28.3-12.7,28.3-29.2
	C954.4,127.3,942.3,115,926.3,114.9z M926.2,167.6c-12.8,0-22.9-10.7-22.7-24.1s10-23.5,22.8-23.4c12.6,0.1,22.4,10.5,22.4,23.9
	C948.6,157.5,939,167.6,926.2,167.6z"/>
<path d="M1408.6,114.9c-16.2-0.1-29,12.9-28.9,29.3c0.1,16.1,12.6,28.7,28.4,28.6c16.1,0,28.5-12.7,28.5-29S1424.5,115,1408.6,114.9
	z M1408,167.6c-12.5-0.1-22.6-10.8-22.4-23.9c0.1-13.4,9.9-23.7,22.6-23.7s22.8,10.8,22.7,24.2S1420.8,167.7,1408,167.6z"/>
<path class="st0" d="M1379,264.7c-1.2,8.1-1.2,8.1-8.6,8.1c-8.8,0-17.7,0-26.5-0.1c-0.3,0-0.6-0.2-0.4-0.1v-60.4h31.6v4.8l-20.2-1
	v20.7h15.3v4.9h-15.7c0,8.2-0.1,16.1,0.1,24.1c0.2,1.1,0.9,1.9,1.9,2.3C1364,268.4,1371.8,270.1,1379,264.7z"/>
<path class="st0" d="M1103.4,264.8c-0.8,8.1-0.8,8.1-8.3,8.1h-26.7V213h31.4l0.3,4.9l-20.6-1.1v20.3h15.4v5.4
	c-1.2-0.4-2.4-0.8-3.7-1c-11.6-1.5-12-1.1-12,10.4c0,4.2-0.2,8.3,0.1,12.5c0.1,1.3,1.3,3.6,2.1,3.6
	C1088.9,268.2,1096.8,270.5,1103.4,264.8z"/>
<path class="st0" d="M1594.4,240l13.3-27.8h5.4c-5.3,10.4-10.6,20.6-15.6,31c-0.9,2-0.8,4.5-0.9,6.8c-0.1,7.5,0,15,0,22.7h-11.2
	c-0.7-12.2,3.5-24.4-4.1-35.8c-5.2-7.8-9.6-16.2-14.6-24.6h13.2L1594.4,240z"/>
<path class="st0" d="M1282.3,212.1h12.2l15.4,41.2l1.3,0.1l14.5-41.3h5.3l-23.4,62.2L1282.3,212.1z"/>
<path class="st0" d="M1531.3,215.9l-17.3,1.6v-5.2h46v5.1l-17.3-1.4v56.6h-11.4L1531.3,215.9L1531.3,215.9z"/>
<path class="st0" d="M1028.4,216.8l-16.8,1.4v-5.2h45.3v5.2l-17.2-1.4v55.8h-11.2V216.8z"/>
<path class="st0" d="M940.6,216.8l-17,1.3v-5H969v5.1l-17.2-1.4v55.8h-11.2V216.8z"/>
<path d="M1644.3,165.4c6.4-15.9,12.4-30.4,18.1-45.2c1.5-3.8,3.5-4.8,7.6-3.5c-5.8,13.8-11.4,27.5-17.2,41.1
	c-3.1,7.4-5.9,14.9-9.8,21.9c-5.4,9.9-15.8,12.4-26,6.8l1.5-3.9c2.8,0.6,5.2,1.3,7.6,1.5c6.7,0.7,15-6.1,15.1-12.5
	c0-1.8-1.2-3.7-2.1-5.5c-7.9-16.3-15.8-32.6-23.8-49.2c4.2-1.5,6.4-0.3,8.2,3.6C1630,135.1,1637,149.7,1644.3,165.4z"/>
<path d="M971.1,116.4h5.1v9.3c6.1-8.4,13.4-11.5,22.3-10.8c10.8,0.9,18.7,7.8,19.4,18.6c0.8,12.4,0.2,24.9,0.2,37.6h-5.2
	c0-7.4,0-14.7,0-21.9c0-4,0.2-8-0.1-12c-0.7-11-7.2-17.5-17.2-17.5c-10.5,0-18.9,7.8-19.2,18.4c-0.3,9.3-0.1,18.6-0.1,28
	c0,1.6,0,3.3,0,5.1h-5.2L971.1,116.4L971.1,116.4z"/>
<path d="M1098,171.3h-5.8v-70.2h-26.3v-5.3h58.2v4.9h-26V171.3z"/>
<path d="M1322.4,171.3h-5v-54.7l4.8-0.5v10c6.6-9.1,14.4-12.2,23.9-10.9c10,1.4,17.3,7.8,17.9,17.9c0.8,12.6,0.2,25.2,0.2,38.2
	l-4.5,0.3c-0.2-0.7-0.4-1.4-0.5-2.1c0-9.8,0-19.6-0.1-29.5c-0.1-12.7-6.4-19.9-17.2-20.1c-11.1-0.1-19.3,8.3-19.5,20.2
	C1322.3,150.3,1322.4,160.6,1322.4,171.3z"/>
<path d="M350.3,366.5V0h1v366.6L350.3,366.5z"/>
<path d="M496,171.3h-4.4c-0.3-0.7-0.5-1.5-0.6-2.3c0-9.7,0-19.3,0-29c0-12.9-6.4-20.2-17.6-20.2s-19,8.5-19,20.6
	c0,10.1,0,20.3,0,30.7l-5.1,0.4v-55l4.9-0.3v9.4c4.9-5.8,9.6-9.6,16.2-10.4c15-1.9,25.5,6.7,25.9,21.8c0.3,10.8,0.1,21.6,0,32.5
	C496.3,170,496.2,170.7,496,171.3z"/>
<path d="M1235.4,125.5l-4.1,3.5c-5.9-6.2-13-10.8-21.7-8.5c-5.1,1.3-9.7,4-13.3,7.8c-8.4,9-7.1,24.4,1.7,33.1
	c9.2,9,21.3,8.1,34.1-2.6l3.5,2.9c-3.9,5.3-9.6,9-16.1,10.4c-13.7,3.1-27.7-4.4-32.7-17.6c-5.1-13.3,0-28.3,12-35.8
	C1210.6,111.7,1225.5,114.3,1235.4,125.5z"/>
<path class="st0" d="M1491.8,212.1h11.5v60.5h-11.5V212.1z"/>
<path class="st0" d="M1270.5,272.6h-11.4v-60.5h11.4V272.6L1270.5,272.6z"/>
<path class="st0" d="M504.3,272.7h-11.4V213h11.4V272.7L504.3,272.7z"/>
<path class="st0" d="M651,212.9h11.3v59.6H651V212.9z"/>
<path d="M524.6,116.1h18.2c1,3.7,0.5,5.4-3.5,5.2c-4.8-0.2-9.6-0.1-15.2-0.1v50h-5.6v-48.7c-2.5-2.8-9.3,1.7-7.9-5.9l7.4-0.8
	c0.3-3.7,0.4-7.2,1-10.5c1.9-10.4,12.1-16.3,22-12.5c1.3,0.5,1.8,2.9,3.1,5.2C527,96,522.2,100.6,524.6,116.1z"/>
<path d="M858,166.2c1.5,3.8-0.5,5.1-3.7,5.9c-11.9,2.8-20.2-3.6-20.2-15.8c-0.1-11.5,0-22.9,0-33.8c-2.5-2.9-9.3,1.7-7.7-6.1
	l7.4-0.6v-17l5.4-0.5V116H858c1.5,3.5,1.3,5.4-2.8,5.3c-5.1-0.1-10.2,0-15.7,0c0,12.9-0.3,25.1,0.1,37.4c0.2,5.8,4.4,8.8,10.7,8.7
	C852.9,167.1,855.5,166.7,858,166.2z"/>
<path class="st0" d="M181.6,102.6c-18.4,2.3-30.9,11.3-35.6,29.9c-0.2,1-1.6,1.7-2.4,2.5c-0.5-1.1-1.4-2.1-1.4-3.2
	c0.1-9.7,0.4-19.3,0.6-29c0-2.5,0.8-4,3.7-4.1C158.3,98.1,170.2,99.4,181.6,102.6z"/>
<path d="M1454.1,92.6h4.8v78.6l-4.8,0.2V92.6z"/>
<path d="M421.5,95.5l5.1,0.3v75.4l-5.1,0.3V95.5L421.5,95.5z"/>
<path d="M623.3,116.4h4.9v10.9c2.9-2.3,6.4-5.7,10.4-7.9s8.7-3.4,13.9-5.4v6.6c-16.2,4-22.4,9.9-23.9,23.8c-0.6,4.9-0.3,10-0.3,14.9
	c0,3.8,0,7.6,0,11.7l-5,0.4L623.3,116.4L623.3,116.4z"/>
<path class="st0" d="M119.3,103.5l14-3c0,11.3,0.2,22.2-0.2,33.1c-0.1,1.4-3.5,2.7-6.2,4.6L119.3,103.5z"/>
<path class="st0" d="M97.8,111.7l13.3-5.5l9.2,32.7l-7.4,2.8L97.8,111.7z"/>
<path class="st0" d="M43.4,180.3l27.9,4.3c-1.7,2.1-2.6,4.3-3.9,4.5c-13.3,2.1-20,10.7-23.7,22.7c-0.1,0.4-0.5,0.8-1.9,1.1
	L43.4,180.3z"/>
<path class="st0" d="M79.3,122.6l11.7-7.4l16.2,29.4l-6.1,3.8L79.3,122.6z"/>
<path class="st0" d="M95,151.7l-5.4,4.9l-25.4-19.8l9.1-9.7L95,151.7z"/>
<path class="st0" d="M53.2,153.3l6.4-10.5l24.6,18.4c-1.9,5.1-4.5,5.9-9,3.2C68.2,160.5,61,157.2,53.2,153.3z"/>
<path d="M880.2,171.2h-4.8v-54.8l4.8-0.3V171.2L880.2,171.2z"/>
<path class="st0" d="M76.3,171.5l-2.8,5.8L45.8,172l3.2-11L76.3,171.5z"/>
<path class="st1" d="M874.7,101.4v-6.7h6.3v6.7L874.7,101.4L874.7,101.4z"/>
</svg>
