<?xml version="1.0" encoding="utf-8"?>
<svg xmlns="http://www.w3.org/2000/svg" xmlns:xlink="http://www.w3.org/1999/xlink" version="1.1" x="0px" y="0px" viewBox="0 0 161.8 21.8" style="enable-background:new 0 0 161.8 21.8;" xml:space="preserve">
<style>
  .logo-fill { fill:#e7e7e7 }
</style>
<g class="logo-fill">
	<g>
		<path d="M33.1,2.9h-7.3V0.3h17.6v2.6h-7.3v18.8h-3V2.9z"/>
		<path d="M46.6,5.6c4.3,0,6.6,3.2,6.6,7.2c0,0.4-0.1,1.3-0.1,1.3H42c0.2,3.4,2.5,5.1,5.3,5.1      c2.6,0,4.5-1.8,4.5-1.8l1.2,2.2c0,0-2.3,2.2-5.9,2.2c-4.8,0-8.1-3.5-8.1-8C39,8.7,42.3,5.6,46.6,5.6z M50.3,11.8      c-0.1-2.6-1.7-3.9-3.7-3.9c-2.2,0-4.1,1.4-4.5,3.9H50.3z" class="svg-logo-bg"/>
		<path d="M62.7,5.5c3.9,0,5.8,2.2,5.8,2.2l-1.4,2.1c0,0-1.6-1.8-4.2-1.8c-3.1,0-5.3,2.3-5.3,5.5      c0,3.1,2.2,5.5,5.4,5.5c2.9,0,4.7-2.1,4.7-2.1l1.2,2.2c0,0-2.1,2.5-6.1,2.5c-4.8,0-8.2-3.4-8.2-8C54.5,9,57.9,5.5,62.7,5.5z"/>
		<path d="M70.3,0.2h2.9v7.8c0,0.7-0.1,1.3-0.1,1.3h0.1c0.7-1.5,2.6-3.4,5.7-3.4c3.6,0,5.3,2,5.3,5.9v9.8h-2.9      v-9.2c0-2.2-0.5-3.9-2.9-3.9c-2.3,0-4.2,1.6-4.9,3.8c-0.2,0.6-0.2,1.3-0.2,2v7.2h-2.9V0.2z"/>
		<path d="M87.6,16.8c0,0,2.2,2.3,5.4,2.3c2,0,3.6-1.1,3.6-3.1c0-4.6-10.2-3.6-10.2-10.1c0-3.3,2.8-5.9,6.8-5.9      c3.9,0,6,2.1,6,2.1l-1.3,2.5c0,0-1.9-1.8-4.6-1.8c-2.2,0-3.8,1.4-3.8,3.1c0,4.4,10.2,3.2,10.2,10c0,3.3-2.5,5.9-6.7,5.9      c-4.5,0-7-2.8-7-2.8L87.6,16.8z"/>
		<path d="M101,6.3h2.9v2c0,0.6-0.1,1.1-0.1,1.1h0.1c0.7-1.8,2.9-3.5,5.3-3.5c2.6,0,4.1,1.2,4.6,3.5h0.1      c0.8-1.9,3-3.5,5.5-3.5c3.5,0,5.1,2,5.1,5.9v9.8h-2.9v-9.2c0-2.2-0.4-3.9-2.7-3.9c-2.2,0-3.8,1.8-4.3,3.9      c-0.2,0.6-0.2,1.3-0.2,2.1v7h-2.9v-9.2c0-2-0.3-3.9-2.7-3.9c-2.2,0-3.8,1.9-4.4,4c-0.2,0.6-0.2,1.3-0.2,2v7H101V6.3z"/>
		<path d="M126.4,0.3l3,0v3h-3V0.3z M126.4,6.3h2.9v15.3h-2.9V6.3z"/>
		<path d="M132.9,8.7h-2V6.3h2l0-4.3h2.9l0,4.3h3.7v2.4h-3.7l0,6.9c0,3.2,2.2,3.6,3.3,3.6c0.4,0,0.7-0.1,0.7-0.1      v2.6c0,0-0.4,0.1-1,0.1c-2,0-5.9-0.6-5.9-5.7L132.9,8.7z"/>
		<path d="M141.2,0.2l3,0l0,7.8c0,0.7-0.1,1.3-0.1,1.3h0.1c0.7-1.5,2.6-3.4,5.7-3.4c3.6,0,5.3,2,5.3,5.9v9.8h-2.9      v-9.2c0-2.2-0.5-3.9-2.9-3.9c-2.3,0-4.2,1.6-4.9,3.8c-0.2,0.6-0.2,1.3-0.2,2v7.2h-2.9L141.2,0.2z"/>
		<g>
			<polygon  points="0,2.3 0,19.6 8.6,10.9"/>
			<polygon  points="21.4,19.6 21.4,0.2 2.1,0.2"/>
			<polygon  points="2,21.6 19.3,21.6 10.7,13"/>
		</g>
	</g>
	<g>
		<path  d="M158.8,0.3c1.7,0,3,1.4,3,3.1c0,1.7-1.3,3.1-3,3.1c-1.6,0-3-1.3-3-3.1C155.9,1.7,157.2,0.3,158.8,0.3z   M158.8,6c1.4,0,2.5-1.1,2.5-2.6c0-1.5-1.1-2.6-2.5-2.6c-1.4,0-2.5,1.1-2.5,2.6C156.4,4.9,157.4,6,158.8,6z M157.8,1.8h1.2      c0.6,0,1,0.4,1,1c0,0.5-0.3,0.8-0.6,0.9v0c0,0,0,0,0.1,0.2l0.6,1.2h-0.5l-0.7-1.3h-0.6V5h-0.5V1.8z M158.9,3.3      c0.4,0,0.6-0.2,0.6-0.6c0-0.4-0.2-0.6-0.6-0.6h-0.6v1.2H158.9z"/>
	</g>
</g>
</svg>
