<svg id="Layer_1" data-name="Layer 1" xmlns="http://www.w3.org/2000/svg" viewBox="0 0 542.87 140.11"><defs><style>.cls-1{fill:#20bfdc;}</style></defs><title>UltraPress</title><path class="cls-1" d="M34.44,65.88a17.6,17.6,0,0,0,9.16-2.22,17.91,17.91,0,0,0,6-5.78,23.92,23.92,0,0,0,3.22-8.17,47.32,47.32,0,0,0,.94-9.5V0H69V40.22A57.53,57.53,0,0,1,67,55.43a34.9,34.9,0,0,1-6.11,12.44,29.29,29.29,0,0,1-10.72,8.44,36.26,36.26,0,0,1-15.66,3.11q-9.44,0-16.05-3.28A30,30,0,0,1,7.77,67.49,34.57,34.57,0,0,1,1.83,55,58.93,58.93,0,0,1,0,40.22V0H15.33V40.22a47.68,47.68,0,0,0,.94,9.61A23.81,23.81,0,0,0,19.5,58a17.56,17.56,0,0,0,5.94,5.72A17.43,17.43,0,0,0,34.44,65.88Z" transform="translate(0 2.22)"/><path class="cls-1" d="M82.32-2.22H97.2V60.21a7.34,7.34,0,0,0,1.56,5A5.58,5.58,0,0,0,103.2,67a11.09,11.09,0,0,0,2.94-.44,19.78,19.78,0,0,0,3.06-1.11l2,11.33a28.8,28.8,0,0,1-7,2.22,38.24,38.24,0,0,1-7.22.78q-7,0-10.83-3.72T82.32,65.43V-2.22Z" transform="translate(0 2.22)"/><path class="cls-1" d="M152.52,75.87a66.48,66.48,0,0,1-7.33,2.66,30.85,30.85,0,0,1-9.11,1.33,21.26,21.26,0,0,1-5.83-.77,12.79,12.79,0,0,1-4.78-2.5,12.18,12.18,0,0,1-3.28-4.44A16.08,16.08,0,0,1,121,65.54V32.1h-7.66V20.66H121V1.78h14.89V20.66h12.22V32.1H135.86V60.54q0,3.11,1.61,4.39a6.14,6.14,0,0,0,3.94,1.28,13.71,13.71,0,0,0,4.55-.77q2.22-.78,3.56-1.33Z" transform="translate(0 2.22)"/><path class="cls-1" d="M195,33.55a29.36,29.36,0,0,0-12.11,2.61,15.28,15.28,0,0,0-7.66,7.5V78.87H160.29V20.66H174V33.1a26.42,26.42,0,0,1,3.67-5.39,28.21,28.21,0,0,1,4.55-4.17,21.26,21.26,0,0,1,4.94-2.72,13.68,13.68,0,0,1,4.83-.94h1.83A6,6,0,0,1,195,20V33.55Z" transform="translate(0 2.22)"/><path class="cls-1" d="M218.39,80a22.09,22.09,0,0,1-7.89-1.39,19,19,0,0,1-6.33-3.89A18.12,18.12,0,0,1,200,68.87a17.68,17.68,0,0,1-1.5-7.33,16.16,16.16,0,0,1,1.83-7.61A17.45,17.45,0,0,1,205.45,48a25.35,25.35,0,0,1,7.83-3.83,34.17,34.17,0,0,1,10-1.39,43.1,43.1,0,0,1,7.61.67,31.17,31.17,0,0,1,6.61,1.89V42q0-5.77-3.28-8.89T224.5,30a25.79,25.79,0,0,0-9.11,1.67,42.24,42.24,0,0,0-9.11,4.89l-4.55-9.44a43,43,0,0,1,24.22-7.44q12.55,0,19.5,6.17t6.94,17.83V61.76a5.23,5.23,0,0,0,.83,3.33,3.64,3.64,0,0,0,2.72,1.11V78.87a33.2,33.2,0,0,1-6.55.78,9.92,9.92,0,0,1-6.5-1.89,8.12,8.12,0,0,1-2.83-5l-0.33-3.22a25.78,25.78,0,0,1-9.44,7.77A27.1,27.1,0,0,1,218.39,80Zm4.22-10.89a19.35,19.35,0,0,0,7.16-1.33,13,13,0,0,0,5.28-3.56A5.34,5.34,0,0,0,237.5,60V53.32a36.69,36.69,0,0,0-5.78-1.61,31.15,31.15,0,0,0-6-.61,15.91,15.91,0,0,0-9.44,2.61,7.84,7.84,0,0,0-3.67,6.61,8,8,0,0,0,2.89,6.28A10.49,10.49,0,0,0,222.61,69.1Z" transform="translate(0 2.22)"/><path class="cls-1" d="M267.71,78.87V0h33.44A22.38,22.38,0,0,1,311.2,2.28a26,26,0,0,1,7.94,6,28.37,28.37,0,0,1,5.22,8.44,25.4,25.4,0,0,1,1.89,9.5,27.35,27.35,0,0,1-1.78,9.72,26.93,26.93,0,0,1-5,8.39,24.58,24.58,0,0,1-7.77,5.89,22.49,22.49,0,0,1-10,2.22H283V78.87H267.71ZM283,39h17.77a8.78,8.78,0,0,0,7.05-3.44q2.83-3.44,2.83-9.33a15.33,15.33,0,0,0-.89-5.39,13.09,13.09,0,0,0-2.33-4.06,9.3,9.3,0,0,0-3.39-2.5,9.91,9.91,0,0,0-3.95-.83H283V39Z" transform="translate(0 2.22)"/><path class="cls-1" d="M370.13,33.55A29.36,29.36,0,0,0,358,36.16a15.28,15.28,0,0,0-7.66,7.5V78.87H335.47V20.66h13.66V33.1a26.42,26.42,0,0,1,3.67-5.39,28.21,28.21,0,0,1,4.55-4.17,21.26,21.26,0,0,1,4.94-2.72,13.68,13.68,0,0,1,4.83-.94H369a6,6,0,0,1,1.17.11V33.55Z" transform="translate(0 2.22)"/><path class="cls-1" d="M402.57,80a32.29,32.29,0,0,1-12.66-2.39,28.55,28.55,0,0,1-15.83-16.05,30.64,30.64,0,0,1-2.17-11.44A32.38,32.38,0,0,1,374,38.38a28.56,28.56,0,0,1,6.11-9.66,29.16,29.16,0,0,1,9.72-6.61,32.34,32.34,0,0,1,12.83-2.45,31.57,31.57,0,0,1,12.72,2.45A29.22,29.22,0,0,1,425,28.66a27.82,27.82,0,0,1,6,9.55A31.77,31.77,0,0,1,433,49.55q0,1.45-.06,2.78a11.34,11.34,0,0,1-.28,2.22h-45a17.33,17.33,0,0,0,1.67,6.11,15,15,0,0,0,8.22,7.44,15.65,15.65,0,0,0,5.55,1,17.18,17.18,0,0,0,8.39-2.17,11.49,11.49,0,0,0,5.39-5.72l12.78,3.56A26,26,0,0,1,419.4,75.71,31.87,31.87,0,0,1,402.57,80Zm15.11-35.1a15.49,15.49,0,0,0-4.83-10.5,15.16,15.16,0,0,0-20.61.05A15.23,15.23,0,0,0,389,39a16,16,0,0,0-1.5,5.89h30.21Z" transform="translate(0 2.22)"/><path class="cls-1" d="M464.11,80a45,45,0,0,1-14.33-2.33,34.9,34.9,0,0,1-12-6.67l5.55-9.33a47.77,47.77,0,0,0,10.39,5.72,27.87,27.87,0,0,0,10.05,1.94,12.7,12.7,0,0,0,7-1.67,5.37,5.37,0,0,0,2.56-4.78,4.77,4.77,0,0,0-3-4.55A65.14,65.14,0,0,0,460.56,55q-5.67-1.55-9.66-3a24.71,24.71,0,0,1-6.44-3.28,11.16,11.16,0,0,1-3.56-4.22,13.47,13.47,0,0,1-1.11-5.72,18.11,18.11,0,0,1,1.72-8,17.42,17.42,0,0,1,4.83-6.05,22.37,22.37,0,0,1,7.28-3.84,29.58,29.58,0,0,1,9.05-1.33,38.94,38.94,0,0,1,12.27,1.89,29.93,29.93,0,0,1,10.5,6.11l-6,9a34.89,34.89,0,0,0-8.61-4.89,23.58,23.58,0,0,0-8.28-1.56,12,12,0,0,0-6.33,1.56,5.41,5.41,0,0,0-2.55,5,4.8,4.8,0,0,0,.61,2.55A5.35,5.35,0,0,0,456.22,41a19,19,0,0,0,3.5,1.5q2.17,0.72,5.39,1.5,6,1.56,10.28,3.11a28,28,0,0,1,7,3.56,12.69,12.69,0,0,1,4,4.61,14.2,14.2,0,0,1,1.28,6.28A16.2,16.2,0,0,1,481.33,75Q475,80,464.11,80Z" transform="translate(0 2.22)"/><path class="cls-1" d="M519.32,80A45,45,0,0,1,505,77.65,34.9,34.9,0,0,1,493,71l5.55-9.33a47.77,47.77,0,0,0,10.39,5.72A27.87,27.87,0,0,0,519,69.32a12.7,12.7,0,0,0,7-1.67,5.37,5.37,0,0,0,2.56-4.78,4.77,4.77,0,0,0-3-4.55A65.14,65.14,0,0,0,515.77,55q-5.67-1.55-9.66-3a24.71,24.71,0,0,1-6.44-3.28,11.16,11.16,0,0,1-3.56-4.22A13.47,13.47,0,0,1,495,38.77a18.11,18.11,0,0,1,1.72-8,17.42,17.42,0,0,1,4.83-6.05,22.37,22.37,0,0,1,7.28-3.84,29.58,29.58,0,0,1,9.05-1.33,38.94,38.94,0,0,1,12.27,1.89,29.93,29.93,0,0,1,10.5,6.11l-6,9A34.89,34.89,0,0,0,526,31.66a23.58,23.58,0,0,0-8.28-1.56,12,12,0,0,0-6.33,1.56,5.41,5.41,0,0,0-2.55,5,4.8,4.8,0,0,0,.61,2.55A5.35,5.35,0,0,0,511.43,41a19,19,0,0,0,3.5,1.5q2.17,0.72,5.39,1.5,6,1.56,10.28,3.11a28,28,0,0,1,7,3.56,12.69,12.69,0,0,1,4,4.61,14.2,14.2,0,0,1,1.28,6.28A16.2,16.2,0,0,1,536.54,75Q530.21,80,519.32,80Z" transform="translate(0 2.22)"/><path class="cls-1" d="M16.88,123.64a6.84,6.84,0,0,0,3.56-.86,7,7,0,0,0,2.33-2.25A9.29,9.29,0,0,0,24,117.35a18.39,18.39,0,0,0,.37-3.69V98h5.92v15.63a22.36,22.36,0,0,1-.76,5.92,13.59,13.59,0,0,1-2.38,4.84A11.38,11.38,0,0,1,23,127.7a14.09,14.09,0,0,1-6.09,1.21,13.93,13.93,0,0,1-6.24-1.27,11.63,11.63,0,0,1-4.17-3.37,13.45,13.45,0,0,1-2.31-4.86,22.91,22.91,0,0,1-.71-5.74V98h6v15.63a18.56,18.56,0,0,0,.37,3.74,9.25,9.25,0,0,0,1.25,3.17,6.83,6.83,0,0,0,2.31,2.22A6.77,6.77,0,0,0,16.88,123.64Z" transform="translate(0 2.22)"/><path class="cls-1" d="M35.5,97.16h5.79v24.27a2.85,2.85,0,0,0,.6,1.94,2.17,2.17,0,0,0,1.73.69,4.34,4.34,0,0,0,1.14-.17,7.87,7.87,0,0,0,1.19-.43l0.78,4.41a11.18,11.18,0,0,1-2.72.86,14.88,14.88,0,0,1-2.81.3A5.79,5.79,0,0,1,37,127.59a5.48,5.48,0,0,1-1.49-4.12V97.16Z" transform="translate(0 2.22)"/><path class="cls-1" d="M62.8,127.53a25.62,25.62,0,0,1-2.85,1,12,12,0,0,1-3.54.52,8.23,8.23,0,0,1-2.27-.3,5,5,0,0,1-1.86-1A4.73,4.73,0,0,1,51,126.08a6.25,6.25,0,0,1-.48-2.57v-13h-3v-4.45h3V98.72h5.79v7.34h4.75v4.45H56.32v11.06a2.06,2.06,0,0,0,.63,1.71,2.39,2.39,0,0,0,1.53.5,5.33,5.33,0,0,0,1.77-.3q0.86-.3,1.38-0.52Z" transform="translate(0 2.22)"/><path class="cls-1" d="M79.29,111.07a11.41,11.41,0,0,0-4.71,1,5.94,5.94,0,0,0-3,2.92v13.69H65.82V106.06h5.31v4.84a10.33,10.33,0,0,1,1.43-2.09,11,11,0,0,1,1.77-1.62,8.26,8.26,0,0,1,1.92-1.06,5.32,5.32,0,0,1,1.88-.37h0.71a2.35,2.35,0,0,1,.45,0v5.27Z" transform="translate(0 2.22)"/><path class="cls-1" d="M88.41,129.12a8.58,8.58,0,0,1-3.07-.54,7.35,7.35,0,0,1-2.46-1.51,7,7,0,0,1-1.62-2.27,6.87,6.87,0,0,1-.58-2.85,6.28,6.28,0,0,1,.71-3,6.78,6.78,0,0,1,2-2.31,9.86,9.86,0,0,1,3-1.49,13.3,13.3,0,0,1,3.89-.54,16.75,16.75,0,0,1,3,.26,12,12,0,0,1,2.57.73v-1.29a4.54,4.54,0,0,0-1.27-3.46,5.3,5.3,0,0,0-3.78-1.21,10,10,0,0,0-3.54.65,16.47,16.47,0,0,0-3.54,1.9l-1.77-3.67a16.71,16.71,0,0,1,9.42-2.89q4.88,0,7.58,2.4t2.7,6.93v7a2,2,0,0,0,.32,1.3,1.42,1.42,0,0,0,1.06.43v4.92a12.92,12.92,0,0,1-2.55.3,3.86,3.86,0,0,1-2.53-.73,3.15,3.15,0,0,1-1.1-1.94l-0.13-1.25a10,10,0,0,1-3.67,3A10.55,10.55,0,0,1,88.41,129.12ZM90,124.89a7.54,7.54,0,0,0,2.79-.52A5.06,5.06,0,0,0,94.89,123a2.08,2.08,0,0,0,1-1.64v-2.59a14.22,14.22,0,0,0-2.25-.63,12.19,12.19,0,0,0-2.33-.24,6.18,6.18,0,0,0-3.67,1,3,3,0,0,0-1.43,2.57,3.09,3.09,0,0,0,1.12,2.44A4.08,4.08,0,0,0,90,124.89Z" transform="translate(0 2.22)"/><path class="cls-1" d="M117.95,128.69V98h20.6v5.23H123.91v7.9h12.18V116H123.91v12.7h-6Z" transform="translate(0 2.22)"/><path class="cls-1" d="M144.68,129.12a8.58,8.58,0,0,1-3.07-.54,7.35,7.35,0,0,1-2.46-1.51,7,7,0,0,1-1.62-2.27A6.87,6.87,0,0,1,137,122a6.28,6.28,0,0,1,.71-3,6.78,6.78,0,0,1,2-2.31,9.86,9.86,0,0,1,3-1.49,13.3,13.3,0,0,1,3.89-.54,16.75,16.75,0,0,1,3,.26,12,12,0,0,1,2.57.73v-1.29a4.54,4.54,0,0,0-1.27-3.46,5.3,5.3,0,0,0-3.78-1.21,10,10,0,0,0-3.54.65,16.47,16.47,0,0,0-3.54,1.9l-1.77-3.67a16.71,16.71,0,0,1,9.42-2.89q4.88,0,7.58,2.4t2.7,6.93v7a2,2,0,0,0,.32,1.3,1.42,1.42,0,0,0,1.06.43v4.92a12.92,12.92,0,0,1-2.55.3,3.86,3.86,0,0,1-2.53-.73,3.15,3.15,0,0,1-1.1-1.94L153,125.06a10,10,0,0,1-3.67,3A10.55,10.55,0,0,1,144.68,129.12Zm1.64-4.23a7.54,7.54,0,0,0,2.79-.52,5.06,5.06,0,0,0,2.05-1.38,2.08,2.08,0,0,0,1-1.64v-2.59a14.22,14.22,0,0,0-2.25-.63,12.19,12.19,0,0,0-2.33-.24,6.18,6.18,0,0,0-3.67,1,3,3,0,0,0-1.43,2.57,3.09,3.09,0,0,0,1.12,2.44A4.08,4.08,0,0,0,146.33,124.89Z" transform="translate(0 2.22)"/><path class="cls-1" d="M171.85,129.12a17.51,17.51,0,0,1-5.57-.91,13.6,13.6,0,0,1-4.66-2.59l2.16-3.63a18.57,18.57,0,0,0,4,2.22,10.82,10.82,0,0,0,3.91.75,4.94,4.94,0,0,0,2.72-.65,2.09,2.09,0,0,0,1-1.86,1.86,1.86,0,0,0-1.17-1.77,25.31,25.31,0,0,0-3.8-1.3q-2.2-.6-3.76-1.17a9.62,9.62,0,0,1-2.51-1.27,4.34,4.34,0,0,1-1.38-1.64,5.24,5.24,0,0,1-.43-2.22,7,7,0,0,1,.67-3.11,6.77,6.77,0,0,1,1.88-2.35,8.7,8.7,0,0,1,2.83-1.49,11.51,11.51,0,0,1,3.52-.52,15.14,15.14,0,0,1,4.77.73,11.64,11.64,0,0,1,4.08,2.38l-2.33,3.5a13.58,13.58,0,0,0-3.35-1.9,9.15,9.15,0,0,0-3.22-.61,4.66,4.66,0,0,0-2.46.61,2.1,2.1,0,0,0-1,1.94,1.88,1.88,0,0,0,.24,1,2.09,2.09,0,0,0,.76.69,7.44,7.44,0,0,0,1.36.58q0.84,0.28,2.09.58,2.33,0.6,4,1.21a10.92,10.92,0,0,1,2.72,1.38,4.93,4.93,0,0,1,1.56,1.79A5.51,5.51,0,0,1,181,122a6.3,6.3,0,0,1-2.46,5.25A10.61,10.61,0,0,1,171.85,129.12Z" transform="translate(0 2.22)"/><path class="cls-1" d="M198.33,127.53a25.62,25.62,0,0,1-2.85,1,12,12,0,0,1-3.54.52,8.23,8.23,0,0,1-2.27-.3,5,5,0,0,1-1.86-1,4.73,4.73,0,0,1-1.27-1.73,6.25,6.25,0,0,1-.48-2.57v-13h-3v-4.45h3V98.72h5.79v7.34h4.75v4.45h-4.75v11.06a2.06,2.06,0,0,0,.63,1.71,2.39,2.39,0,0,0,1.53.5,5.33,5.33,0,0,0,1.77-.3q0.86-.3,1.38-0.52Z" transform="translate(0 2.22)"/><path class="cls-1" d="M210.42,113.14a15.88,15.88,0,0,1,1-5.55,14.88,14.88,0,0,1,7.71-8.4,14.67,14.67,0,0,1,6.39-1.34,13.94,13.94,0,0,1,7.32,1.86,11.87,11.87,0,0,1,4.6,4.84l-4.58,3.15a7.84,7.84,0,0,0-1.47-2.18,7.38,7.38,0,0,0-1.86-1.4,8.33,8.33,0,0,0-2.07-.76,9.84,9.84,0,0,0-2.12-.24,8,8,0,0,0-3.91.91,8.61,8.61,0,0,0-2.76,2.35,10.36,10.36,0,0,0-1.66,3.28,12.41,12.41,0,0,0-.56,3.65,11.92,11.92,0,0,0,.65,3.91,10.4,10.4,0,0,0,1.84,3.3,9.16,9.16,0,0,0,2.85,2.29,7.79,7.79,0,0,0,3.65.86,9.6,9.6,0,0,0,2.16-.26,8.19,8.19,0,0,0,2.14-.82,8.09,8.09,0,0,0,1.88-1.45A6.67,6.67,0,0,0,233,119l4.88,2.81a9.22,9.22,0,0,1-2.09,3,13.5,13.5,0,0,1-3.07,2.22,15.67,15.67,0,0,1-3.65,1.38,16,16,0,0,1-3.8.47,13.06,13.06,0,0,1-6-1.38,15.62,15.62,0,0,1-4.69-3.61,16.71,16.71,0,0,1-3.07-5.05A15.77,15.77,0,0,1,210.42,113.14Z" transform="translate(0 2.22)"/><path class="cls-1" d="M248.25,129.12a6.43,6.43,0,0,1-5.31-2.25q-1.81-2.24-1.81-6.65V106.06h5.79V119q0,5.23,3.76,5.23a5.94,5.94,0,0,0,3.26-1,7.29,7.29,0,0,0,2.57-3.09v-14h5.79v16a2,2,0,0,0,.32,1.3,1.42,1.42,0,0,0,1.06.43v4.92a12.53,12.53,0,0,1-1.45.22q-0.58,0-1.06,0a4.17,4.17,0,0,1-2.53-.71,2.8,2.8,0,0,1-1.14-2l-0.13-1.81a9.65,9.65,0,0,1-3.89,3.5A11.7,11.7,0,0,1,248.25,129.12Z" transform="translate(0 2.22)"/><path class="cls-1" d="M276.58,129.12a17.51,17.51,0,0,1-5.57-.91,13.6,13.6,0,0,1-4.66-2.59l2.16-3.63a18.57,18.57,0,0,0,4,2.22,10.82,10.82,0,0,0,3.91.75,4.94,4.94,0,0,0,2.72-.65,2.09,2.09,0,0,0,1-1.86A1.86,1.86,0,0,0,279,120.7a25.4,25.4,0,0,0-3.8-1.3q-2.2-.6-3.76-1.17a9.62,9.62,0,0,1-2.51-1.27,4.34,4.34,0,0,1-1.38-1.64,5.24,5.24,0,0,1-.43-2.22,7,7,0,0,1,.67-3.11,6.77,6.77,0,0,1,1.88-2.35,8.7,8.7,0,0,1,2.83-1.49,11.52,11.52,0,0,1,3.52-.52,15.14,15.14,0,0,1,4.77.73,11.64,11.64,0,0,1,4.08,2.38l-2.33,3.5a13.58,13.58,0,0,0-3.35-1.9,9.15,9.15,0,0,0-3.22-.61,4.66,4.66,0,0,0-2.46.61,2.1,2.1,0,0,0-1,1.94,1.88,1.88,0,0,0,.24,1,2.09,2.09,0,0,0,.76.69,7.41,7.41,0,0,0,1.36.58q0.84,0.28,2.09.58,2.33,0.6,4,1.21a11,11,0,0,1,2.72,1.38,4.93,4.93,0,0,1,1.55,1.79,5.52,5.52,0,0,1,.5,2.44,6.3,6.3,0,0,1-2.46,5.25A10.61,10.61,0,0,1,276.58,129.12Z" transform="translate(0 2.22)"/><path class="cls-1" d="M303.06,127.53a25.62,25.62,0,0,1-2.85,1,12,12,0,0,1-3.54.52,8.23,8.23,0,0,1-2.27-.3,5,5,0,0,1-1.86-1,4.72,4.72,0,0,1-1.27-1.73,6.24,6.24,0,0,1-.47-2.57v-13h-3v-4.45h3V98.72h5.79v7.34h4.75v4.45h-4.75v11.06a2.06,2.06,0,0,0,.63,1.71,2.39,2.39,0,0,0,1.53.5,5.33,5.33,0,0,0,1.77-.3q0.86-.3,1.38-0.52Z" transform="translate(0 2.22)"/><path class="cls-1" d="M316,129.12a12.43,12.43,0,0,1-5-1,11.15,11.15,0,0,1-3.74-2.57,11.32,11.32,0,0,1-2.35-3.74,12.18,12.18,0,0,1-.82-4.45,12.3,12.3,0,0,1,.82-4.49,11.33,11.33,0,0,1,2.35-3.74,11.16,11.16,0,0,1,3.74-2.57,12.43,12.43,0,0,1,5-1,12.28,12.28,0,0,1,4.95,1,11.23,11.23,0,0,1,3.71,2.57,11.37,11.37,0,0,1,2.35,3.74,12.34,12.34,0,0,1,.82,4.49,12.22,12.22,0,0,1-.82,4.45,11.54,11.54,0,0,1-2.33,3.74,10.92,10.92,0,0,1-3.71,2.57A12.44,12.44,0,0,1,316,129.12Zm-5.92-11.7a7.87,7.87,0,0,0,.45,2.74,6.7,6.7,0,0,0,1.25,2.14,5.58,5.58,0,0,0,1.88,1.4,5.73,5.73,0,0,0,4.66,0,5.6,5.6,0,0,0,1.88-1.4,6.66,6.66,0,0,0,1.25-2.16,8.08,8.08,0,0,0,.45-2.76,8,8,0,0,0-.45-2.72,6.67,6.67,0,0,0-1.25-2.16,5.62,5.62,0,0,0-1.88-1.4,5.53,5.53,0,0,0-2.33-.5,5.31,5.31,0,0,0-2.33.52,5.84,5.84,0,0,0-1.88,1.42,6.66,6.66,0,0,0-1.25,2.16A7.94,7.94,0,0,0,310.06,117.42Z" transform="translate(0 2.22)"/><path class="cls-1" d="M366.85,128.69h-5.79V116a6.74,6.74,0,0,0-.93-4,3,3,0,0,0-2.57-1.25,4.85,4.85,0,0,0-3.24,1.32,7.25,7.25,0,0,0-2.16,3.43v13.17h-5.79V116a6.74,6.74,0,0,0-.93-4,3,3,0,0,0-2.57-1.25,4.92,4.92,0,0,0-3.22,1.3,7,7,0,0,0-2.18,3.41v13.22H331.7V106.06h5.23v4.19a8.65,8.65,0,0,1,3.43-3.39,10.27,10.27,0,0,1,5-1.19,6.42,6.42,0,0,1,4.41,1.38,6.18,6.18,0,0,1,2,3.41,9.78,9.78,0,0,1,3.5-3.56,9.44,9.44,0,0,1,4.84-1.23,6.72,6.72,0,0,1,3.41.78,5.62,5.62,0,0,1,2.07,2,8.5,8.5,0,0,1,1,2.85,18.66,18.66,0,0,1,.28,3.24v14.12Z" transform="translate(0 2.22)"/><path class="cls-1" d="M390.22,98h5.27l11.66,30.67H401L398.17,121H387.45l-2.81,7.64h-6.13Zm6.87,18.83-4.23-12.05-4.41,12.05h8.64Z" transform="translate(0 2.22)"/><path class="cls-1" d="M423.52,129.12a8.91,8.91,0,0,1-4.66-1.19,8.45,8.45,0,0,1-3.11-3.22v13.17H410V106.06H415v3.89a9.25,9.25,0,0,1,3.24-3.13,9,9,0,0,1,4.58-1.14,9.69,9.69,0,0,1,4.23.93,10.48,10.48,0,0,1,3.35,2.5,11.68,11.68,0,0,1,2.2,3.71,12.79,12.79,0,0,1,.8,4.51,14.27,14.27,0,0,1-.73,4.62,11.8,11.8,0,0,1-2.05,3.76,9.58,9.58,0,0,1-3.13,2.51A8.76,8.76,0,0,1,423.52,129.12Zm-1.94-4.92a5.2,5.2,0,0,0,2.4-.56,5.79,5.79,0,0,0,1.88-1.51,7.08,7.08,0,0,0,1.21-2.2,7.91,7.91,0,0,0,.43-2.59,7.32,7.32,0,0,0-.47-2.66,6.6,6.6,0,0,0-1.32-2.14,6.13,6.13,0,0,0-2-1.42,6,6,0,0,0-2.48-.52,5.46,5.46,0,0,0-1.68.28,5.93,5.93,0,0,0-1.6.8,7,7,0,0,0-1.32,1.21,5,5,0,0,0-.89,1.51v5.31a7.7,7.7,0,0,0,2.38,3.22A5.43,5.43,0,0,0,421.58,124.2Z" transform="translate(0 2.22)"/><path class="cls-1" d="M450.9,129.12a8.91,8.91,0,0,1-4.66-1.19,8.45,8.45,0,0,1-3.11-3.22v13.17h-5.79V106.06h5.05v3.89a9.25,9.25,0,0,1,3.24-3.13,9,9,0,0,1,4.58-1.14,9.69,9.69,0,0,1,4.23.93,10.48,10.48,0,0,1,3.35,2.5,11.68,11.68,0,0,1,2.2,3.71,12.79,12.79,0,0,1,.8,4.51,14.27,14.27,0,0,1-.73,4.62,11.8,11.8,0,0,1-2.05,3.76,9.58,9.58,0,0,1-3.13,2.51A8.76,8.76,0,0,1,450.9,129.12ZM449,124.2a5.2,5.2,0,0,0,2.4-.56,5.79,5.79,0,0,0,1.88-1.51,7.08,7.08,0,0,0,1.21-2.2,7.91,7.91,0,0,0,.43-2.59,7.32,7.32,0,0,0-.47-2.66,6.6,6.6,0,0,0-1.32-2.14,6.13,6.13,0,0,0-2-1.42,6,6,0,0,0-2.48-.52,5.46,5.46,0,0,0-1.68.28,5.93,5.93,0,0,0-1.6.8,7,7,0,0,0-1.32,1.21,5,5,0,0,0-.89,1.51v5.31a7.7,7.7,0,0,0,2.38,3.22A5.43,5.43,0,0,0,449,124.2Z" transform="translate(0 2.22)"/><path class="cls-1" d="M470.9,129.12a8.57,8.57,0,0,1-3.07-.54,7.36,7.36,0,0,1-2.46-1.51,7,7,0,0,1-1.62-2.27,6.87,6.87,0,0,1-.58-2.85,6.29,6.29,0,0,1,.71-3,6.79,6.79,0,0,1,2-2.31,9.86,9.86,0,0,1,3-1.49,13.3,13.3,0,0,1,3.89-.54,16.75,16.75,0,0,1,3,.26,12,12,0,0,1,2.57.73v-1.29a4.54,4.54,0,0,0-1.27-3.46,5.3,5.3,0,0,0-3.78-1.21,10,10,0,0,0-3.54.65,16.47,16.47,0,0,0-3.54,1.9l-1.77-3.67a16.71,16.71,0,0,1,9.42-2.89q4.88,0,7.58,2.4t2.7,6.93v7a2,2,0,0,0,.32,1.3,1.42,1.42,0,0,0,1.06.43v4.92a12.93,12.93,0,0,1-2.55.3,3.86,3.86,0,0,1-2.53-.73,3.16,3.16,0,0,1-1.1-1.94l-0.13-1.25a10,10,0,0,1-3.67,3A10.55,10.55,0,0,1,470.9,129.12Zm1.64-4.23a7.54,7.54,0,0,0,2.79-.52,5.05,5.05,0,0,0,2.05-1.38,2.08,2.08,0,0,0,1-1.64v-2.59a14.18,14.18,0,0,0-2.25-.63,12.19,12.19,0,0,0-2.33-.24,6.18,6.18,0,0,0-3.67,1,3,3,0,0,0-1.42,2.57,3.09,3.09,0,0,0,1.12,2.44A4.08,4.08,0,0,0,472.54,124.89Z" transform="translate(0 2.22)"/><path class="cls-1" d="M503,111.07a11.41,11.41,0,0,0-4.71,1,5.94,5.94,0,0,0-3,2.92v13.69h-5.79V106.06h5.31v4.84a10.33,10.33,0,0,1,1.42-2.09,11,11,0,0,1,1.77-1.62,8.23,8.23,0,0,1,1.92-1.06,5.31,5.31,0,0,1,1.88-.37h0.71a2.36,2.36,0,0,1,.45,0v5.27Z" transform="translate(0 2.22)"/><path class="cls-1" d="M515.6,129.12a12.56,12.56,0,0,1-4.92-.93,11.1,11.1,0,0,1-6.15-6.24,11.92,11.92,0,0,1-.84-4.45,12.59,12.59,0,0,1,.82-4.56,11.12,11.12,0,0,1,2.38-3.76,11.36,11.36,0,0,1,3.78-2.57,12.59,12.59,0,0,1,5-1,12.28,12.28,0,0,1,4.95,1,11.39,11.39,0,0,1,3.71,2.55,10.87,10.87,0,0,1,2.33,3.71,12.38,12.38,0,0,1,.8,4.41c0,0.38,0,.73,0,1.08a4.47,4.47,0,0,1-.11.86H509.81a6.7,6.7,0,0,0,.65,2.38,5.88,5.88,0,0,0,1.34,1.77,5.81,5.81,0,0,0,1.86,1.12,6.1,6.1,0,0,0,2.16.39,6.67,6.67,0,0,0,3.26-.84,4.45,4.45,0,0,0,2.09-2.22l5,1.38a10.1,10.1,0,0,1-4,4.25A12.38,12.38,0,0,1,515.6,129.12Zm5.87-13.65a6,6,0,0,0-1.88-4.08,5.9,5.9,0,0,0-8,0,5.94,5.94,0,0,0-1.27,1.77,6.25,6.25,0,0,0-.58,2.29h11.75Z" transform="translate(0 2.22)"/><path class="cls-1" d="M530.93,97.16h5.79v24.27a2.85,2.85,0,0,0,.6,1.94,2.17,2.17,0,0,0,1.73.69,4.33,4.33,0,0,0,1.14-.17,7.9,7.9,0,0,0,1.19-.43l0.78,4.41a11.19,11.19,0,0,1-2.72.86,14.88,14.88,0,0,1-2.81.3,5.8,5.8,0,0,1-4.21-1.45,5.48,5.48,0,0,1-1.49-4.12V97.16Z" transform="translate(0 2.22)"/></svg>