<?xml version="1.0" encoding="utf-8"?>
<!-- Generator: Adobe Illustrator 19.2.0, SVG Export Plug-In . SVG Version: 6.00 Build 0)  -->
<svg version="1.1" id="Layer_1" xmlns="http://www.w3.org/2000/svg" xmlns:xlink="http://www.w3.org/1999/xlink" x="0px" y="0px"
	 viewBox="0 0 202.7 189.5" style="enable-background:new 0 0 202.7 189.5;" xml:space="preserve">
<style type="text/css">
	.st0{fill:#003A63;}
	.st1{fill:none;}
</style>
<title>usaa</title>
<path class="st0" d="M20,138.3v31c0,17.3,10.6,20.2,19.4,20.2c13.1,0,19.1-8.6,19.1-20.4v-30.8h-8.6v31.9c0,4-1.3,11.5-10.5,11.4
	c-8.3-0.1-9.9-7.8-9.9-12.8v-30.5H20z"/>
<path class="st0" d="M94.7,140.4c-3.7-1.7-7.7-2.7-11.8-2.8c-7.8,0-17.7,4-17.7,15c0,7.6,5.6,11.2,9.4,13.1c2,1,4.5,2.1,6.5,3.2
	c1,0.6,5.2,2,5.2,6.5c0,4.8-5.3,6.5-7.6,6.5c-5,0-9.9-1.3-14.2-3.8l0.9,9.7c0,0,3.4,1.8,13.8,1.8c9.8,0,16.9-6.4,16.9-15.1
	c0-6.7-4.6-10.7-8.5-12.6c-3.1-1.5-4.9-2.3-7.5-3.6s-5.4-3.4-5.4-6.8c0-3.6,3.3-6.2,8.2-6.2c7.2,0,10.1,3.2,11.8,4.3L94.7,140.4
	L94.7,140.4z"/>
<path class="st0" d="M154,172.9l6.9-19.6l6.1,19.6H154z M112.5,172.9l6.9-19.6l6.2,19.6H112.5L112.5,172.9z M165.2,138.2h-10.4
	l1.7,4.2l-16.1,43.1l-16.6-47.3h-10.4l1.7,4.2l-17.2,45.9h9.4l3-8.8h17.8l3,8.8h17.7l3-8.8h17.8l3,8.8h10.4L165.2,138.2z"/>
<path class="st0" d="M19.5,82l0.4,15.7c2.4-1.7,5.2-2.7,8.1-2.8c4.3,0,9.2,3.1,9.2,3.1l38.5,22.5l3.3-14.2L37.2,81.8
	c0,0-4.8-3.1-9.2-3.1S19.5,82,19.5,82"/>
<path class="st0" d="M19.5,61.5l0.4,15.7c2.4-1.7,5.2-2.7,8.1-2.8c4.3,0,9.2,3.1,9.2,3.1l42.6,24.9l3.2-14.2L37.2,61.3
	c0,0-4.8-3.1-9.2-3.1S19.5,61.5,19.5,61.5"/>
<path class="st0" d="M19.5,41l0.4,15.7c2.4-1.7,5.2-2.7,8.1-2.8c4.3,0,9.2,3.1,9.2,3.1L84,84.3l3.2-14.2l-50-29.3
	c0,0-4.8-3.1-9.2-3.1S19.5,41,19.5,41"/>
<path class="st0" d="M99.7,16.1l4.3,18.5l58.6,34.3c0,0,4.6,3.1,9.1,3.1s8.6-3.2,8.6-3.2L179.9,53c-2.4,1.7-5.2,2.7-8.1,2.8
	c-4.5,0-9.1-3.1-9.1-3.1l-45.3-26.5l-3.1-11.9c0-0.4,0.3-0.7,0.6-0.8l7.7-2.4c0.9,0,1.6,0.7,1.6,1.6l0.4,0.9c0.5,0,1.1-0.2,1.5-0.5
	V8.5c0-3.2-2.6-5.8-5.8-5.9c0,0,0,0-0.1,0h-7.7C111.7,1,110-0.1,108.1,0H93.5c-2.2,0-4.2,1.5-4.8,3.6l-10.1,41L37.2,20.4
	c0,0-4.5-3.1-9.2-3.1s-8.6,3.2-8.6,3.2l0.4,15.7c2.4-1.8,5.2-2.8,8.1-2.8c4.7,0,9.2,3.1,9.2,3.1l50.9,29.8L99.7,16.1z"/>
<path class="st0" d="M105.2,39.6l4.3,18.6l53.2,31.1c0,0,4.8,3.1,9.1,3.1s8.6-3.2,8.6-3.2l-0.4-15.7c-2.3,1.8-5.2,2.8-8.1,2.8
	c-4.8,0-9.1-3.1-9.1-3.1L105.2,39.6z"/>
<path class="st0" d="M110.6,63.3l4.3,18.6l47.7,27.9c0,0,4.8,3.1,9.1,3.1s8.6-3.2,8.6-3.2L179.9,94c-2.3,1.8-5.2,2.8-8.1,2.8
	c-4.8,0-9.1-3.1-9.1-3.1L110.6,63.3z"/>
<path class="st0" d="M116.1,87l4.3,18.6l42.3,24.7c0,0,4.8,3.1,9.1,3.1s8.6-3.2,8.6-3.2l-0.4-15.7c-2.3,1.8-5.2,2.8-8.1,2.8
	c-4.8,0-9.1-3.1-9.1-3.1L116.1,87z"/>
<path class="st0" d="M192.4,135.4c5.8,0,10.5,4.6,10.5,10.4s-4.6,10.5-10.4,10.5s-10.5-4.6-10.5-10.4c0,0,0-0.1,0-0.1
	c-0.1-5.7,4.5-10.4,10.1-10.4C192.3,135.4,192.4,135.4,192.4,135.4L192.4,135.4L192.4,135.4z M192.4,137c-4.9-0.2-9,3.5-9.3,8.4
	c-0.2,4.9,3.5,9,8.4,9.3c4.9,0.2,9-3.5,9.3-8.4c0-0.1,0-0.3,0-0.4C201,141.1,197.2,137.2,192.4,137C192.5,137,192.4,137,192.4,137
	L192.4,137z M190.5,151.9h-1.9v-11.6c1.1-0.2,2.2-0.3,3.3-0.3c1.3-0.1,2.5,0.2,3.6,0.9c0.7,0.6,1.1,1.5,1.1,2.4
	c0,1.4-0.9,2.5-2.3,2.8v0.1c1,0.2,1.7,1.1,1.9,2.8c0.1,1,0.3,2,0.7,2.9h-2c-0.4-0.9-0.7-2-0.8-3c-0.1-1.2-1.1-2.1-2.3-2
	c-0.1,0-0.1,0-0.2,0h-1.3L190.5,151.9L190.5,151.9z M190.5,145.5h1.3c1.5,0,2.8-0.6,2.8-2c0-1-0.7-2-2.8-2c-0.4,0-0.9,0-1.3,0.1
	V145.5L190.5,145.5z"/>
<rect class="st1" width="202.7" height="188.4"/>
</svg>
