<?xml version="1.0" encoding="utf-8"?>
<!-- Generator: Adobe Illustrator 19.2.0, SVG Export Plug-In . SVG Version: 6.00 Build 0)  -->
<svg version="1.1"
	 id="svg2" inkscape:version="0.91 r13725" sodipodi:docname="logo.svg" xmlns:cc="http://creativecommons.org/ns#" xmlns:dc="http://purl.org/dc/elements/1.1/" xmlns:inkscape="http://www.inkscape.org/namespaces/inkscape" xmlns:rdf="http://www.w3.org/1999/02/22-rdf-syntax-ns#" xmlns:sodipodi="http://sodipodi.sourceforge.net/DTD/sodipodi-0.dtd" xmlns:svg="http://www.w3.org/2000/svg"
	 xmlns="http://www.w3.org/2000/svg" xmlns:xlink="http://www.w3.org/1999/xlink" x="0px" y="0px" viewBox="0 0 881.2 223.1"
	 style="enable-background:new 0 0 881.2 223.1;" xml:space="preserve">
<style type="text/css">
	.st0{fill:#D72537;}
</style>
<sodipodi:namedview  bordercolor="#666666" borderopacity="1" gridtolerance="10" guidetolerance="10" id="namedview4" inkscape:current-layer="g10" inkscape:cx="440.60312" inkscape:cy="111.55688" inkscape:pageopacity="0" inkscape:pageshadow="2" inkscape:window-height="480" inkscape:window-maximized="0" inkscape:window-width="730" inkscape:window-x="0" inkscape:window-y="0" inkscape:zoom="0.35632975" objecttolerance="10" pagecolor="#ffffff" showgrid="false">
	</sodipodi:namedview>
<path id="path22" inkscape:connector-curvature="0" class="st0" d="M126.2,167.2l0.9-12.7l1-14.9l29.1,8.3l0.8,36.3L126.2,167.2z
	 M59.4,146l27.6-5.7l0.4,26.4l-34,17.8C53.3,184.5,59.4,146,59.4,146z M58,78.3l16.6,21.1l-16.3,6.5l-9.3,3.7L24.5,84.3L58,78.3z
	 M108.7,23.4l16.6,30.2l-13.8,17.7l-4.7,6.1l-5.9-8.6L90.2,53.3L108.7,23.4z M168.4,111.9l-11.3-4.2l-16.2-6l17.8-23.8l33.2,6.4
	L168.4,111.9z M73.9,65.8l0.5,12.9L75,97.4L63.4,82.8L59,77.2l-3.7-36C55.4,41.2,73.9,65.8,73.9,65.8z M160.4,130.4l31,12.2l-33.4,4
	l-27.8-8L160.4,130.4z M107.2,166.6L107.2,166.6l-4.2-6.2l-14.4-21.2l-0.9-0.7l-32.8-11l2.5-3.2l18.4-23.4l0.8-0.7v-0.9l-0.9-26.1
	l-0.2-6.5l8.1,3.3l22.6,9.2h1.2l32-13.3L139,91.3l-0.1,10.4v0.9l0.8,0.7l19.7,25.6c0,0,0,0.1-0.1,0.1l-31.8,8.7l-1,0.7l-4.9,7.1
	C121.6,145.6,107.2,166.6,107.2,166.6z M168.2,113.5l23.1,27.5l-29.9-11.7l-0.1-0.1l-15.2-19.8l-4.2-5.5l1.7,0.6L168.2,113.5z
	 M149.6,87.5l-9.2,12.3l0.1-9.6l0.3-24.9l19.7-23l-2.9,34.5L149.6,87.5z M126.7,54.3l32.6-12.8L140,64l-19,7.9l-11.9,5l5.6-7.2
	C114.7,69.7,126.7,54.3,126.7,54.3z M91.4,57.7L104.7,77L75.1,65L56.6,40.4l32.2,13.5L91.4,57.7z M63.2,105.5l10.3-4.1l-20.3,25.7
	l-31.6,10.1L49.3,111L63.2,105.5z M58.7,144.6l-36.9-5.8l31.6-10.1l4.5,1.5l26.9,9.1l-8,1.6C76.8,140.9,58.7,144.6,58.7,144.6z
	 M88.7,157.3l-0.2-15.4l13.9,20.5l4,5.9l-0.5,31.2L88.8,167L88.7,157.3z M124.7,167.4l-17.2,32.2l0.5-31.4l18.5-26.9l-0.9,13.8
	C125.5,155.1,124.7,167.4,124.7,167.4z M159.5,185.4l-0.8-37.4l36.8-4.5l-25.9-30.7l25-29.5l-1.2-0.2l-34.3-6.6l3.2-37.8l-35.8,14.1
	l-17.8-32.3L89,52.3L53.5,37.4l4,39.5l-36,6.5l1,1l25.3,26L17,139.5l40.8,6.5l-6.5,41.2l1.3-0.7l35.1-18.3l19,35.9l19-35.5
	l33.8,18.1C159.5,186.7,159.5,185.4,159.5,185.4z"/>
<path id="path26" inkscape:connector-curvature="0" class="st0" d="M128.9,57.3l-8.7,11.1l17.6-7.3l9.4-11L128.9,57.3z M77.3,62
	L95,69.2l-8.6-12.5l-19.1-8C67.4,48.7,77.3,62,77.3,62z M94.4,53.2L107,71.4l14-18.1l-12.5-22.8L94.4,53.2z M62.5,75.8L71,86.7
	l-0.7-19.6L60.2,53.6L62.5,75.8z M144.4,66.6l-0.2,22.3l10-13.4l1.9-22.5C156.1,53,144.4,66.6,144.4,66.6z M31.7,86.6l18.1,18.7
	l18.9-7.5L56.5,82.2L31.7,86.6z M146.6,100.1l20.7,7.7l17.9-21l-25-4.8C160.2,81.8,146.6,100.1,146.6,100.1z M51.2,114.1l-15.8,15
	l15.7-5l11.4-14.4L51.2,114.1z M163.6,126.2l15.9,6.2l-13.5-16l-13.9-5.1L163.6,126.2z M37.2,137.6l21.4,3.4l12.5-2.6l-17.7-6
	L37.2,137.6z M143.4,138.7l14.9,4.3l18.7-2.3l-16.8-6.6C160.2,134.1,143.4,138.7,143.4,138.7z M90.5,136.3l1,1l15.7,23.1L124,136
	l0.8-0.6V135l0.4,0.1l0.8-0.5l27.4-7.5l-16.9-21.8l-1.1-1.1v-0.6l-0.2-0.1l0.2-0.3l0.3-31.9L108,82.8h-1l-0.5,0.6l-0.4-0.6h-0.7
	L79.1,72.1l1,28.6l0.2,0.3l-0.2,0.1v0.7l-1.8,1.6l-17.7,22.4l28.5,9.6L90,136l0.3-0.1C90.5,136,90.5,136.3,90.5,136.3z M62.5,149
	L58,178.1l25.8-13.5l-0.3-19.9C83.5,144.7,62.5,149,62.5,149z M129.9,165.1l24.4,13.1l-0.6-27.5l-22.4-6.4L129.9,165.1z
	 M111.5,169.3l-0.2,15.6l9.9-18.6L122,154L111.5,169.3z M92.4,166.1l10.2,19.3l0.2-16.1l-10.6-15.6L92.4,166.1z M106.7,211.7
	L86.3,173l-39.5,20.6l7-44.7l-44.5-7.1l33.3-31.6L14.3,81l39.4-7.1l-4.3-42.1l38.2,16.1L109,13.4l19.2,34.9l38.3-15.1L163,73.6
	l38.4,7.4l-27,31.8l28.2,33.5l-40.2,4.9l0.8,41.6l-36-19.3C127.2,173.4,106.7,211.7,106.7,211.7z"/>
<path id="path30" inkscape:connector-curvature="0" class="st0" d="M107.3,166.6l-18.5-27.2l18.6-25.7l11.6,15l7.7,10L107.3,166.6z
	 M76.2,100.6l30,12.1l-6.1,8.5l-12.4,17.2l-32.6-11C55,127.5,76.2,100.6,76.2,100.6z M106.2,79.2v1.6l0.4,30.5l-9.4-3.8l-20.5-8.3
	l-1.1-32.5C75.6,66.7,106.2,79.2,106.2,79.2z M139.5,65.9l-0.4,35.6l-31.1,9.8l-0.4-32.2L139.5,65.9z M127.9,137.7l-19.3-25l4.7-1.5
	l26.3-8.3l20,26.1L127.9,137.7z M162.2,129.9l-21.6-28.1l0.4-38.2l-34.1,14.2L74,64.4l1.2,35l-22.7,28.8L87.4,140l19.9,29.3l0.6-0.9
	l20.1-29.2C128,139.2,162.2,129.9,162.2,129.9z"/>
<path id="path34" inkscape:connector-curvature="0" class="st0" d="M80.2,96.7l22.8,9.2l-0.3-24.4L79.4,72L80.2,96.7z M111.3,81.5
	l0.3,25l24-7.6l0.3-27.6C135.9,71.3,111.3,81.5,111.3,81.5z M114.5,114.6l14.7,19l24.3-6.7L138.2,107
	C138.3,107.1,114.5,114.6,114.5,114.6z M60.9,125.7l25.3,8.5l14.4-19.9l-23.3-9.4L60.9,125.7z M93.1,139.5l14.2,20.9l14.9-21.6
	l-14.8-19.1C107.5,119.6,93.1,139.5,93.1,139.5z M107.3,175.6L85.1,143l-38.6-13l25-31.7l-1.4-39.2L106.9,74l37.7-15.7l-0.5,42.4
	l24,31.3l-38,10.4L107.3,175.6z"/>
<path id="path38" inkscape:connector-curvature="0" d="M227.6,47.9h22L260,105l15.3-57.2h19.3l18.1,58.2l10.6-58.2h20.9l-17.9,85.5
	h-24.1L286.1,80l-16.4,53.4h-25.3L227.6,47.9z"/>
<path id="path42" inkscape:connector-curvature="0" d="M866,133.4h-22L833.7,76l-15.3,57.4H799l-18-58.2l-10.7,58.2h-20.9l17.9-85.5
	h24.1l16,53.4l16.4-53.4h25.3L866,133.4z"/>
<path id="path46" inkscape:connector-curvature="0" d="M390.3,117.9c13.7,0,19.1-13.2,19.1-27.3c0-14.8-5.4-27.3-19.1-27.3
	s-19.1,12.5-19.1,27.3C371.2,104.7,376.6,117.9,390.3,117.9 M390.3,46.4c27.8,0,42.4,16.8,42.4,44.2c0,27.2-14.8,44.2-42.4,44.2
	s-42.4-17-42.4-44.2C347.9,63.2,362.4,46.4,390.3,46.4"/>
<path id="path50" inkscape:connector-curvature="0" d="M445.2,47.8h22.5v68.6h34.9v16.9h-57.4V47.8z"/>
<path id="path54" inkscape:connector-curvature="0" d="M511.9,47.8h56.5V64h-34v18.8H567V99h-32.5v34.4H512V47.8H511.9z"/>
<path id="path58" inkscape:connector-curvature="0" d="M602.7,83.4h5.9c7.3,0,16.5-0.2,16.5-9.9c0-8-7.9-9.4-16.5-9.4h-5.9V83.4z
	 M580.2,47.8h40.2c15,0,27.2,6.9,27.2,21.6c0,11.4-5.3,19-16.2,21.6v0.2c7.3,2,7.7,8.5,12,18.9l8.2,23.3h-23.5l-4.8-15.4
	c-4.6-14.7-7.5-18.4-15.9-18.4h-4.7v33.8h-22.5V47.8z"/>
<path id="path62" inkscape:connector-curvature="0" d="M699.5,65.5h-0.2l-10.9,33.4h21.2L699.5,65.5z M685.7,47.8h27.6l32.6,85.5
	h-24.7l-6.3-18.2h-31.7l-6.7,18.2h-22.9C653.6,133.4,685.7,47.8,685.7,47.8z"/>
<path id="path66" inkscape:connector-curvature="0" d="M249.8,177.8c-1.8,0.4-3.8,1-7.1,1c-6.4,0-13.8-3.2-13.8-12.3
	c0-8.3,5.8-12.5,13.7-12.5c2.4,0,4.8,0.5,7.1,1.2l-0.5,5.2c-2.1-1.1-4-1.7-6.2-1.7c-4.5,0-7.5,3.3-7.5,7.8c0,4.7,3.3,7.5,8,7.5
	c2.1,0,4.2-0.5,6-1.2L249.8,177.8z"/>
<path id="path70" inkscape:connector-curvature="0" d="M265.2,174c3.9,0,5.4-3.7,5.4-7.6c0-4.2-1.5-7.6-5.4-7.6s-5.4,3.5-5.4,7.6
	C259.8,170.3,261.4,174,265.2,174 M265.2,154c7.9,0,12,4.7,12,12.4c0,7.6-4.2,12.4-12,12.4s-12-4.8-12-12.4
	C253.2,158.7,257.3,154,265.2,154"/>
<path id="path74" inkscape:connector-curvature="0" d="M281.1,154.4h10l5.1,15.9h0.1l5.3-15.9h9.7v23.9h-6.2l0.1-18.4h-0.1
	l-6.1,18.4h-5.9l-5.8-18.4h-0.1l0.1,18.4h-6.2V154.4z"/>
<path id="path78" inkscape:connector-curvature="0" d="M322.5,165.4h1.6c2.2,0,3.9-0.8,3.9-3.3c0-2.4-1.7-3.2-3.9-3.2h-1.6V165.4z
	 M316.1,154.4h7.6c7.3,0,10.7,2.5,10.7,7.9c0,4.8-3.5,7.7-9.5,7.7h-2.5v8.4H316C316.1,178.3,316.1,154.4,316.1,154.4z"/>
<path id="path82" inkscape:connector-curvature="0" d="M358.9,169.2c0,6.6-4.3,9.5-10.5,9.5s-10.5-2.9-10.5-9.5v-14.9h6.4v13.8
	c0,3.2,0.9,5.8,4.1,5.8c3.3,0,4.1-2.7,4.1-5.8v-13.8h6.4V169.2z"/>
<path id="path86" inkscape:connector-curvature="0" d="M368,159.1h-5.9v-4.7h18.2v4.7h-5.9v19.2H368V159.1z"/>
<path id="path90" inkscape:connector-curvature="0" d="M392.8,159.3L392.8,159.3l-3.2,9.4h6L392.8,159.3z M388.9,154.4h7.8l9.2,23.9
	h-7l-1.8-5.1h-9l-1.9,5.1h-6.5C379.8,178.3,388.9,154.4,388.9,154.4z"/>
<path id="path94" inkscape:connector-curvature="0" d="M411.1,159.1h-5.9v-4.7h18.2v4.7h-5.9v19.2h-6.4L411.1,159.1L411.1,159.1z"/>
<path id="path96" inkscape:connector-curvature="0" d="M427.2,154.4h6.4v23.9h-6.4C427.2,178.3,427.2,154.4,427.2,154.4z"/>
<path id="path100" inkscape:connector-curvature="0" d="M450.3,174c3.9,0,5.4-3.7,5.4-7.6c0-4.2-1.5-7.6-5.4-7.6s-5.4,3.5-5.4,7.6
	C444.9,170.3,446.5,174,450.3,174 M450.3,154c7.9,0,12,4.7,12,12.4c0,7.6-4.2,12.4-12,12.4s-12-4.8-12-12.4
	C438.3,158.7,442.5,154,450.3,154"/>
<path id="path104" inkscape:connector-curvature="0" d="M466.9,154.4h8.1l8.1,16.3h0.1l-0.1-16.3h5.8v23.9H481l-8.4-16.4h-0.1
	l0.2,16.4h-5.9L466.9,154.4L466.9,154.4z"/>
<path id="path108" inkscape:connector-curvature="0" d="M506.2,154.4h10l5.1,15.9h0.1l5.3-15.9h9.7v23.9h-6.2l0.1-18.4h-0.1
	l-6.1,18.4h-5.9l-5.8-18.4h-0.1l0.1,18.4h-6.2L506.2,154.4z"/>
<path id="path112" inkscape:connector-curvature="0" d="M541.3,154.4h16.9v4.5h-10.5v4.9h9.9v4.5h-9.9v5.4h10.9v4.5h-17.3
	L541.3,154.4L541.3,154.4z"/>
<path id="path116" inkscape:connector-curvature="0" d="M563.1,154.4H580v4.5h-10.5v4.9h9.9v4.5h-9.9v5.4h10.9v4.5h-17.3
	L563.1,154.4L563.1,154.4z"/>
<path id="path120" inkscape:connector-curvature="0" d="M589.2,159.1h-5.9v-4.7h18.2v4.7h-5.9v19.2h-6.4L589.2,159.1L589.2,159.1z"
	/>
<path id="path124" inkscape:connector-curvature="0" d="M605.1,172.4c1.6,0.9,3.9,1.6,6.6,1.6c2,0,3.9-0.4,3.9-2.3
	c0-4.5-11.3-1.6-11.3-10.4c0-5.8,5.6-7.3,10.4-7.3c2.3,0,4.6,0.3,6.2,0.9l-0.4,4.9c-1.6-0.8-3.5-1.1-5.3-1.1c-1.6,0-4.3,0.1-4.3,2.2
	c0,3.9,11.3,1.3,11.3,9.9c0,6.2-5.2,7.9-10.5,7.9c-2.2,0-5-0.3-7.1-1L605.1,172.4z"/>
<path id="path128" inkscape:connector-curvature="0" d="M638.9,154.4h6.4v9.8h0.1l7.2-9.8h7.7l-8.8,11.1l9.5,12.8h-8.1l-7.4-10.9
	h-0.1v10.9H639v-23.9H638.9z"/>
<path id="path132" inkscape:connector-curvature="0" d="M664.6,154.4h8.1l8.1,16.3h0.1l-0.1-16.3h5.8v23.9h-7.9l-8.4-16.4h-0.1
	l0.2,16.4h-5.9v-23.9H664.6z"/>
<path id="path136" inkscape:connector-curvature="0" d="M703.2,174c3.9,0,5.4-3.7,5.4-7.6c0-4.2-1.5-7.6-5.4-7.6s-5.4,3.5-5.4,7.6
	C697.8,170.3,699.3,174,703.2,174 M703.2,154c7.9,0,12,4.7,12,12.4c0,7.6-4.2,12.4-12,12.4s-12-4.8-12-12.4
	C691.2,158.7,695.3,154,703.2,154"/>
<path id="path140" inkscape:connector-curvature="0" d="M717.7,154.4h6.5l3.1,18.4h0.1l3.2-18.4h8.1l3.4,18.4h0.1l3.1-18.4h6.2
	l-5.4,23.9h-8.2l-3.4-18.4h-0.1l-3.2,18.4H723L717.7,154.4z"/>
<path id="path144" inkscape:connector-curvature="0" d="M754.8,154.4h6.4v19.2h9.9v4.7h-16.3L754.8,154.4L754.8,154.4z"/>
<path id="path148" inkscape:connector-curvature="0" d="M774.5,154.4h16.9v4.5h-10.5v4.9h9.9v4.5h-9.9v5.4h10.9v4.5h-17.3
	L774.5,154.4L774.5,154.4z"/>
<path id="path152" inkscape:connector-curvature="0" d="M802.5,173.6h2.5c4.8,0,7.4-2.5,7.4-7.2c0-4.8-2.8-7.2-7.4-7.2h-2.5V173.6z
	 M796.1,154.4h8.7c8.3,0,14.2,2.6,14.2,11.9c0,9-6,12.1-14.2,12.1h-8.7C796.1,178.3,796.1,154.4,796.1,154.4z"/>
<path id="path156" inkscape:connector-curvature="0" d="M845.8,177.6c-4,1-7.1,1.1-9.3,1.1c-6.4,0-13.8-3.2-13.8-12.3
	c0-9,6.3-12.5,15.1-12.5c1.6,0,4.9,0.2,7.2,1.1l-0.5,5.2c-2-1.2-4.3-1.5-5.8-1.5c-5.2,0-9.4,2.2-9.4,7.8c0,4.7,3.3,7.5,8,7.5
	c0.9,0,1.7-0.1,2.3-0.4v-4.7h-3.7v-4.5h9.9V177.6z"/>
<path id="path160" inkscape:connector-curvature="0" d="M851,154.4h16.9v4.5h-10.5v4.9h9.9v4.5h-9.9v5.4h10.9v4.5H851V154.4z"/>
</svg>
