<?xml version="1.0" encoding="utf-8"?>
<!-- Generator: Adobe Illustrator 19.2.0, SVG Export Plug-In . SVG Version: 6.00 Build 0)  -->
<svg version="1.1" id="Layer_1" xmlns="http://www.w3.org/2000/svg" xmlns:xlink="http://www.w3.org/1999/xlink" x="0px" y="0px"
	 viewBox="0 0 533.3 196.8" style="enable-background:new 0 0 533.3 196.8;" xml:space="preserve">
<style type="text/css">
	.st0{fill:#9198A0;}
</style>
<path class="st0" d="M266.2,51.1c1.6,0.8,2,2.5,2.2,4.1l0,0L269,90l0,0c0,1.2,0.8,2,1.8,2.5c2.2,0.4,3.9-1,5.7-2.2
	c1-0.8,14.7-13.5,15.6-14.1l0,0l4.5-1l25.2,0.2l0,0c1.4,0,2.7,0.6,3.1,1.8c0.2,2.2-1.4,3.5-2.7,4.9l0,0l-26.6,23.5l0,0
	c-0.8,1.2-1.4,2.5-1,3.9c1.8,3.5,5.5,5.3,8.2,8.2l0,0l14.7,11.7l0,0c1,0.6,2.3,1.2,3.7,0.6c1.4-1.2,1.6-2.7,1.6-4.3l0,0l0.4-34.6
	l0,0c0.4-1.4,1.6-2.9,2.9-3.5l0,0L329,87l41.1,0.2l0,0c1.6,0.4,3.3,1,3.9,2.5c1.2,2.5,1,6.3-0.4,8.6c-1.2,1-2.5,1.6-3.7,2
	c-6.1,0.6-12.7-1-18,1.2c-1.6,1.4-2.2,3.3-1.6,5.5c0.2,1.2,1.4,2.3,2.5,2.9c6.3,1.4,13.7-0.4,19.8,1.4c2.2,1.2,2.5,3.9,2.5,6.3
	c0,2.3-0.6,4.9-2.9,5.9c-5.7,1.4-11.9,0.4-18,0.8c-1.4,0.4-3.1,1-3.7,2.5c-1,1.8-0.8,4.5,0.2,6.3c1,1.4,2.5,2,4.1,2.2l0,0h35.4l0,0
	c6.5-1.2,10.8-7,16-11.1c1-1.4,1.6-2.9,1.2-4.7l0,0l-1.2-2.2L384,92.5l0,0c-0.8-1.2-1-2.3-0.8-3.7c1-1.6,2.9-1.4,4.5-1.8l0,0
	l19.2,0.2l0,0c7.2,2,11.7,10.4,17.6,15.1c1.2,1,2.3,2,3.9,1.8c3.1-0.6,5.5-3.1,8-4.9c7.2-4.7,12.5-14.1,22.3-12.7l0,0l68.7,0.2l0,0
	c1.4,0.2,2.5,0.8,3.7,1.6c1.8,2.3,1.8,6.5,0.6,9c-2,3.3-6.1,2.5-9.6,2.7c-5.3,0.6-12.3-1.8-15.5,2.9c-0.4,1.8-0.4,4.1,1,5.3
	c2,1.8,4.9,1.4,7.4,1.4c5.7,0.6,12.1-1,16.6,2c1.8,2.2,1.8,4.9,1.6,7.8l0,0v24.1l0,0c-0.4,1.8-1,3.5-2.7,4.5l0,0l-2.3,0.6h-84.9l0,0
	c-1.6-0.4-3.3-1.2-4.3-2.7c-1-2.9-1.2-7,0.8-9.4c2.5-2,5.9-1.4,9.2-1.6l0,0h52.8l0,0c1.4-0.4,3.1-1.2,4.1-2.7
	c0.6-1.8,0.4-4.1-0.6-5.5c-1.2-1.6-2.7-2-4.7-2.2l0,0l-17.4-0.2l0,0c-1.4-0.4-2.7-1.6-3.3-2.9c-1.4-5.9-0.4-12.5-1-18.8
	c-0.2-1.4-0.8-2.7-2.3-3.1c-2.7,0.2-4.9,2.5-7,4.1l0,0l-38.1,32.1l-45.2,37.6l0,0c-2.3,2-5.5,2.3-8.4,2.5l0,0l-23.3-0.2l0,0
	c-1.6-0.2-3.3-0.6-3.9-2c-0.2-2.2,1.4-3.3,2.7-4.7l0,0l17-14.9l0,0c0.8-0.8,1.6-2,1-3.1c-0.8-1.6-2.5-1.6-4.1-1.8l0,0l-61.2-0.4l0,0
	c-2.9-0.2-5.3-1.8-7.6-3.5l0,0L276,126.8l0,0c-1.6-0.8-3.9-1.2-5.1,0.2c-4.3,5.1-0.6,13.9-3.3,19.8c-1,1.4-2.3,1.6-3.7,2
	c-4.1,0-8.4,0.4-12.5,0.2V50.1c4.1-0.2,8.2,0,12.3,0l0,0L266.2,51.1L266.2,51.1L266.2,51.1z M251.4,196.8h4.1c2.9,0,5.3-2.3,5.3-5.3
	v-12.7c0-2.9-2.3-5.3-5.3-5.3h-4.1V196.8L251.4,196.8z M251.4,23.3V0h4.1c2.9,0,5.3,2.3,5.3,5.3V18c0,2.9-2.3,5.3-5.3,5.3
	L251.4,23.3L251.4,23.3z M251.4,148.9c-2.3,0-4.5-0.2-6.6-0.8c-3.7-2.3-2.3-7-2.7-10.8l0,0V55.6l0,0c0.4-2,1.2-4.3,3.5-4.9
	c2-0.4,3.9-0.6,5.9-0.6V148.9L251.4,148.9z M251.4,0v23.3h-8.6c-2.9,0-5.3-2.3-5.3-5.3V5.3c0-2.9,2.3-5.3,5.3-5.3L251.4,0L251.4,0z
	 M251.4,173.5v23.3h-8.6c-2.9,0-5.3-2.3-5.3-5.3v-12.7c0-2.9,2.3-5.3,5.3-5.3L251.4,173.5L251.4,173.5z M231.2,105.2
	c1,1.8,0.6,4.3-0.6,5.9c-3.7,2.9-9.2,1.6-13.7,1.8c-2-0.4-4.3-1.2-4.9-3.5c-0.4-1.8,0-3.5,0.8-4.9c3.7-3.1,9.4-1.6,13.9-1.8
	C228.5,102.9,230.4,103.5,231.2,105.2L231.2,105.2L231.2,105.2L231.2,105.2z M5.3,0H18c2.9,0,5.3,2.3,5.3,5.3V18
	c0,2.9-2.3,5.3-5.3,5.3H5.3C2.3,23.3,0,20.9,0,18V5.3C0,2.3,2.3,0,5.3,0L5.3,0z M34.8,0c4.3,0,8.6,0,12.9,0C50.7,0,53,2.3,53,5.3
	c0,4.1,0,8.4,0,12.7c0,2.9-2.3,5.3-5.3,5.3c-4.3,0-8.6,0-12.9,0c-2.7,0-5.3-2.3-5.3-5.3c0-4.3,0-8.6,0-12.7C29.5,2.3,32.1,0,34.8,0
	L34.8,0z M64.6,0c4.3,0,8.6,0,12.9,0c2.9,0,5.3,2.3,5.3,5.3c0,4.1,0,8.4,0,12.7c0,2.9-2.3,5.3-5.3,5.3c-4.3,0-8.6,0-12.9,0
	c-2.9,0-5.3-2.3-5.3-5.3c0-4.3,0-8.6,0-12.7C59.3,2.3,61.6,0,64.6,0L64.6,0z M183.3,0c4.3,0,8.6,0,12.9,0c2.9,0,5.3,2.3,5.3,5.3
	c0,4.1,0,8.4,0,12.7c0,2.9-2.3,5.3-5.3,5.3c-4.3,0-8.6,0-12.9,0c-2.9,0-5.3-2.3-5.3-5.3c0-4.3,0-8.6,0-12.7C178,2.3,180.3,0,183.3,0
	L183.3,0z M213,0c4.3,0,8.6,0,12.9,0c2.7,0,5.3,2.3,5.3,5.3c0,4.1,0,8.4,0,12.7c0,2.9-2.5,5.3-5.3,5.3c-4.3,0-8.6,0-12.9,0
	c-2.9,0-5.3-2.3-5.3-5.3c0-4.3,0-8.6,0-12.7C207.7,2.3,210.1,0,213,0L213,0z M5.3,173.5H18c2.9,0,5.3,2.3,5.3,5.3v12.7
	c0,2.9-2.3,5.3-5.3,5.3H5.3c-2.9,0-5.3-2.3-5.3-5.3v-12.7C0,175.8,2.3,173.5,5.3,173.5L5.3,173.5z M34.8,173.5c4.3,0,8.6,0,12.9,0
	c2.9,0,5.3,2.3,5.3,5.3c0,4.3,0,8.6,0,12.7c0,2.9-2.3,5.3-5.3,5.3c-4.3,0-8.6,0-12.9,0c-2.7,0-5.3-2.3-5.3-5.3c0-4.1,0-8.4,0-12.7
	C29.5,175.8,32.1,173.5,34.8,173.5L34.8,173.5z M64.6,173.5c4.3,0,8.6,0,12.9,0c2.9,0,5.3,2.3,5.3,5.3c0,4.3,0,8.6,0,12.7
	c0,2.9-2.3,5.3-5.3,5.3c-4.3,0-8.6,0-12.9,0c-2.9,0-5.3-2.3-5.3-5.3c0-4.1,0-8.4,0-12.7C59.3,175.8,61.6,173.5,64.6,173.5
	L64.6,173.5z M183.3,173.5c4.3,0,8.6,0,12.9,0c2.9,0,5.3,2.3,5.3,5.3c0,4.3,0,8.6,0,12.7c0,2.9-2.3,5.3-5.3,5.3c-4.3,0-8.6,0-12.9,0
	c-2.9,0-5.3-2.3-5.3-5.3c0-4.1,0-8.4,0-12.7C178,175.8,180.3,173.5,183.3,173.5L183.3,173.5z M213,173.5c4.3,0,8.6,0,12.9,0
	c2.7,0,5.3,2.3,5.3,5.3c0,4.3,0,8.6,0,12.7c0,2.9-2.5,5.3-5.3,5.3c-4.3,0-8.6,0-12.9,0c-2.9,0-5.3-2.3-5.3-5.3c0-4.1,0-8.4,0-12.7
	C207.7,175.8,210.1,173.5,213,173.5L213,173.5z M34.8,144.6c4.3,0,8.6,0,12.9,0c2.9,0,5.3,2.3,5.3,5.3c0,4.3,0,8.6,0,12.7
	c0,2.9-2.3,5.3-5.3,5.3c-4.3,0-8.6,0-12.9,0c-2.7,0-5.3-2.3-5.3-5.3c0-4.1,0-8.4,0-12.7C29.5,146.9,32.1,144.6,34.8,144.6
	L34.8,144.6z M64.6,144.6c4.3,0,8.6,0,12.9,0c2.9,0,5.3,2.3,5.3,5.3c0,4.3,0,8.6,0,12.7c0,2.9-2.3,5.3-5.3,5.3c-4.3,0-8.6,0-12.9,0
	c-2.9,0-5.3-2.3-5.3-5.3c0-4.1,0-8.4,0-12.7C59.3,146.9,61.6,144.6,64.6,144.6L64.6,144.6z M94.3,144.6c4.3,0,8.6,0,12.9,0
	c2.7,0,5.3,2.3,5.3,5.3c0,4.3,0,8.6,0,12.7c0,2.9-2.5,5.3-5.3,5.3c-4.3,0-8.6,0-12.9,0c-2.9,0-5.3-2.3-5.3-5.3c0-4.1,0-8.4,0-12.7
	C89,146.9,91.3,144.6,94.3,144.6L94.3,144.6z M153.5,144.6c4.3,0,8.6,0,12.9,0c2.9,0,5.3,2.3,5.3,5.3c0,4.3,0,8.6,0,12.7
	c0,2.9-2.3,5.3-5.3,5.3c-4.3,0-8.6,0-12.9,0c-2.7,0-5.1-2.3-5.1-5.3c0-4.1,0-8.4,0-12.7C148.5,146.9,150.8,144.6,153.5,144.6
	L153.5,144.6z M183.3,144.6c4.3,0,8.6,0,12.9,0c2.9,0,5.3,2.3,5.3,5.3c0,4.3,0,8.6,0,12.7c0,2.9-2.3,5.3-5.3,5.3
	c-4.3,0-8.6,0-12.9,0c-2.9,0-5.3-2.3-5.3-5.3c0-4.1,0-8.4,0-12.7C178,146.9,180.3,144.6,183.3,144.6L183.3,144.6z M213,144.6
	c4.3,0,8.6,0,12.9,0c2.7,0,5.3,2.3,5.3,5.3c0,4.3,0,8.6,0,12.7c0,2.9-2.5,5.3-5.3,5.3c-4.3,0-8.6,0-12.9,0c-2.9,0-5.3-2.3-5.3-5.3
	c0-4.1,0-8.4,0-12.7C207.7,146.9,210.1,144.6,213,144.6L213,144.6z M64.6,115.6c4.3,0,8.6,0,12.9,0c2.9,0,5.3,2.3,5.3,5.3
	c0,4.3,0,8.4,0,12.7c0,2.9-2.3,5.3-5.3,5.3c-4.3,0-8.6,0-12.9,0c-2.9,0-5.3-2.3-5.3-5.3c0-4.3,0-8.4,0-12.7
	C59.3,118,61.6,115.6,64.6,115.6L64.6,115.6z M94.3,115.6c4.3,0,8.6,0,12.9,0c2.7,0,5.3,2.3,5.3,5.3c0,4.3,0,8.4,0,12.7
	c0,2.9-2.5,5.3-5.3,5.3c-4.3,0-8.6,0-12.9,0c-2.9,0-5.3-2.3-5.3-5.3c0-4.3,0-8.4,0-12.7C89,118,91.3,115.6,94.3,115.6L94.3,115.6z
	 M124,115.6c4.3,0,8.4,0,12.7,0c2.9,0,5.3,2.3,5.3,5.3c0,4.3,0,8.4,0,12.7c0,2.9-2.3,5.3-5.3,5.3c-4.3,0-8.4,0-12.7,0
	c-2.9,0-5.3-2.3-5.3-5.3c0-4.3,0-8.4,0-12.7C118.7,118,121.1,115.6,124,115.6L124,115.6z M153.5,115.6c4.3,0,8.6,0,12.9,0
	c2.9,0,5.3,2.3,5.3,5.3c0,4.3,0,8.4,0,12.7c0,2.9-2.3,5.3-5.3,5.3c-4.3,0-8.6,0-12.9,0c-2.7,0-5.1-2.3-5.1-5.3c0-4.3,0-8.4,0-12.7
	C148.5,118,150.8,115.6,153.5,115.6L153.5,115.6z M183.3,115.6c4.3,0,8.6,0,12.9,0c2.9,0,5.3,2.3,5.3,5.3c0,4.3,0,8.4,0,12.7
	c0,2.9-2.3,5.3-5.3,5.3c-4.3,0-8.6,0-12.9,0c-2.9,0-5.3-2.3-5.3-5.3c0-4.3,0-8.4,0-12.7C178,118,180.3,115.6,183.3,115.6
	L183.3,115.6z M94.3,86.8c4.3,0,8.6,0,12.9,0c2.7,0,5.3,2.3,5.3,5.3c0,4.3,0,8.2,0,12.5c0,2.9-2.5,5.3-5.3,5.3c-4.3,0-8.6,0-12.9,0
	c-2.9,0-5.3-2.3-5.3-5.3c0-4.3,0-8.2,0-12.5C89,89.2,91.3,86.8,94.3,86.8L94.3,86.8z M124,86.8c4.3,0,8.4,0,12.7,0
	c2.9,0,5.3,2.3,5.3,5.3c0,4.3,0,8.2,0,12.5c0,2.9-2.3,5.3-5.3,5.3c-4.3,0-8.4,0-12.7,0c-2.9,0-5.3-2.3-5.3-5.3c0-4.3,0-8.2,0-12.5
	C118.7,89.2,121.1,86.8,124,86.8L124,86.8z M153.5,86.8c4.3,0,8.6,0,12.9,0c2.9,0,5.3,2.3,5.3,5.3c0,4.3,0,8.2,0,12.5
	c0,2.9-2.3,5.3-5.3,5.3c-4.3,0-8.6,0-12.9,0c-2.7,0-5.1-2.3-5.1-5.3c0-4.3,0-8.2,0-12.5C148.5,89.2,150.8,86.8,153.5,86.8
	L153.5,86.8z M64.6,57.9c4.3,0,8.6,0,12.9,0c2.9,0,5.3,2.3,5.3,5.3c0,4.1,0,8.4,0,12.7c0,2.9-2.3,5.3-5.3,5.3c-4.3,0-8.6,0-12.9,0
	c-2.9,0-5.3-2.3-5.3-5.3c0-4.3,0-8.6,0-12.7C59.3,60.2,61.6,57.9,64.6,57.9L64.6,57.9z M94.3,57.9c4.3,0,8.6,0,12.9,0
	c2.7,0,5.3,2.3,5.3,5.3c0,4.1,0,8.4,0,12.7c0,2.9-2.5,5.3-5.3,5.3c-4.3,0-8.6,0-12.9,0c-2.9,0-5.3-2.3-5.3-5.3c0-4.3,0-8.6,0-12.7
	C89,60.2,91.3,57.9,94.3,57.9L94.3,57.9z M124,57.9c4.3,0,8.4,0,12.7,0c2.9,0,5.3,2.3,5.3,5.3c0,4.1,0,8.4,0,12.7
	c0,2.9-2.3,5.3-5.3,5.3c-4.3,0-8.4,0-12.7,0c-2.9,0-5.3-2.3-5.3-5.3c0-4.3,0-8.6,0-12.7C118.7,60.2,121.1,57.9,124,57.9L124,57.9z
	 M153.5,57.9c4.3,0,8.6,0,12.9,0c2.9,0,5.3,2.3,5.3,5.3c0,4.1,0,8.4,0,12.7c0,2.9-2.3,5.3-5.3,5.3c-4.3,0-8.6,0-12.9,0
	c-2.7,0-5.1-2.3-5.1-5.3c0-4.3,0-8.6,0-12.7C148.5,60.2,150.8,57.9,153.5,57.9L153.5,57.9z M183.3,57.9c4.3,0,8.6,0,12.9,0
	c2.9,0,5.3,2.3,5.3,5.3c0,4.1,0,8.4,0,12.7c0,2.9-2.3,5.3-5.3,5.3c-4.3,0-8.6,0-12.9,0c-2.9,0-5.3-2.3-5.3-5.3c0-4.3,0-8.6,0-12.7
	C178,60.2,180.3,57.9,183.3,57.9L183.3,57.9z M34.8,29c4.3,0,8.6,0,12.9,0c2.9,0,5.3,2.3,5.3,5.3c0,4.1,0,8.4,0,12.7
	c0,2.9-2.3,5.3-5.3,5.3c-4.3,0-8.6,0-12.9,0c-2.7,0-5.3-2.3-5.3-5.3c0-4.3,0-8.6,0-12.7C29.5,31.3,32.1,29,34.8,29L34.8,29z
	 M64.6,29c4.3,0,8.6,0,12.9,0c2.9,0,5.3,2.3,5.3,5.3c0,4.1,0,8.4,0,12.7c0,2.9-2.3,5.3-5.3,5.3c-4.3,0-8.6,0-12.9,0
	c-2.9,0-5.3-2.3-5.3-5.3c0-4.3,0-8.6,0-12.7C59.3,31.3,61.6,29,64.6,29L64.6,29z M94.3,29c4.3,0,8.6,0,12.9,0c2.7,0,5.3,2.3,5.3,5.3
	c0,4.1,0,8.4,0,12.7c0,2.9-2.5,5.3-5.3,5.3c-4.3,0-8.6,0-12.9,0c-2.9,0-5.3-2.3-5.3-5.3c0-4.3,0-8.6,0-12.7C89,31.3,91.3,29,94.3,29
	L94.3,29z M153.5,29c4.3,0,8.6,0,12.9,0c2.9,0,5.3,2.3,5.3,5.3c0,4.1,0,8.4,0,12.7c0,2.9-2.3,5.3-5.3,5.3c-4.3,0-8.6,0-12.9,0
	c-2.7,0-5.1-2.3-5.1-5.3c0-4.3,0-8.6,0-12.7C148.5,31.3,150.8,29,153.5,29L153.5,29z M183.3,29c4.3,0,8.6,0,12.9,0
	c2.9,0,5.3,2.3,5.3,5.3c0,4.1,0,8.4,0,12.7c0,2.9-2.3,5.3-5.3,5.3c-4.3,0-8.6,0-12.9,0c-2.9,0-5.3-2.3-5.3-5.3c0-4.3,0-8.6,0-12.7
	C178,31.3,180.3,29,183.3,29L183.3,29z M213,29c4.3,0,8.6,0,12.9,0c2.7,0,5.3,2.3,5.3,5.3c0,4.1,0,8.4,0,12.7c0,2.9-2.5,5.3-5.3,5.3
	c-4.3,0-8.6,0-12.9,0c-2.9,0-5.3-2.3-5.3-5.3c0-4.3,0-8.6,0-12.7C207.7,31.3,210.1,29,213,29z"/>
</svg>
