<?xml version="1.0" encoding="UTF-8" standalone="no"?>
<!DOCTYPE svg PUBLIC "-//W3C//DTD SVG 1.1//EN" "http://www.w3.org/Graphics/SVG/1.1/DTD/svg11.dtd">
<svg width="100%" height="100%" viewBox="0 0 50 50" version="1.1" xmlns="http://www.w3.org/2000/svg" xmlns:xlink="http://www.w3.org/1999/xlink" xml:space="preserve" style="fill-rule:evenodd;clip-rule:evenodd;stroke-linejoin:round;stroke-miterlimit:1.41421;">
    <g id="Layer_1-2">
        <path d="M24.57,5.41L41.72,22.57L24.57,39.72L7.41,22.57L24.57,5.41M24.57,4L6,22.57L24.57,41.13L43.13,22.57L24.57,4Z" style="fill:url(#_Linear1);fill-rule:nonzero;"/>
        <rect x="24.06" y="14.02" width="1" height="17.1" style="fill:url(#_Linear2);"/>
        <path d="M19.53,28.16L13.94,22.57L19.53,16.98L20.23,17.68L15.35,22.57L20.23,27.45L19.53,28.16Z" style="fill:url(#_Linear3);fill-rule:nonzero;"/>
        <path d="M29.6,28.16L28.89,27.45L33.78,22.57L28.89,17.68L29.6,16.98L35.19,22.57L29.6,28.16Z" style="fill:url(#_Linear4);fill-rule:nonzero;"/>
    </g>
    <defs>
        <linearGradient id="_Linear1" x1="0" y1="0" x2="1" y2="0" gradientUnits="userSpaceOnUse" gradientTransform="matrix(6.79679e-15,111,-111,6.79679e-15,24.57,-35.62)"><stop offset="0%" style="stop-color:rgb(250,226,164);stop-opacity:1"/><stop offset="100%" style="stop-color:rgb(181,138,45);stop-opacity:1"/></linearGradient>
        <linearGradient id="_Linear2" x1="0" y1="0" x2="1" y2="0" gradientUnits="userSpaceOnUse" gradientTransform="matrix(6.79679e-15,111,-111,6.79679e-15,24.56,-35.62)"><stop offset="0%" style="stop-color:rgb(250,226,164);stop-opacity:1"/><stop offset="100%" style="stop-color:rgb(181,138,45);stop-opacity:1"/></linearGradient>
        <linearGradient id="_Linear3" x1="0" y1="0" x2="1" y2="0" gradientUnits="userSpaceOnUse" gradientTransform="matrix(6.79679e-15,111,-111,6.79679e-15,17.08,-35.62)"><stop offset="0%" style="stop-color:rgb(250,226,164);stop-opacity:1"/><stop offset="100%" style="stop-color:rgb(181,138,45);stop-opacity:1"/></linearGradient>
        <linearGradient id="_Linear4" x1="0" y1="0" x2="1" y2="0" gradientUnits="userSpaceOnUse" gradientTransform="matrix(6.79679e-15,111,-111,6.79679e-15,32.04,-35.62)"><stop offset="0%" style="stop-color:rgb(250,226,164);stop-opacity:1"/><stop offset="100%" style="stop-color:rgb(181,138,45);stop-opacity:1"/></linearGradient>
    </defs>
</svg>
