<svg xmlns="http://www.w3.org/2000/svg" xmlns:xlink="http://www.w3.org/1999/xlink" viewBox="0 0 315.33 22.56"><defs><style>.cls-1{opacity:0.5;}.cls-2{fill:url(#linear-gradient);}.cls-3{fill:url(#linear-gradient-2);}.cls-4{fill:url(#linear-gradient-3);}</style><linearGradient id="linear-gradient" y1="10.28" x2="111.88" y2="10.28" gradientUnits="userSpaceOnUse"><stop offset="0" stop-color="#fae2a4"/><stop offset="1" stop-color="#b58a2d"/></linearGradient><linearGradient id="linear-gradient-2" x1="79.87" y1="13.76" x2="315.33" y2="13.76" xlink:href="#linear-gradient"/><linearGradient id="linear-gradient-3" x1="78.49" y1="6.22" x2="236.84" y2="6.22" xlink:href="#linear-gradient"/></defs><title>Asset 5</title><g id="Layer_2" data-name="Layer 2"><g id="Layer_1-2" data-name="Layer 1"><g class="cls-1"><path class="cls-2" d="M55.94,14.46C41,14.46,27,14,16.46,13.27,5.54,12.48,0,11.47,0,10.28s5.54-2.2,16.46-3C27,6.52,41,6.1,55.94,6.1s28.93.42,39.47,1.19c10.92.79,16.46,1.8,16.46,3s-5.54,2.2-16.46,3C84.87,14,70.85,14.46,55.94,14.46Zm0-8.12C22.63,6.35.25,8.38.25,10.28s22.38,3.93,55.69,3.93,55.69-2,55.69-3.93S89.25,6.35,55.94,6.35Z"/></g><g class="cls-1"><path class="cls-3" d="M197.6,22.56c-31.39,0-60.89-.89-83.09-2.5-15.8-1.15-34.64-3.17-34.64-6.29s18.84-5.14,34.64-6.29C136.71,5.86,166.22,5,197.6,5s60.89.89,83.09,2.5c15.8,1.15,34.64,3.17,34.64,6.29s-18.84,5.14-34.64,6.29C258.5,21.67,229,22.56,197.6,22.56Zm0-17.09c-70.12,0-117.23,4.29-117.23,8.29s47.11,8.29,117.23,8.29,117.23-4.29,117.23-8.29S267.72,5.47,197.6,5.47Z"/></g><path class="cls-4" d="M157.67,12.44c-21,0-40.8-.6-55.67-1.68C78.49,9.06,78.49,7,78.49,6.22s0-2.83,23.51-4.54C116.87.6,136.64,0,157.67,0s40.8.6,55.67,1.68c23.51,1.71,23.51,3.77,23.51,4.54s0,2.83-23.51,4.54C198.46,11.85,178.69,12.44,157.67,12.44Zm0-11.44C108.49,1,80.22,4.1,79.49,6.24c.74,2.11,29,5.21,78.18,5.21S235,8.36,235.84,6.22C235,4.08,206.71,1,157.67,1Z"/></g></g></svg>